{
  "asset" : {
    "generator" : "UE Viewer (umodel) build 1575",
    "version" : "2.0"
  },
  "scene" : 0,
  "scenes" : [
    {
      "nodes" : [ 0 ]
    }
  ],
  "nodes" : [
    {
      "name" : "SKL_BE_Flag",
      "mesh" : 0,
      "skin" : 0,
      "children" : [ 1 ]
    },
    {
      "name" : "Root_BE_Flag",
      "children" : [ 2 ],
      "translation" : [ 0, 0, -0 ],
      "rotation" : [ 9.93196e-08, 0.707107, 1.14221e-07, -0.707107 ]
    },
    {
      "name" : "Cloth_BE_Flag",
      "children" : [ 3, 14, 25, 26 ],
      "translation" : [ -1.7928e-10, 1.29157, -2.86844e-09 ],
      "rotation" : [ -8.74228e-08, 8.55208e-16, 3.97047e-23, -1 ]
    },
    {
      "name" : "R_BE_Flag_Flap00",
      "children" : [ 4 ],
      "translation" : [ 0.00250001, 0.0216452, 0.187174 ],
      "rotation" : [ -0.707107, -0.707107, -2.80607e-09, -1.82673e-08 ]
    },
    {
      "name" : "R_BE_Flag_Flap01",
      "children" : [ 5 ],
      "translation" : [ 0, 0, -0 ],
      "rotation" : [ -1.49012e-08, -7.45058e-08, -1.49012e-08, -1 ]
    },
    {
      "name" : "R_BE_Flag_Flap02",
      "children" : [ 6 ],
      "translation" : [ -0.0727287, 2.08616e-09, -0 ],
      "rotation" : [ 2.23517e-08, -7.45058e-09, 2.23517e-08, -1 ]
    },
    {
      "name" : "R_BE_Flag_Flap03",
      "children" : [ 7 ],
      "translation" : [ -0.0727288, -5.96046e-10, -0 ],
      "rotation" : [ 1.11022e-15, -0, 0, -1 ]
    },
    {
      "name" : "R_BE_Flag_Flap04",
      "children" : [ 8 ],
      "translation" : [ -0.0440208, -2.38419e-09, -0 ],
      "rotation" : [ 1.11022e-15, -0, 0, -1 ]
    },
    {
      "name" : "R_BE_Flag_Flap05",
      "children" : [ 9 ],
      "translation" : [ -0.0440207, -2.68221e-09, -0 ],
      "rotation" : [ 1.11022e-15, -0, 0, -1 ]
    },
    {
      "name" : "R_BE_Flag_Flap06",
      "children" : [ 10 ],
      "translation" : [ -0.0440207, -2.68221e-09, -0 ],
      "rotation" : [ 1.11022e-15, -0, 0, -1 ]
    },
    {
      "name" : "R_BE_Flag_Flap07",
      "children" : [ 11 ],
      "translation" : [ -0.0440208, -1.78814e-09, -0 ],
      "rotation" : [ 1.11022e-15, -0, 0, -1 ]
    },
    {
      "name" : "R_BE_Flag_Flap08",
      "children" : [ 12 ],
      "translation" : [ -0.0440208, -2.98023e-10, -0 ],
      "rotation" : [ -6.76622e-08, -2.0441e-08, -0.0283613, -0.999598 ]
    },
    {
      "name" : "R_BE_Flag_Flap09",
      "children" : [ 13 ],
      "translation" : [ -0.0440917, 1.09673e-07, -1.46866e-06 ],
      "rotation" : [ -4.73856e-07, -1.61757e-05, 0.0283601, -0.999598 ]
    },
    {
      "name" : "R_BE_Flag_Flap10",
      "translation" : [ -0.0440208, 4.91855e-10, 1.90735e-08 ],
      "rotation" : [ 1.49004e-08, 1.57505e-05, 1.20699e-06, -1 ]
    },
    {
      "name" : "L_BE_Flag_Flap00",
      "children" : [ 15 ],
      "translation" : [ 0.00250001, 0.0216452, -0.186417 ],
      "rotation" : [ -2.80607e-09, 6.04142e-08, 0.707107, -0.707107 ]
    },
    {
      "name" : "L_BE_Flag_Flap01",
      "children" : [ 16 ],
      "translation" : [ 0, 3.8147e-08, 1.90735e-08 ],
      "rotation" : [ -1.49012e-08, -1.04308e-07, -4.47035e-08, -1 ]
    },
    {
      "name" : "L_BE_Flag_Flap02",
      "children" : [ 17 ],
      "translation" : [ 0.0727287, -2.98023e-09, -0 ],
      "rotation" : [ -7.45058e-09, -2.23517e-08, -2.23517e-08, -1 ]
    },
    {
      "name" : "L_BE_Flag_Flap03",
      "children" : [ 18 ],
      "translation" : [ 0.0727288, -4.47035e-09, -0 ],
      "rotation" : [ -4.66293e-15, -0, 0, -1 ]
    },
    {
      "name" : "L_BE_Flag_Flap04",
      "children" : [ 19 ],
      "translation" : [ 0.0440208, -8.9407e-10, -0 ],
      "rotation" : [ -4.66293e-15, -0, 0, -1 ]
    },
    {
      "name" : "L_BE_Flag_Flap05",
      "children" : [ 20 ],
      "translation" : [ 0.0440207, -2.98023e-10, 1.90735e-08 ],
      "rotation" : [ -4.66293e-15, -0, 0, -1 ]
    },
    {
      "name" : "L_BE_Flag_Flap06",
      "children" : [ 21 ],
      "translation" : [ 0.0440207, -5.96046e-10, -0 ],
      "rotation" : [ -4.66293e-15, -0, 0, -1 ]
    },
    {
      "name" : "L_BE_Flag_Flap07",
      "children" : [ 22 ],
      "translation" : [ 0.0440208, -1.19209e-09, -0 ],
      "rotation" : [ -4.66293e-15, -0, 0, -1 ]
    },
    {
      "name" : "L_BE_Flag_Flap08",
      "children" : [ 23 ],
      "translation" : [ 0.0440208, -2.98023e-09, -0 ],
      "rotation" : [ 1.46839e-08, -7.04092e-08, -0.0283612, -0.999598 ]
    },
    {
      "name" : "L_BE_Flag_Flap09",
      "children" : [ 24 ],
      "translation" : [ 0.0440916, -1.09673e-07, 1.48773e-06 ],
      "rotation" : [ -5.25991e-07, -1.61117e-05, 0.02836, -0.999598 ]
    },
    {
      "name" : "L_BE_Flag_Flap10",
      "translation" : [ 0.0440208, -1.19209e-09, -1.90735e-08 ],
      "rotation" : [ 5.21557e-08, 1.57356e-05, 1.22934e-06, -1 ]
    },
    {
      "name" : "R_Cloth_BE_Flag",
      "translation" : [ 2.41094e-08, -0.311901, 3.53255e-07 ],
      "rotation" : [ -0.5, -0.5, 0.5, -0.5 ]
    },
    {
      "name" : "L_Cloth_BE_Flag",
      "translation" : [ 2.41094e-08, -0.311901, 3.53255e-07 ],
      "rotation" : [ -0.5, -0.5, 0.5, -0.5 ]
    }
  ],
  "skins" : [
    {
      "inverseBindMatrices" : 0,
      "skeleton" : 1,
      "joints" : [
        1,2,3,4,5,6,7,8,9,10,11,12,13,14,15,16,17,18,19,20,21,22,23,24,25,26
      ]
    }
  ],
  "materials" : [
    {
      "name" : "BE_Flag_NRM01_Mat",
      "pbrMetallicRoughness" : {
        "baseColorFactor" : [ 0.3, 0.3, 0.3, 1.0 ],
        "metallicFactor" : 0.1,
        "roughnessFactor" : 0.5
      }
    }
  ],
  "meshes" : [
    {
      "primitives" : [
        {
          "attributes" : {
            "POSITION" : 2,
            "NORMAL" : 3,
            "TANGENT" : 4,
            "JOINTS_0" : 5,
            "WEIGHTS_0" : 6,
            "TEXCOORD_0" : 7
          },
          "indices" : 1,
          "material" : 0
        }
      ],
      "name" : "SKL_BE_Flag"
    }
  ],
  "buffers" : [
    {
      "uri" : "SKL_BE_Flag.bin",
      "byteLength" : 204260
    }
  ],
  "bufferViews" : [
    {
      "buffer" : 0,
      "byteOffset" : 0,
      "byteLength" : 1664
    },
    {
      "buffer" : 0,
      "byteOffset" : 1664,
      "byteLength" : 17796
    },
    {
      "buffer" : 0,
      "byteOffset" : 19460,
      "byteLength" : 36960
    },
    {
      "buffer" : 0,
      "byteOffset" : 56420,
      "byteLength" : 36960
    },
    {
      "buffer" : 0,
      "byteOffset" : 93380,
      "byteLength" : 49280
    },
    {
      "buffer" : 0,
      "byteOffset" : 142660,
      "byteLength" : 24640
    },
    {
      "buffer" : 0,
      "byteOffset" : 167300,
      "byteLength" : 12320
    },
    {
      "buffer" : 0,
      "byteOffset" : 179620,
      "byteLength" : 24640
    }
  ],
  "accessors" : [
    {
      "bufferView" : 0,
      "componentType" : 5126,
      "count" : 26,
      "type" : "MAT4"
    },
    {
      "bufferView" : 1,
      "componentType" : 5123,
      "count" : 8898,
      "type" : "SCALAR"
    },
    {
      "bufferView" : 2,
      "min" : [ -0.258257, -0.0204171, -0.0518121 ],
      "max" : [ 0.257501, 1.50307, 0.0518121 ],
      "componentType" : 5126,
      "count" : 3080,
      "type" : "VEC3"
    },
    {
      "bufferView" : 3,
      "componentType" : 5126,
      "count" : 3080,
      "type" : "VEC3"
    },
    {
      "bufferView" : 4,
      "componentType" : 5126,
      "count" : 3080,
      "type" : "VEC4"
    },
    {
      "bufferView" : 5,
      "componentType" : 5123,
      "count" : 3080,
      "type" : "VEC4"
    },
    {
      "bufferView" : 6,
      "normalized" : true,
      "componentType" : 5121,
      "count" : 3080,
      "type" : "VEC4"
    },
    {
      "bufferView" : 7,
      "componentType" : 5126,
      "count" : 3080,
      "type" : "VEC2"
    }
  ]
}
