{
  "asset" : {
    "generator" : "UE Viewer (umodel) build 1575",
    "version" : "2.0"
  },
  "scene" : 0,
  "scenes" : [
    {
      "nodes" : [ 0 ]
    }
  ],
  "nodes" : [
    {
      "name" : "ASE_WEP_EFX_MeleeStunArcA00",
      "mesh" : 0
    }
  ],
  "materials" : [
    {
      "name" : "MAT_WEP_EFX_StunArcA",
      "pbrMetallicRoughness" : {
        "baseColorFactor" : [ 0.3, 0.3, 0.3, 1.0 ],
        "metallicFactor" : 0.1,
        "roughnessFactor" : 0.5
      }
    }
  ],
  "meshes" : [
    {
      "primitives" : [
        {
          "attributes" : {
            "POSITION" : 1,
            "NORMAL" : 2,
            "TANGENT" : 3,
            "TEXCOORD_0" : 4
          },
          "indices" : 0,
          "material" : 0
        }
      ],
      "name" : "ASE_WEP_EFX_MeleeStunArcA00"
    }
  ],
  "buffers" : [
    {
      "uri" : "ASE_WEP_EFX_MeleeStunArcA00.bin",
      "byteLength" : 2784
    }
  ],
  "bufferViews" : [
    {
      "buffer" : 0,
      "byteOffset" : 0,
      "byteLength" : 288
    },
    {
      "buffer" : 0,
      "byteOffset" : 288,
      "byteLength" : 624
    },
    {
      "buffer" : 0,
      "byteOffset" : 912,
      "byteLength" : 624
    },
    {
      "buffer" : 0,
      "byteOffset" : 1536,
      "byteLength" : 832
    },
    {
      "buffer" : 0,
      "byteOffset" : 2368,
      "byteLength" : 416
    }
  ],
  "accessors" : [
    {
      "bufferView" : 0,
      "componentType" : 5123,
      "count" : 144,
      "type" : "SCALAR"
    },
    {
      "bufferView" : 1,
      "min" : [ -0.388125, -0.146639, -0.383697 ],
      "max" : [ 0.386667, -0.062499, 0.246827 ],
      "componentType" : 5126,
      "count" : 52,
      "type" : "VEC3"
    },
    {
      "bufferView" : 2,
      "componentType" : 5126,
      "count" : 52,
      "type" : "VEC3"
    },
    {
      "bufferView" : 3,
      "componentType" : 5126,
      "count" : 52,
      "type" : "VEC4"
    },
    {
      "bufferView" : 4,
      "componentType" : 5126,
      "count" : 52,
      "type" : "VEC2"
    }
  ]
}
