{
  "asset" : {
    "generator" : "UE Viewer (umodel) build 1575",
    "version" : "2.0"
  },
  "scene" : 0,
  "scenes" : [
    {
      "nodes" : [ 0 ]
    }
  ],
  "nodes" : [
    {
      "name" : "SKL_Hands",
      "mesh" : 0,
      "skin" : 0,
      "children" : [ 1 ]
    },
    {
      "name" : "Root",
      "children" : [ 2, 82, 83 ],
      "translation" : [ 0.0179208, -0.128046, -5.66244e-09 ],
      "rotation" : [ -0, 0.707107, 0, -0.707107 ]
    },
    {
      "name" : "Spine3",
      "children" : [ 3 ],
      "translation" : [ 3.57628e-09, 0, -0 ],
      "rotation" : [ -0.0764528, 0.076455, -0.702961, -0.702962 ]
    },
    {
      "name" : "Neck",
      "children" : [ 4, 43 ],
      "translation" : [ 0.071601, 8.75675e-09, -0.000436652 ],
      "rotation" : [ -4.10701e-07, -0.219934, -6.6563e-07, -0.975515 ]
    },
    {
      "name" : "L_Clavicle",
      "children" : [ 5 ],
      "translation" : [ 0.00214968, 0.0212039, 0.00150467 ],
      "rotation" : [ -0.687085, -0.687086, -0.167073, -0.167074 ]
    },
    {
      "name" : "L_UpperArm",
      "children" : [ 6 ],
      "translation" : [ 0.104212, 3.62396e-07, -3.40939e-07 ],
      "rotation" : [ -0.0105974, -0.0684809, 0.0641917, -0.995529 ]
    },
    {
      "name" : "L_Forearm",
      "children" : [ 7, 38, 39, 40, 41, 42 ],
      "translation" : [ 0.104812, -8.58307e-08, -1.07288e-08 ],
      "rotation" : [ 7.65355e-09, 0.161433, 5.67332e-10, -0.986884 ]
    },
    {
      "name" : "L_Hand",
      "children" : [ 8, 14, 20, 26, 32 ],
      "translation" : [ 0.162085, -1.71661e-07, -3.8147e-08 ],
      "rotation" : [ 0.595451, -0.0316584, -0.0850953, -0.798245 ]
    },
    {
      "name" : "L_Finger0",
      "children" : [ 9, 13 ],
      "translation" : [ 0.00392216, -0.00805421, -0.00795342 ],
      "rotation" : [ -0.568629, 0.189233, 0.420309, -0.681316 ]
    },
    {
      "name" : "L_Finger01",
      "children" : [ 10, 12 ],
      "translation" : [ 0.0385584, -6.67572e-08, -1.14441e-07 ],
      "rotation" : [ 2.38359e-07, -0.212557, -3.0705e-08, -0.977149 ]
    },
    {
      "name" : "L_Finger02",
      "children" : [ 11 ],
      "translation" : [ 0.0252957, 1.33514e-07, 4.76837e-08 ],
      "rotation" : [ -2.12223e-08, -0.117443, 2.11033e-08, -0.99308 ]
    },
    {
      "name" : "L_Finger02_ftw",
      "translation" : [ -0.00307423, 0.000346518, -0.0120382 ],
      "rotation" : [ -0.0525245, 0.130168, 0.000108045, -0.9901 ]
    },
    {
      "name" : "L_Finger01_ftw",
      "translation" : [ -0.00915916, 0.00025197, -0.0205262 ],
      "rotation" : [ -0.0517121, 0.159642, -0.00996581, -0.985769 ]
    },
    {
      "name" : "L_Finger00_ftw",
      "translation" : [ -0.00508238, 0.000395946, -0.0225158 ],
      "rotation" : [ -0.0975611, 0.138225, -0.0110595, -0.985522 ]
    },
    {
      "name" : "L_Finger1",
      "children" : [ 15, 19 ],
      "translation" : [ 0.061853, -0.0187766, 0.00337526 ],
      "rotation" : [ -0.0265027, -0.232991, 0.155221, -0.959645 ]
    },
    {
      "name" : "L_Finger11",
      "children" : [ 16, 18 ],
      "translation" : [ 0.0298816, 4.76837e-08, 1.23978e-07 ],
      "rotation" : [ -2.06787e-08, -0.22383, 2.60576e-08, -0.974628 ]
    },
    {
      "name" : "L_Finger12",
      "children" : [ 17 ],
      "translation" : [ 0.0182841, -8.58307e-08, -3.8147e-08 ],
      "rotation" : [ 3.88248e-08, -0.19078, 2.14886e-08, -0.981633 ]
    },
    {
      "name" : "L_Finger12_ftw",
      "translation" : [ -0.00359484, -0.000149908, -0.0106481 ],
      "rotation" : [ -0.699365, 0.0805211, -0.0825901, -0.705396 ]
    },
    {
      "name" : "L_Finger11_ftw",
      "translation" : [ -0.00142834, -0.000242758, -0.0121435 ],
      "rotation" : [ -0.696412, 0.0980267, -0.10214, -0.70354 ]
    },
    {
      "name" : "L_Finger10_ftw",
      "translation" : [ 0.00223675, -0.000466442, -0.0211877 ],
      "rotation" : [ -0.682524, 0.164731, -0.169388, -0.691616 ]
    },
    {
      "name" : "L_Finger2",
      "children" : [ 21, 25 ],
      "translation" : [ 0.0665343, -0.00351853, 0.00380265 ],
      "rotation" : [ 0.00280525, -0.33303, 0.0418499, -0.941983 ]
    },
    {
      "name" : "L_Finger21",
      "children" : [ 22, 24 ],
      "translation" : [ 0.0318591, -1.07288e-07, -3.8147e-08 ],
      "rotation" : [ -3.618e-08, -0.31277, 5.07369e-09, -0.949829 ]
    },
    {
      "name" : "L_Finger22",
      "children" : [ 23 ],
      "translation" : [ 0.0204567, 1.12057e-07, -1.90735e-07 ],
      "rotation" : [ -1.26956e-08, -0.301585, 3.44047e-09, -0.953439 ]
    },
    {
      "name" : "L_Finger22_ftw",
      "translation" : [ -0.00306762, 0.000396621, -0.012779 ],
      "rotation" : [ -0.703147, 0.127628, -0.119786, -0.689164 ]
    },
    {
      "name" : "L_Finger21_ftw",
      "translation" : [ -0.00270863, 0.000398943, -0.0148805 ],
      "rotation" : [ -0.694303, 0.151917, -0.153533, -0.686508 ]
    },
    {
      "name" : "L_Finger20_ftw",
      "translation" : [ 0.00509979, -0.00040575, -0.0225704 ],
      "rotation" : [ -0.65339, 0.219362, -0.239057, -0.683969 ]
    },
    {
      "name" : "L_Finger3",
      "children" : [ 27, 31 ],
      "translation" : [ 0.0637385, 0.0114092, 0.000900421 ],
      "rotation" : [ 0.021452, -0.339428, -0.0649067, -0.938145 ]
    },
    {
      "name" : "L_Finger31",
      "children" : [ 28, 30 ],
      "translation" : [ 0.0302914, -1.28746e-07, -1.90735e-08 ],
      "rotation" : [ 0.0034822, -0.310127, -0.0131982, -0.950597 ]
    },
    {
      "name" : "L_Finger32",
      "children" : [ 29 ],
      "translation" : [ 0.0196626, 8.58307e-08, 3.8147e-08 ],
      "rotation" : [ -0.00081356, -0.316612, 0.00290506, -0.94855 ]
    },
    {
      "name" : "L_Finger32_ftw",
      "translation" : [ -0.00451917, -0.000368485, -0.0137257 ],
      "rotation" : [ -0.669681, 0.140128, -0.134112, -0.716872 ]
    },
    {
      "name" : "L_Finger31_ftw",
      "translation" : [ -0.00580097, 3.32117e-05, -0.0157693 ],
      "rotation" : [ -0.664939, 0.188954, -0.163294, -0.703909 ]
    },
    {
      "name" : "L_Finger30_ftw",
      "translation" : [ 0.00266171, -0.00216332, -0.0240076 ],
      "rotation" : [ -0.606612, 0.265567, -0.30096, -0.686236 ]
    },
    {
      "name" : "L_Finger4",
      "children" : [ 33, 37 ],
      "translation" : [ 0.0575308, 0.025979, -0.00299861 ],
      "rotation" : [ 0.0673868, -0.349038, -0.147182, -0.923022 ]
    },
    {
      "name" : "L_Finger41",
      "children" : [ 34, 36 ],
      "translation" : [ 0.0229431, -8.58307e-08, -7.62939e-08 ],
      "rotation" : [ 0.000249843, -0.282935, -0.00090144, -0.959139 ]
    },
    {
      "name" : "L_Finger42",
      "children" : [ 35 ],
      "translation" : [ 0.0138554, 6.67572e-08, -3.8147e-08 ],
      "rotation" : [ -1.34819e-08, -0.284729, 1.5124e-08, -0.958608 ]
    },
    {
      "name" : "L_Finger42_ftw",
      "translation" : [ -0.00261703, -0.000289822, -0.0114382 ],
      "rotation" : [ -0.656508, 0.144682, -0.13232, -0.728393 ]
    },
    {
      "name" : "L_Finger41_ftw",
      "translation" : [ -0.00461775, -0.000332031, -0.0160345 ],
      "rotation" : [ -0.634821, 0.240841, -0.220719, -0.700201 ]
    },
    {
      "name" : "L_Finger40_ftw",
      "translation" : [ 0.00261883, -0.000593481, -0.0229762 ],
      "rotation" : [ -0.594125, 0.345968, -0.33087, -0.646411 ]
    },
    {
      "name" : "L_ForearmTwist01",
      "translation" : [ 0.0183996, -6.91414e-08, -4.76837e-09 ],
      "rotation" : [ -0.0284436, -1.50427e-08, -1.07608e-08, -0.999595 ]
    },
    {
      "name" : "L_ForearmTwist02",
      "translation" : [ 0.0433996, -2.14577e-08, 9.53674e-09 ],
      "rotation" : [ -0.0568643, -8.87974e-08, 7.14947e-10, -0.998382 ]
    },
    {
      "name" : "L_ForearmTwist03",
      "translation" : [ 0.0683997, -4.05312e-08, 4.76837e-09 ],
      "rotation" : [ -0.0852389, -3.69158e-08, -2.92781e-09, -0.996361 ]
    },
    {
      "name" : "L_ForearmTwist04",
      "translation" : [ 0.0934601, -5.48363e-08, -0 ],
      "rotation" : [ -0.113545, -1.58276e-08, -8.73091e-09, -0.993533 ]
    },
    {
      "name" : "L_ForearmTwist05",
      "translation" : [ 0.118714, -1.19209e-07, -0 ],
      "rotation" : [ -0.14035, -1.41444e-08, -4.0968e-09, -0.990102 ]
    },
    {
      "name" : "R_Clavicle",
      "children" : [ 44 ],
      "translation" : [ 0.00214969, -0.0212039, 0.00150456 ],
      "rotation" : [ -0.689682, 0.689681, -0.156012, 0.156011 ]
    },
    {
      "name" : "R_UpperArm",
      "children" : [ 45 ],
      "translation" : [ 0.104212, 2.86102e-07, 3.67165e-07 ],
      "rotation" : [ -0.00539983, -0.0674371, -0.065287, -0.995571 ]
    },
    {
      "name" : "R_Forearm",
      "children" : [ 46, 77, 78, 79, 80, 81 ],
      "translation" : [ 0.104812, 2.38419e-08, 8.34465e-09 ],
      "rotation" : [ 4.27781e-09, 0.161434, -4.27781e-09, -0.986884 ]
    },
    {
      "name" : "R_Hand",
      "children" : [ 47, 53, 59, 65, 71 ],
      "translation" : [ 0.162085, 1.33514e-07, 2.38419e-08 ],
      "rotation" : [ -0.595451, -0.0316586, 0.0850952, -0.798245 ]
    },
    {
      "name" : "R_Finger0",
      "children" : [ 48, 52 ],
      "translation" : [ 0.00392246, 0.00805398, -0.00795318 ],
      "rotation" : [ 0.568629, 0.189233, -0.420309, -0.681316 ]
    },
    {
      "name" : "R_Finger01",
      "children" : [ 49, 51 ],
      "translation" : [ 0.0385583, 1.71661e-07, 2.86102e-07 ],
      "rotation" : [ -4.8114e-08, -0.212557, 2.216e-08, -0.977149 ]
    },
    {
      "name" : "R_Finger02",
      "children" : [ 50 ],
      "translation" : [ 0.0252957, -1.14441e-07, -1.04904e-07 ],
      "rotation" : [ 2.31219e-08, -0.117443, 1.46887e-08, -0.99308 ]
    },
    {
      "name" : "R_Finger02_ftw",
      "translation" : [ -0.00312527, -0.000389242, -0.0119718 ],
      "rotation" : [ -0.0474756, 0.12786, -0.0139903, -0.990557 ]
    },
    {
      "name" : "R_Finger01_ftw",
      "translation" : [ -0.00925392, -0.000341148, -0.0202348 ],
      "rotation" : [ -0.0531016, 0.156114, -0.00759499, -0.986281 ]
    },
    {
      "name" : "R_Finger00_ftw",
      "translation" : [ 0.00249662, -0.000807333, -0.0165525 ],
      "rotation" : [ -0.992767, -0.00643952, -0.0525149, -0.107772 ]
    },
    {
      "name" : "R_Finger1",
      "children" : [ 54, 58 ],
      "translation" : [ 0.0618533, 0.0187765, 0.00337541 ],
      "rotation" : [ 0.0265025, -0.232991, -0.155221, -0.959645 ]
    },
    {
      "name" : "R_Finger11",
      "children" : [ 55, 57 ],
      "translation" : [ 0.0298815, 5.72205e-08, -3.8147e-08 ],
      "rotation" : [ -3.32974e-08, -0.22383, 3.61497e-08, -0.974628 ]
    },
    {
      "name" : "R_Finger12",
      "children" : [ 56 ],
      "translation" : [ 0.018284, -2.86102e-08, 7.62939e-08 ],
      "rotation" : [ 5.34258e-08, -0.19078, 9.24638e-08, -0.981633 ]
    },
    {
      "name" : "R_Finger12_ftw",
      "translation" : [ -0.00359119, -0.000107756, -0.0106568 ],
      "rotation" : [ -0.697922, 0.0776133, -0.0867908, -0.706645 ]
    },
    {
      "name" : "R_Finger11_ftw",
      "translation" : [ -0.00142265, -0.000247688, -0.012138 ],
      "rotation" : [ -0.695984, 0.0964486, -0.103046, -0.704049 ]
    },
    {
      "name" : "R_Finger10_ftw",
      "translation" : [ 0.00227222, 0.000137959, -0.0210999 ],
      "rotation" : [ -0.657129, 0.178767, -0.152642, -0.716187 ]
    },
    {
      "name" : "R_Finger2",
      "children" : [ 60, 64 ],
      "translation" : [ 0.0665344, 0.00351816, 0.00380287 ],
      "rotation" : [ -0.00280526, -0.33303, -0.0418501, -0.941983 ]
    },
    {
      "name" : "R_Finger21",
      "children" : [ 61, 63 ],
      "translation" : [ 0.0318591, -4.76837e-09, -1.90735e-08 ],
      "rotation" : [ -3.2165e-08, -0.31277, 9.66283e-08, -0.949829 ]
    },
    {
      "name" : "R_Finger22",
      "children" : [ 62 ],
      "translation" : [ 0.0204568, 2.38419e-09, 1.14441e-07 ],
      "rotation" : [ -6.83818e-08, -0.301585, -1.92669e-07, -0.953439 ]
    },
    {
      "name" : "R_Finger22_ftw",
      "translation" : [ -0.00306339, -0.000172157, -0.0127771 ],
      "rotation" : [ -0.697611, 0.118718, -0.128729, -0.694748 ]
    },
    {
      "name" : "R_Finger21_ftw",
      "translation" : [ -0.0027095, -4.21715e-05, -0.0148815 ],
      "rotation" : [ -0.69567, 0.154738, -0.150659, -0.685128 ]
    },
    {
      "name" : "R_Finger20_ftw",
      "translation" : [ 0.00491344, -0.000122266, -0.0225578 ],
      "rotation" : [ -0.632616, 0.237502, -0.216013, -0.704789 ]
    },
    {
      "name" : "R_Finger3",
      "children" : [ 66, 70 ],
      "translation" : [ 0.0637387, -0.0114093, 0.000900645 ],
      "rotation" : [ -0.021452, -0.339427, 0.0649066, -0.938145 ]
    },
    {
      "name" : "R_Finger31",
      "children" : [ 67, 69 ],
      "translation" : [ 0.0302914, 9.53674e-09, 9.53674e-08 ],
      "rotation" : [ -0.0034824, -0.310127, 0.0131983, -0.950597 ]
    },
    {
      "name" : "R_Finger32",
      "children" : [ 68 ],
      "translation" : [ 0.0196626, 1.43051e-08, -2.28882e-07 ],
      "rotation" : [ 0.000813664, -0.316612, -0.00290503, -0.94855 ]
    },
    {
      "name" : "R_Finger32_ftw",
      "translation" : [ -0.00472986, 0.000254788, -0.0137071 ],
      "rotation" : [ -0.671517, 0.138261, -0.127945, -0.716644 ]
    },
    {
      "name" : "R_Finger31_ftw",
      "translation" : [ -0.00595003, 0.00042511, -0.0156596 ],
      "rotation" : [ -0.665612, 0.187376, -0.166427, -0.70296 ]
    },
    {
      "name" : "R_Finger30_ftw",
      "translation" : [ 0.00249084, 0.00101888, -0.0240241 ],
      "rotation" : [ -0.631458, 0.294357, -0.271564, -0.663979 ]
    },
    {
      "name" : "R_Finger4",
      "children" : [ 72, 76 ],
      "translation" : [ 0.0575311, -0.0259792, -0.00299847 ],
      "rotation" : [ -0.0673868, -0.349038, 0.147182, -0.923022 ]
    },
    {
      "name" : "R_Finger41",
      "children" : [ 73, 75 ],
      "translation" : [ 0.0229431, 1.71661e-07, -7.62939e-08 ],
      "rotation" : [ -0.000249845, -0.282935, 0.000901398, -0.959139 ]
    },
    {
      "name" : "R_Finger42",
      "children" : [ 74 ],
      "translation" : [ 0.0138554, -9.53674e-08, -1.90735e-07 ],
      "rotation" : [ -1.43154e-07, -0.284729, 7.45442e-08, -0.958608 ]
    },
    {
      "name" : "R_Finger42_ftw",
      "translation" : [ -0.00279389, 0.000218077, -0.0112437 ],
      "rotation" : [ -0.658004, 0.139719, -0.126975, -0.728963 ]
    },
    {
      "name" : "R_Finger41_ftw",
      "translation" : [ -0.00445259, 0.000212774, -0.0162256 ],
      "rotation" : [ -0.631228, 0.254732, -0.231657, -0.69498 ]
    },
    {
      "name" : "R_Finger40_ftw",
      "translation" : [ 0.00191483, -0.000376329, -0.0225609 ],
      "rotation" : [ -0.616935, 0.307255, -0.32641, -0.646871 ]
    },
    {
      "name" : "R_ForearmTwist01",
      "translation" : [ 0.0183996, -1.90735e-08, -1.43051e-08 ],
      "rotation" : [ 0.0284436, -7.09108e-08, 1.01636e-07, -0.999595 ]
    },
    {
      "name" : "R_ForearmTwist02",
      "translation" : [ 0.0433996, -6.67572e-08, 4.76837e-09 ],
      "rotation" : [ 0.0568643, -2.14917e-08, 9.57415e-08, -0.998382 ]
    },
    {
      "name" : "R_ForearmTwist03",
      "translation" : [ 0.0683996, -5.00679e-08, -9.53674e-09 ],
      "rotation" : [ 0.0852389, -6.29958e-08, 9.42026e-08, -0.996361 ]
    },
    {
      "name" : "R_ForearmTwist04",
      "translation" : [ 0.0939496, -4.76837e-08, -1.43051e-08 ],
      "rotation" : [ 0.113545, -7.84355e-09, 7.78905e-08, -0.993533 ]
    },
    {
      "name" : "R_ForearmTwist05",
      "translation" : [ 0.119138, -6.19888e-08, -1.43051e-08 ],
      "rotation" : [ 0.14035, -1.27442e-07, 9.88175e-08, -0.990102 ]
    },
    {
      "name" : "Prop2",
      "translation" : [ -0.419241, 0.0174599, -0.00849001 ],
      "rotation" : [ -0.0705724, -0.723229, 0.685669, -0.0426292 ]
    },
    {
      "name" : "Prop1",
      "translation" : [ 0.419199, 0.0174001, -0.00822596 ],
      "rotation" : [ 0.686229, -0.0406619, -0.067456, -0.723109 ]
    }
  ],
  "skins" : [
    {
      "inverseBindMatrices" : 0,
      "skeleton" : 1,
      "joints" : [
        1,2,3,4,5,6,7,8,9,10,11,12,13,14,15,16,17,18,19,20,21,22,23,24,25,26,27,28,29,30,31,32,
        33,34,35,36,37,38,39,40,41,42,43,44,45,46,47,48,49,50,51,52,53,54,55,56,57,58,59,60,61,62,63,64,
        65,66,67,68,69,70,71,72,73,74,75,76,77,78,79,80,81,82,83
      ]
    }
  ],
  "materials" : [
    {
      "name" : "MIC_1p_Merc_BRT",
      "pbrMetallicRoughness" : {
        "baseColorFactor" : [ 0.3, 0.3, 0.3, 1.0 ],
        "metallicFactor" : 0.1,
        "roughnessFactor" : 0.5
      }
    }
  ],
  "meshes" : [
    {
      "primitives" : [
        {
          "attributes" : {
            "POSITION" : 2,
            "NORMAL" : 3,
            "TANGENT" : 4,
            "COLOR_0" : 5,
            "JOINTS_0" : 6,
            "WEIGHTS_0" : 7,
            "TEXCOORD_0" : 8,
            "TEXCOORD_1" : 9
          },
          "indices" : 1,
          "material" : 0
        }
      ],
      "name" : "SKL_Hands"
    }
  ],
  "buffers" : [
    {
      "uri" : "SKL_Hands.bin",
      "byteLength" : 374480
    }
  ],
  "bufferViews" : [
    {
      "buffer" : 0,
      "byteOffset" : 0,
      "byteLength" : 5312
    },
    {
      "buffer" : 0,
      "byteOffset" : 5312,
      "byteLength" : 42072
    },
    {
      "buffer" : 0,
      "byteOffset" : 47384,
      "byteLength" : 54516
    },
    {
      "buffer" : 0,
      "byteOffset" : 101900,
      "byteLength" : 54516
    },
    {
      "buffer" : 0,
      "byteOffset" : 156416,
      "byteLength" : 72688
    },
    {
      "buffer" : 0,
      "byteOffset" : 229104,
      "byteLength" : 18172
    },
    {
      "buffer" : 0,
      "byteOffset" : 247276,
      "byteLength" : 36344
    },
    {
      "buffer" : 0,
      "byteOffset" : 283620,
      "byteLength" : 18172
    },
    {
      "buffer" : 0,
      "byteOffset" : 301792,
      "byteLength" : 36344
    },
    {
      "buffer" : 0,
      "byteOffset" : 338136,
      "byteLength" : 36344
    }
  ],
  "accessors" : [
    {
      "bufferView" : 0,
      "componentType" : 5126,
      "count" : 83,
      "type" : "MAT4"
    },
    {
      "bufferView" : 1,
      "componentType" : 5123,
      "count" : 21036,
      "type" : "SCALAR"
    },
    {
      "bufferView" : 2,
      "min" : [ -0.0617266, -0.141549, -0.487916 ],
      "max" : [ 0.0849288, -0.00348396, 0.487916 ],
      "componentType" : 5126,
      "count" : 4543,
      "type" : "VEC3"
    },
    {
      "bufferView" : 3,
      "componentType" : 5126,
      "count" : 4543,
      "type" : "VEC3"
    },
    {
      "bufferView" : 4,
      "componentType" : 5126,
      "count" : 4543,
      "type" : "VEC4"
    },
    {
      "bufferView" : 5,
      "normalized" : true,
      "componentType" : 5121,
      "count" : 4543,
      "type" : "VEC4"
    },
    {
      "bufferView" : 6,
      "componentType" : 5123,
      "count" : 4543,
      "type" : "VEC4"
    },
    {
      "bufferView" : 7,
      "normalized" : true,
      "componentType" : 5121,
      "count" : 4543,
      "type" : "VEC4"
    },
    {
      "bufferView" : 8,
      "componentType" : 5126,
      "count" : 4543,
      "type" : "VEC2"
    },
    {
      "bufferView" : 9,
      "componentType" : 5126,
      "count" : 4543,
      "type" : "VEC2"
    }
  ]
}
