{
  "asset" : {
    "generator" : "UE Viewer (umodel) build 1575",
    "version" : "2.0"
  },
  "scene" : 0,
  "scenes" : [
    {
      "nodes" : [ 0 ]
    }
  ],
  "nodes" : [
    {
      "name" : "SKL_WEP_Blaster_3p",
      "mesh" : 0,
      "skin" : 0,
      "children" : [ 1 ]
    },
    {
      "name" : "R_WEP_root",
      "translation" : [ 0, 0, -0 ],
      "rotation" : [ 7.45058e-08, -3.77186e-08, -8.19564e-08, -1 ]
    }
  ],
  "skins" : [
    {
      "inverseBindMatrices" : 0,
      "skeleton" : 1,
      "joints" : [
        1
      ]
    }
  ],
  "materials" : [
    {
      "name" : "MAT_WEP_NovaBlaster_3p",
      "pbrMetallicRoughness" : {
        "baseColorFactor" : [ 0.3, 0.3, 0.3, 1.0 ],
        "metallicFactor" : 0.1,
        "roughnessFactor" : 0.5
      }
    }
  ],
  "meshes" : [
    {
      "primitives" : [
        {
          "attributes" : {
            "POSITION" : 2,
            "NORMAL" : 3,
            "TANGENT" : 4,
            "JOINTS_0" : 5,
            "WEIGHTS_0" : 6,
            "TEXCOORD_0" : 7,
            "TEXCOORD_1" : 8
          },
          "indices" : 1,
          "material" : 0
        }
      ],
      "name" : "SKL_WEP_Blaster_3p"
    }
  ],
  "buffers" : [
    {
      "uri" : "SKL_WEP_Blaster_3p.bin",
      "byteLength" : 120548
    }
  ],
  "bufferViews" : [
    {
      "buffer" : 0,
      "byteOffset" : 0,
      "byteLength" : 64
    },
    {
      "buffer" : 0,
      "byteOffset" : 64,
      "byteLength" : 9780
    },
    {
      "buffer" : 0,
      "byteOffset" : 9844,
      "byteLength" : 19536
    },
    {
      "buffer" : 0,
      "byteOffset" : 29380,
      "byteLength" : 19536
    },
    {
      "buffer" : 0,
      "byteOffset" : 48916,
      "byteLength" : 26048
    },
    {
      "buffer" : 0,
      "byteOffset" : 74964,
      "byteLength" : 13024
    },
    {
      "buffer" : 0,
      "byteOffset" : 87988,
      "byteLength" : 6512
    },
    {
      "buffer" : 0,
      "byteOffset" : 94500,
      "byteLength" : 13024
    },
    {
      "buffer" : 0,
      "byteOffset" : 107524,
      "byteLength" : 13024
    }
  ],
  "accessors" : [
    {
      "bufferView" : 0,
      "componentType" : 5126,
      "count" : 1,
      "type" : "MAT4"
    },
    {
      "bufferView" : 1,
      "componentType" : 5123,
      "count" : 4890,
      "type" : "SCALAR"
    },
    {
      "bufferView" : 2,
      "min" : [ -0.0274071, -0.0362851, -0.0246957 ],
      "max" : [ 0.214409, 0.0837119, 0.0239095 ],
      "componentType" : 5126,
      "count" : 1628,
      "type" : "VEC3"
    },
    {
      "bufferView" : 3,
      "componentType" : 5126,
      "count" : 1628,
      "type" : "VEC3"
    },
    {
      "bufferView" : 4,
      "componentType" : 5126,
      "count" : 1628,
      "type" : "VEC4"
    },
    {
      "bufferView" : 5,
      "componentType" : 5123,
      "count" : 1628,
      "type" : "VEC4"
    },
    {
      "bufferView" : 6,
      "normalized" : true,
      "componentType" : 5121,
      "count" : 1628,
      "type" : "VEC4"
    },
    {
      "bufferView" : 7,
      "componentType" : 5126,
      "count" : 1628,
      "type" : "VEC2"
    },
    {
      "bufferView" : 8,
      "componentType" : 5126,
      "count" : 1628,
      "type" : "VEC2"
    }
  ]
}
