{
  "asset" : {
    "generator" : "UE Viewer (umodel) build 1575",
    "version" : "2.0"
  },
  "scene" : 0,
  "scenes" : [
    {
      "nodes" : [ 0 ]
    }
  ],
  "nodes" : [
    {
      "name" : "ASE_Sec_Projectile",
      "mesh" : 0
    }
  ],
  "materials" : [
    {
      "name" : "MAT_Sec_Projectile",
      "pbrMetallicRoughness" : {
        "baseColorFactor" : [ 0.3, 0.3, 0.3, 1.0 ],
        "metallicFactor" : 0.1,
        "roughnessFactor" : 0.5
      }
    }
  ],
  "meshes" : [
    {
      "primitives" : [
        {
          "attributes" : {
            "POSITION" : 1,
            "NORMAL" : 2,
            "TANGENT" : 3,
            "TEXCOORD_0" : 4,
            "TEXCOORD_1" : 5
          },
          "indices" : 0,
          "material" : 0
        }
      ],
      "name" : "ASE_Sec_Projectile"
    }
  ],
  "buffers" : [
    {
      "uri" : "ASE_Sec_Projectile.bin",
      "byteLength" : 4576
    }
  ],
  "bufferViews" : [
    {
      "buffer" : 0,
      "byteOffset" : 0,
      "byteLength" : 432
    },
    {
      "buffer" : 0,
      "byteOffset" : 432,
      "byteLength" : 888
    },
    {
      "buffer" : 0,
      "byteOffset" : 1320,
      "byteLength" : 888
    },
    {
      "buffer" : 0,
      "byteOffset" : 2208,
      "byteLength" : 1184
    },
    {
      "buffer" : 0,
      "byteOffset" : 3392,
      "byteLength" : 592
    },
    {
      "buffer" : 0,
      "byteOffset" : 3984,
      "byteLength" : 592
    }
  ],
  "accessors" : [
    {
      "bufferView" : 0,
      "componentType" : 5123,
      "count" : 216,
      "type" : "SCALAR"
    },
    {
      "bufferView" : 1,
      "min" : [ -0.020695, -0.015911, -0.015912 ],
      "max" : [ 0.020695, 0.015912, 0.015912 ],
      "componentType" : 5126,
      "count" : 74,
      "type" : "VEC3"
    },
    {
      "bufferView" : 2,
      "componentType" : 5126,
      "count" : 74,
      "type" : "VEC3"
    },
    {
      "bufferView" : 3,
      "componentType" : 5126,
      "count" : 74,
      "type" : "VEC4"
    },
    {
      "bufferView" : 4,
      "componentType" : 5126,
      "count" : 74,
      "type" : "VEC2"
    },
    {
      "bufferView" : 5,
      "componentType" : 5126,
      "count" : 74,
      "type" : "VEC2"
    }
  ]
}
