{
  "asset" : {
    "generator" : "UE Viewer (umodel) build 1575",
    "version" : "2.0"
  },
  "scene" : 0,
  "scenes" : [
    {
      "nodes" : [ 0 ]
    }
  ],
  "nodes" : [
    {
      "name" : "SKL_WEP_RepairTool_3p",
      "mesh" : 0,
      "skin" : 0,
      "children" : [ 1 ]
    },
    {
      "name" : "R_WEP_root",
      "translation" : [ 0, 9.53674e-09, -3.8147e-08 ],
      "rotation" : [ -1.62981e-07, 1.93832e-07, 1.62981e-07, -1 ]
    }
  ],
  "skins" : [
    {
      "inverseBindMatrices" : 0,
      "skeleton" : 1,
      "joints" : [
        1
      ]
    }
  ],
  "materials" : [
    {
      "name" : "MAT_WEP_RepairPack_Alt_3p",
      "pbrMetallicRoughness" : {
        "baseColorFactor" : [ 0.3, 0.3, 0.3, 1.0 ],
        "metallicFactor" : 0.1,
        "roughnessFactor" : 0.5
      }
    }
  ],
  "meshes" : [
    {
      "primitives" : [
        {
          "attributes" : {
            "POSITION" : 2,
            "NORMAL" : 3,
            "TANGENT" : 4,
            "JOINTS_0" : 5,
            "WEIGHTS_0" : 6,
            "TEXCOORD_0" : 7
          },
          "indices" : 1,
          "material" : 0
        }
      ],
      "name" : "SKL_WEP_RepairTool_3p"
    }
  ],
  "buffers" : [
    {
      "uri" : "SKL_WEP_RepairTool_3p.bin",
      "byteLength" : 190320
    }
  ],
  "bufferViews" : [
    {
      "buffer" : 0,
      "byteOffset" : 0,
      "byteLength" : 64
    },
    {
      "buffer" : 0,
      "byteOffset" : 64,
      "byteLength" : 11576
    },
    {
      "buffer" : 0,
      "byteOffset" : 11640,
      "byteLength" : 35736
    },
    {
      "buffer" : 0,
      "byteOffset" : 47376,
      "byteLength" : 35736
    },
    {
      "buffer" : 0,
      "byteOffset" : 83112,
      "byteLength" : 47648
    },
    {
      "buffer" : 0,
      "byteOffset" : 130760,
      "byteLength" : 23824
    },
    {
      "buffer" : 0,
      "byteOffset" : 154584,
      "byteLength" : 11912
    },
    {
      "buffer" : 0,
      "byteOffset" : 166496,
      "byteLength" : 23824
    }
  ],
  "accessors" : [
    {
      "bufferView" : 0,
      "componentType" : 5126,
      "count" : 1,
      "type" : "MAT4"
    },
    {
      "bufferView" : 1,
      "componentType" : 5123,
      "count" : 5787,
      "type" : "SCALAR"
    },
    {
      "bufferView" : 2,
      "min" : [ -0.0313292, -0.0676361, -0.0499435 ],
      "max" : [ 0.241226, 0.117083, 0.0380422 ],
      "componentType" : 5126,
      "count" : 2978,
      "type" : "VEC3"
    },
    {
      "bufferView" : 3,
      "componentType" : 5126,
      "count" : 2978,
      "type" : "VEC3"
    },
    {
      "bufferView" : 4,
      "componentType" : 5126,
      "count" : 2978,
      "type" : "VEC4"
    },
    {
      "bufferView" : 5,
      "componentType" : 5123,
      "count" : 2978,
      "type" : "VEC4"
    },
    {
      "bufferView" : 6,
      "normalized" : true,
      "componentType" : 5121,
      "count" : 2978,
      "type" : "VEC4"
    },
    {
      "bufferView" : 7,
      "componentType" : 5126,
      "count" : 2978,
      "type" : "VEC2"
    }
  ]
}
