{
  "asset" : {
    "generator" : "UE Viewer (umodel) build 1575",
    "version" : "2.0"
  },
  "scene" : 0,
  "scenes" : [
    {
      "nodes" : [ 0 ]
    }
  ],
  "nodes" : [
    {
      "name" : "SKL_WEP_Shell_Burst_Gun_3p",
      "mesh" : 0,
      "skin" : 0,
      "children" : [ 1 ]
    },
    {
      "name" : "R_WEP_root",
      "translation" : [ 0, 0, -0 ],
      "rotation" : [ -0, -0, 0, -1 ]
    }
  ],
  "skins" : [
    {
      "inverseBindMatrices" : 0,
      "skeleton" : 1,
      "joints" : [
        1
      ]
    }
  ],
  "materials" : [
    {
      "name" : "WEP_BurstGun_3p",
      "pbrMetallicRoughness" : {
        "baseColorFactor" : [ 0.3, 0.3, 0.3, 1.0 ],
        "metallicFactor" : 0.1,
        "roughnessFactor" : 0.5
      }
    }
  ],
  "meshes" : [
    {
      "primitives" : [
        {
          "attributes" : {
            "POSITION" : 2,
            "NORMAL" : 3,
            "TANGENT" : 4,
            "JOINTS_0" : 5,
            "WEIGHTS_0" : 6,
            "TEXCOORD_0" : 7
          },
          "indices" : 1,
          "material" : 0
        }
      ],
      "name" : "SKL_WEP_Shell_Burst_Gun_3p"
    }
  ],
  "buffers" : [
    {
      "uri" : "SKL_WEP_Shell_Burst_Gun_3p.bin",
      "byteLength" : 158520
    }
  ],
  "bufferViews" : [
    {
      "buffer" : 0,
      "byteOffset" : 0,
      "byteLength" : 64
    },
    {
      "buffer" : 0,
      "byteOffset" : 64,
      "byteLength" : 11816
    },
    {
      "buffer" : 0,
      "byteOffset" : 11880,
      "byteLength" : 29328
    },
    {
      "buffer" : 0,
      "byteOffset" : 41208,
      "byteLength" : 29328
    },
    {
      "buffer" : 0,
      "byteOffset" : 70536,
      "byteLength" : 39104
    },
    {
      "buffer" : 0,
      "byteOffset" : 109640,
      "byteLength" : 19552
    },
    {
      "buffer" : 0,
      "byteOffset" : 129192,
      "byteLength" : 9776
    },
    {
      "buffer" : 0,
      "byteOffset" : 138968,
      "byteLength" : 19552
    }
  ],
  "accessors" : [
    {
      "bufferView" : 0,
      "componentType" : 5126,
      "count" : 1,
      "type" : "MAT4"
    },
    {
      "bufferView" : 1,
      "componentType" : 5123,
      "count" : 5907,
      "type" : "SCALAR"
    },
    {
      "bufferView" : 2,
      "min" : [ -0.0406173, -0.0789022, -0.0308619 ],
      "max" : [ 0.293946, 0.138535, 0.0308575 ],
      "componentType" : 5126,
      "count" : 2444,
      "type" : "VEC3"
    },
    {
      "bufferView" : 3,
      "componentType" : 5126,
      "count" : 2444,
      "type" : "VEC3"
    },
    {
      "bufferView" : 4,
      "componentType" : 5126,
      "count" : 2444,
      "type" : "VEC4"
    },
    {
      "bufferView" : 5,
      "componentType" : 5123,
      "count" : 2444,
      "type" : "VEC4"
    },
    {
      "bufferView" : 6,
      "normalized" : true,
      "componentType" : 5121,
      "count" : 2444,
      "type" : "VEC4"
    },
    {
      "bufferView" : 7,
      "componentType" : 5126,
      "count" : 2444,
      "type" : "VEC2"
    }
  ]
}
