{
  "asset" : {
    "generator" : "UE Viewer (umodel) build 1575",
    "version" : "2.0"
  },
  "scene" : 0,
  "scenes" : [
    {
      "nodes" : [ 0 ]
    }
  ],
  "nodes" : [
    {
      "name" : "SKL_WEP_LightSpinFusor_3p",
      "mesh" : 0,
      "skin" : 0,
      "children" : [ 1 ]
    },
    {
      "name" : "R_WEP_root",
      "translation" : [ 0, 0, -3.8147e-08 ],
      "rotation" : [ -1.49012e-08, 9.31337e-10, 2.38419e-07, -1 ]
    }
  ],
  "skins" : [
    {
      "inverseBindMatrices" : 0,
      "skeleton" : 1,
      "joints" : [
        1
      ]
    }
  ],
  "materials" : [
    {
      "name" : "light_spinfusor_3p_dif512_Mat",
      "pbrMetallicRoughness" : {
        "baseColorFactor" : [ 0.3, 0.3, 0.3, 1.0 ],
        "metallicFactor" : 0.1,
        "roughnessFactor" : 0.5
      }
    }
  ],
  "meshes" : [
    {
      "primitives" : [
        {
          "attributes" : {
            "POSITION" : 2,
            "NORMAL" : 3,
            "TANGENT" : 4,
            "JOINTS_0" : 5,
            "WEIGHTS_0" : 6,
            "TEXCOORD_0" : 7
          },
          "indices" : 1,
          "material" : 0
        }
      ],
      "name" : "SKL_WEP_LightSpinFusor_3p"
    }
  ],
  "buffers" : [
    {
      "uri" : "SKL_WEP_LightSpinFusor_3p.bin",
      "byteLength" : 137508
    }
  ],
  "bufferViews" : [
    {
      "buffer" : 0,
      "byteOffset" : 0,
      "byteLength" : 64
    },
    {
      "buffer" : 0,
      "byteOffset" : 64,
      "byteLength" : 11564
    },
    {
      "buffer" : 0,
      "byteOffset" : 11628,
      "byteLength" : 25176
    },
    {
      "buffer" : 0,
      "byteOffset" : 36804,
      "byteLength" : 25176
    },
    {
      "buffer" : 0,
      "byteOffset" : 61980,
      "byteLength" : 33568
    },
    {
      "buffer" : 0,
      "byteOffset" : 95548,
      "byteLength" : 16784
    },
    {
      "buffer" : 0,
      "byteOffset" : 112332,
      "byteLength" : 8392
    },
    {
      "buffer" : 0,
      "byteOffset" : 120724,
      "byteLength" : 16784
    }
  ],
  "accessors" : [
    {
      "bufferView" : 0,
      "componentType" : 5126,
      "count" : 1,
      "type" : "MAT4"
    },
    {
      "bufferView" : 1,
      "componentType" : 5123,
      "count" : 5781,
      "type" : "SCALAR"
    },
    {
      "bufferView" : 2,
      "min" : [ -0.0424704, -0.0421903, -0.0453699 ],
      "max" : [ 0.284615, 0.106594, 0.0453699 ],
      "componentType" : 5126,
      "count" : 2098,
      "type" : "VEC3"
    },
    {
      "bufferView" : 3,
      "componentType" : 5126,
      "count" : 2098,
      "type" : "VEC3"
    },
    {
      "bufferView" : 4,
      "componentType" : 5126,
      "count" : 2098,
      "type" : "VEC4"
    },
    {
      "bufferView" : 5,
      "componentType" : 5123,
      "count" : 2098,
      "type" : "VEC4"
    },
    {
      "bufferView" : 6,
      "normalized" : true,
      "componentType" : 5121,
      "count" : 2098,
      "type" : "VEC4"
    },
    {
      "bufferView" : 7,
      "componentType" : 5126,
      "count" : 2098,
      "type" : "VEC2"
    }
  ]
}
