{
  "asset" : {
    "generator" : "UE Viewer (umodel) build 1575",
    "version" : "2.0"
  },
  "scene" : 0,
  "scenes" : [
    {
      "nodes" : [ 0 ]
    }
  ],
  "nodes" : [
    {
      "name" : "SKL_WEP_DS_Sword_1p",
      "mesh" : 0,
      "skin" : 0,
      "children" : [ 1 ]
    },
    {
      "name" : "Root",
      "children" : [ 2, 82, 86 ],
      "translation" : [ 0.0179209, -0.128046, -7.89762e-08 ],
      "rotation" : [ -0, 0.707107, 0, -0.707107 ]
    },
    {
      "name" : "Spine3",
      "children" : [ 3 ],
      "translation" : [ 3.57628e-09, 0, -0 ],
      "rotation" : [ -0.0764528, 0.076455, -0.702961, -0.702962 ]
    },
    {
      "name" : "Neck",
      "children" : [ 4, 43 ],
      "translation" : [ 0.0716009, 8.75674e-09, -0.000436652 ],
      "rotation" : [ -4.10701e-07, -0.219934, -6.6563e-07, -0.975515 ]
    },
    {
      "name" : "L_Clavicle",
      "children" : [ 5 ],
      "translation" : [ 0.00214968, 0.0212038, 0.0015047 ],
      "rotation" : [ -0.576171, -0.786864, -0.145923, -0.166069 ]
    },
    {
      "name" : "L_UpperArm",
      "children" : [ 6 ],
      "translation" : [ 0.104212, 2.38419e-08, 2.02656e-08 ],
      "rotation" : [ -0.101111, -0.0573188, -0.0974936, -0.988426 ]
    },
    {
      "name" : "L_Forearm",
      "children" : [ 7, 38, 39, 40, 41, 42 ],
      "translation" : [ 0.12493, -1.09673e-07, 2.38419e-08 ],
      "rotation" : [ -2.14764e-08, 0.165809, 9.65175e-08, -0.986158 ]
    },
    {
      "name" : "L_Hand",
      "children" : [ 8, 14, 20, 26, 32 ],
      "translation" : [ 0.141613, -1.4782e-07, -2.86102e-08 ],
      "rotation" : [ 0.681531, -0.036821, -0.098661, -0.724173 ]
    },
    {
      "name" : "L_Finger1",
      "children" : [ 9, 13 ],
      "translation" : [ 0.0618533, -0.0187766, 0.00337522 ],
      "rotation" : [ 0.00350378, -0.0462167, 0.157428, -0.986442 ]
    },
    {
      "name" : "L_Finger11",
      "children" : [ 10, 12 ],
      "translation" : [ 0.0298816, 3.8147e-08, 1.57356e-07 ],
      "rotation" : [ 2.13177e-08, -0.0343723, 8.11095e-08, -0.999409 ]
    },
    {
      "name" : "L_Finger12",
      "children" : [ 11 ],
      "translation" : [ 0.0182841, -5.72205e-08, -9.53674e-08 ],
      "rotation" : [ -3.63184e-08, -0.000593502, -2.61644e-07, -1 ]
    },
    {
      "name" : "L_Finger12_ftw",
      "translation" : [ -0.00715405, -0.000152922, -0.0085199 ],
      "rotation" : [ -0.703694, 0.0346438, -0.0368491, -0.7087 ]
    },
    {
      "name" : "L_Finger11_ftw",
      "translation" : [ 0.000628319, -0.000363312, -0.00994555 ],
      "rotation" : [ -0.702466, 0.0411777, -0.0548508, -0.708405 ]
    },
    {
      "name" : "L_Finger10_ftw",
      "translation" : [ -0.00586041, -0.000466118, -0.0205043 ],
      "rotation" : [ -0.696281, 0.100711, -0.101662, -0.70336 ]
    },
    {
      "name" : "L_Finger2",
      "children" : [ 15, 19 ],
      "translation" : [ 0.0665344, -0.00351844, 0.00380275 ],
      "rotation" : [ 0.0142075, -0.0611048, 0.0394643, -0.99725 ]
    },
    {
      "name" : "L_Finger21",
      "children" : [ 16, 18 ],
      "translation" : [ 0.0318591, -1.12057e-07, -4.29153e-08 ],
      "rotation" : [ -6.52153e-08, -0.0394678, -3.18933e-08, -0.999221 ]
    },
    {
      "name" : "L_Finger22",
      "children" : [ 17 ],
      "translation" : [ 0.0204568, 1.07288e-07, -1.14441e-07 ],
      "rotation" : [ -1.67256e-08, -0.0277213, -3.97898e-08, -0.999616 ]
    },
    {
      "name" : "L_Finger22_ftw",
      "translation" : [ -0.0083939, 0.000396655, -0.00905157 ],
      "rotation" : [ -0.709561, 0.0545868, -0.0466984, -0.700973 ]
    },
    {
      "name" : "L_Finger21_ftw",
      "translation" : [ 0.000379066, 0.00039829, -0.0100333 ],
      "rotation" : [ -0.709465, 0.0456377, -0.0460423, -0.701752 ]
    },
    {
      "name" : "L_Finger20_ftw",
      "translation" : [ -0.00763969, -0.000406768, -0.0218719 ],
      "rotation" : [ -0.689249, 0.0981514, -0.10924, -0.709485 ]
    },
    {
      "name" : "L_Finger3",
      "children" : [ 21, 25 ],
      "translation" : [ 0.0637387, 0.0114092, 0.000900536 ],
      "rotation" : [ 0.00277271, -0.0683114, -0.0683036, -0.995319 ]
    },
    {
      "name" : "L_Finger31",
      "children" : [ 22, 24 ],
      "translation" : [ 0.0302913, -1.14441e-07, -3.33786e-08 ],
      "rotation" : [ -0.000281731, -0.0367162, -0.0136472, -0.999233 ]
    },
    {
      "name" : "L_Finger32",
      "children" : [ 23 ],
      "translation" : [ 0.0196626, 7.15256e-08, 4.76837e-08 ],
      "rotation" : [ 1.65955e-05, -0.0435137, 0.00301683, -0.999048 ]
    },
    {
      "name" : "L_Finger32_ftw",
      "translation" : [ -0.0113393, -0.000373721, -0.00929786 ],
      "rotation" : [ -0.683044, 0.048674, -0.0483712, -0.727147 ]
    },
    {
      "name" : "L_Finger31_ftw",
      "translation" : [ -0.013263, 3.32165e-05, -0.0103156 ],
      "rotation" : [ -0.683228, 0.0410941, -0.0275051, -0.728529 ]
    },
    {
      "name" : "L_Finger30_ftw",
      "translation" : [ -0.0104378, -0.00216322, -0.0217833 ],
      "rotation" : [ -0.658315, 0.138099, -0.169154, -0.720372 ]
    },
    {
      "name" : "L_Finger4",
      "children" : [ 27, 31 ],
      "translation" : [ 0.057531, 0.025979, -0.00299859 ],
      "rotation" : [ 0.0243074, -0.0817104, -0.160039, -0.983423 ]
    },
    {
      "name" : "L_Finger41",
      "children" : [ 28, 30 ],
      "translation" : [ 0.0229431, -5.72205e-08, -4.29153e-08 ],
      "rotation" : [ -7.68239e-06, -0.00822301, -0.000935699, -0.999966 ]
    },
    {
      "name" : "L_Finger42",
      "children" : [ 29 ],
      "translation" : [ 0.0138552, 4.76837e-08, -3.8147e-08 ],
      "rotation" : [ 6.61088e-09, -0.0100942, 2.32042e-08, -0.999949 ]
    },
    {
      "name" : "L_Finger42_ftw",
      "translation" : [ -0.00981453, -0.00030304, -0.00860226 ],
      "rotation" : [ -0.670039, 0.057718, -0.0541676, -0.738093 ]
    },
    {
      "name" : "L_Finger41_ftw",
      "translation" : [ -0.0133765, -0.000340071, -0.0113205 ],
      "rotation" : [ -0.669779, 0.0612669, -0.0570534, -0.737826 ]
    },
    {
      "name" : "L_Finger40_ftw",
      "translation" : [ -0.00992863, -0.000593443, -0.0208851 ],
      "rotation" : [ -0.660141, 0.166965, -0.161691, -0.714278 ]
    },
    {
      "name" : "L_Finger0",
      "children" : [ 33, 37 ],
      "translation" : [ 0.00392246, -0.00805419, -0.00795331 ],
      "rotation" : [ -0.561653, 0.211017, 0.340074, -0.724132 ]
    },
    {
      "name" : "L_Finger01",
      "children" : [ 34, 36 ],
      "translation" : [ 0.0385584, -6.67572e-08, -1.14441e-07 ],
      "rotation" : [ 2.24912e-07, -0.0831946, -3.71238e-09, -0.996533 ]
    },
    {
      "name" : "L_Finger02",
      "children" : [ 35 ],
      "translation" : [ 0.0252956, 1.23978e-07, 3.8147e-08 ],
      "rotation" : [ -1.07926e-08, 0.143587, 4.99513e-09, -0.989638 ]
    },
    {
      "name" : "L_Finger02_ftw",
      "translation" : [ -0.00479721, 0.000322428, -0.00843395 ],
      "rotation" : [ -0.0550483, 0.0510408, 0.00336299, -0.997173 ]
    },
    {
      "name" : "L_Finger01_ftw",
      "translation" : [ -0.0115253, 0.000280647, -0.016785 ],
      "rotation" : [ -0.053988, 0.104028, -0.0062504, -0.993088 ]
    },
    {
      "name" : "L_Finger00_ftw",
      "translation" : [ -0.00428352, 0.00136612, -0.0229938 ],
      "rotation" : [ -0.0787445, 0.142096, 0.00705461, -0.986691 ]
    },
    {
      "name" : "L_ForearmTwist01",
      "translation" : [ -1.90735e-08, -1.57356e-07, 4.76837e-09 ],
      "rotation" : [ -0.00525612, -1.18258e-08, 5.57103e-09, -0.999986 ]
    },
    {
      "name" : "L_ForearmTwist02",
      "translation" : [ 0.025, -7.62939e-08, -9.53674e-09 ],
      "rotation" : [ -0.0105121, -2.42501e-09, 2.04806e-08, -0.999945 ]
    },
    {
      "name" : "L_ForearmTwist03",
      "translation" : [ 0.0500001, 7.15256e-08, -9.53674e-09 ],
      "rotation" : [ -0.0157678, -1.64346e-08, 5.46437e-09, -0.999876 ]
    },
    {
      "name" : "L_ForearmTwist04",
      "translation" : [ 0.0750606, 7.62939e-08, -1.43051e-08 ],
      "rotation" : [ -0.0210231, -1.90879e-08, -2.22714e-10, -0.999779 ]
    },
    {
      "name" : "L_ForearmTwist05",
      "translation" : [ 0.100314, 6.67572e-08, -9.53674e-09 ],
      "rotation" : [ -0.026015, -7.03101e-09, 9.35853e-09, -0.999662 ]
    },
    {
      "name" : "R_Clavicle",
      "children" : [ 44 ],
      "translation" : [ 0.00214968, -0.021204, 0.00150459 ],
      "rotation" : [ 0.576171, -0.786864, 0.145921, -0.166071 ]
    },
    {
      "name" : "R_UpperArm",
      "children" : [ 45 ],
      "translation" : [ 0.104212, -9.53674e-08, 1.3113e-08 ],
      "rotation" : [ 0.101111, -0.0573189, 0.0974935, -0.988426 ]
    },
    {
      "name" : "R_Forearm",
      "children" : [ 46, 77, 78, 79, 80, 81 ],
      "translation" : [ 0.12493, 1.90735e-08, 7.39098e-08 ],
      "rotation" : [ -7.19708e-09, 0.165809, 9.1071e-09, -0.986158 ]
    },
    {
      "name" : "R_Hand",
      "children" : [ 47, 53, 59, 65, 71 ],
      "translation" : [ 0.141613, 9.53674e-08, 1.90735e-08 ],
      "rotation" : [ -0.681531, -0.0368209, 0.0986608, -0.724173 ]
    },
    {
      "name" : "R_Finger4",
      "children" : [ 48, 52 ],
      "translation" : [ 0.057531, -0.0259793, -0.00299841 ],
      "rotation" : [ -0.0243074, -0.0817102, 0.16004, -0.983423 ]
    },
    {
      "name" : "R_Finger41",
      "children" : [ 49, 51 ],
      "translation" : [ 0.022943, 1.43051e-07, -7.62939e-08 ],
      "rotation" : [ 7.69079e-06, -0.00822317, 0.000935613, -0.999966 ]
    },
    {
      "name" : "R_Finger42",
      "children" : [ 50 ],
      "translation" : [ 0.0138555, -1.04904e-07, -1.71661e-07 ],
      "rotation" : [ -5.19279e-08, -0.0100942, -6.68519e-08, -0.999949 ]
    },
    {
      "name" : "R_Finger42_ftw",
      "translation" : [ -0.00987045, 0.00021656, -0.00829116 ],
      "rotation" : [ -0.670437, 0.0531594, -0.0489298, -0.738441 ]
    },
    {
      "name" : "R_Finger41_ftw",
      "translation" : [ -0.0133343, 0.000212297, -0.0115884 ],
      "rotation" : [ -0.668997, 0.0742435, -0.0676042, -0.736452 ]
    },
    {
      "name" : "R_Finger40_ftw",
      "translation" : [ -0.0103064, -0.000376253, -0.0201603 ],
      "rotation" : [ -0.679917, 0.139455, -0.155075, -0.703006 ]
    },
    {
      "name" : "R_Finger3",
      "children" : [ 54, 58 ],
      "translation" : [ 0.0637387, -0.0114093, 0.000900536 ],
      "rotation" : [ -0.00277303, -0.0683112, 0.0683036, -0.995319 ]
    },
    {
      "name" : "R_Finger31",
      "children" : [ 55, 57 ],
      "translation" : [ 0.0302913, 9.53674e-09, 8.58307e-08 ],
      "rotation" : [ 0.000282009, -0.0367164, 0.0136471, -0.999233 ]
    },
    {
      "name" : "R_Finger32",
      "children" : [ 56 ],
      "translation" : [ 0.0196627, 0, -2.09808e-07 ],
      "rotation" : [ -1.68595e-05, -0.0435135, -0.00301667, -0.999048 ]
    },
    {
      "name" : "R_Finger32_ftw",
      "translation" : [ -0.0115094, 0.000258741, -0.0091631 ],
      "rotation" : [ -0.683135, 0.0463788, -0.0421811, -0.727596 ]
    },
    {
      "name" : "R_Finger31_ftw",
      "translation" : [ -0.0133315, 0.0004251, -0.0101437 ],
      "rotation" : [ -0.68486, 0.0391844, -0.0290568, -0.72704 ]
    },
    {
      "name" : "R_Finger30_ftw",
      "translation" : [ -0.0105916, 0.00101884, -0.0217067 ],
      "rotation" : [ -0.670661, 0.160408, -0.146313, -0.709278 ]
    },
    {
      "name" : "R_Finger2",
      "children" : [ 60, 64 ],
      "translation" : [ 0.0665343, 0.0035183, 0.00380275 ],
      "rotation" : [ -0.0142074, -0.0611047, -0.0394641, -0.99725 ]
    },
    {
      "name" : "R_Finger21",
      "children" : [ 61, 63 ],
      "translation" : [ 0.031859, 1.66893e-08, -1.90735e-08 ],
      "rotation" : [ -5.98536e-08, -0.0394678, -8.46137e-08, -0.999221 ]
    },
    {
      "name" : "R_Finger22",
      "children" : [ 62 ],
      "translation" : [ 0.0204568, 1.19209e-08, 8.58307e-08 ],
      "rotation" : [ 2.45578e-08, -0.0277215, 4.23834e-08, -0.999616 ]
    },
    {
      "name" : "R_Finger22_ftw",
      "translation" : [ -0.00838924, -0.000172174, -0.00905197 ],
      "rotation" : [ -0.708716, 0.0465188, -0.0548399, -0.701819 ]
    },
    {
      "name" : "R_Finger21_ftw",
      "translation" : [ 0.000377846, -4.287e-05, -0.0100337 ],
      "rotation" : [ -0.709634, 0.0496271, -0.0420435, -0.701562 ]
    },
    {
      "name" : "R_Finger20_ftw",
      "translation" : [ -0.00779152, -0.000123172, -0.021762 ],
      "rotation" : [ -0.661497, 0.106977, -0.0975005, -0.735847 ]
    },
    {
      "name" : "R_Finger1",
      "children" : [ 66, 70 ],
      "translation" : [ 0.0618533, 0.0187764, 0.00337543 ],
      "rotation" : [ -0.00350375, -0.0462165, -0.157428, -0.986442 ]
    },
    {
      "name" : "R_Finger11",
      "children" : [ 67, 69 ],
      "translation" : [ 0.0298815, 9.53674e-08, -4.29153e-08 ],
      "rotation" : [ 8.62465e-09, -0.0343722, 2.34647e-09, -0.999409 ]
    },
    {
      "name" : "R_Finger12",
      "children" : [ 68 ],
      "translation" : [ 0.0182841, 0, -2.86102e-08 ],
      "rotation" : [ -1.34945e-08, -0.000593443, 2.91964e-08, -1 ]
    },
    {
      "name" : "R_Finger12_ftw",
      "translation" : [ -0.00715405, -0.000104828, -0.00852839 ],
      "rotation" : [ -0.703532, 0.0319931, -0.0403287, -0.708797 ]
    },
    {
      "name" : "R_Finger11_ftw",
      "translation" : [ 0.000634994, -0.000128403, -0.00993449 ],
      "rotation" : [ -0.702877, 0.0467686, -0.047992, -0.708148 ]
    },
    {
      "name" : "R_Finger10_ftw",
      "translation" : [ -0.00579456, 0.000136728, -0.0204362 ],
      "rotation" : [ -0.667291, 0.107731, -0.0934583, -0.731015 ]
    },
    {
      "name" : "R_Finger0",
      "children" : [ 72, 76 ],
      "translation" : [ 0.00392242, 0.00805406, -0.00795319 ],
      "rotation" : [ 0.561653, 0.211017, -0.340074, -0.724132 ]
    },
    {
      "name" : "R_Finger01",
      "children" : [ 73, 75 ],
      "translation" : [ 0.0385583, 1.71661e-07, 2.47955e-07 ],
      "rotation" : [ 4.17726e-09, -0.0831945, 3.867e-08, -0.996533 ]
    },
    {
      "name" : "R_Finger02",
      "children" : [ 74 ],
      "translation" : [ 0.0252956, -1.23978e-07, -9.53674e-08 ],
      "rotation" : [ 3.41924e-09, 0.143586, 1.30844e-09, -0.989638 ]
    },
    {
      "name" : "R_Finger02_ftw",
      "translation" : [ -0.00480175, -0.00033885, -0.0084119 ],
      "rotation" : [ -0.0544204, 0.0499282, -0.00919328, -0.997227 ]
    },
    {
      "name" : "R_Finger01_ftw",
      "translation" : [ -0.011518, -0.000339556, -0.016578 ],
      "rotation" : [ -0.0540827, 0.101537, -0.00553672, -0.993345 ]
    },
    {
      "name" : "R_Finger00_ftw",
      "translation" : [ 0.00278805, -0.000423183, -0.0164051 ],
      "rotation" : [ -0.99405, 0.00256878, -0.0452179, -0.0990667 ]
    },
    {
      "name" : "R_ForearmTwist01",
      "translation" : [ -3.8147e-08, -6.67572e-08, 9.53674e-09 ],
      "rotation" : [ 0.00525669, 2.11193e-08, 9.14767e-08, -0.999986 ]
    },
    {
      "name" : "R_ForearmTwist02",
      "translation" : [ 0.025, 0, -9.53674e-09 ],
      "rotation" : [ 0.0105133, 8.0837e-08, 1.07034e-07, -0.999945 ]
    },
    {
      "name" : "R_ForearmTwist03",
      "translation" : [ 0.05, -7.62939e-08, -4.76837e-09 ],
      "rotation" : [ 0.0157695, 6.38677e-08, 1.0727e-07, -0.999876 ]
    },
    {
      "name" : "R_ForearmTwist04",
      "translation" : [ 0.07555, -7.62939e-08, -4.76837e-09 ],
      "rotation" : [ 0.0210253, 1.46024e-08, 9.81008e-08, -0.999779 ]
    },
    {
      "name" : "R_ForearmTwist05",
      "translation" : [ 0.100739, -9.05991e-08, -1.43051e-08 ],
      "rotation" : [ 0.0260178, 1.34986e-07, 9.08586e-08, -0.999662 ]
    },
    {
      "name" : "Prop2",
      "children" : [ 83 ],
      "translation" : [ -0.414142, -0.0145549, -0.00545414 ],
      "rotation" : [ -0.0674571, -0.723109, 0.686229, -0.0406628 ]
    },
    {
      "name" : "L_WEP_root",
      "children" : [ 84 ],
      "translation" : [ 1.14441e-07, -2.0504e-07, 5.62668e-07 ],
      "rotation" : [ -1.50874e-07, 2.0396e-07, 3.1857e-07, -1 ]
    },
    {
      "name" : "R_WEP_CoM",
      "children" : [ 85 ],
      "translation" : [ 1.14441e-07, 0.106841, -5.72205e-08 ],
      "rotation" : [ -3.63216e-08, 2.05822e-07, 6.38655e-07, -1 ]
    },
    {
      "name" : "R_WEP_base",
      "translation" : [ 3.8147e-08, -0.106841, 9.53674e-09 ],
      "rotation" : [ -2.66358e-07, 4.56348e-08, -2.2701e-08, -1 ]
    },
    {
      "name" : "Prop1",
      "translation" : [ 0.41414, -0.0145565, -0.00545153 ],
      "rotation" : [ 0.686229, -0.0406619, -0.0674559, -0.723109 ]
    }
  ],
  "skins" : [
    {
      "inverseBindMatrices" : 0,
      "skeleton" : 1,
      "joints" : [
        1,2,3,4,5,6,7,8,9,10,11,12,13,14,15,16,17,18,19,20,21,22,23,24,25,26,27,28,29,30,31,32,
        33,34,35,36,37,38,39,40,41,42,43,44,45,46,47,48,49,50,51,52,53,54,55,56,57,58,59,60,61,62,63,64,
        65,66,67,68,69,70,71,72,73,74,75,76,77,78,79,80,81,82,83,84,85,86
      ]
    }
  ],
  "materials" : [
    {
      "name" : "MAT_WEP_DS_Sword",
      "pbrMetallicRoughness" : {
        "baseColorFactor" : [ 0.3, 0.3, 0.3, 1.0 ],
        "metallicFactor" : 0.1,
        "roughnessFactor" : 0.5
      }
    }
  ],
  "meshes" : [
    {
      "primitives" : [
        {
          "attributes" : {
            "POSITION" : 2,
            "NORMAL" : 3,
            "TANGENT" : 4,
            "JOINTS_0" : 5,
            "WEIGHTS_0" : 6,
            "TEXCOORD_0" : 7
          },
          "indices" : 1,
          "material" : 0
        }
      ],
      "name" : "SKL_WEP_DS_Sword_1p"
    }
  ],
  "buffers" : [
    {
      "uri" : "SKL_WEP_DS_Sword_1p.bin",
      "byteLength" : 98684
    }
  ],
  "bufferViews" : [
    {
      "buffer" : 0,
      "byteOffset" : 0,
      "byteLength" : 5504
    },
    {
      "buffer" : 0,
      "byteOffset" : 5504,
      "byteLength" : 11340
    },
    {
      "buffer" : 0,
      "byteOffset" : 16844,
      "byteLength" : 16368
    },
    {
      "buffer" : 0,
      "byteOffset" : 33212,
      "byteLength" : 16368
    },
    {
      "buffer" : 0,
      "byteOffset" : 49580,
      "byteLength" : 21824
    },
    {
      "buffer" : 0,
      "byteOffset" : 71404,
      "byteLength" : 10912
    },
    {
      "buffer" : 0,
      "byteOffset" : 82316,
      "byteLength" : 5456
    },
    {
      "buffer" : 0,
      "byteOffset" : 87772,
      "byteLength" : 10912
    }
  ],
  "accessors" : [
    {
      "bufferView" : 0,
      "componentType" : 5126,
      "count" : 86,
      "type" : "MAT4"
    },
    {
      "bufferView" : 1,
      "componentType" : 5123,
      "count" : 5670,
      "type" : "SCALAR"
    },
    {
      "bufferView" : 2,
      "min" : [ -0.0606513, -0.160877, -0.504791 ],
      "max" : [ 0.561642, -0.112333, -0.290693 ],
      "componentType" : 5126,
      "count" : 1364,
      "type" : "VEC3"
    },
    {
      "bufferView" : 3,
      "componentType" : 5126,
      "count" : 1364,
      "type" : "VEC3"
    },
    {
      "bufferView" : 4,
      "componentType" : 5126,
      "count" : 1364,
      "type" : "VEC4"
    },
    {
      "bufferView" : 5,
      "componentType" : 5123,
      "count" : 1364,
      "type" : "VEC4"
    },
    {
      "bufferView" : 6,
      "normalized" : true,
      "componentType" : 5121,
      "count" : 1364,
      "type" : "VEC4"
    },
    {
      "bufferView" : 7,
      "componentType" : 5126,
      "count" : 1364,
      "type" : "VEC2"
    }
  ]
}
