{
  "asset" : {
    "generator" : "UE Viewer (umodel) build 1575",
    "version" : "2.0"
  },
  "scene" : 0,
  "scenes" : [
    {
      "nodes" : [ 0 ]
    }
  ],
  "nodes" : [
    {
      "name" : "SKL_WEP_PlasmaGun_3p",
      "mesh" : 0,
      "skin" : 0,
      "children" : [ 1 ]
    },
    {
      "name" : "R_WEP_root",
      "translation" : [ 0, 0, -0 ],
      "rotation" : [ 7.82311e-08, 6.23986e-08, -4.47035e-08, -1 ]
    }
  ],
  "skins" : [
    {
      "inverseBindMatrices" : 0,
      "skeleton" : 1,
      "joints" : [
        1
      ]
    }
  ],
  "materials" : [
    {
      "name" : "MAT_WEP_Plasma_Gun_3p",
      "pbrMetallicRoughness" : {
        "baseColorFactor" : [ 0.3, 0.3, 0.3, 1.0 ],
        "metallicFactor" : 0.1,
        "roughnessFactor" : 0.5
      }
    }
  ],
  "meshes" : [
    {
      "primitives" : [
        {
          "attributes" : {
            "POSITION" : 2,
            "NORMAL" : 3,
            "TANGENT" : 4,
            "JOINTS_0" : 5,
            "WEIGHTS_0" : 6,
            "TEXCOORD_0" : 7
          },
          "indices" : 1,
          "material" : 0
        }
      ],
      "name" : "SKL_WEP_PlasmaGun_3p"
    }
  ],
  "buffers" : [
    {
      "uri" : "SKL_WEP_PlasmaGun_3p.bin",
      "byteLength" : 127608
    }
  ],
  "bufferViews" : [
    {
      "buffer" : 0,
      "byteOffset" : 0,
      "byteLength" : 64
    },
    {
      "buffer" : 0,
      "byteOffset" : 64,
      "byteLength" : 10904
    },
    {
      "buffer" : 0,
      "byteOffset" : 10968,
      "byteLength" : 23328
    },
    {
      "buffer" : 0,
      "byteOffset" : 34296,
      "byteLength" : 23328
    },
    {
      "buffer" : 0,
      "byteOffset" : 57624,
      "byteLength" : 31104
    },
    {
      "buffer" : 0,
      "byteOffset" : 88728,
      "byteLength" : 15552
    },
    {
      "buffer" : 0,
      "byteOffset" : 104280,
      "byteLength" : 7776
    },
    {
      "buffer" : 0,
      "byteOffset" : 112056,
      "byteLength" : 15552
    }
  ],
  "accessors" : [
    {
      "bufferView" : 0,
      "componentType" : 5126,
      "count" : 1,
      "type" : "MAT4"
    },
    {
      "bufferView" : 1,
      "componentType" : 5123,
      "count" : 5451,
      "type" : "SCALAR"
    },
    {
      "bufferView" : 2,
      "min" : [ -0.0397768, -0.0534272, -0.0296273 ],
      "max" : [ 0.340697, 0.110862, 0.0296273 ],
      "componentType" : 5126,
      "count" : 1944,
      "type" : "VEC3"
    },
    {
      "bufferView" : 3,
      "componentType" : 5126,
      "count" : 1944,
      "type" : "VEC3"
    },
    {
      "bufferView" : 4,
      "componentType" : 5126,
      "count" : 1944,
      "type" : "VEC4"
    },
    {
      "bufferView" : 5,
      "componentType" : 5123,
      "count" : 1944,
      "type" : "VEC4"
    },
    {
      "bufferView" : 6,
      "normalized" : true,
      "componentType" : 5121,
      "count" : 1944,
      "type" : "VEC4"
    },
    {
      "bufferView" : 7,
      "componentType" : 5126,
      "count" : 1944,
      "type" : "VEC2"
    }
  ]
}
