{
  "asset" : {
    "generator" : "UE Viewer (umodel) build 1575",
    "version" : "2.0"
  },
  "scene" : 0,
  "scenes" : [
    {
      "nodes" : [ 0 ]
    }
  ],
  "nodes" : [
    {
      "name" : "SKL_WEP_EnergySniperRifle_3p",
      "mesh" : 0,
      "skin" : 0,
      "children" : [ 1 ]
    },
    {
      "name" : "R_WEP_root",
      "translation" : [ 0, 9.53674e-09, -3.8147e-08 ],
      "rotation" : [ -3.4459e-07, -4.65568e-10, 2.38418e-07, -1 ]
    }
  ],
  "skins" : [
    {
      "inverseBindMatrices" : 0,
      "skeleton" : 1,
      "joints" : [
        1
      ]
    }
  ],
  "materials" : [
    {
      "name" : "Mat_EnergySniperRifle_3p",
      "pbrMetallicRoughness" : {
        "baseColorFactor" : [ 0.3, 0.3, 0.3, 1.0 ],
        "metallicFactor" : 0.1,
        "roughnessFactor" : 0.5
      }
    }
  ],
  "meshes" : [
    {
      "primitives" : [
        {
          "attributes" : {
            "POSITION" : 2,
            "NORMAL" : 3,
            "TANGENT" : 4,
            "JOINTS_0" : 5,
            "WEIGHTS_0" : 6,
            "TEXCOORD_0" : 7
          },
          "indices" : 1,
          "material" : 0
        }
      ],
      "name" : "SKL_WEP_EnergySniperRifle_3p"
    }
  ],
  "buffers" : [
    {
      "uri" : "SKL_WEP_EnergySniperRifle_3p.bin",
      "byteLength" : 204624
    }
  ],
  "bufferViews" : [
    {
      "buffer" : 0,
      "byteOffset" : 0,
      "byteLength" : 64
    },
    {
      "buffer" : 0,
      "byteOffset" : 64,
      "byteLength" : 17240
    },
    {
      "buffer" : 0,
      "byteOffset" : 17304,
      "byteLength" : 37464
    },
    {
      "buffer" : 0,
      "byteOffset" : 54768,
      "byteLength" : 37464
    },
    {
      "buffer" : 0,
      "byteOffset" : 92232,
      "byteLength" : 49952
    },
    {
      "buffer" : 0,
      "byteOffset" : 142184,
      "byteLength" : 24976
    },
    {
      "buffer" : 0,
      "byteOffset" : 167160,
      "byteLength" : 12488
    },
    {
      "buffer" : 0,
      "byteOffset" : 179648,
      "byteLength" : 24976
    }
  ],
  "accessors" : [
    {
      "bufferView" : 0,
      "componentType" : 5126,
      "count" : 1,
      "type" : "MAT4"
    },
    {
      "bufferView" : 1,
      "componentType" : 5123,
      "count" : 8619,
      "type" : "SCALAR"
    },
    {
      "bufferView" : 2,
      "min" : [ -0.16313, -0.053369, -0.0465431 ],
      "max" : [ 0.424274, 0.137531, 0.0465432 ],
      "componentType" : 5126,
      "count" : 3122,
      "type" : "VEC3"
    },
    {
      "bufferView" : 3,
      "componentType" : 5126,
      "count" : 3122,
      "type" : "VEC3"
    },
    {
      "bufferView" : 4,
      "componentType" : 5126,
      "count" : 3122,
      "type" : "VEC4"
    },
    {
      "bufferView" : 5,
      "componentType" : 5123,
      "count" : 3122,
      "type" : "VEC4"
    },
    {
      "bufferView" : 6,
      "normalized" : true,
      "componentType" : 5121,
      "count" : 3122,
      "type" : "VEC4"
    },
    {
      "bufferView" : 7,
      "componentType" : 5126,
      "count" : 3122,
      "type" : "VEC2"
    }
  ]
}
