{
  "asset" : {
    "generator" : "UE Viewer (umodel) build 1575",
    "version" : "2.0"
  },
  "scene" : 0,
  "scenes" : [
    {
      "nodes" : [ 0 ]
    }
  ],
  "nodes" : [
    {
      "name" : "SKL_DEP_TurretHeavy_3p",
      "mesh" : 0,
      "skin" : 0,
      "children" : [ 1 ]
    },
    {
      "name" : "R_WEP_root",
      "children" : [ 2 ],
      "translation" : [ 0, 0, -4.64335e-11 ],
      "rotation" : [ -0, 0.707107, 0, -0.707107 ]
    },
    {
      "name" : "R_WEP_CoM",
      "children" : [ 3 ],
      "translation" : [ 4.64335e-11, 0, -5.5353e-18 ],
      "rotation" : [ -3.72529e-08, -1.32349e-23, 7.45059e-09, -1 ]
    },
    {
      "name" : "R_WEP_base",
      "children" : [ 4 ],
      "translation" : [ 0, 0, -0 ],
      "rotation" : [ -2.75671e-07, -5.96046e-08, -7.45057e-09, -1 ]
    },
    {
      "name" : "DEP_gunRotate",
      "children" : [ 5, 11, 13, 15 ],
      "translation" : [ -2.74253e-05, -1.39288e-10, -0.000227317 ],
      "rotation" : [ 2.38419e-07, -8.9407e-08, -3.99681e-15, -1 ]
    },
    {
      "name" : "DEP_gunPivot_pt",
      "children" : [ 6 ],
      "translation" : [ -0.0211945, 0.179401, 0.000227346 ],
      "rotation" : [ 1.89661e-07, -0.707107, 0.707107, 1.68587e-07 ]
    },
    {
      "name" : "DEP_gunPivot",
      "children" : [ 7 ],
      "translation" : [ -9.53674e-09, 1.90735e-08, 1.90735e-08 ],
      "rotation" : [ -0, -0, 8.88178e-16, -1 ]
    },
    {
      "name" : "DEP_recoil_pt",
      "children" : [ 8 ],
      "translation" : [ 0, 0, -0 ],
      "rotation" : [ 0.5, 0.5, -0.5, -0.5 ]
    },
    {
      "name" : "DEP_recoil",
      "children" : [ 9 ],
      "translation" : [ 0, 0, -0 ],
      "rotation" : [ -0, -1.05879e-22, 0, -1 ]
    },
    {
      "name" : "DEP_silencer_pt",
      "children" : [ 10 ],
      "translation" : [ -5.44157e-09, 0.0436823, 0.365183 ],
      "rotation" : [ -0, -1.05879e-22, 0, -1 ]
    },
    {
      "name" : "DEP_silencer",
      "translation" : [ 0, 0, -0 ],
      "rotation" : [ -0, -1.05879e-22, 0, -1 ]
    },
    {
      "name" : "DEP_standLeft_pt",
      "children" : [ 12 ],
      "translation" : [ -0.0916024, 0.147031, -0.0961369 ],
      "rotation" : [ 1.46111e-07, -0.707107, 8.42937e-08, -0.707107 ]
    },
    {
      "name" : "DEP_standLeft",
      "translation" : [ 0, 0, -0 ],
      "rotation" : [ -0, -0, 0, -1 ]
    },
    {
      "name" : "DEP_standRight_pt",
      "children" : [ 14 ],
      "translation" : [ -0.0916024, 0.147031, 0.0965873 ],
      "rotation" : [ 1.46111e-07, -0.707107, 8.42937e-08, -0.707107 ]
    },
    {
      "name" : "DEP_standRight",
      "translation" : [ 0, 0, -0 ],
      "rotation" : [ -0, -0, 0, -1 ]
    },
    {
      "name" : "DEP_orb_pt",
      "children" : [ 16 ],
      "translation" : [ 0.0349989, 0.0973713, 0.000227319 ],
      "rotation" : [ 0.1123, -0.698132, 0.698132, -0.1123 ]
    },
    {
      "name" : "DEP_orb",
      "translation" : [ 0, 0, -0 ],
      "rotation" : [ -1.33227e-15, 7.45058e-09, -6.21725e-15, -1 ]
    }
  ],
  "skins" : [
    {
      "inverseBindMatrices" : 0,
      "skeleton" : 1,
      "joints" : [
        1,2,3,4,5,6,7,8,9,10,11,12,13,14,15,16
      ]
    }
  ],
  "materials" : [
    {
      "name" : "MIC_HeavyTurret",
      "pbrMetallicRoughness" : {
        "baseColorFactor" : [ 0.3, 0.3, 0.3, 1.0 ],
        "metallicFactor" : 0.1,
        "roughnessFactor" : 0.5
      }
    }
  ],
  "meshes" : [
    {
      "primitives" : [
        {
          "attributes" : {
            "POSITION" : 2,
            "NORMAL" : 3,
            "TANGENT" : 4,
            "JOINTS_0" : 5,
            "WEIGHTS_0" : 6,
            "TEXCOORD_0" : 7
          },
          "indices" : 1,
          "material" : 0
        }
      ],
      "name" : "SKL_DEP_TurretHeavy_3p"
    }
  ],
  "buffers" : [
    {
      "uri" : "SKL_DEP_TurretHeavy_3p.bin",
      "byteLength" : 491536
    }
  ],
  "bufferViews" : [
    {
      "buffer" : 0,
      "byteOffset" : 0,
      "byteLength" : 1024
    },
    {
      "buffer" : 0,
      "byteOffset" : 1024,
      "byteLength" : 41292
    },
    {
      "buffer" : 0,
      "byteOffset" : 42316,
      "byteLength" : 89844
    },
    {
      "buffer" : 0,
      "byteOffset" : 132160,
      "byteLength" : 89844
    },
    {
      "buffer" : 0,
      "byteOffset" : 222004,
      "byteLength" : 119792
    },
    {
      "buffer" : 0,
      "byteOffset" : 341796,
      "byteLength" : 59896
    },
    {
      "buffer" : 0,
      "byteOffset" : 401692,
      "byteLength" : 29948
    },
    {
      "buffer" : 0,
      "byteOffset" : 431640,
      "byteLength" : 59896
    }
  ],
  "accessors" : [
    {
      "bufferView" : 0,
      "componentType" : 5126,
      "count" : 16,
      "type" : "MAT4"
    },
    {
      "bufferView" : 1,
      "componentType" : 5123,
      "count" : 20646,
      "type" : "SCALAR"
    },
    {
      "bufferView" : 2,
      "min" : [ -0.187289, -3.74982e-08, -0.205624 ],
      "max" : [ 0.187522, 0.292013, 0.398483 ],
      "componentType" : 5126,
      "count" : 7487,
      "type" : "VEC3"
    },
    {
      "bufferView" : 3,
      "componentType" : 5126,
      "count" : 7487,
      "type" : "VEC3"
    },
    {
      "bufferView" : 4,
      "componentType" : 5126,
      "count" : 7487,
      "type" : "VEC4"
    },
    {
      "bufferView" : 5,
      "componentType" : 5123,
      "count" : 7487,
      "type" : "VEC4"
    },
    {
      "bufferView" : 6,
      "normalized" : true,
      "componentType" : 5121,
      "count" : 7487,
      "type" : "VEC4"
    },
    {
      "bufferView" : 7,
      "componentType" : 5126,
      "count" : 7487,
      "type" : "VEC2"
    }
  ]
}
