{
  "asset" : {
    "generator" : "UE Viewer (umodel) build 1575",
    "version" : "2.0"
  },
  "scene" : 0,
  "scenes" : [
    {
      "nodes" : [ 0 ]
    }
  ],
  "nodes" : [
    {
      "name" : "ASE_Claymore",
      "mesh" : 0
    }
  ],
  "materials" : [
    {
      "name" : "MIC_WEP_Claymore_3p_White",
      "pbrMetallicRoughness" : {
        "baseColorFactor" : [ 0.3, 0.3, 0.3, 1.0 ],
        "metallicFactor" : 0.1,
        "roughnessFactor" : 0.5
      }
    },
    {
      "name" : "claymore_beam_grad_Mat",
      "pbrMetallicRoughness" : {
        "baseColorFactor" : [ 0.9, 0.3, 0.3, 1.0 ],
        "metallicFactor" : 0.1,
        "roughnessFactor" : 0.5
      }
    }
  ],
  "meshes" : [
    {
      "primitives" : [
        {
          "attributes" : {
            "POSITION" : 1,
            "NORMAL" : 2,
            "TANGENT" : 3,
            "TEXCOORD_0" : 4
          },
          "indices" : 0,
          "material" : 0
        },
        {
          "attributes" : {
            "POSITION" : 6,
            "NORMAL" : 7,
            "TANGENT" : 8,
            "TEXCOORD_0" : 9
          },
          "indices" : 5,
          "material" : 1
        }
      ],
      "name" : "ASE_Claymore"
    }
  ],
  "buffers" : [
    {
      "uri" : "ASE_Claymore.bin",
      "byteLength" : 25200
    }
  ],
  "bufferViews" : [
    {
      "buffer" : 0,
      "byteOffset" : 0,
      "byteLength" : 2568
    },
    {
      "buffer" : 0,
      "byteOffset" : 2568,
      "byteLength" : 5448
    },
    {
      "buffer" : 0,
      "byteOffset" : 8016,
      "byteLength" : 5448
    },
    {
      "buffer" : 0,
      "byteOffset" : 13464,
      "byteLength" : 7264
    },
    {
      "buffer" : 0,
      "byteOffset" : 20728,
      "byteLength" : 3632
    },
    {
      "buffer" : 0,
      "byteOffset" : 24360,
      "byteLength" : 72
    },
    {
      "buffer" : 0,
      "byteOffset" : 24432,
      "byteLength" : 192
    },
    {
      "buffer" : 0,
      "byteOffset" : 24624,
      "byteLength" : 192
    },
    {
      "buffer" : 0,
      "byteOffset" : 24816,
      "byteLength" : 256
    },
    {
      "buffer" : 0,
      "byteOffset" : 25072,
      "byteLength" : 128
    }
  ],
  "accessors" : [
    {
      "bufferView" : 0,
      "componentType" : 5123,
      "count" : 1284,
      "type" : "SCALAR"
    },
    {
      "bufferView" : 1,
      "min" : [ -0.184691, -0.026741, -0.116485 ],
      "max" : [ 0.184102, 0.413001, 0.191837 ],
      "componentType" : 5126,
      "count" : 454,
      "type" : "VEC3"
    },
    {
      "bufferView" : 2,
      "componentType" : 5126,
      "count" : 454,
      "type" : "VEC3"
    },
    {
      "bufferView" : 3,
      "componentType" : 5126,
      "count" : 454,
      "type" : "VEC4"
    },
    {
      "bufferView" : 4,
      "componentType" : 5126,
      "count" : 454,
      "type" : "VEC2"
    },
    {
      "bufferView" : 5,
      "componentType" : 5123,
      "count" : 36,
      "type" : "SCALAR"
    },
    {
      "bufferView" : 6,
      "min" : [ -0.690311, 0.304221, 0.079325 ],
      "max" : [ 0.69031, 0.327085, 0.690311 ],
      "componentType" : 5126,
      "count" : 16,
      "type" : "VEC3"
    },
    {
      "bufferView" : 7,
      "componentType" : 5126,
      "count" : 16,
      "type" : "VEC3"
    },
    {
      "bufferView" : 8,
      "componentType" : 5126,
      "count" : 16,
      "type" : "VEC4"
    },
    {
      "bufferView" : 9,
      "componentType" : 5126,
      "count" : 16,
      "type" : "VEC2"
    }
  ]
}
