{
  "asset" : {
    "generator" : "UE Viewer (umodel) build 1575",
    "version" : "2.0"
  },
  "scene" : 0,
  "scenes" : [
    {
      "nodes" : [ 0 ]
    }
  ],
  "nodes" : [
    {
      "name" : "SKL_WEP_MortarLauncher_3p",
      "mesh" : 0,
      "skin" : 0,
      "children" : [ 1 ]
    },
    {
      "name" : "R_WEP_root",
      "translation" : [ 0, 9.53674e-09, -0 ],
      "rotation" : [ -1.67638e-07, 2.4647e-14, 2.42144e-07, -1 ]
    }
  ],
  "skins" : [
    {
      "inverseBindMatrices" : 0,
      "skeleton" : 1,
      "joints" : [
        1
      ]
    }
  ],
  "materials" : [
    {
      "name" : "MAT_WEP_Mortar_Launcher_3p",
      "pbrMetallicRoughness" : {
        "baseColorFactor" : [ 0.3, 0.3, 0.3, 1.0 ],
        "metallicFactor" : 0.1,
        "roughnessFactor" : 0.5
      }
    }
  ],
  "meshes" : [
    {
      "primitives" : [
        {
          "attributes" : {
            "POSITION" : 2,
            "NORMAL" : 3,
            "TANGENT" : 4,
            "JOINTS_0" : 5,
            "WEIGHTS_0" : 6,
            "TEXCOORD_0" : 7,
            "TEXCOORD_1" : 8,
            "TEXCOORD_2" : 9
          },
          "indices" : 1,
          "material" : 0
        }
      ],
      "name" : "SKL_WEP_MortarLauncher_3p"
    }
  ],
  "buffers" : [
    {
      "uri" : "SKL_WEP_MortarLauncher_3p.bin",
      "byteLength" : 271156
    }
  ],
  "bufferViews" : [
    {
      "buffer" : 0,
      "byteOffset" : 0,
      "byteLength" : 64
    },
    {
      "buffer" : 0,
      "byteOffset" : 64,
      "byteLength" : 16796
    },
    {
      "buffer" : 0,
      "byteOffset" : 16860,
      "byteLength" : 40152
    },
    {
      "buffer" : 0,
      "byteOffset" : 57012,
      "byteLength" : 40152
    },
    {
      "buffer" : 0,
      "byteOffset" : 97164,
      "byteLength" : 53536
    },
    {
      "buffer" : 0,
      "byteOffset" : 150700,
      "byteLength" : 26768
    },
    {
      "buffer" : 0,
      "byteOffset" : 177468,
      "byteLength" : 13384
    },
    {
      "buffer" : 0,
      "byteOffset" : 190852,
      "byteLength" : 26768
    },
    {
      "buffer" : 0,
      "byteOffset" : 217620,
      "byteLength" : 26768
    },
    {
      "buffer" : 0,
      "byteOffset" : 244388,
      "byteLength" : 26768
    }
  ],
  "accessors" : [
    {
      "bufferView" : 0,
      "componentType" : 5126,
      "count" : 1,
      "type" : "MAT4"
    },
    {
      "bufferView" : 1,
      "componentType" : 5123,
      "count" : 8397,
      "type" : "SCALAR"
    },
    {
      "bufferView" : 2,
      "min" : [ -0.0918585, -0.0979628, -0.0731774 ],
      "max" : [ 0.445447, 0.119037, 0.0421281 ],
      "componentType" : 5126,
      "count" : 3346,
      "type" : "VEC3"
    },
    {
      "bufferView" : 3,
      "componentType" : 5126,
      "count" : 3346,
      "type" : "VEC3"
    },
    {
      "bufferView" : 4,
      "componentType" : 5126,
      "count" : 3346,
      "type" : "VEC4"
    },
    {
      "bufferView" : 5,
      "componentType" : 5123,
      "count" : 3346,
      "type" : "VEC4"
    },
    {
      "bufferView" : 6,
      "normalized" : true,
      "componentType" : 5121,
      "count" : 3346,
      "type" : "VEC4"
    },
    {
      "bufferView" : 7,
      "componentType" : 5126,
      "count" : 3346,
      "type" : "VEC2"
    },
    {
      "bufferView" : 8,
      "componentType" : 5126,
      "count" : 3346,
      "type" : "VEC2"
    },
    {
      "bufferView" : 9,
      "componentType" : 5126,
      "count" : 3346,
      "type" : "VEC2"
    }
  ]
}
