{
  "asset" : {
    "generator" : "UE Viewer (umodel) build 1575",
    "version" : "2.0"
  },
  "scene" : 0,
  "scenes" : [
    {
      "nodes" : [ 0 ]
    }
  ],
  "nodes" : [
    {
      "name" : "SKL_WEP_ArxBuster_3p",
      "mesh" : 0,
      "skin" : 0,
      "children" : [ 1 ]
    },
    {
      "name" : "R_WEP_root",
      "translation" : [ 0, 1.90735e-08, -3.8147e-08 ],
      "rotation" : [ -3.50177e-07, -5.12222e-09, 2.49594e-07, -1 ]
    }
  ],
  "skins" : [
    {
      "inverseBindMatrices" : 0,
      "skeleton" : 1,
      "joints" : [
        1
      ]
    }
  ],
  "materials" : [
    {
      "name" : "Mat_Wep_ArxBuster_3p",
      "pbrMetallicRoughness" : {
        "baseColorFactor" : [ 0.3, 0.3, 0.3, 1.0 ],
        "metallicFactor" : 0.1,
        "roughnessFactor" : 0.5
      }
    }
  ],
  "meshes" : [
    {
      "primitives" : [
        {
          "attributes" : {
            "POSITION" : 2,
            "NORMAL" : 3,
            "TANGENT" : 4,
            "JOINTS_0" : 5,
            "WEIGHTS_0" : 6,
            "TEXCOORD_0" : 7
          },
          "indices" : 1,
          "material" : 0
        }
      ],
      "name" : "SKL_WEP_ArxBuster_3p"
    }
  ],
  "buffers" : [
    {
      "uri" : "SKL_WEP_ArxBuster_3p.bin",
      "byteLength" : 125400
    }
  ],
  "bufferViews" : [
    {
      "buffer" : 0,
      "byteOffset" : 0,
      "byteLength" : 64
    },
    {
      "buffer" : 0,
      "byteOffset" : 64,
      "byteLength" : 10556
    },
    {
      "buffer" : 0,
      "byteOffset" : 10620,
      "byteLength" : 22956
    },
    {
      "buffer" : 0,
      "byteOffset" : 33576,
      "byteLength" : 22956
    },
    {
      "buffer" : 0,
      "byteOffset" : 56532,
      "byteLength" : 30608
    },
    {
      "buffer" : 0,
      "byteOffset" : 87140,
      "byteLength" : 15304
    },
    {
      "buffer" : 0,
      "byteOffset" : 102444,
      "byteLength" : 7652
    },
    {
      "buffer" : 0,
      "byteOffset" : 110096,
      "byteLength" : 15304
    }
  ],
  "accessors" : [
    {
      "bufferView" : 0,
      "componentType" : 5126,
      "count" : 1,
      "type" : "MAT4"
    },
    {
      "bufferView" : 1,
      "componentType" : 5123,
      "count" : 5277,
      "type" : "SCALAR"
    },
    {
      "bufferView" : 2,
      "min" : [ -0.220778, -0.0539324, -0.0311151 ],
      "max" : [ 0.285334, 0.116099, 0.0265581 ],
      "componentType" : 5126,
      "count" : 1913,
      "type" : "VEC3"
    },
    {
      "bufferView" : 3,
      "componentType" : 5126,
      "count" : 1913,
      "type" : "VEC3"
    },
    {
      "bufferView" : 4,
      "componentType" : 5126,
      "count" : 1913,
      "type" : "VEC4"
    },
    {
      "bufferView" : 5,
      "componentType" : 5123,
      "count" : 1913,
      "type" : "VEC4"
    },
    {
      "bufferView" : 6,
      "normalized" : true,
      "componentType" : 5121,
      "count" : 1913,
      "type" : "VEC4"
    },
    {
      "bufferView" : 7,
      "componentType" : 5126,
      "count" : 1913,
      "type" : "VEC2"
    }
  ]
}
