{
  "asset" : {
    "generator" : "UE Viewer (umodel) build 1575",
    "version" : "2.0"
  },
  "scene" : 0,
  "scenes" : [
    {
      "nodes" : [ 0 ]
    }
  ],
  "nodes" : [
    {
      "name" : "SKL_WEP_RocketLauncherWithHands_1p",
      "mesh" : 0,
      "skin" : 0,
      "children" : [ 1 ]
    },
    {
      "name" : "Root",
      "children" : [ 2, 82, 83 ],
      "translation" : [ 0.0179209, -0.128046, -7.89762e-08 ],
      "rotation" : [ -0, 0.707107, 0, -0.707107 ]
    },
    {
      "name" : "Spine3",
      "children" : [ 3 ],
      "translation" : [ 3.57628e-09, 0, -0 ],
      "rotation" : [ -0.0764528, 0.076455, -0.702961, -0.702962 ]
    },
    {
      "name" : "Neck",
      "children" : [ 4, 43 ],
      "translation" : [ 0.0716009, 8.75674e-09, -0.000436652 ],
      "rotation" : [ -4.10701e-07, -0.219934, -6.65629e-07, -0.975515 ]
    },
    {
      "name" : "L_Clavicle",
      "children" : [ 5 ],
      "translation" : [ 0.00214968, 0.0212038, 0.0015047 ],
      "rotation" : [ -0.570442, -0.789906, -0.168639, -0.149015 ]
    },
    {
      "name" : "L_UpperArm",
      "children" : [ 6 ],
      "translation" : [ 0.104212, -1.43051e-08, 2.44379e-08 ],
      "rotation" : [ 0.00539691, -0.0186995, -0.0833601, -0.996329 ]
    },
    {
      "name" : "L_Forearm",
      "children" : [ 7, 38, 39, 40, 41, 42 ],
      "translation" : [ 0.104812, -1.19209e-07, 8.34465e-09 ],
      "rotation" : [ 2.14969e-07, 0.161434, 1.78205e-07, -0.986884 ]
    },
    {
      "name" : "L_Hand",
      "children" : [ 8, 14, 20, 26, 32 ],
      "translation" : [ 0.162085, -1.66893e-07, -1.90735e-08 ],
      "rotation" : [ 0.59545, -0.0316585, -0.0850953, -0.798245 ]
    },
    {
      "name" : "L_Finger0",
      "children" : [ 9, 13 ],
      "translation" : [ 0.00392223, -0.00805421, -0.00795344 ],
      "rotation" : [ -0.568629, 0.189233, 0.420309, -0.681316 ]
    },
    {
      "name" : "L_Finger01",
      "children" : [ 10, 12 ],
      "translation" : [ 0.0385583, -2.86102e-08, -1.33514e-07 ],
      "rotation" : [ 2.48169e-07, -0.212557, -8.16672e-08, -0.977149 ]
    },
    {
      "name" : "L_Finger02",
      "children" : [ 11 ],
      "translation" : [ 0.0252957, 8.58307e-08, 8.58307e-08 ],
      "rotation" : [ -2.03473e-08, -0.117443, 6.56265e-10, -0.99308 ]
    },
    {
      "name" : "L_Finger02_ftw",
      "translation" : [ -0.00307423, 0.000346594, -0.0120382 ],
      "rotation" : [ -0.0525242, 0.130168, 0.000108572, -0.9901 ]
    },
    {
      "name" : "L_Finger01_ftw",
      "translation" : [ -0.0091592, 0.000251913, -0.0205262 ],
      "rotation" : [ -0.0517118, 0.159643, -0.00996674, -0.985769 ]
    },
    {
      "name" : "L_Finger00_ftw",
      "translation" : [ -0.00508242, 0.000395937, -0.0225157 ],
      "rotation" : [ -0.0975611, 0.138225, -0.0110588, -0.985522 ]
    },
    {
      "name" : "L_Finger1",
      "children" : [ 15, 19 ],
      "translation" : [ 0.0618531, -0.0187766, 0.00337527 ],
      "rotation" : [ -0.0265028, -0.232991, 0.155221, -0.959645 ]
    },
    {
      "name" : "L_Finger11",
      "children" : [ 16, 18 ],
      "translation" : [ 0.0298816, 9.53674e-09, 1.62125e-07 ],
      "rotation" : [ 2.0523e-08, -0.22383, 4.1812e-08, -0.974628 ]
    },
    {
      "name" : "L_Finger12",
      "children" : [ 17 ],
      "translation" : [ 0.0182841, -4.76837e-08, -1.52588e-07 ],
      "rotation" : [ 1.13025e-08, -0.19078, -5.75338e-09, -0.981633 ]
    },
    {
      "name" : "L_Finger12_ftw",
      "translation" : [ -0.00359484, -0.000149937, -0.0106481 ],
      "rotation" : [ -0.699365, 0.08052, -0.0825903, -0.705396 ]
    },
    {
      "name" : "L_Finger11_ftw",
      "translation" : [ -0.00142841, -0.00024272, -0.0121436 ],
      "rotation" : [ -0.696412, 0.0980279, -0.102141, -0.70354 ]
    },
    {
      "name" : "L_Finger10_ftw",
      "translation" : [ 0.00223663, -0.00046649, -0.0211877 ],
      "rotation" : [ -0.682524, 0.164731, -0.169389, -0.691616 ]
    },
    {
      "name" : "L_Finger2",
      "children" : [ 21, 25 ],
      "translation" : [ 0.0665343, -0.00351853, 0.00380265 ],
      "rotation" : [ 0.00280536, -0.33303, 0.0418498, -0.941983 ]
    },
    {
      "name" : "L_Finger21",
      "children" : [ 22, 24 ],
      "translation" : [ 0.0318591, -1.12057e-07, -5.72205e-08 ],
      "rotation" : [ -2.14953e-07, -0.31277, 1.25162e-07, -0.949829 ]
    },
    {
      "name" : "L_Finger22",
      "children" : [ 23 ],
      "translation" : [ 0.0204567, 1.16825e-07, -1.90735e-07 ],
      "rotation" : [ 1.79542e-08, -0.301585, 1.22009e-08, -0.953439 ]
    },
    {
      "name" : "L_Finger22_ftw",
      "translation" : [ -0.00306759, 0.000396593, -0.012779 ],
      "rotation" : [ -0.703146, 0.127629, -0.119787, -0.689164 ]
    },
    {
      "name" : "L_Finger21_ftw",
      "translation" : [ -0.00270872, 0.000398936, -0.0148806 ],
      "rotation" : [ -0.694303, 0.151917, -0.153532, -0.686508 ]
    },
    {
      "name" : "L_Finger20_ftw",
      "translation" : [ 0.00509979, -0.000405738, -0.0225704 ],
      "rotation" : [ -0.65339, 0.219362, -0.239057, -0.683969 ]
    },
    {
      "name" : "L_Finger3",
      "children" : [ 27, 31 ],
      "translation" : [ 0.0637386, 0.0114092, 0.00090044 ],
      "rotation" : [ 0.021452, -0.339427, -0.0649065, -0.938145 ]
    },
    {
      "name" : "L_Finger31",
      "children" : [ 28, 30 ],
      "translation" : [ 0.0302913, -1.19209e-07, -3.8147e-08 ],
      "rotation" : [ 0.0034824, -0.310127, -0.0131984, -0.950597 ]
    },
    {
      "name" : "L_Finger32",
      "children" : [ 29 ],
      "translation" : [ 0.0196627, 9.53674e-08, 7.62939e-08 ],
      "rotation" : [ -0.00081369, -0.316612, 0.00290502, -0.94855 ]
    },
    {
      "name" : "L_Finger32_ftw",
      "translation" : [ -0.00451914, -0.000368505, -0.0137259 ],
      "rotation" : [ -0.669681, 0.140131, -0.134114, -0.716872 ]
    },
    {
      "name" : "L_Finger31_ftw",
      "translation" : [ -0.00580088, 3.32117e-05, -0.0157692 ],
      "rotation" : [ -0.664939, 0.188954, -0.163294, -0.703909 ]
    },
    {
      "name" : "L_Finger30_ftw",
      "translation" : [ 0.00266167, -0.00216331, -0.0240076 ],
      "rotation" : [ -0.606612, 0.265567, -0.300959, -0.686236 ]
    },
    {
      "name" : "L_Finger4",
      "children" : [ 33, 37 ],
      "translation" : [ 0.0575307, 0.025979, -0.00299862 ],
      "rotation" : [ 0.0673868, -0.349038, -0.147182, -0.923022 ]
    },
    {
      "name" : "L_Finger41",
      "children" : [ 34, 36 ],
      "translation" : [ 0.0229432, -9.53674e-08, -5.72205e-08 ],
      "rotation" : [ 0.000249892, -0.282935, -0.000901415, -0.959139 ]
    },
    {
      "name" : "L_Finger42",
      "children" : [ 35 ],
      "translation" : [ 0.0138554, 8.58307e-08, -0 ],
      "rotation" : [ 9.11212e-09, -0.284729, -1.0633e-07, -0.958608 ]
    },
    {
      "name" : "L_Finger42_ftw",
      "translation" : [ -0.00261701, -0.000289841, -0.0114382 ],
      "rotation" : [ -0.656508, 0.144681, -0.132319, -0.728393 ]
    },
    {
      "name" : "L_Finger41_ftw",
      "translation" : [ -0.00461779, -0.000331993, -0.0160346 ],
      "rotation" : [ -0.634821, 0.240843, -0.220719, -0.7002 ]
    },
    {
      "name" : "L_Finger40_ftw",
      "translation" : [ 0.00261887, -0.000593472, -0.0229761 ],
      "rotation" : [ -0.594125, 0.345968, -0.330871, -0.646411 ]
    },
    {
      "name" : "L_ForearmTwist01",
      "translation" : [ 0.0183996, -6.19888e-08, -4.76837e-09 ],
      "rotation" : [ -0.0284437, -2.09463e-08, -1.08667e-08, -0.999595 ]
    },
    {
      "name" : "L_ForearmTwist02",
      "translation" : [ 0.0433996, -1.90735e-08, 9.53674e-09 ],
      "rotation" : [ -0.0568644, 2.05085e-09, 1.11975e-08, -0.998382 ]
    },
    {
      "name" : "L_ForearmTwist03",
      "translation" : [ 0.0683997, -2.86102e-08, -4.76837e-09 ],
      "rotation" : [ -0.085239, -7.85691e-08, -9.87472e-09, -0.996361 ]
    },
    {
      "name" : "L_ForearmTwist04",
      "translation" : [ 0.0934601, -4.76837e-08, -0 ],
      "rotation" : [ -0.113545, -2.87603e-08, -3.13281e-09, -0.993533 ]
    },
    {
      "name" : "L_ForearmTwist05",
      "translation" : [ 0.118714, -1.09673e-07, -4.76837e-09 ],
      "rotation" : [ -0.14035, -2.25957e-08, -9.88068e-09, -0.990102 ]
    },
    {
      "name" : "R_Clavicle",
      "children" : [ 44 ],
      "translation" : [ 0.00214968, -0.021204, 0.00150459 ],
      "rotation" : [ 0.570441, -0.789907, 0.168637, -0.149017 ]
    },
    {
      "name" : "R_UpperArm",
      "children" : [ 45 ],
      "translation" : [ 0.104212, -1.00136e-07, 6.55651e-09 ],
      "rotation" : [ -0.00539689, -0.0186994, 0.0833601, -0.996329 ]
    },
    {
      "name" : "R_Forearm",
      "children" : [ 46, 77, 78, 79, 80, 81 ],
      "translation" : [ 0.104811, 3.33786e-08, 2.6226e-08 ],
      "rotation" : [ 4.8792e-09, 0.161434, -2.881e-08, -0.986884 ]
    },
    {
      "name" : "R_Hand",
      "children" : [ 47, 53, 59, 65, 71 ],
      "translation" : [ 0.162085, 1.00136e-07, 9.53674e-09 ],
      "rotation" : [ -0.59545, -0.0316586, 0.0850952, -0.798245 ]
    },
    {
      "name" : "R_Finger0",
      "children" : [ 48, 52 ],
      "translation" : [ 0.00392246, 0.00805398, -0.00795319 ],
      "rotation" : [ 0.568629, 0.189233, -0.420309, -0.681316 ]
    },
    {
      "name" : "R_Finger01",
      "children" : [ 49, 51 ],
      "translation" : [ 0.0385583, 1.81198e-07, 2.28882e-07 ],
      "rotation" : [ -2.73838e-08, -0.212557, -3.43451e-08, -0.977149 ]
    },
    {
      "name" : "R_Finger02",
      "children" : [ 50 ],
      "translation" : [ 0.0252956, -1.04904e-07, -1.04904e-07 ],
      "rotation" : [ -9.74734e-10, -0.117443, 3.89639e-08, -0.99308 ]
    },
    {
      "name" : "R_Finger02_ftw",
      "translation" : [ -0.00312515, -0.000389271, -0.0119718 ],
      "rotation" : [ -0.0474758, 0.12786, -0.0139905, -0.990556 ]
    },
    {
      "name" : "R_Finger01_ftw",
      "translation" : [ -0.00925396, -0.000341167, -0.0202348 ],
      "rotation" : [ -0.0531016, 0.156113, -0.00759507, -0.986281 ]
    },
    {
      "name" : "R_Finger00_ftw",
      "translation" : [ 0.00249666, -0.000807323, -0.0165525 ],
      "rotation" : [ -0.992767, -0.00643937, -0.0525149, -0.107772 ]
    },
    {
      "name" : "R_Finger1",
      "children" : [ 54, 58 ],
      "translation" : [ 0.0618532, 0.0187765, 0.0033754 ],
      "rotation" : [ 0.0265025, -0.232991, -0.155221, -0.959645 ]
    },
    {
      "name" : "R_Finger11",
      "children" : [ 55, 57 ],
      "translation" : [ 0.0298816, 6.67572e-08, -2.86102e-08 ],
      "rotation" : [ 2.4978e-07, -0.22383, -2.10267e-08, -0.974628 ]
    },
    {
      "name" : "R_Finger12",
      "children" : [ 56 ],
      "translation" : [ 0.0182839, 9.53674e-09, -1.90735e-08 ],
      "rotation" : [ 1.27409e-08, -0.19078, 1.30534e-08, -0.981633 ]
    },
    {
      "name" : "R_Finger12_ftw",
      "translation" : [ -0.00359114, -0.000107746, -0.0106567 ],
      "rotation" : [ -0.697922, 0.0776126, -0.0867903, -0.706646 ]
    },
    {
      "name" : "R_Finger11_ftw",
      "translation" : [ -0.00142273, -0.000247679, -0.0121381 ],
      "rotation" : [ -0.695984, 0.0964493, -0.103047, -0.704049 ]
    },
    {
      "name" : "R_Finger10_ftw",
      "translation" : [ 0.00227215, 0.000137959, -0.0210999 ],
      "rotation" : [ -0.65713, 0.178766, -0.152641, -0.716187 ]
    },
    {
      "name" : "R_Finger2",
      "children" : [ 60, 64 ],
      "translation" : [ 0.0665344, 0.00351816, 0.00380286 ],
      "rotation" : [ -0.00280523, -0.33303, -0.0418501, -0.941983 ]
    },
    {
      "name" : "R_Finger21",
      "children" : [ 61, 63 ],
      "translation" : [ 0.031859, -4.76837e-09, -5.72205e-08 ],
      "rotation" : [ -4.19125e-08, -0.312769, 1.01643e-07, -0.949829 ]
    },
    {
      "name" : "R_Finger22",
      "children" : [ 62 ],
      "translation" : [ 0.0204568, -2.38419e-09, 1.14441e-07 ],
      "rotation" : [ -7.73447e-08, -0.301585, -1.91646e-07, -0.953439 ]
    },
    {
      "name" : "R_Finger22_ftw",
      "translation" : [ -0.00306343, -0.000172095, -0.012777 ],
      "rotation" : [ -0.697611, 0.118719, -0.128729, -0.694747 ]
    },
    {
      "name" : "R_Finger21_ftw",
      "translation" : [ -0.0027095, -4.21762e-05, -0.0148815 ],
      "rotation" : [ -0.695671, 0.154737, -0.150658, -0.685128 ]
    },
    {
      "name" : "R_Finger20_ftw",
      "translation" : [ 0.00491344, -0.000122268, -0.0225579 ],
      "rotation" : [ -0.632616, 0.237502, -0.216014, -0.704789 ]
    },
    {
      "name" : "R_Finger3",
      "children" : [ 66, 70 ],
      "translation" : [ 0.0637386, -0.0114093, 0.00090066 ],
      "rotation" : [ -0.021452, -0.339427, 0.0649066, -0.938145 ]
    },
    {
      "name" : "R_Finger31",
      "children" : [ 67, 69 ],
      "translation" : [ 0.0302914, 1.43051e-08, 7.62939e-08 ],
      "rotation" : [ -0.00348236, -0.310127, 0.0131983, -0.950597 ]
    },
    {
      "name" : "R_Finger32",
      "children" : [ 68 ],
      "translation" : [ 0.0196626, 1.43051e-08, -2.67029e-07 ],
      "rotation" : [ 0.000813662, -0.316612, -0.00290494, -0.94855 ]
    },
    {
      "name" : "R_Finger32_ftw",
      "translation" : [ -0.00472991, 0.000254784, -0.0137071 ],
      "rotation" : [ -0.671517, 0.138261, -0.127945, -0.716644 ]
    },
    {
      "name" : "R_Finger31_ftw",
      "translation" : [ -0.00595009, 0.000425105, -0.0156597 ],
      "rotation" : [ -0.665612, 0.187377, -0.166428, -0.702959 ]
    },
    {
      "name" : "R_Finger30_ftw",
      "translation" : [ 0.00249077, 0.00101888, -0.0240241 ],
      "rotation" : [ -0.631458, 0.294357, -0.271564, -0.663979 ]
    },
    {
      "name" : "R_Finger4",
      "children" : [ 72, 76 ],
      "translation" : [ 0.057531, -0.0259792, -0.00299848 ],
      "rotation" : [ -0.0673868, -0.349038, 0.147182, -0.923022 ]
    },
    {
      "name" : "R_Finger41",
      "children" : [ 73, 75 ],
      "translation" : [ 0.0229432, 1.52588e-07, -7.62939e-08 ],
      "rotation" : [ -0.00024983, -0.282935, 0.000901496, -0.959139 ]
    },
    {
      "name" : "R_Finger42",
      "children" : [ 74 ],
      "translation" : [ 0.0138553, -8.58307e-08, -1.52588e-07 ],
      "rotation" : [ -1.3076e-07, -0.284729, 6.97997e-08, -0.958608 ]
    },
    {
      "name" : "R_Finger42_ftw",
      "translation" : [ -0.00279387, 0.000218067, -0.0112437 ],
      "rotation" : [ -0.658004, 0.139719, -0.126975, -0.728963 ]
    },
    {
      "name" : "R_Finger41_ftw",
      "translation" : [ -0.00445263, 0.000212774, -0.0162257 ],
      "rotation" : [ -0.631228, 0.254733, -0.231657, -0.69498 ]
    },
    {
      "name" : "R_Finger40_ftw",
      "translation" : [ 0.00191479, -0.000376329, -0.0225609 ],
      "rotation" : [ -0.616935, 0.307254, -0.32641, -0.646871 ]
    },
    {
      "name" : "R_ForearmTwist01",
      "translation" : [ 0.0183996, -2.38419e-08, -9.53674e-09 ],
      "rotation" : [ 0.0284437, -4.1692e-08, 1.06141e-07, -0.999595 ]
    },
    {
      "name" : "R_ForearmTwist02",
      "translation" : [ 0.0433996, -8.10623e-08, 9.53674e-09 ],
      "rotation" : [ 0.0568643, -2.77267e-08, 1.10844e-07, -0.998382 ]
    },
    {
      "name" : "R_ForearmTwist03",
      "translation" : [ 0.0683996, -7.15256e-08, -4.76837e-09 ],
      "rotation" : [ 0.0852389, -7.28246e-08, 1.05755e-07, -0.996361 ]
    },
    {
      "name" : "R_ForearmTwist04",
      "translation" : [ 0.0939496, -5.72205e-08, -1.43051e-08 ],
      "rotation" : [ 0.113545, -1.90611e-08, 8.793e-08, -0.993533 ]
    },
    {
      "name" : "R_ForearmTwist05",
      "translation" : [ 0.119138, -8.58307e-08, -1.90735e-08 ],
      "rotation" : [ 0.14035, -6.75299e-08, 9.73551e-08, -0.990102 ]
    },
    {
      "name" : "Prop2",
      "translation" : [ -0.414181, -0.0144965, -0.00571566 ],
      "rotation" : [ -0.0705724, -0.723229, 0.685669, -0.0426292 ]
    },
    {
      "name" : "Prop1",
      "children" : [ 84 ],
      "translation" : [ 0.414179, -0.0144982, -0.00571304 ],
      "rotation" : [ 0.686229, -0.0406618, -0.0674561, -0.723109 ]
    },
    {
      "name" : "R_WEP_root",
      "children" : [ 85, 91, 92 ],
      "translation" : [ 3.8147e-08, -9.53674e-09, -1.90735e-08 ],
      "rotation" : [ 4.3679e-07, -2.7474e-07, -6.98492e-08, -1 ]
    },
    {
      "name" : "R_WEP_body",
      "children" : [ 86, 88, 90 ],
      "translation" : [ 0.0134722, -0.0394522, 5.72205e-08 ],
      "rotation" : [ -0.707107, -2.75272e-07, -1.5805e-08, -0.707107 ]
    },
    {
      "name" : "R_WEP_grip_pt",
      "children" : [ 87 ],
      "translation" : [ 0.0329481, -0.0958366, -0.0470257 ],
      "rotation" : [ 0.695355, -0.181689, -0.117045, -0.685398 ]
    },
    {
      "name" : "R_WEP_grip",
      "translation" : [ 0, 0, -0 ],
      "rotation" : [ -9.31323e-10, 9.31323e-10, 1.55414e-08, -1 ]
    },
    {
      "name" : "R_WEP_hatch_pt",
      "children" : [ 89 ],
      "translation" : [ 0.548003, 0.0548709, 0.174911 ],
      "rotation" : [ -0.500001, -0.500001, 0.499999, 0.5 ]
    },
    {
      "name" : "R_WEP_hatch",
      "translation" : [ 2.86102e-08, 1.90735e-08, -0 ],
      "rotation" : [ -2.38535e-07, -1.58325e-08, -5.70901e-07, -1 ]
    },
    {
      "name" : "LeftHand_IK",
      "translation" : [ -0.0210631, -0.149708, -0.0347167 ],
      "rotation" : [ -0.969686, 0.00347105, 0.234697, 0.0679302 ]
    },
    {
      "name" : "R_WEP_handIK",
      "translation" : [ -0.000125237, 0.00125195, 3.8147e-08 ],
      "rotation" : [ -0.707107, -2.71979e-07, -1.90978e-08, -0.707107 ]
    },
    {
      "name" : "RandHand_IK",
      "translation" : [ -0.048071, -0.0147359, 0.011053 ],
      "rotation" : [ 0.0641202, 0.117626, -0.142453, -0.980694 ]
    }
  ],
  "skins" : [
    {
      "inverseBindMatrices" : 0,
      "skeleton" : 1,
      "joints" : [
        1,2,3,4,5,6,7,8,9,10,11,12,13,14,15,16,17,18,19,20,21,22,23,24,25,26,27,28,29,30,31,32,
        33,34,35,36,37,38,39,40,41,42,43,44,45,46,47,48,49,50,51,52,53,54,55,56,57,58,59,60,61,62,63,64,
        65,66,67,68,69,70,71,72,73,74,75,76,77,78,79,80,81,82,83,84,85,86,87,88,89,90,91,92
      ]
    }
  ],
  "materials" : [
    {
      "name" : "dummy_material_0",
      "pbrMetallicRoughness" : {
        "baseColorFactor" : [ 0.3, 0.3, 0.3, 1.0 ],
        "metallicFactor" : 0.1,
        "roughnessFactor" : 0.5
      }
    },
    {
      "name" : "dummy_material_1",
      "pbrMetallicRoughness" : {
        "baseColorFactor" : [ 0.9, 0.3, 0.3, 1.0 ],
        "metallicFactor" : 0.1,
        "roughnessFactor" : 0.5
      }
    },
    {
      "name" : "dummy_material_2",
      "pbrMetallicRoughness" : {
        "baseColorFactor" : [ 0.3, 0.9, 0.3, 1.0 ],
        "metallicFactor" : 0.1,
        "roughnessFactor" : 0.5
      }
    }
  ],
  "meshes" : [
    {
      "primitives" : [
        {
          "attributes" : {
            "POSITION" : 2,
            "NORMAL" : 3,
            "TANGENT" : 4,
            "JOINTS_0" : 5,
            "WEIGHTS_0" : 6,
            "TEXCOORD_0" : 7
          },
          "indices" : 1,
          "material" : 0
        },
        {
          "attributes" : {
            "POSITION" : 9,
            "NORMAL" : 10,
            "TANGENT" : 11,
            "JOINTS_0" : 12,
            "WEIGHTS_0" : 13,
            "TEXCOORD_0" : 14
          },
          "indices" : 8,
          "material" : 1
        },
        {
          "attributes" : {
            "POSITION" : 16,
            "NORMAL" : 17,
            "TANGENT" : 18,
            "JOINTS_0" : 19,
            "WEIGHTS_0" : 20,
            "TEXCOORD_0" : 21
          },
          "indices" : 15,
          "material" : 2
        }
      ],
      "name" : "SKL_WEP_RocketLauncherWithHands_1p"
    }
  ],
  "buffers" : [
    {
      "uri" : "SKL_WEP_RocketLauncherWithHands_1p.bin",
      "byteLength" : 913660
    }
  ],
  "bufferViews" : [
    {
      "buffer" : 0,
      "byteOffset" : 0,
      "byteLength" : 5888
    },
    {
      "buffer" : 0,
      "byteOffset" : 5888,
      "byteLength" : 50828
    },
    {
      "buffer" : 0,
      "byteOffset" : 56716,
      "byteLength" : 109872
    },
    {
      "buffer" : 0,
      "byteOffset" : 166588,
      "byteLength" : 109872
    },
    {
      "buffer" : 0,
      "byteOffset" : 276460,
      "byteLength" : 146496
    },
    {
      "buffer" : 0,
      "byteOffset" : 422956,
      "byteLength" : 73248
    },
    {
      "buffer" : 0,
      "byteOffset" : 496204,
      "byteLength" : 36624
    },
    {
      "buffer" : 0,
      "byteOffset" : 532828,
      "byteLength" : 73248
    },
    {
      "buffer" : 0,
      "byteOffset" : 606076,
      "byteLength" : 12
    },
    {
      "buffer" : 0,
      "byteOffset" : 606088,
      "byteLength" : 48
    },
    {
      "buffer" : 0,
      "byteOffset" : 606136,
      "byteLength" : 48
    },
    {
      "buffer" : 0,
      "byteOffset" : 606184,
      "byteLength" : 64
    },
    {
      "buffer" : 0,
      "byteOffset" : 606248,
      "byteLength" : 32
    },
    {
      "buffer" : 0,
      "byteOffset" : 606280,
      "byteLength" : 16
    },
    {
      "buffer" : 0,
      "byteOffset" : 606296,
      "byteLength" : 32
    },
    {
      "buffer" : 0,
      "byteOffset" : 606328,
      "byteLength" : 44712
    },
    {
      "buffer" : 0,
      "byteOffset" : 651040,
      "byteLength" : 52524
    },
    {
      "buffer" : 0,
      "byteOffset" : 703564,
      "byteLength" : 52524
    },
    {
      "buffer" : 0,
      "byteOffset" : 756088,
      "byteLength" : 70032
    },
    {
      "buffer" : 0,
      "byteOffset" : 826120,
      "byteLength" : 35016
    },
    {
      "buffer" : 0,
      "byteOffset" : 861136,
      "byteLength" : 17508
    },
    {
      "buffer" : 0,
      "byteOffset" : 878644,
      "byteLength" : 35016
    }
  ],
  "accessors" : [
    {
      "bufferView" : 0,
      "componentType" : 5126,
      "count" : 92,
      "type" : "MAT4"
    },
    {
      "bufferView" : 1,
      "componentType" : 5123,
      "count" : 25413,
      "type" : "SCALAR"
    },
    {
      "bufferView" : 2,
      "min" : [ -0.265767, -0.318852, 0.0660717 ],
      "max" : [ 0.0764611, -0.0263651, 1.03727 ],
      "componentType" : 5126,
      "count" : 9156,
      "type" : "VEC3"
    },
    {
      "bufferView" : 3,
      "componentType" : 5126,
      "count" : 9156,
      "type" : "VEC3"
    },
    {
      "bufferView" : 4,
      "componentType" : 5126,
      "count" : 9156,
      "type" : "VEC4"
    },
    {
      "bufferView" : 5,
      "componentType" : 5123,
      "count" : 9156,
      "type" : "VEC4"
    },
    {
      "bufferView" : 6,
      "normalized" : true,
      "componentType" : 5121,
      "count" : 9156,
      "type" : "VEC4"
    },
    {
      "bufferView" : 7,
      "componentType" : 5126,
      "count" : 9156,
      "type" : "VEC2"
    },
    {
      "bufferView" : 8,
      "componentType" : 5123,
      "count" : 6,
      "type" : "SCALAR"
    },
    {
      "bufferView" : 9,
      "min" : [ 0.0116424, -0.218882, 0.462291 ],
      "max" : [ 0.0684547, -0.161606, 0.476144 ],
      "componentType" : 5126,
      "count" : 4,
      "type" : "VEC3"
    },
    {
      "bufferView" : 10,
      "componentType" : 5126,
      "count" : 4,
      "type" : "VEC3"
    },
    {
      "bufferView" : 11,
      "componentType" : 5126,
      "count" : 4,
      "type" : "VEC4"
    },
    {
      "bufferView" : 12,
      "componentType" : 5123,
      "count" : 4,
      "type" : "VEC4"
    },
    {
      "bufferView" : 13,
      "normalized" : true,
      "componentType" : 5121,
      "count" : 4,
      "type" : "VEC4"
    },
    {
      "bufferView" : 14,
      "componentType" : 5126,
      "count" : 4,
      "type" : "VEC2"
    },
    {
      "bufferView" : 15,
      "componentType" : 5123,
      "count" : 22356,
      "type" : "SCALAR"
    },
    {
      "bufferView" : 16,
      "min" : [ -0.0463737, -0.21888, -0.482857 ],
      "max" : [ 0.0821557, -0.0506885, 0.482857 ],
      "componentType" : 5126,
      "count" : 4377,
      "type" : "VEC3"
    },
    {
      "bufferView" : 17,
      "componentType" : 5126,
      "count" : 4377,
      "type" : "VEC3"
    },
    {
      "bufferView" : 18,
      "componentType" : 5126,
      "count" : 4377,
      "type" : "VEC4"
    },
    {
      "bufferView" : 19,
      "componentType" : 5123,
      "count" : 4377,
      "type" : "VEC4"
    },
    {
      "bufferView" : 20,
      "normalized" : true,
      "componentType" : 5121,
      "count" : 4377,
      "type" : "VEC4"
    },
    {
      "bufferView" : 21,
      "componentType" : 5126,
      "count" : 4377,
      "type" : "VEC2"
    }
  ]
}
