{
  "asset" : {
    "generator" : "UE Viewer (umodel) build 1575",
    "version" : "2.0"
  },
  "scene" : 0,
  "scenes" : [
    {
      "nodes" : [ 0 ]
    }
  ],
  "nodes" : [
    {
      "name" : "SKL_WEP_RocketLauncher_3p",
      "mesh" : 0,
      "skin" : 0,
      "children" : [ 1 ]
    },
    {
      "name" : "R_WEP_root",
      "translation" : [ 0, 9.53674e-09, -3.8147e-08 ],
      "rotation" : [ -1.62981e-07, 1.93832e-07, 1.62981e-07, -1 ]
    }
  ],
  "skins" : [
    {
      "inverseBindMatrices" : 0,
      "skeleton" : 1,
      "joints" : [
        1
      ]
    }
  ],
  "materials" : [
    {
      "name" : "MAT_WEP_Rocket_Launcher_3p",
      "pbrMetallicRoughness" : {
        "baseColorFactor" : [ 0.3, 0.3, 0.3, 1.0 ],
        "metallicFactor" : 0.1,
        "roughnessFactor" : 0.5
      }
    }
  ],
  "meshes" : [
    {
      "primitives" : [
        {
          "attributes" : {
            "POSITION" : 2,
            "NORMAL" : 3,
            "TANGENT" : 4,
            "JOINTS_0" : 5,
            "WEIGHTS_0" : 6,
            "TEXCOORD_0" : 7
          },
          "indices" : 1,
          "material" : 0
        }
      ],
      "name" : "SKL_WEP_RocketLauncher_3p"
    }
  ],
  "buffers" : [
    {
      "uri" : "SKL_WEP_RocketLauncher_3p.bin",
      "byteLength" : 185352
    }
  ],
  "bufferViews" : [
    {
      "buffer" : 0,
      "byteOffset" : 0,
      "byteLength" : 64
    },
    {
      "buffer" : 0,
      "byteOffset" : 64,
      "byteLength" : 12008
    },
    {
      "buffer" : 0,
      "byteOffset" : 12072,
      "byteLength" : 34656
    },
    {
      "buffer" : 0,
      "byteOffset" : 46728,
      "byteLength" : 34656
    },
    {
      "buffer" : 0,
      "byteOffset" : 81384,
      "byteLength" : 46208
    },
    {
      "buffer" : 0,
      "byteOffset" : 127592,
      "byteLength" : 23104
    },
    {
      "buffer" : 0,
      "byteOffset" : 150696,
      "byteLength" : 11552
    },
    {
      "buffer" : 0,
      "byteOffset" : 162248,
      "byteLength" : 23104
    }
  ],
  "accessors" : [
    {
      "bufferView" : 0,
      "componentType" : 5126,
      "count" : 1,
      "type" : "MAT4"
    },
    {
      "bufferView" : 1,
      "componentType" : 5123,
      "count" : 6003,
      "type" : "SCALAR"
    },
    {
      "bufferView" : 2,
      "min" : [ -0.364616, -0.378202, -0.228988 ],
      "max" : [ 0.580702, 0.0533261, 0.105216 ],
      "componentType" : 5126,
      "count" : 2888,
      "type" : "VEC3"
    },
    {
      "bufferView" : 3,
      "componentType" : 5126,
      "count" : 2888,
      "type" : "VEC3"
    },
    {
      "bufferView" : 4,
      "componentType" : 5126,
      "count" : 2888,
      "type" : "VEC4"
    },
    {
      "bufferView" : 5,
      "componentType" : 5123,
      "count" : 2888,
      "type" : "VEC4"
    },
    {
      "bufferView" : 6,
      "normalized" : true,
      "componentType" : 5121,
      "count" : 2888,
      "type" : "VEC4"
    },
    {
      "bufferView" : 7,
      "componentType" : 5126,
      "count" : 2888,
      "type" : "VEC2"
    }
  ]
}
