{
  "asset" : {
    "generator" : "UE Viewer (umodel) build 1575",
    "version" : "2.0"
  },
  "scene" : 0,
  "scenes" : [
    {
      "nodes" : [ 0 ]
    }
  ],
  "nodes" : [
    {
      "name" : "SKL_WEP_Chaingun_1p_withHands",
      "mesh" : 0,
      "skin" : 0,
      "children" : [ 1 ]
    },
    {
      "name" : "Root",
      "children" : [ 2, 82, 86 ],
      "translation" : [ 0.0179209, -0.128046, 0.00449533 ],
      "rotation" : [ -0, 0.707107, 0, -0.707107 ]
    },
    {
      "name" : "Spine3",
      "children" : [ 3 ],
      "translation" : [ 3.57628e-09, 0, -0 ],
      "rotation" : [ -0.0764528, 0.076455, -0.702961, -0.702962 ]
    },
    {
      "name" : "Neck",
      "children" : [ 4, 43 ],
      "translation" : [ 0.0716009, 8.64267e-09, -0.000436653 ],
      "rotation" : [ -4.10701e-07, -0.219934, -6.65629e-07, -0.975515 ]
    },
    {
      "name" : "L_Clavicle",
      "children" : [ 5 ],
      "translation" : [ 0.00214968, 0.0212038, 0.0015047 ],
      "rotation" : [ -0.570441, -0.789906, -0.168639, -0.149015 ]
    },
    {
      "name" : "L_UpperArm",
      "children" : [ 6 ],
      "translation" : [ 0.104212, -1.90735e-08, 2.26498e-08 ],
      "rotation" : [ 0.00539691, -0.0186995, -0.0833601, -0.996329 ]
    },
    {
      "name" : "L_Forearm",
      "children" : [ 7, 38, 39, 40, 41, 42 ],
      "translation" : [ 0.104812, -1.14441e-07, 9.53674e-09 ],
      "rotation" : [ 2.14969e-07, 0.161434, 1.78205e-07, -0.986884 ]
    },
    {
      "name" : "L_Hand",
      "children" : [ 8, 14, 20, 26, 32 ],
      "translation" : [ 0.162085, -1.62125e-07, -2.38419e-08 ],
      "rotation" : [ 0.59545, -0.0316585, -0.0850953, -0.798245 ]
    },
    {
      "name" : "L_Finger0",
      "children" : [ 9, 13 ],
      "translation" : [ 0.00392223, -0.00805421, -0.00795344 ],
      "rotation" : [ -0.568629, 0.189233, 0.420309, -0.681316 ]
    },
    {
      "name" : "L_Finger01",
      "children" : [ 10, 12 ],
      "translation" : [ 0.0385583, -3.8147e-08, -1.33514e-07 ],
      "rotation" : [ 2.48169e-07, -0.212557, -8.16672e-08, -0.977149 ]
    },
    {
      "name" : "L_Finger02",
      "children" : [ 11 ],
      "translation" : [ 0.0252957, 1.04904e-07, 1.04904e-07 ],
      "rotation" : [ -2.03473e-08, -0.117443, 6.56265e-10, -0.99308 ]
    },
    {
      "name" : "L_Finger02_ftw",
      "translation" : [ 0.0014082, 0.000312042, -0.00870076 ],
      "rotation" : [ -0.0502902, 0.075018, 0.00415283, -0.995905 ]
    },
    {
      "name" : "L_Finger01_ftw",
      "translation" : [ -0.00365711, 0.000318527, -0.0174397 ],
      "rotation" : [ -0.0516949, 0.147625, -0.00761827, -0.987662 ]
    },
    {
      "name" : "L_Finger00_ftw",
      "translation" : [ -0.00332251, 0.000655994, -0.0223162 ],
      "rotation" : [ -0.0964751, 0.124246, -0.00684891, -0.987527 ]
    },
    {
      "name" : "L_Finger1",
      "children" : [ 15, 19 ],
      "translation" : [ 0.0618531, -0.0187766, 0.00337527 ],
      "rotation" : [ -0.0265028, -0.232991, 0.155221, -0.959645 ]
    },
    {
      "name" : "L_Finger11",
      "children" : [ 16, 18 ],
      "translation" : [ 0.0298815, 9.53674e-09, 1.43051e-07 ],
      "rotation" : [ 2.0523e-08, -0.22383, 4.1812e-08, -0.974628 ]
    },
    {
      "name" : "L_Finger12",
      "children" : [ 17 ],
      "translation" : [ 0.0182841, -4.76837e-08, -1.90735e-07 ],
      "rotation" : [ 1.13025e-08, -0.19078, -5.75338e-09, -0.981633 ]
    },
    {
      "name" : "L_Finger12_ftw",
      "translation" : [ 0.000572891, -0.000237455, -0.00847729 ],
      "rotation" : [ -0.700842, 0.0499969, -0.057222, -0.709258 ]
    },
    {
      "name" : "L_Finger11_ftw",
      "translation" : [ 0.00317688, -0.000339699, -0.00960804 ],
      "rotation" : [ -0.701636, 0.0406317, -0.0458921, -0.709894 ]
    },
    {
      "name" : "L_Finger10_ftw",
      "translation" : [ 0.00554008, -0.000536261, -0.0165528 ],
      "rotation" : [ -0.695413, 0.0951107, -0.0996056, -0.70529 ]
    },
    {
      "name" : "L_Finger2",
      "children" : [ 21, 25 ],
      "translation" : [ 0.0665343, -0.00351853, 0.00380265 ],
      "rotation" : [ 0.00280536, -0.33303, 0.0418498, -0.941983 ]
    },
    {
      "name" : "L_Finger21",
      "children" : [ 22, 24 ],
      "translation" : [ 0.0318591, -1.19209e-07, -3.8147e-08 ],
      "rotation" : [ -2.14953e-07, -0.31277, 1.25162e-07, -0.949829 ]
    },
    {
      "name" : "L_Finger22",
      "children" : [ 23 ],
      "translation" : [ 0.0204567, 1.23978e-07, -1.90735e-07 ],
      "rotation" : [ 1.79542e-08, -0.301585, 1.22009e-08, -0.953439 ]
    },
    {
      "name" : "L_Finger22_ftw",
      "translation" : [ 0.00127748, 0.000396631, -0.00886745 ],
      "rotation" : [ -0.711789, 0.0825135, -0.0709103, -0.693916 ]
    },
    {
      "name" : "L_Finger21_ftw",
      "translation" : [ 0.00382435, 0.000398417, -0.00973537 ],
      "rotation" : [ -0.709904, 0.0484658, -0.0489948, -0.700919 ]
    },
    {
      "name" : "L_Finger20_ftw",
      "translation" : [ 0.00804142, -0.000234892, -0.0167068 ],
      "rotation" : [ -0.681488, 0.0993691, -0.114572, -0.715942 ]
    },
    {
      "name" : "L_Finger3",
      "children" : [ 27, 31 ],
      "translation" : [ 0.0637386, 0.0114092, 0.000900431 ],
      "rotation" : [ 0.021452, -0.339427, -0.0649065, -0.938145 ]
    },
    {
      "name" : "L_Finger31",
      "children" : [ 28, 30 ],
      "translation" : [ 0.0302914, -1.19209e-07, -3.8147e-08 ],
      "rotation" : [ 0.0034824, -0.310127, -0.0131984, -0.950597 ]
    },
    {
      "name" : "L_Finger32",
      "children" : [ 29 ],
      "translation" : [ 0.0196626, 9.53674e-08, 7.62939e-08 ],
      "rotation" : [ -0.00081369, -0.316612, 0.00290502, -0.94855 ]
    },
    {
      "name" : "L_Finger32_ftw",
      "translation" : [ -0.000425377, -0.000253925, -0.0101794 ],
      "rotation" : [ -0.675868, 0.103734, -0.0962105, -0.723315 ]
    },
    {
      "name" : "L_Finger31_ftw",
      "translation" : [ 0.00275583, -8.90493e-05, -0.00920631 ],
      "rotation" : [ -0.681557, 0.0501374, -0.0385269, -0.729028 ]
    },
    {
      "name" : "L_Finger30_ftw",
      "translation" : [ 0.00699165, -0.00124509, -0.0161375 ],
      "rotation" : [ -0.650488, 0.109419, -0.130441, -0.740188 ]
    },
    {
      "name" : "L_Finger4",
      "children" : [ 33, 37 ],
      "translation" : [ 0.0575307, 0.025979, -0.00299863 ],
      "rotation" : [ 0.0673868, -0.349038, -0.147182, -0.923022 ]
    },
    {
      "name" : "L_Finger41",
      "children" : [ 34, 36 ],
      "translation" : [ 0.0229432, -8.58307e-08, -7.62939e-08 ],
      "rotation" : [ 0.000249892, -0.282935, -0.000901415, -0.959139 ]
    },
    {
      "name" : "L_Finger42",
      "children" : [ 35 ],
      "translation" : [ 0.0138553, 6.67572e-08, -1.14441e-07 ],
      "rotation" : [ 9.11212e-09, -0.284729, -1.0633e-07, -0.958608 ]
    },
    {
      "name" : "L_Finger42_ftw",
      "translation" : [ 0.000703344, -0.000252113, -0.00843193 ],
      "rotation" : [ -0.661597, 0.102235, -0.0922555, -0.737107 ]
    },
    {
      "name" : "L_Finger41_ftw",
      "translation" : [ 0.00315195, -0.000248747, -0.00930736 ],
      "rotation" : [ -0.662375, 0.10062, -0.0901217, -0.736894 ]
    },
    {
      "name" : "L_Finger40_ftw",
      "translation" : [ 0.00544449, -0.000159044, -0.0160754 ],
      "rotation" : [ -0.663846, 0.151345, -0.135626, -0.719728 ]
    },
    {
      "name" : "L_ForearmTwist01",
      "translation" : [ 0.0183996, -5.72205e-08, -4.76837e-09 ],
      "rotation" : [ -0.0284437, -2.09463e-08, -1.08667e-08, -0.999595 ]
    },
    {
      "name" : "L_ForearmTwist02",
      "translation" : [ 0.0433996, -1.43051e-08, 4.76837e-09 ],
      "rotation" : [ -0.0568644, 2.05085e-09, 1.11975e-08, -0.998382 ]
    },
    {
      "name" : "L_ForearmTwist03",
      "translation" : [ 0.0683997, -2.38419e-08, -9.53674e-09 ],
      "rotation" : [ -0.085239, -7.85691e-08, -9.87472e-09, -0.996361 ]
    },
    {
      "name" : "L_ForearmTwist04",
      "translation" : [ 0.0934601, -3.8147e-08, -4.76837e-09 ],
      "rotation" : [ -0.113545, -2.87603e-08, -3.13281e-09, -0.993533 ]
    },
    {
      "name" : "L_ForearmTwist05",
      "translation" : [ 0.118714, -1.04904e-07, -9.53674e-09 ],
      "rotation" : [ -0.14035, -2.25957e-08, -9.88068e-09, -0.990102 ]
    },
    {
      "name" : "R_Clavicle",
      "children" : [ 44 ],
      "translation" : [ 0.00214969, -0.021204, 0.0015046 ],
      "rotation" : [ 0.570441, -0.789907, 0.168637, -0.149017 ]
    },
    {
      "name" : "R_UpperArm",
      "children" : [ 45 ],
      "translation" : [ 0.104212, -1.00136e-07, 5.96046e-09 ],
      "rotation" : [ -0.00539689, -0.0186994, 0.0833601, -0.996329 ]
    },
    {
      "name" : "R_Forearm",
      "children" : [ 46, 77, 78, 79, 80, 81 ],
      "translation" : [ 0.104811, 2.86102e-08, 2.86102e-08 ],
      "rotation" : [ 4.8792e-09, 0.161434, -2.881e-08, -0.986884 ]
    },
    {
      "name" : "R_Hand",
      "children" : [ 47, 53, 59, 65, 71 ],
      "translation" : [ 0.162085, 1.04904e-07, 2.86102e-08 ],
      "rotation" : [ -0.59545, -0.0316586, 0.0850952, -0.798245 ]
    },
    {
      "name" : "R_Finger0",
      "children" : [ 48, 52 ],
      "translation" : [ 0.0039225, 0.00805397, -0.0079532 ],
      "rotation" : [ 0.568629, 0.189234, -0.420309, -0.681316 ]
    },
    {
      "name" : "R_Finger01",
      "children" : [ 49, 51 ],
      "translation" : [ 0.0385583, 1.62125e-07, 2.67029e-07 ],
      "rotation" : [ -2.73838e-08, -0.212557, -3.43451e-08, -0.977149 ]
    },
    {
      "name" : "R_Finger02",
      "children" : [ 50 ],
      "translation" : [ 0.0252956, -9.53674e-08, -1.33514e-07 ],
      "rotation" : [ -9.74734e-10, -0.117443, 3.89639e-08, -0.99308 ]
    },
    {
      "name" : "R_Finger02_ftw",
      "translation" : [ 0.00140862, -0.000317249, -0.00870509 ],
      "rotation" : [ -0.0451252, 0.0744237, -0.0113914, -0.99614 ]
    },
    {
      "name" : "R_Finger01_ftw",
      "translation" : [ -0.00364014, -0.00033741, -0.0173559 ],
      "rotation" : [ -0.0528213, 0.146266, -0.00816565, -0.9878 ]
    },
    {
      "name" : "R_Finger00_ftw",
      "translation" : [ 0.00426107, -0.00110891, -0.0165301 ],
      "rotation" : [ -0.992954, -0.01099, -0.0487045, -0.107467 ]
    },
    {
      "name" : "R_Finger1",
      "children" : [ 54, 58 ],
      "translation" : [ 0.0618532, 0.0187765, 0.00337538 ],
      "rotation" : [ 0.0265025, -0.232991, -0.155221, -0.959645 ]
    },
    {
      "name" : "R_Finger11",
      "children" : [ 55, 57 ],
      "translation" : [ 0.0298816, 8.58307e-08, -9.53674e-09 ],
      "rotation" : [ 2.4978e-07, -0.22383, -2.10267e-08, -0.974628 ]
    },
    {
      "name" : "R_Finger12",
      "children" : [ 56 ],
      "translation" : [ 0.0182841, -4.76837e-08, -0 ],
      "rotation" : [ 1.27409e-08, -0.19078, 1.30534e-08, -0.981633 ]
    },
    {
      "name" : "R_Finger12_ftw",
      "translation" : [ 0.000566177, -2.07806e-05, -0.00846611 ],
      "rotation" : [ -0.700581, 0.0496146, -0.0579995, -0.709479 ]
    },
    {
      "name" : "R_Finger11_ftw",
      "translation" : [ 0.00317947, -0.000151711, -0.00959682 ],
      "rotation" : [ -0.701257, 0.0399198, -0.0467536, -0.710253 ]
    },
    {
      "name" : "R_Finger10_ftw",
      "translation" : [ 0.00558262, 0.000424194, -0.0164783 ],
      "rotation" : [ -0.670185, 0.108769, -0.0833985, -0.729429 ]
    },
    {
      "name" : "R_Finger2",
      "children" : [ 60, 64 ],
      "translation" : [ 0.0665344, 0.00351815, 0.00380285 ],
      "rotation" : [ -0.00280523, -0.33303, -0.0418501, -0.941983 ]
    },
    {
      "name" : "R_Finger21",
      "children" : [ 61, 63 ],
      "translation" : [ 0.031859, -7.15256e-09, -7.62939e-08 ],
      "rotation" : [ -4.19125e-08, -0.312769, 1.01643e-07, -0.949829 ]
    },
    {
      "name" : "R_Finger22",
      "children" : [ 62 ],
      "translation" : [ 0.0204568, 0, 1.14441e-07 ],
      "rotation" : [ -7.73447e-08, -0.301585, -1.91646e-07, -0.953439 ]
    },
    {
      "name" : "R_Finger22_ftw",
      "translation" : [ 0.00128165, -0.000172126, -0.00886551 ],
      "rotation" : [ -0.703153, 0.070452, -0.0829757, -0.702657 ]
    },
    {
      "name" : "R_Finger21_ftw",
      "translation" : [ 0.00382355, -4.27008e-05, -0.00973625 ],
      "rotation" : [ -0.712196, 0.0518912, -0.0456133, -0.698573 ]
    },
    {
      "name" : "R_Finger20_ftw",
      "translation" : [ 0.0079464, 1.14465e-05, -0.01674 ],
      "rotation" : [ -0.657562, 0.113636, -0.0995863, -0.738094 ]
    },
    {
      "name" : "R_Finger3",
      "children" : [ 66, 70 ],
      "translation" : [ 0.0637387, -0.0114093, 0.00090065 ],
      "rotation" : [ -0.021452, -0.339427, 0.0649066, -0.938145 ]
    },
    {
      "name" : "R_Finger31",
      "children" : [ 67, 69 ],
      "translation" : [ 0.0302914, 1.43051e-08, 9.53674e-08 ],
      "rotation" : [ -0.00348236, -0.310127, 0.0131983, -0.950597 ]
    },
    {
      "name" : "R_Finger32",
      "children" : [ 68 ],
      "translation" : [ 0.0196626, 0, -2.67029e-07 ],
      "rotation" : [ 0.000813662, -0.316612, -0.00290494, -0.94855 ]
    },
    {
      "name" : "R_Finger32_ftw",
      "translation" : [ -0.000530815, 0.000168476, -0.0102853 ],
      "rotation" : [ -0.675334, 0.100892, -0.0956417, -0.724291 ]
    },
    {
      "name" : "R_Finger31_ftw",
      "translation" : [ 0.00271576, 0.000219736, -0.0092437 ],
      "rotation" : [ -0.682898, 0.0498217, -0.0409128, -0.727663 ]
    },
    {
      "name" : "R_Finger30_ftw",
      "translation" : [ 0.00695843, 0.000803537, -0.0161802 ],
      "rotation" : [ -0.681167, 0.130764, -0.108294, -0.712169 ]
    },
    {
      "name" : "R_Finger4",
      "children" : [ 72, 76 ],
      "translation" : [ 0.057531, -0.0259792, -0.0029985 ],
      "rotation" : [ -0.0673868, -0.349038, 0.147182, -0.923022 ]
    },
    {
      "name" : "R_Finger41",
      "children" : [ 73, 75 ],
      "translation" : [ 0.0229432, 1.81198e-07, -5.72205e-08 ],
      "rotation" : [ -0.00024983, -0.282935, 0.000901496, -0.959139 ]
    },
    {
      "name" : "R_Finger42",
      "children" : [ 74 ],
      "translation" : [ 0.0138553, -9.53674e-08, -1.90735e-07 ],
      "rotation" : [ -1.3076e-07, -0.284729, 6.97997e-08, -0.958608 ]
    },
    {
      "name" : "R_Finger42_ftw",
      "translation" : [ 0.000626574, 0.000222511, -0.00835167 ],
      "rotation" : [ -0.662302, 0.0990779, -0.089902, -0.737195 ]
    },
    {
      "name" : "R_Finger41_ftw",
      "translation" : [ 0.00318972, 0.000217791, -0.00935368 ],
      "rotation" : [ -0.661338, 0.109003, -0.0984559, -0.735566 ]
    },
    {
      "name" : "R_Finger40_ftw",
      "translation" : [ 0.00533916, -0.000230408, -0.0159242 ],
      "rotation" : [ -0.675455, 0.132483, -0.145229, -0.710716 ]
    },
    {
      "name" : "R_ForearmTwist01",
      "translation" : [ 0.0183996, -2.38419e-08, -1.43051e-08 ],
      "rotation" : [ 0.0284437, -4.1692e-08, 1.06141e-07, -0.999595 ]
    },
    {
      "name" : "R_ForearmTwist02",
      "translation" : [ 0.0433996, -7.15256e-08, 9.53674e-09 ],
      "rotation" : [ 0.0568643, -2.77267e-08, 1.10844e-07, -0.998382 ]
    },
    {
      "name" : "R_ForearmTwist03",
      "translation" : [ 0.0683996, -6.19888e-08, -4.76837e-09 ],
      "rotation" : [ 0.0852389, -7.28246e-08, 1.05755e-07, -0.996361 ]
    },
    {
      "name" : "R_ForearmTwist04",
      "translation" : [ 0.0939496, -5.24521e-08, -1.90735e-08 ],
      "rotation" : [ 0.113545, -1.90611e-08, 8.793e-08, -0.993533 ]
    },
    {
      "name" : "R_ForearmTwist05",
      "translation" : [ 0.119138, -8.58307e-08, -1.90735e-08 ],
      "rotation" : [ 0.14035, -6.75299e-08, 9.73551e-08, -0.990102 ]
    },
    {
      "name" : "Prop1",
      "children" : [ 83 ],
      "translation" : [ 0.41414, -0.0145564, -0.0054516 ],
      "rotation" : [ 0.686229, -0.0406619, -0.067456, -0.723109 ]
    },
    {
      "name" : "R_WEP_root",
      "children" : [ 84 ],
      "translation" : [ -7.62939e-08, 1.43051e-07, 2.28882e-07 ],
      "rotation" : [ 2.1141e-07, -3.36207e-07, -1.83529e-07, -1 ]
    },
    {
      "name" : "R_WEP_barrel_pt",
      "children" : [ 85 ],
      "translation" : [ 0.51425, 0.00701873, -3.8147e-08 ],
      "rotation" : [ 1.45286e-06, -3.67873e-07, -1.0361e-08, -1 ]
    },
    {
      "name" : "R_WEP_barrel",
      "translation" : [ 0, -1.90735e-08, -0 ],
      "rotation" : [ -1.86265e-09, -1.86265e-09, 7.567e-09, -1 ]
    },
    {
      "name" : "Prop2",
      "translation" : [ -0.414181, -0.0144965, -0.00571566 ],
      "rotation" : [ -0.0705724, -0.723229, 0.685669, -0.0426292 ]
    }
  ],
  "skins" : [
    {
      "inverseBindMatrices" : 0,
      "skeleton" : 1,
      "joints" : [
        1,2,3,4,5,6,7,8,9,10,11,12,13,14,15,16,17,18,19,20,21,22,23,24,25,26,27,28,29,30,31,32,
        33,34,35,36,37,38,39,40,41,42,43,44,45,46,47,48,49,50,51,52,53,54,55,56,57,58,59,60,61,62,63,64,
        65,66,67,68,69,70,71,72,73,74,75,76,77,78,79,80,81,82,83,84,85,86
      ]
    }
  ],
  "materials" : [
    {
      "name" : "dummy_material_0",
      "pbrMetallicRoughness" : {
        "baseColorFactor" : [ 0.3, 0.3, 0.3, 1.0 ],
        "metallicFactor" : 0.1,
        "roughnessFactor" : 0.5
      }
    },
    {
      "name" : "dummy_material_1",
      "pbrMetallicRoughness" : {
        "baseColorFactor" : [ 0.9, 0.3, 0.3, 1.0 ],
        "metallicFactor" : 0.1,
        "roughnessFactor" : 0.5
      }
    }
  ],
  "meshes" : [
    {
      "primitives" : [
        {
          "attributes" : {
            "POSITION" : 2,
            "NORMAL" : 3,
            "TANGENT" : 4,
            "JOINTS_0" : 5,
            "WEIGHTS_0" : 6,
            "TEXCOORD_0" : 7,
            "TEXCOORD_1" : 8
          },
          "indices" : 1,
          "material" : 0
        },
        {
          "attributes" : {
            "POSITION" : 10,
            "NORMAL" : 11,
            "TANGENT" : 12,
            "JOINTS_0" : 13,
            "WEIGHTS_0" : 14,
            "TEXCOORD_0" : 15,
            "TEXCOORD_1" : 16
          },
          "indices" : 9,
          "material" : 1
        }
      ],
      "name" : "SKL_WEP_Chaingun_1p_withHands"
    }
  ],
  "buffers" : [
    {
      "uri" : "SKL_WEP_Chaingun_1p_withHands.bin",
      "byteLength" : 1300704
    }
  ],
  "bufferViews" : [
    {
      "buffer" : 0,
      "byteOffset" : 0,
      "byteLength" : 5504
    },
    {
      "buffer" : 0,
      "byteOffset" : 5504,
      "byteLength" : 81240
    },
    {
      "buffer" : 0,
      "byteOffset" : 86744,
      "byteLength" : 153852
    },
    {
      "buffer" : 0,
      "byteOffset" : 240596,
      "byteLength" : 153852
    },
    {
      "buffer" : 0,
      "byteOffset" : 394448,
      "byteLength" : 205136
    },
    {
      "buffer" : 0,
      "byteOffset" : 599584,
      "byteLength" : 102568
    },
    {
      "buffer" : 0,
      "byteOffset" : 702152,
      "byteLength" : 51284
    },
    {
      "buffer" : 0,
      "byteOffset" : 753436,
      "byteLength" : 102568
    },
    {
      "buffer" : 0,
      "byteOffset" : 856004,
      "byteLength" : 102568
    },
    {
      "buffer" : 0,
      "byteOffset" : 958572,
      "byteLength" : 44700
    },
    {
      "buffer" : 0,
      "byteOffset" : 1003272,
      "byteLength" : 52488
    },
    {
      "buffer" : 0,
      "byteOffset" : 1055760,
      "byteLength" : 52488
    },
    {
      "buffer" : 0,
      "byteOffset" : 1108248,
      "byteLength" : 69984
    },
    {
      "buffer" : 0,
      "byteOffset" : 1178232,
      "byteLength" : 34992
    },
    {
      "buffer" : 0,
      "byteOffset" : 1213224,
      "byteLength" : 17496
    },
    {
      "buffer" : 0,
      "byteOffset" : 1230720,
      "byteLength" : 34992
    },
    {
      "buffer" : 0,
      "byteOffset" : 1265712,
      "byteLength" : 34992
    }
  ],
  "accessors" : [
    {
      "bufferView" : 0,
      "componentType" : 5126,
      "count" : 86,
      "type" : "MAT4"
    },
    {
      "bufferView" : 1,
      "componentType" : 5123,
      "count" : 40620,
      "type" : "SCALAR"
    },
    {
      "bufferView" : 2,
      "min" : [ -0.0381215, -0.256333, 0.301738 ],
      "max" : [ 0.163749, -0.0703545, 1.03791 ],
      "componentType" : 5126,
      "count" : 12821,
      "type" : "VEC3"
    },
    {
      "bufferView" : 3,
      "componentType" : 5126,
      "count" : 12821,
      "type" : "VEC3"
    },
    {
      "bufferView" : 4,
      "componentType" : 5126,
      "count" : 12821,
      "type" : "VEC4"
    },
    {
      "bufferView" : 5,
      "componentType" : 5123,
      "count" : 12821,
      "type" : "VEC4"
    },
    {
      "bufferView" : 6,
      "normalized" : true,
      "componentType" : 5121,
      "count" : 12821,
      "type" : "VEC4"
    },
    {
      "bufferView" : 7,
      "componentType" : 5126,
      "count" : 12821,
      "type" : "VEC2"
    },
    {
      "bufferView" : 8,
      "componentType" : 5126,
      "count" : 12821,
      "type" : "VEC2"
    },
    {
      "bufferView" : 9,
      "componentType" : 5123,
      "count" : 22350,
      "type" : "SCALAR"
    },
    {
      "bufferView" : 10,
      "min" : [ -0.0463737, -0.173506, -0.478361 ],
      "max" : [ 0.0821557, -0.0506885, 0.487352 ],
      "componentType" : 5126,
      "count" : 4374,
      "type" : "VEC3"
    },
    {
      "bufferView" : 11,
      "componentType" : 5126,
      "count" : 4374,
      "type" : "VEC3"
    },
    {
      "bufferView" : 12,
      "componentType" : 5126,
      "count" : 4374,
      "type" : "VEC4"
    },
    {
      "bufferView" : 13,
      "componentType" : 5123,
      "count" : 4374,
      "type" : "VEC4"
    },
    {
      "bufferView" : 14,
      "normalized" : true,
      "componentType" : 5121,
      "count" : 4374,
      "type" : "VEC4"
    },
    {
      "bufferView" : 15,
      "componentType" : 5126,
      "count" : 4374,
      "type" : "VEC2"
    },
    {
      "bufferView" : 16,
      "componentType" : 5126,
      "count" : 4374,
      "type" : "VEC2"
    }
  ]
}
