{
  "asset" : {
    "generator" : "UE Viewer (umodel) build 1575",
    "version" : "2.0"
  },
  "scene" : 0,
  "scenes" : [
    {
      "nodes" : [ 0 ]
    }
  ],
  "nodes" : [
    {
      "name" : "SKL_WEP_Chaingun_3p",
      "mesh" : 0,
      "skin" : 0,
      "children" : [ 1 ]
    },
    {
      "name" : "R_WEP_root",
      "translation" : [ 0, 1.90735e-08, -3.8147e-08 ],
      "rotation" : [ -3.50177e-07, -5.12222e-09, 2.49594e-07, -1 ]
    }
  ],
  "skins" : [
    {
      "inverseBindMatrices" : 0,
      "skeleton" : 1,
      "joints" : [
        1
      ]
    }
  ],
  "materials" : [
    {
      "name" : "MAT_Chaingun_1P",
      "pbrMetallicRoughness" : {
        "baseColorFactor" : [ 0.3, 0.3, 0.3, 1.0 ],
        "metallicFactor" : 0.1,
        "roughnessFactor" : 0.5
      }
    }
  ],
  "meshes" : [
    {
      "primitives" : [
        {
          "attributes" : {
            "POSITION" : 2,
            "NORMAL" : 3,
            "TANGENT" : 4,
            "JOINTS_0" : 5,
            "WEIGHTS_0" : 6,
            "TEXCOORD_0" : 7,
            "TEXCOORD_1" : 8
          },
          "indices" : 1,
          "material" : 0
        }
      ],
      "name" : "SKL_WEP_Chaingun_3p"
    }
  ],
  "buffers" : [
    {
      "uri" : "SKL_WEP_Chaingun_3p.bin",
      "byteLength" : 299920
    }
  ],
  "bufferViews" : [
    {
      "buffer" : 0,
      "byteOffset" : 0,
      "byteLength" : 64
    },
    {
      "buffer" : 0,
      "byteOffset" : 64,
      "byteLength" : 17588
    },
    {
      "buffer" : 0,
      "byteOffset" : 17652,
      "byteLength" : 49812
    },
    {
      "buffer" : 0,
      "byteOffset" : 67464,
      "byteLength" : 49812
    },
    {
      "buffer" : 0,
      "byteOffset" : 117276,
      "byteLength" : 66416
    },
    {
      "buffer" : 0,
      "byteOffset" : 183692,
      "byteLength" : 33208
    },
    {
      "buffer" : 0,
      "byteOffset" : 216900,
      "byteLength" : 16604
    },
    {
      "buffer" : 0,
      "byteOffset" : 233504,
      "byteLength" : 33208
    },
    {
      "buffer" : 0,
      "byteOffset" : 266712,
      "byteLength" : 33208
    }
  ],
  "accessors" : [
    {
      "bufferView" : 0,
      "componentType" : 5126,
      "count" : 1,
      "type" : "MAT4"
    },
    {
      "bufferView" : 1,
      "componentType" : 5123,
      "count" : 8793,
      "type" : "SCALAR"
    },
    {
      "bufferView" : 2,
      "min" : [ -0.134634, -0.0989037, -0.121296 ],
      "max" : [ 0.628428, 0.105788, 0.0716962 ],
      "componentType" : 5126,
      "count" : 4151,
      "type" : "VEC3"
    },
    {
      "bufferView" : 3,
      "componentType" : 5126,
      "count" : 4151,
      "type" : "VEC3"
    },
    {
      "bufferView" : 4,
      "componentType" : 5126,
      "count" : 4151,
      "type" : "VEC4"
    },
    {
      "bufferView" : 5,
      "componentType" : 5123,
      "count" : 4151,
      "type" : "VEC4"
    },
    {
      "bufferView" : 6,
      "normalized" : true,
      "componentType" : 5121,
      "count" : 4151,
      "type" : "VEC4"
    },
    {
      "bufferView" : 7,
      "componentType" : 5126,
      "count" : 4151,
      "type" : "VEC2"
    },
    {
      "bufferView" : 8,
      "componentType" : 5126,
      "count" : 4151,
      "type" : "VEC2"
    }
  ]
}
