{
  "asset" : {
    "generator" : "UE Viewer (umodel) build 1575",
    "version" : "2.0"
  },
  "scene" : 0,
  "scenes" : [
    {
      "nodes" : [ 0 ]
    }
  ],
  "nodes" : [
    {
      "name" : "SKL_PC_DS_Light_INF_Lod1",
      "mesh" : 0,
      "skin" : 0,
      "children" : [ 1 ]
    },
    {
      "name" : "Root",
      "children" : [ 2, 3, 82, 83 ],
      "translation" : [ 0, 0, -0 ],
      "rotation" : [ -0, 0.707107, 0, -0.707107 ]
    },
    {
      "name" : "EffectsSocket",
      "translation" : [ 0, 0, -0 ],
      "rotation" : [ -0, -0, 0, -1 ]
    },
    {
      "name" : "Pelvis",
      "children" : [ 4, 71 ],
      "translation" : [ 0.00472862, 0.509972, -1.05637e-08 ],
      "rotation" : [ 0.520979, 0.4781, -0.478101, -0.520981 ]
    },
    {
      "name" : "Spine",
      "children" : [ 5, 70 ],
      "translation" : [ 0.047313, 7.64949e-08, 0.000709889 ],
      "rotation" : [ 1.41376e-06, 0.0510925, -5.31272e-07, -0.998694 ]
    },
    {
      "name" : "Spine1",
      "children" : [ 6, 69 ],
      "translation" : [ 0.114436, 4.43447e-08, 0.000139825 ],
      "rotation" : [ 8.25597e-09, 0.102157, 6.79556e-08, -0.994768 ]
    },
    {
      "name" : "Neck",
      "children" : [ 7, 9, 39 ],
      "translation" : [ 0.120729, 6.21831e-08, 2.86102e-08 ],
      "rotation" : [ -4.77986e-07, -0.202105, -2.44222e-07, -0.979364 ]
    },
    {
      "name" : "Neck1",
      "children" : [ 8 ],
      "translation" : [ 0.0198836, 8.39911e-08, 4.26483e-05 ],
      "rotation" : [ -5.57773e-07, -0.144209, -6.87992e-07, -0.989547 ]
    },
    {
      "name" : "Head",
      "translation" : [ 0.0559313, -5.19503e-11, 3.8147e-08 ],
      "rotation" : [ 1.09413e-06, 0.157642, 6.25659e-07, -0.987496 ]
    },
    {
      "name" : "L_Clavicle",
      "children" : [ 10, 37 ],
      "translation" : [ 0.0112881, 0.0226179, 0.00645323 ],
      "rotation" : [ -0.546869, -0.80505, -0.207383, -0.0990988 ]
    },
    {
      "name" : "L_ShoulderDefCounter",
      "children" : [ 11 ],
      "translation" : [ 0.100468, 2.28882e-07, -1.90735e-08 ],
      "rotation" : [ 0.0588481, -0.00176218, 0.0553991, -0.996727 ]
    },
    {
      "name" : "L_UpperArm",
      "children" : [ 12, 36 ],
      "translation" : [ 5.72205e-08, 0, -0 ],
      "rotation" : [ 0.0588477, -0.00176214, 0.0553991, -0.996727 ]
    },
    {
      "name" : "L_Forearm",
      "children" : [ 13, 31, 32, 33, 34, 35 ],
      "translation" : [ 0.117947, -3.8147e-08, -0 ],
      "rotation" : [ 9.06066e-08, 0.137457, 5.90389e-08, -0.990508 ]
    },
    {
      "name" : "L_Hand",
      "children" : [ 14, 17, 19, 22, 25, 28 ],
      "translation" : [ 0.126315, -7.62939e-08, -7.62939e-08 ],
      "rotation" : [ 0.408264, -0.0137159, -0.0452804, -0.911637 ]
    },
    {
      "name" : "L_Finger0",
      "children" : [ 15 ],
      "translation" : [ 0.0054253, -0.00977491, -0.00439545 ],
      "rotation" : [ -0.555543, 0.0733086, 0.339107, -0.755648 ]
    },
    {
      "name" : "L_Finger01",
      "children" : [ 16 ],
      "translation" : [ 0.0323735, 7.62939e-08, -5.72205e-08 ],
      "rotation" : [ -2.2328e-08, -0.0460579, -2.68966e-07, -0.998939 ]
    },
    {
      "name" : "L_Finger02",
      "translation" : [ 0.0186478, -3.05176e-07, 1.90735e-08 ],
      "rotation" : [ 1.47999e-08, -0.116402, 8.96665e-08, -0.993202 ]
    },
    {
      "name" : "Prop2",
      "children" : [ 18 ],
      "translation" : [ 0.0449363, -0.0077841, -0.0202319 ],
      "rotation" : [ -0.983909, -0.0178267, -0.175658, -0.0273794 ]
    },
    {
      "name" : "R_grip",
      "translation" : [ -0.682777, 0.0605999, -0.00565388 ],
      "rotation" : [ -0.121966, -0.967761, -0.0447958, 0.215768 ]
    },
    {
      "name" : "L_Finger1",
      "children" : [ 20 ],
      "translation" : [ 0.0616775, -0.0185018, -0.00355652 ],
      "rotation" : [ -0.0354358, -0.193484, 0.155172, -0.968106 ]
    },
    {
      "name" : "L_Finger11",
      "children" : [ 21 ],
      "translation" : [ 0.0162036, -1.14441e-07, -1.52588e-07 ],
      "rotation" : [ -1.31649e-08, -0.245252, 1.29024e-08, -0.969459 ]
    },
    {
      "name" : "L_Finger12",
      "translation" : [ 0.0125131, 9.53674e-08, 3.8147e-08 ],
      "rotation" : [ 2.98455e-08, -0.142513, -5.1407e-09, -0.989793 ]
    },
    {
      "name" : "L_Finger2",
      "children" : [ 23 ],
      "translation" : [ 0.0630873, -0.00584796, -0.00265366 ],
      "rotation" : [ 0.00620822, -0.304903, 0.010258, -0.952308 ]
    },
    {
      "name" : "L_Finger21",
      "children" : [ 24 ],
      "translation" : [ 0.0194147, 0, 7.62939e-08 ],
      "rotation" : [ 2.05733e-07, -0.290644, -4.74665e-08, -0.956831 ]
    },
    {
      "name" : "L_Finger22",
      "translation" : [ 0.0135421, -8.58307e-08, -1.14441e-07 ],
      "rotation" : [ -1.01311e-07, -0.264952, 6.8481e-08, -0.964262 ]
    },
    {
      "name" : "L_Finger3",
      "children" : [ 26 ],
      "translation" : [ 0.0615973, 0.00666187, -0.00337738 ],
      "rotation" : [ 0.0266672, -0.353528, -0.0986367, -0.929827 ]
    },
    {
      "name" : "L_Finger31",
      "children" : [ 27 ],
      "translation" : [ 0.0191225, 0, -1.14441e-07 ],
      "rotation" : [ -5.5752e-11, -0.29145, 6.20385e-08, -0.956586 ]
    },
    {
      "name" : "L_Finger32",
      "translation" : [ 0.0133479, 3.8147e-08, 1.90735e-08 ],
      "rotation" : [ -5.66717e-08, -0.177783, -3.49209e-08, -0.98407 ]
    },
    {
      "name" : "L_Finger4",
      "children" : [ 29 ],
      "translation" : [ 0.0555129, 0.0176899, -0.00656845 ],
      "rotation" : [ 0.0843428, -0.340072, -0.202486, -0.91446 ]
    },
    {
      "name" : "L_Finger41",
      "children" : [ 30 ],
      "translation" : [ 0.0152586, -9.53674e-08, -3.8147e-08 ],
      "rotation" : [ -5.85537e-08, -0.319478, 8.58819e-09, -0.947594 ]
    },
    {
      "name" : "L_Finger42",
      "translation" : [ 0.00911041, 1.43051e-07, -0 ],
      "rotation" : [ -4.55084e-08, -0.158264, 2.0013e-08, -0.987397 ]
    },
    {
      "name" : "L_ForearmTwist01",
      "translation" : [ -5.72205e-08, -3.8147e-08, -0 ],
      "rotation" : [ -0.0727484, -7.43084e-09, 2.97234e-08, -0.99735 ]
    },
    {
      "name" : "L_ForearmTwist02",
      "translation" : [ 0.0249999, -7.62939e-08, -3.8147e-08 ],
      "rotation" : [ -0.145111, 2.20267e-07, -1.58246e-08, -0.989415 ]
    },
    {
      "name" : "L_ForearmTwist03",
      "translation" : [ 0.05, -7.62939e-08, -3.8147e-08 ],
      "rotation" : [ -0.216705, -1.09103e-08, 9.13189e-08, -0.976237 ]
    },
    {
      "name" : "L_ForearmTwist04",
      "translation" : [ 0.0754419, -7.62939e-08, -0 ],
      "rotation" : [ -0.28715, -5.79865e-09, 9.24611e-08, -0.957886 ]
    },
    {
      "name" : "L_ForearmTwist05",
      "translation" : [ 0.101033, -1.14441e-07, -0 ],
      "rotation" : [ -0.35267, -4.37056e-09, 5.60289e-08, -0.935748 ]
    },
    {
      "name" : "L_Elbow",
      "translation" : [ 0.117947, -3.8147e-08, -0 ],
      "rotation" : [ 9.71407e-08, 0.0688919, 6.74092e-08, -0.997624 ]
    },
    {
      "name" : "L_shoulderPad_pt",
      "children" : [ 38 ],
      "translation" : [ 0.0669313, 0.0303563, 0.0291065 ],
      "rotation" : [ -0.784822, -0.166103, -0.258685, -0.538094 ]
    },
    {
      "name" : "L_shoulderPad",
      "translation" : [ 1.90735e-08, 0, -7.62939e-08 ],
      "rotation" : [ -3.72529e-09, 3.72529e-09, 0, -1 ]
    },
    {
      "name" : "R_Clavicle",
      "children" : [ 40, 67 ],
      "translation" : [ 0.0112881, -0.0226181, 0.00645315 ],
      "rotation" : [ 0.546869, -0.80505, 0.207382, -0.0991 ]
    },
    {
      "name" : "R_ShoulderDefCounter",
      "children" : [ 41 ],
      "translation" : [ 0.100469, 1.52588e-07, 1.14441e-07 ],
      "rotation" : [ -0.058848, -0.00176256, -0.0553991, -0.996727 ]
    },
    {
      "name" : "R_UpperArm",
      "children" : [ 42, 66 ],
      "translation" : [ -1.52588e-07, -1.52588e-07, -7.62939e-08 ],
      "rotation" : [ -0.058848, -0.00176217, -0.0553991, -0.996727 ]
    },
    {
      "name" : "R_Forearm",
      "children" : [ 43, 61, 62, 63, 64, 65 ],
      "translation" : [ 0.117947, -1.14441e-07, -0 ],
      "rotation" : [ -1.27115e-08, 0.137457, -7.17503e-08, -0.990508 ]
    },
    {
      "name" : "R_Hand",
      "children" : [ 44, 47, 49, 52, 55, 58 ],
      "translation" : [ 0.126315, -3.8147e-08, -3.8147e-08 ],
      "rotation" : [ -0.408264, -0.0137161, 0.0452805, -0.911637 ]
    },
    {
      "name" : "R_Finger0",
      "children" : [ 45 ],
      "translation" : [ 0.0054253, 0.00977506, -0.00439568 ],
      "rotation" : [ 0.555543, 0.073309, -0.339108, -0.755648 ]
    },
    {
      "name" : "R_Finger01",
      "children" : [ 46 ],
      "translation" : [ 0.0323736, -1.52588e-07, -1.14441e-07 ],
      "rotation" : [ -5.58201e-08, -0.0460582, 1.78453e-07, -0.998939 ]
    },
    {
      "name" : "R_Finger02",
      "translation" : [ 0.0186477, -1.52588e-07, 4.76837e-08 ],
      "rotation" : [ 5.43449e-09, -0.116402, 1.52335e-08, -0.993202 ]
    },
    {
      "name" : "Prop1",
      "children" : [ 48 ],
      "translation" : [ 0.0449336, 0.00778357, -0.0202333 ],
      "rotation" : [ -0.0273798, 0.175658, 0.0178279, -0.983909 ]
    },
    {
      "name" : "L_grip",
      "translation" : [ -0.682774, 0.0605988, 0.00565407 ],
      "rotation" : [ -0.215769, 0.0447952, 0.967761, 0.121966 ]
    },
    {
      "name" : "R_Finger1",
      "children" : [ 50 ],
      "translation" : [ 0.0616774, 0.0185019, -0.00355667 ],
      "rotation" : [ 0.0354357, -0.193484, -0.155172, -0.968106 ]
    },
    {
      "name" : "R_Finger11",
      "children" : [ 51 ],
      "translation" : [ 0.0162036, 3.8147e-08, -0 ],
      "rotation" : [ 6.26339e-08, -0.245252, -1.22764e-08, -0.969459 ]
    },
    {
      "name" : "R_Finger12",
      "translation" : [ 0.0125132, 1.90735e-08, 7.62939e-08 ],
      "rotation" : [ -1.00597e-07, -0.142513, 6.64429e-08, -0.989793 ]
    },
    {
      "name" : "R_Finger2",
      "children" : [ 53 ],
      "translation" : [ 0.0630869, 0.00584792, -0.00265381 ],
      "rotation" : [ -0.00620845, -0.304903, -0.0102582, -0.952308 ]
    },
    {
      "name" : "R_Finger21",
      "children" : [ 54 ],
      "translation" : [ 0.0194148, -6.67572e-08, -3.8147e-08 ],
      "rotation" : [ 9.51518e-08, -0.290644, -4.84736e-10, -0.956831 ]
    },
    {
      "name" : "R_Finger22",
      "translation" : [ 0.0135423, 2.86102e-08, 3.8147e-08 ],
      "rotation" : [ -9.54576e-09, -0.264952, 8.03395e-08, -0.964262 ]
    },
    {
      "name" : "R_Finger3",
      "children" : [ 56 ],
      "translation" : [ 0.0615972, -0.00666186, -0.00337753 ],
      "rotation" : [ -0.0266674, -0.353528, 0.0986365, -0.929827 ]
    },
    {
      "name" : "R_Finger31",
      "children" : [ 57 ],
      "translation" : [ 0.0191225, -5.72205e-08, -7.62939e-08 ],
      "rotation" : [ 1.16092e-08, -0.29145, 1.04293e-07, -0.956586 ]
    },
    {
      "name" : "R_Finger32",
      "translation" : [ 0.013348, -1.23978e-07, -7.62939e-08 ],
      "rotation" : [ -3.43216e-08, -0.177783, 6.33506e-08, -0.98407 ]
    },
    {
      "name" : "R_Finger4",
      "children" : [ 59 ],
      "translation" : [ 0.0555126, -0.0176899, -0.00656868 ],
      "rotation" : [ -0.084343, -0.340072, 0.202485, -0.91446 ]
    },
    {
      "name" : "R_Finger41",
      "children" : [ 60 ],
      "translation" : [ 0.0152586, 7.62939e-08, 7.62939e-08 ],
      "rotation" : [ 7.47643e-09, -0.319478, -4.63775e-08, -0.947594 ]
    },
    {
      "name" : "R_Finger42",
      "translation" : [ 0.00911045, 3.8147e-08, -1.90735e-08 ],
      "rotation" : [ 1.31448e-08, -0.158264, 8.71812e-08, -0.987397 ]
    },
    {
      "name" : "R_ForearmTwist01",
      "translation" : [ -1.90735e-08, 0, -0 ],
      "rotation" : [ 0.0727483, -4.25744e-09, 6.66065e-08, -0.99735 ]
    },
    {
      "name" : "R_ForearmTwist02",
      "translation" : [ 0.025, 0, -3.8147e-08 ],
      "rotation" : [ 0.145111, -5.84819e-09, 5.84332e-08, -0.989415 ]
    },
    {
      "name" : "R_ForearmTwist03",
      "translation" : [ 0.0500001, 0, -3.8147e-08 ],
      "rotation" : [ 0.216705, 2.3639e-08, 4.32376e-08, -0.976237 ]
    },
    {
      "name" : "R_ForearmTwist04",
      "translation" : [ 0.0755201, 0, -3.8147e-08 ],
      "rotation" : [ 0.28715, 5.88946e-09, 3.54166e-08, -0.957886 ]
    },
    {
      "name" : "R_ForearmTwist05",
      "translation" : [ 0.100816, 0, -3.8147e-08 ],
      "rotation" : [ 0.35267, 1.56998e-08, 8.22742e-08, -0.935748 ]
    },
    {
      "name" : "R_Elbow",
      "translation" : [ 0.117947, -1.14441e-07, -0 ],
      "rotation" : [ -2.92182e-08, 0.0688921, -3.61378e-08, -0.997624 ]
    },
    {
      "name" : "R_shoulderPad_pt",
      "children" : [ 68 ],
      "translation" : [ 0.0669355, -0.0303582, 0.0291074 ],
      "rotation" : [ -0.258684, -0.538094, 0.784822, 0.166104 ]
    },
    {
      "name" : "R_shoulderPad",
      "translation" : [ 0, 0, -7.62939e-08 ],
      "rotation" : [ -3.72529e-09, -3.72529e-09, -9.31322e-10, -1 ]
    },
    {
      "name" : "WEP_1_Switch",
      "translation" : [ 0.253008, -0.000483231, 0.0539173 ],
      "rotation" : [ -0.110357, -0.112577, -0.694731, -0.701781 ]
    },
    {
      "name" : "WEP_2_Switch",
      "translation" : [ 0.0192366, 0.0890014, 0.0231088 ],
      "rotation" : [ -0.668983, 0.516287, -0.233975, -0.480796 ]
    },
    {
      "name" : "PelvisWeighted",
      "children" : [ 72, 77 ],
      "translation" : [ 0, 0, -0 ],
      "rotation" : [ -4.72825e-07, 2.40281e-07, -3.51944e-08, -1 ]
    },
    {
      "name" : "L_Thigh",
      "children" : [ 73 ],
      "translation" : [ -1.52588e-07, 0.0583732, -9.05991e-08 ],
      "rotation" : [ -0.0217001, -0.0795286, 0.995832, 0.0390232 ]
    },
    {
      "name" : "L_Calf",
      "children" : [ 74, 76 ],
      "translation" : [ 0.232976, 2.86102e-08, 2.02656e-08 ],
      "rotation" : [ -2.51466e-07, 0.0657898, -5.81709e-09, -0.997833 ]
    },
    {
      "name" : "L_Foot",
      "children" : [ 75 ],
      "translation" : [ 0.205159, 4.76837e-08, 2.38419e-08 ],
      "rotation" : [ 0.0452898, -0.0839625, -0.0462058, -0.994366 ]
    },
    {
      "name" : "L_Toe0",
      "translation" : [ 0.0754791, 0.0011445, -0.0689709 ],
      "rotation" : [ 1.1192e-07, -0.707107, 1.83043e-07, -0.707107 ]
    },
    {
      "name" : "L_KneePad",
      "translation" : [ 0.0204657, -5.72205e-08, 0.0104196 ],
      "rotation" : [ 3.06515e-09, -0.0209466, 6.51441e-08, -0.999781 ]
    },
    {
      "name" : "R_Thigh",
      "children" : [ 78 ],
      "translation" : [ 7.62939e-08, -0.0583732, 4.76837e-08 ],
      "rotation" : [ -0.0217001, 0.0795296, 0.995832, -0.0390248 ]
    },
    {
      "name" : "R_Calf",
      "children" : [ 79, 81 ],
      "translation" : [ 0.232976, 1.90735e-08, -8.34465e-09 ],
      "rotation" : [ -2.08634e-08, 0.0657898, 1.69746e-07, -0.997834 ]
    },
    {
      "name" : "R_Foot",
      "children" : [ 80 ],
      "translation" : [ 0.205159, 8.58307e-08, -2.14577e-08 ],
      "rotation" : [ -0.0452898, -0.0839625, 0.0462057, -0.994366 ]
    },
    {
      "name" : "R_Toe0",
      "translation" : [ 0.0754791, -0.00114525, -0.0689709 ],
      "rotation" : [ -5.13977e-08, -0.707107, 3.75544e-09, -0.707107 ]
    },
    {
      "name" : "R_KneePad",
      "translation" : [ 0.0204685, -6.67572e-07, 0.0104233 ],
      "rotation" : [ 2.87866e-08, -0.0209467, -1.11929e-08, -0.999781 ]
    },
    {
      "name" : "ikGunLeftHand",
      "translation" : [ -0.0219889, 0.647734, -0.326104 ],
      "rotation" : [ 0.580335, -0.593539, -0.319558, -0.456953 ]
    },
    {
      "name" : "ikGunRightHand",
      "translation" : [ -0.0219879, 0.647734, 0.326104 ],
      "rotation" : [ 0.456954, 0.319557, 0.593539, -0.580335 ]
    }
  ],
  "skins" : [
    {
      "inverseBindMatrices" : 0,
      "skeleton" : 1,
      "joints" : [
        1,2,3,4,5,6,7,8,9,10,11,12,13,14,15,16,17,18,19,20,21,22,23,24,25,26,27,28,29,30,31,32,
        33,34,35,36,37,38,39,40,41,42,43,44,45,46,47,48,49,50,51,52,53,54,55,56,57,58,59,60,61,62,63,64,
        65,66,67,68,69,70,71,72,73,74,75,76,77,78,79,80,81,82,83
      ]
    }
  ],
  "materials" : [
    {
      "name" : "MIC_DiamondSword_Infiltrator",
      "pbrMetallicRoughness" : {
        "baseColorFactor" : [ 0.3, 0.3, 0.3, 1.0 ],
        "metallicFactor" : 0.1,
        "roughnessFactor" : 0.5
      }
    }
  ],
  "meshes" : [
    {
      "primitives" : [
        {
          "attributes" : {
            "POSITION" : 2,
            "NORMAL" : 3,
            "TANGENT" : 4,
            "COLOR_0" : 5,
            "JOINTS_0" : 6,
            "WEIGHTS_0" : 7,
            "TEXCOORD_0" : 8
          },
          "indices" : 1,
          "material" : 0
        }
      ],
      "name" : "SKL_PC_DS_Light_INF_Lod1"
    }
  ],
  "buffers" : [
    {
      "uri" : "SKL_PC_DS_Light_INF_Lod1.bin",
      "byteLength" : 591716
    }
  ],
  "bufferViews" : [
    {
      "buffer" : 0,
      "byteOffset" : 0,
      "byteLength" : 5312
    },
    {
      "buffer" : 0,
      "byteOffset" : 5312,
      "byteLength" : 58980
    },
    {
      "buffer" : 0,
      "byteOffset" : 64292,
      "byteLength" : 98892
    },
    {
      "buffer" : 0,
      "byteOffset" : 163184,
      "byteLength" : 98892
    },
    {
      "buffer" : 0,
      "byteOffset" : 262076,
      "byteLength" : 131856
    },
    {
      "buffer" : 0,
      "byteOffset" : 393932,
      "byteLength" : 32964
    },
    {
      "buffer" : 0,
      "byteOffset" : 426896,
      "byteLength" : 65928
    },
    {
      "buffer" : 0,
      "byteOffset" : 492824,
      "byteLength" : 32964
    },
    {
      "buffer" : 0,
      "byteOffset" : 525788,
      "byteLength" : 65928
    }
  ],
  "accessors" : [
    {
      "bufferView" : 0,
      "componentType" : 5126,
      "count" : 83,
      "type" : "MAT4"
    },
    {
      "bufferView" : 1,
      "componentType" : 5123,
      "count" : 29490,
      "type" : "SCALAR"
    },
    {
      "bufferView" : 2,
      "min" : [ -0.39908, -0.00169891, -0.139706 ],
      "max" : [ 0.39908, 0.975927, 0.113173 ],
      "componentType" : 5126,
      "count" : 8241,
      "type" : "VEC3"
    },
    {
      "bufferView" : 3,
      "componentType" : 5126,
      "count" : 8241,
      "type" : "VEC3"
    },
    {
      "bufferView" : 4,
      "componentType" : 5126,
      "count" : 8241,
      "type" : "VEC4"
    },
    {
      "bufferView" : 5,
      "normalized" : true,
      "componentType" : 5121,
      "count" : 8241,
      "type" : "VEC4"
    },
    {
      "bufferView" : 6,
      "componentType" : 5123,
      "count" : 8241,
      "type" : "VEC4"
    },
    {
      "bufferView" : 7,
      "normalized" : true,
      "componentType" : 5121,
      "count" : 8241,
      "type" : "VEC4"
    },
    {
      "bufferView" : 8,
      "componentType" : 5126,
      "count" : 8241,
      "type" : "VEC2"
    }
  ]
}
