{
  "asset" : {
    "generator" : "UE Viewer (umodel) build 1575",
    "version" : "2.0"
  },
  "scene" : 0,
  "scenes" : [
    {
      "nodes" : [ 0 ]
    }
  ],
  "nodes" : [
    {
      "name" : "SKL_PC_DS_Medium_TCN",
      "mesh" : 0,
      "skin" : 0,
      "children" : [ 1 ]
    },
    {
      "name" : "Root",
      "children" : [ 2, 3, 82, 83 ],
      "translation" : [ 0, 0, -0 ],
      "rotation" : [ -0, 0.707107, 0, -0.707107 ]
    },
    {
      "name" : "EffectsSocket",
      "translation" : [ 0, 0, -0 ],
      "rotation" : [ -0, -0, 0, -1 ]
    },
    {
      "name" : "Pelvis",
      "children" : [ 4, 71 ],
      "translation" : [ 0.00472862, 0.509972, -1.05637e-08 ],
      "rotation" : [ 0.520979, 0.4781, -0.478101, -0.520981 ]
    },
    {
      "name" : "Spine",
      "children" : [ 5, 70 ],
      "translation" : [ 0.047313, 7.64949e-08, 0.000709889 ],
      "rotation" : [ 1.41376e-06, 0.0510925, -5.31272e-07, -0.998694 ]
    },
    {
      "name" : "Spine1",
      "children" : [ 6, 69 ],
      "translation" : [ 0.114436, 4.43447e-08, 0.000139825 ],
      "rotation" : [ 8.25597e-09, 0.102157, 6.79556e-08, -0.994768 ]
    },
    {
      "name" : "Neck",
      "children" : [ 7, 9, 39 ],
      "translation" : [ 0.120729, 6.21831e-08, 2.86102e-08 ],
      "rotation" : [ -4.77986e-07, -0.202105, -2.44222e-07, -0.979364 ]
    },
    {
      "name" : "Neck1",
      "children" : [ 8 ],
      "translation" : [ 0.0198836, 8.39911e-08, 4.26483e-05 ],
      "rotation" : [ -5.57773e-07, -0.144209, -6.87992e-07, -0.989547 ]
    },
    {
      "name" : "Head",
      "translation" : [ 0.0559313, -5.19503e-11, 3.8147e-08 ],
      "rotation" : [ 1.09413e-06, 0.157642, 6.25659e-07, -0.987496 ]
    },
    {
      "name" : "L_Clavicle",
      "children" : [ 10, 37 ],
      "translation" : [ 0.0112881, 0.0226179, 0.00645323 ],
      "rotation" : [ -0.546869, -0.80505, -0.207383, -0.0990988 ]
    },
    {
      "name" : "L_ShoulderDefCounter",
      "children" : [ 11 ],
      "translation" : [ 0.100468, 2.28882e-07, -1.90735e-08 ],
      "rotation" : [ -0.0362384, 0.00717277, 0.0411309, -0.998471 ]
    },
    {
      "name" : "L_UpperArm",
      "children" : [ 12, 36 ],
      "translation" : [ 1.90735e-08, -7.62939e-08, 1.90735e-08 ],
      "rotation" : [ -0.0362387, 0.00717272, 0.0411311, -0.998471 ]
    },
    {
      "name" : "L_Forearm",
      "children" : [ 13, 31, 32, 33, 34, 35 ],
      "translation" : [ 0.117947, 0, 2.86102e-08 ],
      "rotation" : [ 1.84496e-08, 0.137457, -1.42476e-08, -0.990508 ]
    },
    {
      "name" : "L_Hand",
      "children" : [ 14, 17, 19, 22, 25, 28 ],
      "translation" : [ 0.126315, -1.52588e-07, -6.67572e-08 ],
      "rotation" : [ 0.574366, -0.0116881, -0.0650408, -0.815927 ]
    },
    {
      "name" : "L_Finger0",
      "children" : [ 15 ],
      "translation" : [ 0.00542526, -0.00977486, -0.00439537 ],
      "rotation" : [ -0.555543, 0.0733088, 0.339107, -0.755648 ]
    },
    {
      "name" : "L_Finger01",
      "children" : [ 16 ],
      "translation" : [ 0.0323736, 2.28882e-07, -1.14441e-07 ],
      "rotation" : [ -2.73373e-07, -0.0460578, -6.58478e-09, -0.998939 ]
    },
    {
      "name" : "L_Finger02",
      "translation" : [ 0.0186478, -3.8147e-07, -0 ],
      "rotation" : [ 2.55067e-07, -0.116402, 1.39326e-08, -0.993202 ]
    },
    {
      "name" : "Prop2",
      "children" : [ 18 ],
      "translation" : [ 0.0449364, -0.00778411, -0.0202319 ],
      "rotation" : [ -0.983909, -0.0178265, -0.175658, -0.0273793 ]
    },
    {
      "name" : "R_grip",
      "translation" : [ -0.682776, 0.060596, -0.00563572 ],
      "rotation" : [ -0.121961, -0.967756, -0.0447938, 0.215796 ]
    },
    {
      "name" : "L_Finger1",
      "children" : [ 20 ],
      "translation" : [ 0.0616774, -0.0185018, -0.00355644 ],
      "rotation" : [ -0.0354359, -0.193484, 0.155172, -0.968106 ]
    },
    {
      "name" : "L_Finger11",
      "children" : [ 21 ],
      "translation" : [ 0.0162037, -9.53674e-08, -1.52588e-07 ],
      "rotation" : [ 2.63157e-07, -0.245252, 2.08718e-09, -0.969459 ]
    },
    {
      "name" : "L_Finger12",
      "translation" : [ 0.0125132, 9.53674e-08, -0 ],
      "rotation" : [ 1.9816e-08, -0.142513, -6.43452e-09, -0.989793 ]
    },
    {
      "name" : "L_Finger2",
      "children" : [ 23 ],
      "translation" : [ 0.0630873, -0.00584796, -0.00265358 ],
      "rotation" : [ 0.00620832, -0.304903, 0.0102581, -0.952308 ]
    },
    {
      "name" : "L_Finger21",
      "children" : [ 24 ],
      "translation" : [ 0.0194149, 1.90735e-08, 7.62939e-08 ],
      "rotation" : [ -3.71165e-09, -0.290644, -4.42948e-08, -0.956831 ]
    },
    {
      "name" : "L_Finger22",
      "translation" : [ 0.0135421, -8.58307e-08, -1.52588e-07 ],
      "rotation" : [ -2.49479e-08, -0.264952, -2.17023e-08, -0.964262 ]
    },
    {
      "name" : "L_Finger3",
      "children" : [ 26 ],
      "translation" : [ 0.0615973, 0.00666187, -0.00337738 ],
      "rotation" : [ 0.0266673, -0.353528, -0.0986365, -0.929827 ]
    },
    {
      "name" : "L_Finger31",
      "children" : [ 27 ],
      "translation" : [ 0.0191225, 1.90735e-08, -7.62939e-08 ],
      "rotation" : [ -6.00793e-08, -0.29145, 7.41872e-08, -0.956586 ]
    },
    {
      "name" : "L_Finger32",
      "translation" : [ 0.0133479, 3.8147e-08, 3.8147e-08 ],
      "rotation" : [ 2.13369e-08, -0.177783, -7.08353e-09, -0.98407 ]
    },
    {
      "name" : "L_Finger4",
      "children" : [ 29 ],
      "translation" : [ 0.055513, 0.0176899, -0.00656853 ],
      "rotation" : [ 0.0843428, -0.340073, -0.202485, -0.91446 ]
    },
    {
      "name" : "L_Finger41",
      "children" : [ 30 ],
      "translation" : [ 0.0152586, -6.67572e-08, -0 ],
      "rotation" : [ 2.114e-08, -0.319478, -1.88405e-08, -0.947594 ]
    },
    {
      "name" : "L_Finger42",
      "translation" : [ 0.00911034, 1.04904e-07, -1.90735e-08 ],
      "rotation" : [ -4.53857e-09, -0.158264, 7.59988e-08, -0.987397 ]
    },
    {
      "name" : "L_ForearmTwist01",
      "translation" : [ -7.62939e-08, 0, -0 ],
      "rotation" : [ -0.0340632, 9.30782e-09, 4.46141e-08, -0.99942 ]
    },
    {
      "name" : "L_ForearmTwist02",
      "translation" : [ 0.0249999, -1.52588e-07, -4.76837e-08 ],
      "rotation" : [ -0.0680869, 2.51888e-07, 4.42193e-08, -0.997679 ]
    },
    {
      "name" : "L_ForearmTwist03",
      "translation" : [ 0.0499999, -7.62939e-08, -2.86102e-08 ],
      "rotation" : [ -0.102032, 1.34337e-08, 1.34788e-07, -0.994781 ]
    },
    {
      "name" : "L_ForearmTwist04",
      "translation" : [ 0.0754418, -7.62939e-08, -9.53674e-09 ],
      "rotation" : [ -0.135858, 4.87597e-09, 1.12265e-07, -0.990728 ]
    },
    {
      "name" : "L_ForearmTwist05",
      "translation" : [ 0.101033, -7.62939e-08, -9.53674e-09 ],
      "rotation" : [ -0.167847, 6.63261e-09, 1.04782e-07, -0.985813 ]
    },
    {
      "name" : "L_Elbow",
      "translation" : [ 0.117947, 0, 2.86102e-08 ],
      "rotation" : [ 3.71644e-08, 0.0688921, 1.48658e-08, -0.997624 ]
    },
    {
      "name" : "L_shoulderPad_pt",
      "children" : [ 38 ],
      "translation" : [ 0.0669313, 0.0303563, 0.0291065 ],
      "rotation" : [ -0.784822, -0.166103, -0.258685, -0.538094 ]
    },
    {
      "name" : "L_shoulderPad",
      "translation" : [ 1.90735e-08, 0, -7.62939e-08 ],
      "rotation" : [ -3.72529e-09, 3.72529e-09, 0, -1 ]
    },
    {
      "name" : "R_Clavicle",
      "children" : [ 40, 67 ],
      "translation" : [ 0.0112881, -0.0226181, 0.00645315 ],
      "rotation" : [ 0.546869, -0.80505, 0.207382, -0.0990999 ]
    },
    {
      "name" : "R_ShoulderDefCounter",
      "children" : [ 41 ],
      "translation" : [ 0.100469, 2.28882e-07, 9.53674e-08 ],
      "rotation" : [ 0.0362386, 0.00717268, -0.041131, -0.998471 ]
    },
    {
      "name" : "R_UpperArm",
      "children" : [ 42, 66 ],
      "translation" : [ -1.14441e-07, -2.28882e-07, -5.72205e-08 ],
      "rotation" : [ 0.0362385, 0.00717271, -0.0411312, -0.998471 ]
    },
    {
      "name" : "R_Forearm",
      "children" : [ 43, 61, 62, 63, 64, 65 ],
      "translation" : [ 0.117947, -7.62939e-08, 9.53674e-08 ],
      "rotation" : [ 2.08684e-07, 0.137457, 9.06066e-08, -0.990508 ]
    },
    {
      "name" : "R_Hand",
      "children" : [ 44, 47, 49, 52, 55, 58 ],
      "translation" : [ 0.126315, 0, -2.86102e-08 ],
      "rotation" : [ -0.574366, -0.011688, 0.0650406, -0.815927 ]
    },
    {
      "name" : "R_Finger0",
      "children" : [ 45 ],
      "translation" : [ 0.00542534, 0.00977503, -0.0043956 ],
      "rotation" : [ 0.555544, 0.0733089, -0.339107, -0.755648 ]
    },
    {
      "name" : "R_Finger01",
      "children" : [ 46 ],
      "translation" : [ 0.0323736, 0, -1.04904e-07 ],
      "rotation" : [ -1.34998e-07, -0.046058, 9.67547e-08, -0.998939 ]
    },
    {
      "name" : "R_Finger02",
      "translation" : [ 0.0186478, -1.52588e-07, 4.76837e-08 ],
      "rotation" : [ -3.69997e-08, -0.116402, 9.05337e-08, -0.993202 ]
    },
    {
      "name" : "Prop1",
      "children" : [ 48 ],
      "translation" : [ 0.0449335, 0.00778345, -0.0202334 ],
      "rotation" : [ -0.0273797, 0.175658, 0.0178279, -0.983909 ]
    },
    {
      "name" : "L_grip",
      "translation" : [ -0.682773, 0.0605948, 0.00563583 ],
      "rotation" : [ -0.215797, 0.0447936, 0.967756, 0.12196 ]
    },
    {
      "name" : "R_Finger1",
      "children" : [ 50 ],
      "translation" : [ 0.0616773, 0.0185019, -0.00355667 ],
      "rotation" : [ 0.0354358, -0.193484, -0.155172, -0.968106 ]
    },
    {
      "name" : "R_Finger11",
      "children" : [ 51 ],
      "translation" : [ 0.0162036, 5.72205e-08, -0 ],
      "rotation" : [ -2.25635e-08, -0.245252, 3.81224e-08, -0.969459 ]
    },
    {
      "name" : "R_Finger12",
      "translation" : [ 0.0125133, 1.90735e-08, 7.62939e-08 ],
      "rotation" : [ 1.37943e-08, -0.142513, -4.30157e-08, -0.989793 ]
    },
    {
      "name" : "R_Finger2",
      "children" : [ 53 ],
      "translation" : [ 0.0630869, 0.00584791, -0.00265373 ],
      "rotation" : [ -0.00620817, -0.304903, -0.010258, -0.952308 ]
    },
    {
      "name" : "R_Finger21",
      "children" : [ 54 ],
      "translation" : [ 0.0194148, -7.62939e-08, -7.62939e-08 ],
      "rotation" : [ 7.82072e-08, -0.290644, -3.165e-08, -0.956831 ]
    },
    {
      "name" : "R_Finger22",
      "translation" : [ 0.0135423, 3.8147e-08, -0 ],
      "rotation" : [ -1.93776e-07, -0.264952, 7.66619e-08, -0.964262 ]
    },
    {
      "name" : "R_Finger3",
      "children" : [ 56 ],
      "translation" : [ 0.0615971, -0.00666189, -0.00337753 ],
      "rotation" : [ -0.0266671, -0.353528, 0.0986366, -0.929827 ]
    },
    {
      "name" : "R_Finger31",
      "children" : [ 57 ],
      "translation" : [ 0.0191227, -4.76837e-08, -0 ],
      "rotation" : [ -1.72333e-08, -0.29145, 2.35878e-08, -0.956586 ]
    },
    {
      "name" : "R_Finger32",
      "translation" : [ 0.0133479, -1.23978e-07, -1.33514e-07 ],
      "rotation" : [ -4.58591e-09, -0.177783, 8.39028e-08, -0.98407 ]
    },
    {
      "name" : "R_Finger4",
      "children" : [ 59 ],
      "translation" : [ 0.0555126, -0.0176899, -0.00656868 ],
      "rotation" : [ -0.0843428, -0.340072, 0.202485, -0.91446 ]
    },
    {
      "name" : "R_Finger41",
      "children" : [ 60 ],
      "translation" : [ 0.0152586, 9.53674e-08, -0 ],
      "rotation" : [ 8.70401e-09, -0.319478, -5.71164e-08, -0.947594 ]
    },
    {
      "name" : "R_Finger42",
      "translation" : [ 0.00911037, 1.90735e-08, 1.90735e-08 ],
      "rotation" : [ -7.82755e-09, -0.158264, 9.11889e-09, -0.987397 ]
    },
    {
      "name" : "R_ForearmTwist01",
      "translation" : [ -3.8147e-08, 0, -1.90735e-08 ],
      "rotation" : [ 0.0340632, 4.23071e-09, 8.93551e-08, -0.99942 ]
    },
    {
      "name" : "R_ForearmTwist02",
      "translation" : [ 0.025, -7.62939e-08, -1.90735e-08 ],
      "rotation" : [ 0.0680869, 1.81613e-08, 1.11055e-07, -0.997679 ]
    },
    {
      "name" : "R_ForearmTwist03",
      "translation" : [ 0.0500001, 0, -3.8147e-08 ],
      "rotation" : [ 0.102032, 2.62379e-08, 9.71598e-08, -0.994781 ]
    },
    {
      "name" : "R_ForearmTwist04",
      "translation" : [ 0.0755201, -7.62939e-08, -3.8147e-08 ],
      "rotation" : [ 0.135858, 2.57836e-08, 1.33658e-07, -0.990728 ]
    },
    {
      "name" : "R_ForearmTwist05",
      "translation" : [ 0.100816, 0, -3.8147e-08 ],
      "rotation" : [ 0.167847, 1.90271e-08, 1.33146e-07, -0.985813 ]
    },
    {
      "name" : "R_Elbow",
      "translation" : [ 0.117947, -7.62939e-08, 9.53674e-08 ],
      "rotation" : [ 9.15661e-08, 0.0688921, 2.26836e-08, -0.997624 ]
    },
    {
      "name" : "R_shoulderPad_pt",
      "children" : [ 68 ],
      "translation" : [ 0.0669355, -0.0303581, 0.0291074 ],
      "rotation" : [ -0.258684, -0.538094, 0.784822, 0.166104 ]
    },
    {
      "name" : "R_shoulderPad",
      "translation" : [ 1.90735e-08, 0, -7.62939e-08 ],
      "rotation" : [ -0, -0, 0, -1 ]
    },
    {
      "name" : "WEP_1_Switch",
      "translation" : [ 0.253008, -0.000483231, 0.0539173 ],
      "rotation" : [ -0.110357, -0.112577, -0.694731, -0.701781 ]
    },
    {
      "name" : "WEP_2_Switch",
      "translation" : [ 0.0192366, 0.0890014, 0.0231088 ],
      "rotation" : [ -0.668983, 0.516287, -0.233975, -0.480796 ]
    },
    {
      "name" : "PelvisWeighted",
      "children" : [ 72, 77 ],
      "translation" : [ 0, 0, -0 ],
      "rotation" : [ -4.72825e-07, 2.40281e-07, -3.51944e-08, -1 ]
    },
    {
      "name" : "L_Thigh",
      "children" : [ 73 ],
      "translation" : [ -1.52588e-07, 0.0583732, -9.05991e-08 ],
      "rotation" : [ -0.0217001, -0.0795286, 0.995832, 0.0390232 ]
    },
    {
      "name" : "L_Calf",
      "children" : [ 74, 76 ],
      "translation" : [ 0.232976, 2.86102e-08, 2.02656e-08 ],
      "rotation" : [ -2.51466e-07, 0.0657898, -5.81709e-09, -0.997833 ]
    },
    {
      "name" : "L_Foot",
      "children" : [ 75 ],
      "translation" : [ 0.205159, 4.76837e-08, 2.38419e-08 ],
      "rotation" : [ 0.0452898, -0.0839625, -0.0462058, -0.994366 ]
    },
    {
      "name" : "L_Toe0",
      "translation" : [ 0.0754791, 0.0011445, -0.0689709 ],
      "rotation" : [ 1.1192e-07, -0.707107, 1.83043e-07, -0.707107 ]
    },
    {
      "name" : "L_KneePad",
      "translation" : [ 0.0204657, -5.72205e-08, 0.0104196 ],
      "rotation" : [ 3.06515e-09, -0.0209466, 6.51441e-08, -0.999781 ]
    },
    {
      "name" : "R_Thigh",
      "children" : [ 78 ],
      "translation" : [ 7.62939e-08, -0.0583732, 4.76837e-08 ],
      "rotation" : [ -0.0217001, 0.0795296, 0.995832, -0.0390248 ]
    },
    {
      "name" : "R_Calf",
      "children" : [ 79, 81 ],
      "translation" : [ 0.232976, 1.90735e-08, -8.34465e-09 ],
      "rotation" : [ -2.08634e-08, 0.0657898, 1.69746e-07, -0.997834 ]
    },
    {
      "name" : "R_Foot",
      "children" : [ 80 ],
      "translation" : [ 0.205159, 8.58307e-08, -2.14577e-08 ],
      "rotation" : [ -0.0452898, -0.0839625, 0.0462057, -0.994366 ]
    },
    {
      "name" : "R_Toe0",
      "translation" : [ 0.0754791, -0.00114525, -0.0689709 ],
      "rotation" : [ -5.13977e-08, -0.707107, 3.75544e-09, -0.707107 ]
    },
    {
      "name" : "R_KneePad",
      "translation" : [ 0.0204685, -6.67572e-07, 0.0104233 ],
      "rotation" : [ 2.87866e-08, -0.0209467, -1.11929e-08, -0.999781 ]
    },
    {
      "name" : "ikGunLeftHand",
      "translation" : [ -0.0219887, 0.647734, -0.326104 ],
      "rotation" : [ 0.580337, -0.593548, -0.319551, -0.456943 ]
    },
    {
      "name" : "ikGunRightHand",
      "translation" : [ -0.0219876, 0.647734, 0.326105 ],
      "rotation" : [ 0.456944, 0.31955, 0.593547, -0.580338 ]
    }
  ],
  "skins" : [
    {
      "inverseBindMatrices" : 0,
      "skeleton" : 1,
      "joints" : [
        1,2,3,4,5,6,7,8,9,10,11,12,13,14,15,16,17,18,19,20,21,22,23,24,25,26,27,28,29,30,31,32,
        33,34,35,36,37,38,39,40,41,42,43,44,45,46,47,48,49,50,51,52,53,54,55,56,57,58,59,60,61,62,63,64,
        65,66,67,68,69,70,71,72,73,74,75,76,77,78,79,80,81,82,83
      ]
    }
  ],
  "materials" : [
    {
      "name" : "MIC_DiamondSword_Technician",
      "pbrMetallicRoughness" : {
        "baseColorFactor" : [ 0.3, 0.3, 0.3, 1.0 ],
        "metallicFactor" : 0.1,
        "roughnessFactor" : 0.5
      }
    }
  ],
  "meshes" : [
    {
      "primitives" : [
        {
          "attributes" : {
            "POSITION" : 2,
            "NORMAL" : 3,
            "TANGENT" : 4,
            "COLOR_0" : 5,
            "JOINTS_0" : 6,
            "WEIGHTS_0" : 7,
            "TEXCOORD_0" : 8
          },
          "indices" : 1,
          "material" : 0
        }
      ],
      "name" : "SKL_PC_DS_Medium_TCN"
    }
  ],
  "buffers" : [
    {
      "uri" : "SKL_PC_DS_Medium_TCN.bin",
      "byteLength" : 788244
    }
  ],
  "bufferViews" : [
    {
      "buffer" : 0,
      "byteOffset" : 0,
      "byteLength" : 5312
    },
    {
      "buffer" : 0,
      "byteOffset" : 5312,
      "byteLength" : 76308
    },
    {
      "buffer" : 0,
      "byteOffset" : 81620,
      "byteLength" : 132492
    },
    {
      "buffer" : 0,
      "byteOffset" : 214112,
      "byteLength" : 132492
    },
    {
      "buffer" : 0,
      "byteOffset" : 346604,
      "byteLength" : 176656
    },
    {
      "buffer" : 0,
      "byteOffset" : 523260,
      "byteLength" : 44164
    },
    {
      "buffer" : 0,
      "byteOffset" : 567424,
      "byteLength" : 88328
    },
    {
      "buffer" : 0,
      "byteOffset" : 655752,
      "byteLength" : 44164
    },
    {
      "buffer" : 0,
      "byteOffset" : 699916,
      "byteLength" : 88328
    }
  ],
  "accessors" : [
    {
      "bufferView" : 0,
      "componentType" : 5126,
      "count" : 83,
      "type" : "MAT4"
    },
    {
      "bufferView" : 1,
      "componentType" : 5123,
      "count" : 38154,
      "type" : "SCALAR"
    },
    {
      "bufferView" : 2,
      "min" : [ -0.39908, -9.26934e-05, -0.144983 ],
      "max" : [ 0.39908, 0.981884, 0.13885 ],
      "componentType" : 5126,
      "count" : 11041,
      "type" : "VEC3"
    },
    {
      "bufferView" : 3,
      "componentType" : 5126,
      "count" : 11041,
      "type" : "VEC3"
    },
    {
      "bufferView" : 4,
      "componentType" : 5126,
      "count" : 11041,
      "type" : "VEC4"
    },
    {
      "bufferView" : 5,
      "normalized" : true,
      "componentType" : 5121,
      "count" : 11041,
      "type" : "VEC4"
    },
    {
      "bufferView" : 6,
      "componentType" : 5123,
      "count" : 11041,
      "type" : "VEC4"
    },
    {
      "bufferView" : 7,
      "normalized" : true,
      "componentType" : 5121,
      "count" : 11041,
      "type" : "VEC4"
    },
    {
      "bufferView" : 8,
      "componentType" : 5126,
      "count" : 11041,
      "type" : "VEC2"
    }
  ]
}
