{
  "asset" : {
    "generator" : "UE Viewer (umodel) build 1575",
    "version" : "2.0"
  },
  "scene" : 0,
  "scenes" : [
    {
      "nodes" : [ 0 ]
    }
  ],
  "nodes" : [
    {
      "name" : "SKL_PC_DS_Medium_Gib",
      "mesh" : 0,
      "skin" : 0,
      "children" : [ 1 ]
    },
    {
      "name" : "Root",
      "children" : [ 2, 3, 82, 83 ],
      "translation" : [ 0, 0, -0 ],
      "rotation" : [ -0, 0.707107, 0, -0.707107 ]
    },
    {
      "name" : "EffectsSocket",
      "translation" : [ 0, 0, -0 ],
      "rotation" : [ -0, -0, 0, -1 ]
    },
    {
      "name" : "Pelvis",
      "children" : [ 4, 71 ],
      "translation" : [ 0.00472862, 0.509972, -1.05637e-08 ],
      "rotation" : [ 0.520979, 0.478101, -0.4781, -0.52098 ]
    },
    {
      "name" : "Spine",
      "children" : [ 5, 70 ],
      "translation" : [ 0.047313, 7.54795e-08, 0.000709891 ],
      "rotation" : [ 6.99599e-07, 0.0510925, -5.10559e-07, -0.998694 ]
    },
    {
      "name" : "Spine1",
      "children" : [ 6, 69 ],
      "translation" : [ 0.114436, 4.26384e-08, 0.000139821 ],
      "rotation" : [ -4.18871e-09, 0.102157, -7.3237e-09, -0.994768 ]
    },
    {
      "name" : "Neck",
      "children" : [ 7, 9, 39 ],
      "translation" : [ 0.120729, 4.8522e-08, 4.76837e-08 ],
      "rotation" : [ -4.82175e-07, -0.202105, -2.57244e-07, -0.979364 ]
    },
    {
      "name" : "Neck1",
      "children" : [ 8 ],
      "translation" : [ 0.0198835, 8.04344e-08, 4.26102e-05 ],
      "rotation" : [ -5.86104e-07, -0.144209, -6.01473e-07, -0.989547 ]
    },
    {
      "name" : "Head",
      "translation" : [ 0.0559314, 2.44832e-09, 3.8147e-08 ],
      "rotation" : [ 1.09267e-06, 0.157641, 6.85722e-07, -0.987496 ]
    },
    {
      "name" : "L_Clavicle",
      "children" : [ 10, 37 ],
      "translation" : [ 0.0112881, 0.0226179, 0.00645321 ],
      "rotation" : [ -0.546869, -0.80505, -0.207383, -0.0990988 ]
    },
    {
      "name" : "L_ShoulderDefCounter",
      "children" : [ 11 ],
      "translation" : [ 0.100468, 1.52588e-07, -9.53674e-09 ],
      "rotation" : [ -0.0362386, 0.00717273, 0.041131, -0.998471 ]
    },
    {
      "name" : "L_UpperArm",
      "children" : [ 12, 36 ],
      "translation" : [ -1.90735e-08, 0, 1.90735e-08 ],
      "rotation" : [ -0.0362385, 0.00717271, 0.0411309, -0.998471 ]
    },
    {
      "name" : "L_Forearm",
      "children" : [ 13, 31, 32, 33, 34, 35 ],
      "translation" : [ 0.117947, 0, 9.53674e-09 ],
      "rotation" : [ 7.17656e-09, 0.137457, 3.02875e-08, -0.990508 ]
    },
    {
      "name" : "L_Hand",
      "children" : [ 14, 17, 19, 22, 25, 28 ],
      "translation" : [ 0.126315, -1.52588e-07, -4.76837e-08 ],
      "rotation" : [ 0.574366, -0.011688, -0.0650408, -0.815927 ]
    },
    {
      "name" : "L_Finger0",
      "children" : [ 15 ],
      "translation" : [ 0.00542522, -0.0097749, -0.00439537 ],
      "rotation" : [ -0.555543, 0.073309, 0.339108, -0.755648 ]
    },
    {
      "name" : "L_Finger01",
      "children" : [ 16 ],
      "translation" : [ 0.0323736, 0, -1.14441e-07 ],
      "rotation" : [ -7.44267e-09, -0.0460581, 1.38559e-08, -0.998939 ]
    },
    {
      "name" : "L_Finger02",
      "translation" : [ 0.0186477, -2.28882e-07, -0 ],
      "rotation" : [ 2.246e-07, -0.116402, -6.83339e-08, -0.993202 ]
    },
    {
      "name" : "Prop2",
      "children" : [ 18 ],
      "translation" : [ 0.0449364, -0.00778417, -0.0202319 ],
      "rotation" : [ -0.983909, -0.0178265, -0.175658, -0.0273793 ]
    },
    {
      "name" : "R_grip",
      "translation" : [ -0.682776, 0.0605959, -0.00563576 ],
      "rotation" : [ -0.121961, -0.967756, -0.0447938, 0.215796 ]
    },
    {
      "name" : "L_Finger1",
      "children" : [ 20 ],
      "translation" : [ 0.0616774, -0.0185018, -0.00355652 ],
      "rotation" : [ -0.0354359, -0.193484, 0.155172, -0.968106 ]
    },
    {
      "name" : "L_Finger11",
      "children" : [ 21 ],
      "translation" : [ 0.0162037, -1.33514e-07, -1.52588e-07 ],
      "rotation" : [ -2.04765e-08, -0.245252, 6.8462e-08, -0.969459 ]
    },
    {
      "name" : "L_Finger12",
      "translation" : [ 0.0125132, 1.71661e-07, 3.8147e-08 ],
      "rotation" : [ 6.38152e-08, -0.142513, 5.89734e-08, -0.989793 ]
    },
    {
      "name" : "L_Finger2",
      "children" : [ 23 ],
      "translation" : [ 0.0630872, -0.00584798, -0.00265366 ],
      "rotation" : [ 0.00620807, -0.304903, 0.0102582, -0.952308 ]
    },
    {
      "name" : "L_Finger21",
      "children" : [ 24 ],
      "translation" : [ 0.0194148, 1.90735e-08, 1.52588e-07 ],
      "rotation" : [ 2.33837e-07, -0.290644, 4.80306e-08, -0.956831 ]
    },
    {
      "name" : "L_Finger22",
      "translation" : [ 0.0135422, -8.58307e-08, -1.52588e-07 ],
      "rotation" : [ -4.27609e-08, -0.264952, 2.49909e-08, -0.964262 ]
    },
    {
      "name" : "L_Finger3",
      "children" : [ 26 ],
      "translation" : [ 0.0615973, 0.00666184, -0.00337738 ],
      "rotation" : [ 0.0266671, -0.353528, -0.0986364, -0.929827 ]
    },
    {
      "name" : "L_Finger31",
      "children" : [ 27 ],
      "translation" : [ 0.0191225, 9.53674e-09, -3.8147e-08 ],
      "rotation" : [ 1.82075e-08, -0.29145, -2.301e-08, -0.956586 ]
    },
    {
      "name" : "L_Finger32",
      "translation" : [ 0.0133479, 3.8147e-08, 3.8147e-08 ],
      "rotation" : [ 2.15339e-08, -0.177783, 1.28686e-07, -0.98407 ]
    },
    {
      "name" : "L_Finger4",
      "children" : [ 29 ],
      "translation" : [ 0.0555129, 0.0176899, -0.0065686 ],
      "rotation" : [ 0.0843428, -0.340072, -0.202485, -0.91446 ]
    },
    {
      "name" : "L_Finger41",
      "children" : [ 30 ],
      "translation" : [ 0.0152585, -3.8147e-08, 7.62939e-08 ],
      "rotation" : [ 4.4741e-08, -0.319478, -4.48218e-08, -0.947594 ]
    },
    {
      "name" : "L_Finger42",
      "translation" : [ 0.00911037, 9.53674e-08, 3.8147e-08 ],
      "rotation" : [ -5.33359e-08, -0.158264, -1.32394e-08, -0.987397 ]
    },
    {
      "name" : "L_ForearmTwist01",
      "translation" : [ -5.72205e-08, -7.62939e-08, -0 ],
      "rotation" : [ -0.0340632, 3.97692e-09, 6.72701e-08, -0.99942 ]
    },
    {
      "name" : "L_ForearmTwist02",
      "translation" : [ 0.0249999, -7.62939e-08, -2.86102e-08 ],
      "rotation" : [ -0.0680868, 2.35163e-07, 4.48534e-08, -0.997679 ]
    },
    {
      "name" : "L_ForearmTwist03",
      "translation" : [ 0.05, -7.62939e-08, -9.53674e-09 ],
      "rotation" : [ -0.102031, -6.18827e-09, 9.83001e-08, -0.994781 ]
    },
    {
      "name" : "L_ForearmTwist04",
      "translation" : [ 0.0754419, -7.62939e-08, 9.53674e-09 ],
      "rotation" : [ -0.135858, 1.30648e-08, 1.13388e-07, -0.990728 ]
    },
    {
      "name" : "L_ForearmTwist05",
      "translation" : [ 0.101033, -7.62939e-08, 2.86102e-08 ],
      "rotation" : [ -0.167847, -2.07841e-08, 9.86098e-08, -0.985813 ]
    },
    {
      "name" : "L_Elbow",
      "translation" : [ 0.117947, 0, 9.53674e-09 ],
      "rotation" : [ 3.05632e-08, 0.0688921, 4.54955e-08, -0.997624 ]
    },
    {
      "name" : "L_shoulderPad_pt",
      "children" : [ 38 ],
      "translation" : [ 0.0669313, 0.0303564, 0.0291066 ],
      "rotation" : [ -0.784822, -0.166103, -0.258685, -0.538094 ]
    },
    {
      "name" : "L_shoulderPad",
      "translation" : [ 0, 0, -7.62939e-08 ],
      "rotation" : [ -5.58793e-09, 1.04083e-17, 1.39698e-09, -1 ]
    },
    {
      "name" : "R_Clavicle",
      "children" : [ 40, 67 ],
      "translation" : [ 0.0112881, -0.0226181, 0.00645313 ],
      "rotation" : [ 0.546869, -0.80505, 0.207382, -0.0990998 ]
    },
    {
      "name" : "R_ShoulderDefCounter",
      "children" : [ 41 ],
      "translation" : [ 0.100469, 7.62939e-08, 1.23978e-07 ],
      "rotation" : [ 0.0362387, 0.00717266, -0.041131, -0.998471 ]
    },
    {
      "name" : "R_UpperArm",
      "children" : [ 42, 66 ],
      "translation" : [ -1.90735e-07, -1.52588e-07, -5.72205e-08 ],
      "rotation" : [ 0.0362385, 0.00717271, -0.0411312, -0.998471 ]
    },
    {
      "name" : "R_Forearm",
      "children" : [ 43, 61, 62, 63, 64, 65 ],
      "translation" : [ 0.117947, -7.62939e-08, 6.19888e-08 ],
      "rotation" : [ -2.76745e-08, 0.137457, 1.78909e-07, -0.990508 ]
    },
    {
      "name" : "R_Hand",
      "children" : [ 44, 47, 49, 52, 55, 58 ],
      "translation" : [ 0.126315, -7.62939e-08, -9.53674e-09 ],
      "rotation" : [ -0.574366, -0.011688, 0.0650405, -0.815927 ]
    },
    {
      "name" : "R_Finger0",
      "children" : [ 45 ],
      "translation" : [ 0.00542538, 0.00977501, -0.0043956 ],
      "rotation" : [ 0.555543, 0.073309, -0.339107, -0.755648 ]
    },
    {
      "name" : "R_Finger01",
      "children" : [ 46 ],
      "translation" : [ 0.0323735, 7.62939e-08, -8.58307e-08 ],
      "rotation" : [ -1.41411e-07, -0.0460581, -4.49992e-08, -0.998939 ]
    },
    {
      "name" : "R_Finger02",
      "translation" : [ 0.0186478, -7.62939e-08, 6.67572e-08 ],
      "rotation" : [ -7.39993e-09, -0.116402, 1.47999e-08, -0.993202 ]
    },
    {
      "name" : "Prop1",
      "children" : [ 48 ],
      "translation" : [ 0.0449335, 0.00778345, -0.0202334 ],
      "rotation" : [ -0.0273798, 0.175658, 0.017828, -0.983909 ]
    },
    {
      "name" : "L_grip",
      "translation" : [ -0.682773, 0.0605947, 0.00563553 ],
      "rotation" : [ -0.215796, 0.0447937, 0.967756, 0.12196 ]
    },
    {
      "name" : "R_Finger1",
      "children" : [ 50 ],
      "translation" : [ 0.0616773, 0.0185019, -0.00355667 ],
      "rotation" : [ 0.0354357, -0.193484, -0.155172, -0.968106 ]
    },
    {
      "name" : "R_Finger11",
      "children" : [ 51 ],
      "translation" : [ 0.0162036, 1.90735e-08, 7.62939e-08 ],
      "rotation" : [ 2.96253e-08, -0.245252, -2.888e-08, -0.969459 ]
    },
    {
      "name" : "R_Finger12",
      "translation" : [ 0.0125132, 3.8147e-08, 3.8147e-08 ],
      "rotation" : [ -6.81135e-08, -0.142513, 6.58435e-08, -0.989793 ]
    },
    {
      "name" : "R_Finger2",
      "children" : [ 53 ],
      "translation" : [ 0.0630869, 0.0058479, -0.00265373 ],
      "rotation" : [ -0.00620832, -0.304903, -0.010258, -0.952308 ]
    },
    {
      "name" : "R_Finger21",
      "children" : [ 54 ],
      "translation" : [ 0.0194148, -5.72205e-08, -1.52588e-07 ],
      "rotation" : [ 8.97202e-08, -0.290644, -2.77251e-08, -0.956831 ]
    },
    {
      "name" : "R_Finger22",
      "translation" : [ 0.0135423, 2.86102e-08, -0 ],
      "rotation" : [ -1.79049e-07, -0.264952, 2.47607e-08, -0.964262 ]
    },
    {
      "name" : "R_Finger3",
      "children" : [ 56 ],
      "translation" : [ 0.0615972, -0.00666191, -0.00337753 ],
      "rotation" : [ -0.0266673, -0.353528, 0.0986366, -0.929827 ]
    },
    {
      "name" : "R_Finger31",
      "children" : [ 57 ],
      "translation" : [ 0.0191226, -3.8147e-08, -0 ],
      "rotation" : [ -7.59763e-08, -0.29145, -1.4355e-08, -0.956586 ]
    },
    {
      "name" : "R_Finger32",
      "translation" : [ 0.0133479, -1.14441e-07, -3.8147e-08 ],
      "rotation" : [ 3.66595e-08, -0.177783, 6.86362e-08, -0.98407 ]
    },
    {
      "name" : "R_Finger4",
      "children" : [ 59 ],
      "translation" : [ 0.0555126, -0.0176899, -0.0065686 ],
      "rotation" : [ -0.0843429, -0.340072, 0.202485, -0.91446 ]
    },
    {
      "name" : "R_Finger41",
      "children" : [ 60 ],
      "translation" : [ 0.0152587, 7.62939e-08, -3.8147e-08 ],
      "rotation" : [ -6.35162e-09, -0.319478, -1.28621e-08, -0.947594 ]
    },
    {
      "name" : "R_Finger42",
      "translation" : [ 0.00911041, 5.72205e-08, -1.90735e-08 ],
      "rotation" : [ -5.7793e-08, -0.158264, 4.10579e-08, -0.987397 ]
    },
    {
      "name" : "R_ForearmTwist01",
      "translation" : [ 0, 0, -1.90735e-08 ],
      "rotation" : [ 0.0340633, -7.19247e-09, 3.74851e-08, -0.99942 ]
    },
    {
      "name" : "R_ForearmTwist02",
      "translation" : [ 0.025, -7.62939e-08, -1.90735e-08 ],
      "rotation" : [ 0.068087, 5.57497e-09, 1.52471e-08, -0.997679 ]
    },
    {
      "name" : "R_ForearmTwist03",
      "translation" : [ 0.0500001, -7.62939e-08, -3.8147e-08 ],
      "rotation" : [ 0.102032, 3.44454e-08, 3.80087e-08, -0.994781 ]
    },
    {
      "name" : "R_ForearmTwist04",
      "translation" : [ 0.0755201, -7.62939e-08, -3.8147e-08 ],
      "rotation" : [ 0.135858, 1.56857e-08, 1.04227e-07, -0.990728 ]
    },
    {
      "name" : "R_ForearmTwist05",
      "translation" : [ 0.100816, 0, -3.8147e-08 ],
      "rotation" : [ 0.167848, 1.92803e-08, 5.9228e-08, -0.985813 ]
    },
    {
      "name" : "R_Elbow",
      "translation" : [ 0.117947, -7.62939e-08, 6.19888e-08 ],
      "rotation" : [ 7.43288e-09, 0.0688921, 9.02211e-08, -0.997624 ]
    },
    {
      "name" : "R_shoulderPad_pt",
      "children" : [ 68 ],
      "translation" : [ 0.0669355, -0.0303583, 0.0291074 ],
      "rotation" : [ -0.258684, -0.538094, 0.784823, 0.166104 ]
    },
    {
      "name" : "R_shoulderPad",
      "translation" : [ 0, 0, -7.62939e-08 ],
      "rotation" : [ 3.72529e-09, -3.72529e-09, -3.25963e-09, -1 ]
    },
    {
      "name" : "WEP_1_Switch",
      "translation" : [ 0.253008, -0.000483244, 0.0539173 ],
      "rotation" : [ -0.110357, -0.112577, -0.694731, -0.701781 ]
    },
    {
      "name" : "WEP_2_Switch",
      "translation" : [ 0.0192366, 0.0890014, 0.0231088 ],
      "rotation" : [ -0.668983, 0.516287, -0.233975, -0.480796 ]
    },
    {
      "name" : "PelvisWeighted",
      "children" : [ 72, 77 ],
      "translation" : [ 0, 0, -0 ],
      "rotation" : [ -1.18967e-06, 2.42144e-07, 8.58558e-09, -1 ]
    },
    {
      "name" : "L_Thigh",
      "children" : [ 73 ],
      "translation" : [ -1.52588e-07, 0.0583732, -9.29832e-08 ],
      "rotation" : [ -0.0217001, -0.0795285, 0.995832, 0.0390232 ]
    },
    {
      "name" : "L_Calf",
      "children" : [ 74, 76 ],
      "translation" : [ 0.232977, 5.72205e-08, 2.92063e-08 ],
      "rotation" : [ 1.49531e-08, 0.0657898, 1.05032e-08, -0.997834 ]
    },
    {
      "name" : "L_Foot",
      "children" : [ 75 ],
      "translation" : [ 0.205159, 2.86102e-08, -4.76837e-09 ],
      "rotation" : [ 0.0452898, -0.0839625, -0.0462058, -0.994366 ]
    },
    {
      "name" : "L_Toe0",
      "translation" : [ 0.0754791, 0.00114449, -0.0689709 ],
      "rotation" : [ 2.30076e-08, -0.707107, -1.68784e-09, -0.707107 ]
    },
    {
      "name" : "L_KneePad",
      "translation" : [ 0.0204657, -6.67572e-08, 0.0104196 ],
      "rotation" : [ -6.3199e-08, -0.0209467, -4.27144e-08, -0.999781 ]
    },
    {
      "name" : "R_Thigh",
      "children" : [ 78 ],
      "translation" : [ 3.8147e-08, -0.0583732, 4.29153e-08 ],
      "rotation" : [ -0.0217001, 0.0795296, 0.995832, -0.0390249 ]
    },
    {
      "name" : "R_Calf",
      "children" : [ 79, 81 ],
      "translation" : [ 0.232977, 3.8147e-08, -1.07288e-08 ],
      "rotation" : [ -1.54444e-10, 0.0657898, 6.33995e-08, -0.997834 ]
    },
    {
      "name" : "R_Foot",
      "children" : [ 80 ],
      "translation" : [ 0.205159, 6.67572e-08, -3.57628e-08 ],
      "rotation" : [ -0.0452898, -0.0839624, 0.0462058, -0.994366 ]
    },
    {
      "name" : "R_Toe0",
      "translation" : [ 0.0754791, -0.00114524, -0.0689709 ],
      "rotation" : [ -1.09763e-07, -0.707107, 7.75931e-08, -0.707107 ]
    },
    {
      "name" : "R_KneePad",
      "translation" : [ 0.0204685, -6.67572e-07, 0.0104234 ],
      "rotation" : [ -2.05732e-09, -0.0209467, 5.40731e-08, -0.999781 ]
    },
    {
      "name" : "ikGunLeftHand",
      "translation" : [ -0.0219887, 0.647734, -0.326104 ],
      "rotation" : [ 0.580337, -0.593548, -0.319551, -0.456943 ]
    },
    {
      "name" : "ikGunRightHand",
      "translation" : [ -0.0219876, 0.647734, 0.326105 ],
      "rotation" : [ 0.456944, 0.319549, 0.593547, -0.580338 ]
    }
  ],
  "skins" : [
    {
      "inverseBindMatrices" : 0,
      "skeleton" : 1,
      "joints" : [
        1,2,3,4,5,6,7,8,9,10,11,12,13,14,15,16,17,18,19,20,21,22,23,24,25,26,27,28,29,30,31,32,
        33,34,35,36,37,38,39,40,41,42,43,44,45,46,47,48,49,50,51,52,53,54,55,56,57,58,59,60,61,62,63,64,
        65,66,67,68,69,70,71,72,73,74,75,76,77,78,79,80,81,82,83
      ]
    }
  ],
  "materials" : [
    {
      "name" : "MIC_DiamondSword_Medium",
      "pbrMetallicRoughness" : {
        "baseColorFactor" : [ 0.3, 0.3, 0.3, 1.0 ],
        "metallicFactor" : 0.1,
        "roughnessFactor" : 0.5
      }
    }
  ],
  "meshes" : [
    {
      "primitives" : [
        {
          "attributes" : {
            "POSITION" : 2,
            "NORMAL" : 3,
            "TANGENT" : 4,
            "COLOR_0" : 5,
            "JOINTS_0" : 6,
            "WEIGHTS_0" : 7,
            "TEXCOORD_0" : 8
          },
          "indices" : 1,
          "material" : 0
        }
      ],
      "name" : "SKL_PC_DS_Medium_Gib"
    }
  ],
  "buffers" : [
    {
      "uri" : "SKL_PC_DS_Medium_Gib.bin",
      "byteLength" : 778200
    }
  ],
  "bufferViews" : [
    {
      "buffer" : 0,
      "byteOffset" : 0,
      "byteLength" : 5312
    },
    {
      "buffer" : 0,
      "byteOffset" : 5312,
      "byteLength" : 71640
    },
    {
      "buffer" : 0,
      "byteOffset" : 76952,
      "byteLength" : 131484
    },
    {
      "buffer" : 0,
      "byteOffset" : 208436,
      "byteLength" : 131484
    },
    {
      "buffer" : 0,
      "byteOffset" : 339920,
      "byteLength" : 175312
    },
    {
      "buffer" : 0,
      "byteOffset" : 515232,
      "byteLength" : 43828
    },
    {
      "buffer" : 0,
      "byteOffset" : 559060,
      "byteLength" : 87656
    },
    {
      "buffer" : 0,
      "byteOffset" : 646716,
      "byteLength" : 43828
    },
    {
      "buffer" : 0,
      "byteOffset" : 690544,
      "byteLength" : 87656
    }
  ],
  "accessors" : [
    {
      "bufferView" : 0,
      "componentType" : 5126,
      "count" : 83,
      "type" : "MAT4"
    },
    {
      "bufferView" : 1,
      "componentType" : 5123,
      "count" : 35820,
      "type" : "SCALAR"
    },
    {
      "bufferView" : 2,
      "min" : [ -0.39908, -9.2691e-05, -0.144983 ],
      "max" : [ 0.39908, 0.981884, 0.13885 ],
      "componentType" : 5126,
      "count" : 10957,
      "type" : "VEC3"
    },
    {
      "bufferView" : 3,
      "componentType" : 5126,
      "count" : 10957,
      "type" : "VEC3"
    },
    {
      "bufferView" : 4,
      "componentType" : 5126,
      "count" : 10957,
      "type" : "VEC4"
    },
    {
      "bufferView" : 5,
      "normalized" : true,
      "componentType" : 5121,
      "count" : 10957,
      "type" : "VEC4"
    },
    {
      "bufferView" : 6,
      "componentType" : 5123,
      "count" : 10957,
      "type" : "VEC4"
    },
    {
      "bufferView" : 7,
      "normalized" : true,
      "componentType" : 5121,
      "count" : 10957,
      "type" : "VEC4"
    },
    {
      "bufferView" : 8,
      "componentType" : 5126,
      "count" : 10957,
      "type" : "VEC2"
    }
  ]
}
