{
  "asset" : {
    "generator" : "UE Viewer (umodel) build 1575",
    "version" : "2.0"
  },
  "scene" : 0,
  "scenes" : [
    {
      "nodes" : [ 0 ]
    }
  ],
  "nodes" : [
    {
      "name" : "ASE_Sabre_Projectile_LShell",
      "mesh" : 0
    }
  ],
  "materials" : [
    {
      "name" : "MAT_Rocket_Proj_FX",
      "pbrMetallicRoughness" : {
        "baseColorFactor" : [ 0.3, 0.3, 0.3, 1.0 ],
        "metallicFactor" : 0.1,
        "roughnessFactor" : 0.5
      }
    }
  ],
  "meshes" : [
    {
      "primitives" : [
        {
          "attributes" : {
            "POSITION" : 1,
            "NORMAL" : 2,
            "TANGENT" : 3,
            "COLOR_0" : 4,
            "TEXCOORD_0" : 5
          },
          "indices" : 0,
          "material" : 0
        }
      ],
      "name" : "ASE_Sabre_Projectile_LShell"
    }
  ],
  "buffers" : [
    {
      "uri" : "ASE_Sabre_Projectile_LShell.bin",
      "byteLength" : 7208
    }
  ],
  "bufferViews" : [
    {
      "buffer" : 0,
      "byteOffset" : 0,
      "byteLength" : 552
    },
    {
      "buffer" : 0,
      "byteOffset" : 552,
      "byteLength" : 1536
    },
    {
      "buffer" : 0,
      "byteOffset" : 2088,
      "byteLength" : 1536
    },
    {
      "buffer" : 0,
      "byteOffset" : 3624,
      "byteLength" : 2048
    },
    {
      "buffer" : 0,
      "byteOffset" : 5672,
      "byteLength" : 512
    },
    {
      "buffer" : 0,
      "byteOffset" : 6184,
      "byteLength" : 1024
    }
  ],
  "accessors" : [
    {
      "bufferView" : 0,
      "componentType" : 5123,
      "count" : 276,
      "type" : "SCALAR"
    },
    {
      "bufferView" : 1,
      "min" : [ -0.02656, -0.090628, -0.331174 ],
      "max" : [ 0.07602, 0.090628, 0.331174 ],
      "componentType" : 5126,
      "count" : 128,
      "type" : "VEC3"
    },
    {
      "bufferView" : 2,
      "componentType" : 5126,
      "count" : 128,
      "type" : "VEC3"
    },
    {
      "bufferView" : 3,
      "componentType" : 5126,
      "count" : 128,
      "type" : "VEC4"
    },
    {
      "bufferView" : 4,
      "normalized" : true,
      "componentType" : 5121,
      "count" : 128,
      "type" : "VEC4"
    },
    {
      "bufferView" : 5,
      "componentType" : 5126,
      "count" : 128,
      "type" : "VEC2"
    }
  ]
}
