{
  "asset" : {
    "generator" : "UE Viewer (umodel) build 1575",
    "version" : "2.0"
  },
  "scene" : 0,
  "scenes" : [
    {
      "nodes" : [ 0 ]
    }
  ],
  "nodes" : [
    {
      "name" : "ASE_Firststage_Projectile",
      "mesh" : 0
    }
  ],
  "materials" : [
    {
      "name" : "MAT_Rocket_Proj",
      "pbrMetallicRoughness" : {
        "baseColorFactor" : [ 0.3, 0.3, 0.3, 1.0 ],
        "metallicFactor" : 0.1,
        "roughnessFactor" : 0.5
      }
    }
  ],
  "meshes" : [
    {
      "primitives" : [
        {
          "attributes" : {
            "POSITION" : 1,
            "NORMAL" : 2,
            "TANGENT" : 3,
            "COLOR_0" : 4,
            "TEXCOORD_0" : 5
          },
          "indices" : 0,
          "material" : 0
        }
      ],
      "name" : "ASE_Firststage_Projectile"
    }
  ],
  "buffers" : [
    {
      "uri" : "ASE_Firststage_Projectile.bin",
      "byteLength" : 23288
    }
  ],
  "bufferViews" : [
    {
      "buffer" : 0,
      "byteOffset" : 0,
      "byteLength" : 1968
    },
    {
      "buffer" : 0,
      "byteOffset" : 1968,
      "byteLength" : 4920
    },
    {
      "buffer" : 0,
      "byteOffset" : 6888,
      "byteLength" : 4920
    },
    {
      "buffer" : 0,
      "byteOffset" : 11808,
      "byteLength" : 6560
    },
    {
      "buffer" : 0,
      "byteOffset" : 18368,
      "byteLength" : 1640
    },
    {
      "buffer" : 0,
      "byteOffset" : 20008,
      "byteLength" : 3280
    }
  ],
  "accessors" : [
    {
      "bufferView" : 0,
      "componentType" : 5123,
      "count" : 984,
      "type" : "SCALAR"
    },
    {
      "bufferView" : 1,
      "min" : [ -0.016514, -0.049798, -0.07602 ],
      "max" : [ 0.838833, 0.354346, 0.07602 ],
      "componentType" : 5126,
      "count" : 410,
      "type" : "VEC3"
    },
    {
      "bufferView" : 2,
      "componentType" : 5126,
      "count" : 410,
      "type" : "VEC3"
    },
    {
      "bufferView" : 3,
      "componentType" : 5126,
      "count" : 410,
      "type" : "VEC4"
    },
    {
      "bufferView" : 4,
      "normalized" : true,
      "componentType" : 5121,
      "count" : 410,
      "type" : "VEC4"
    },
    {
      "bufferView" : 5,
      "componentType" : 5126,
      "count" : 410,
      "type" : "VEC2"
    }
  ]
}
