{
  "asset" : {
    "generator" : "UE Viewer (umodel) build 1575",
    "version" : "2.0"
  },
  "scene" : 0,
  "scenes" : [
    {
      "nodes" : [ 0 ]
    }
  ],
  "nodes" : [
    {
      "name" : "ASE_Sabre_Projectile_Missle",
      "mesh" : 0
    }
  ],
  "materials" : [
    {
      "name" : "MAT_Rocket_Proj",
      "pbrMetallicRoughness" : {
        "baseColorFactor" : [ 0.3, 0.3, 0.3, 1.0 ],
        "metallicFactor" : 0.1,
        "roughnessFactor" : 0.5
      }
    }
  ],
  "meshes" : [
    {
      "primitives" : [
        {
          "attributes" : {
            "POSITION" : 1,
            "NORMAL" : 2,
            "TANGENT" : 3,
            "TEXCOORD_0" : 4
          },
          "indices" : 0,
          "material" : 0
        }
      ],
      "name" : "ASE_Sabre_Projectile_Missle"
    }
  ],
  "buffers" : [
    {
      "uri" : "ASE_Sabre_Projectile_Missle.bin",
      "byteLength" : 41184
    }
  ],
  "bufferViews" : [
    {
      "buffer" : 0,
      "byteOffset" : 0,
      "byteLength" : 3264
    },
    {
      "buffer" : 0,
      "byteOffset" : 3264,
      "byteLength" : 9480
    },
    {
      "buffer" : 0,
      "byteOffset" : 12744,
      "byteLength" : 9480
    },
    {
      "buffer" : 0,
      "byteOffset" : 22224,
      "byteLength" : 12640
    },
    {
      "buffer" : 0,
      "byteOffset" : 34864,
      "byteLength" : 6320
    }
  ],
  "accessors" : [
    {
      "bufferView" : 0,
      "componentType" : 5123,
      "count" : 1632,
      "type" : "SCALAR"
    },
    {
      "bufferView" : 1,
      "min" : [ 0.000159, -0.207725, -0.207725 ],
      "max" : [ 0.87717, 0.207725, 0.207725 ],
      "componentType" : 5126,
      "count" : 790,
      "type" : "VEC3"
    },
    {
      "bufferView" : 2,
      "componentType" : 5126,
      "count" : 790,
      "type" : "VEC3"
    },
    {
      "bufferView" : 3,
      "componentType" : 5126,
      "count" : 790,
      "type" : "VEC4"
    },
    {
      "bufferView" : 4,
      "componentType" : 5126,
      "count" : 790,
      "type" : "VEC2"
    }
  ]
}
