{
  "asset" : {
    "generator" : "UE Viewer (umodel) build 1575",
    "version" : "2.0"
  },
  "scene" : 0,
  "scenes" : [
    {
      "nodes" : [ 0 ]
    }
  ],
  "nodes" : [
    {
      "name" : "SKL_WEP_SMG_3p",
      "mesh" : 0,
      "skin" : 0,
      "children" : [ 1 ]
    },
    {
      "name" : "R_WEP_root",
      "translation" : [ 0, 9.53674e-09, -3.8147e-08 ],
      "rotation" : [ 2.40281e-07, -1.39699e-09, 2.42144e-07, -1 ]
    }
  ],
  "skins" : [
    {
      "inverseBindMatrices" : 0,
      "skeleton" : 1,
      "joints" : [
        1
      ]
    }
  ],
  "materials" : [
    {
      "name" : "MAT_SMG_3P",
      "pbrMetallicRoughness" : {
        "baseColorFactor" : [ 0.3, 0.3, 0.3, 1.0 ],
        "metallicFactor" : 0.1,
        "roughnessFactor" : 0.5
      }
    }
  ],
  "meshes" : [
    {
      "primitives" : [
        {
          "attributes" : {
            "POSITION" : 2,
            "NORMAL" : 3,
            "TANGENT" : 4,
            "JOINTS_0" : 5,
            "WEIGHTS_0" : 6,
            "TEXCOORD_0" : 7
          },
          "indices" : 1,
          "material" : 0
        }
      ],
      "name" : "SKL_WEP_SMG_3p"
    }
  ],
  "buffers" : [
    {
      "uri" : "SKL_WEP_SMG_3p.bin",
      "byteLength" : 129084
    }
  ],
  "bufferViews" : [
    {
      "buffer" : 0,
      "byteOffset" : 0,
      "byteLength" : 64
    },
    {
      "buffer" : 0,
      "byteOffset" : 64,
      "byteLength" : 11420
    },
    {
      "buffer" : 0,
      "byteOffset" : 11484,
      "byteLength" : 23520
    },
    {
      "buffer" : 0,
      "byteOffset" : 35004,
      "byteLength" : 23520
    },
    {
      "buffer" : 0,
      "byteOffset" : 58524,
      "byteLength" : 31360
    },
    {
      "buffer" : 0,
      "byteOffset" : 89884,
      "byteLength" : 15680
    },
    {
      "buffer" : 0,
      "byteOffset" : 105564,
      "byteLength" : 7840
    },
    {
      "buffer" : 0,
      "byteOffset" : 113404,
      "byteLength" : 15680
    }
  ],
  "accessors" : [
    {
      "bufferView" : 0,
      "componentType" : 5126,
      "count" : 1,
      "type" : "MAT4"
    },
    {
      "bufferView" : 1,
      "componentType" : 5123,
      "count" : 5709,
      "type" : "SCALAR"
    },
    {
      "bufferView" : 2,
      "min" : [ -0.09389, -0.0858115, -0.0364867 ],
      "max" : [ 0.170135, 0.0939514, 0.0155898 ],
      "componentType" : 5126,
      "count" : 1960,
      "type" : "VEC3"
    },
    {
      "bufferView" : 3,
      "componentType" : 5126,
      "count" : 1960,
      "type" : "VEC3"
    },
    {
      "bufferView" : 4,
      "componentType" : 5126,
      "count" : 1960,
      "type" : "VEC4"
    },
    {
      "bufferView" : 5,
      "componentType" : 5123,
      "count" : 1960,
      "type" : "VEC4"
    },
    {
      "bufferView" : 6,
      "normalized" : true,
      "componentType" : 5121,
      "count" : 1960,
      "type" : "VEC4"
    },
    {
      "bufferView" : 7,
      "componentType" : 5126,
      "count" : 1960,
      "type" : "VEC2"
    }
  ]
}
