{
  "asset" : {
    "generator" : "UE Viewer (umodel) build 1575",
    "version" : "2.0"
  },
  "scene" : 0,
  "scenes" : [
    {
      "nodes" : [ 0 ]
    }
  ],
  "nodes" : [
    {
      "name" : "SM_STN_VehicleSpawner_Base",
      "mesh" : 0
    }
  ],
  "materials" : [
    {
      "name" : "MAT_Vehicle_Pad_Base",
      "pbrMetallicRoughness" : {
        "baseColorFactor" : [ 0.3, 0.3, 0.3, 1.0 ],
        "metallicFactor" : 0.1,
        "roughnessFactor" : 0.5
      }
    }
  ],
  "meshes" : [
    {
      "primitives" : [
        {
          "attributes" : {
            "POSITION" : 1,
            "NORMAL" : 2,
            "TANGENT" : 3,
            "TEXCOORD_0" : 4,
            "TEXCOORD_1" : 5
          },
          "indices" : 0,
          "material" : 0
        }
      ],
      "name" : "SM_STN_VehicleSpawner_Base"
    }
  ],
  "buffers" : [
    {
      "uri" : "SM_STN_VehicleSpawner_Base.bin",
      "byteLength" : 33780
    }
  ],
  "bufferViews" : [
    {
      "buffer" : 0,
      "byteOffset" : 0,
      "byteLength" : 3540
    },
    {
      "buffer" : 0,
      "byteOffset" : 3540,
      "byteLength" : 6480
    },
    {
      "buffer" : 0,
      "byteOffset" : 10020,
      "byteLength" : 6480
    },
    {
      "buffer" : 0,
      "byteOffset" : 16500,
      "byteLength" : 8640
    },
    {
      "buffer" : 0,
      "byteOffset" : 25140,
      "byteLength" : 4320
    },
    {
      "buffer" : 0,
      "byteOffset" : 29460,
      "byteLength" : 4320
    }
  ],
  "accessors" : [
    {
      "bufferView" : 0,
      "componentType" : 5123,
      "count" : 1770,
      "type" : "SCALAR"
    },
    {
      "bufferView" : 1,
      "min" : [ -7.43662, 0, -7.73302 ],
      "max" : [ 7.43662, 0.35173, 7.73302 ],
      "componentType" : 5126,
      "count" : 540,
      "type" : "VEC3"
    },
    {
      "bufferView" : 2,
      "componentType" : 5126,
      "count" : 540,
      "type" : "VEC3"
    },
    {
      "bufferView" : 3,
      "componentType" : 5126,
      "count" : 540,
      "type" : "VEC4"
    },
    {
      "bufferView" : 4,
      "componentType" : 5126,
      "count" : 540,
      "type" : "VEC2"
    },
    {
      "bufferView" : 5,
      "componentType" : 5126,
      "count" : 540,
      "type" : "VEC2"
    }
  ]
}
