{
  "asset" : {
    "generator" : "UE Viewer (umodel) build 1575",
    "version" : "2.0"
  },
  "scene" : 0,
  "scenes" : [
    {
      "nodes" : [ 0 ]
    }
  ],
  "nodes" : [
    {
      "name" : "ASE_Main_projectile",
      "mesh" : 0
    }
  ],
  "materials" : [
    {
      "name" : "MAT_Mortar_Projectile",
      "pbrMetallicRoughness" : {
        "baseColorFactor" : [ 0.3, 0.3, 0.3, 1.0 ],
        "metallicFactor" : 0.1,
        "roughnessFactor" : 0.5
      }
    }
  ],
  "meshes" : [
    {
      "primitives" : [
        {
          "attributes" : {
            "POSITION" : 1,
            "NORMAL" : 2,
            "TANGENT" : 3,
            "TEXCOORD_0" : 4,
            "TEXCOORD_1" : 5,
            "TEXCOORD_2" : 6
          },
          "indices" : 0,
          "material" : 0
        }
      ],
      "name" : "ASE_Main_projectile"
    }
  ],
  "buffers" : [
    {
      "uri" : "ASE_Main_projectile.bin",
      "byteLength" : 7736
    }
  ],
  "bufferViews" : [
    {
      "buffer" : 0,
      "byteOffset" : 0,
      "byteLength" : 696
    },
    {
      "buffer" : 0,
      "byteOffset" : 696,
      "byteLength" : 1320
    },
    {
      "buffer" : 0,
      "byteOffset" : 2016,
      "byteLength" : 1320
    },
    {
      "buffer" : 0,
      "byteOffset" : 3336,
      "byteLength" : 1760
    },
    {
      "buffer" : 0,
      "byteOffset" : 5096,
      "byteLength" : 880
    },
    {
      "buffer" : 0,
      "byteOffset" : 5976,
      "byteLength" : 880
    },
    {
      "buffer" : 0,
      "byteOffset" : 6856,
      "byteLength" : 880
    }
  ],
  "accessors" : [
    {
      "bufferView" : 0,
      "componentType" : 5123,
      "count" : 348,
      "type" : "SCALAR"
    },
    {
      "bufferView" : 1,
      "min" : [ -0.021874, -0.018396, -0.018396 ],
      "max" : [ 0.021874, 0.018396, 0.018396 ],
      "componentType" : 5126,
      "count" : 110,
      "type" : "VEC3"
    },
    {
      "bufferView" : 2,
      "componentType" : 5126,
      "count" : 110,
      "type" : "VEC3"
    },
    {
      "bufferView" : 3,
      "componentType" : 5126,
      "count" : 110,
      "type" : "VEC4"
    },
    {
      "bufferView" : 4,
      "componentType" : 5126,
      "count" : 110,
      "type" : "VEC2"
    },
    {
      "bufferView" : 5,
      "componentType" : 5126,
      "count" : 110,
      "type" : "VEC2"
    },
    {
      "bufferView" : 6,
      "componentType" : 5126,
      "count" : 110,
      "type" : "VEC2"
    }
  ]
}
