{
  "asset" : {
    "generator" : "UE Viewer (umodel) build 1575",
    "version" : "2.0"
  },
  "scene" : 0,
  "scenes" : [
    {
      "nodes" : [ 0 ]
    }
  ],
  "nodes" : [
    {
      "name" : "SKL_WEP_Mirv_3p",
      "mesh" : 0,
      "skin" : 0,
      "children" : [ 1 ]
    },
    {
      "name" : "R_WEP_root",
      "translation" : [ 0, 0, -0 ],
      "rotation" : [ -2.98256e-07, 9.89516e-10, 2.49595e-07, -1 ]
    }
  ],
  "skins" : [
    {
      "inverseBindMatrices" : 0,
      "skeleton" : 1,
      "joints" : [
        1
      ]
    }
  ],
  "materials" : [
    {
      "name" : "MAT_WEP_MIRVlauncher_3p",
      "pbrMetallicRoughness" : {
        "baseColorFactor" : [ 0.3, 0.3, 0.3, 1.0 ],
        "metallicFactor" : 0.1,
        "roughnessFactor" : 0.5
      }
    }
  ],
  "meshes" : [
    {
      "primitives" : [
        {
          "attributes" : {
            "POSITION" : 2,
            "NORMAL" : 3,
            "TANGENT" : 4,
            "JOINTS_0" : 5,
            "WEIGHTS_0" : 6,
            "TEXCOORD_0" : 7,
            "TEXCOORD_1" : 8,
            "TEXCOORD_2" : 9
          },
          "indices" : 1,
          "material" : 0
        }
      ],
      "name" : "SKL_WEP_Mirv_3p"
    }
  ],
  "buffers" : [
    {
      "uri" : "SKL_WEP_Mirv_3p.bin",
      "byteLength" : 182692
    }
  ],
  "bufferViews" : [
    {
      "buffer" : 0,
      "byteOffset" : 0,
      "byteLength" : 64
    },
    {
      "buffer" : 0,
      "byteOffset" : 64,
      "byteLength" : 10032
    },
    {
      "buffer" : 0,
      "byteOffset" : 10096,
      "byteLength" : 27252
    },
    {
      "buffer" : 0,
      "byteOffset" : 37348,
      "byteLength" : 27252
    },
    {
      "buffer" : 0,
      "byteOffset" : 64600,
      "byteLength" : 36336
    },
    {
      "buffer" : 0,
      "byteOffset" : 100936,
      "byteLength" : 18168
    },
    {
      "buffer" : 0,
      "byteOffset" : 119104,
      "byteLength" : 9084
    },
    {
      "buffer" : 0,
      "byteOffset" : 128188,
      "byteLength" : 18168
    },
    {
      "buffer" : 0,
      "byteOffset" : 146356,
      "byteLength" : 18168
    },
    {
      "buffer" : 0,
      "byteOffset" : 164524,
      "byteLength" : 18168
    }
  ],
  "accessors" : [
    {
      "bufferView" : 0,
      "componentType" : 5126,
      "count" : 1,
      "type" : "MAT4"
    },
    {
      "bufferView" : 1,
      "componentType" : 5123,
      "count" : 5016,
      "type" : "SCALAR"
    },
    {
      "bufferView" : 2,
      "min" : [ -0.0918585, -0.0628049, -0.0731774 ],
      "max" : [ 0.396307, 0.0966311, 0.042128 ],
      "componentType" : 5126,
      "count" : 2271,
      "type" : "VEC3"
    },
    {
      "bufferView" : 3,
      "componentType" : 5126,
      "count" : 2271,
      "type" : "VEC3"
    },
    {
      "bufferView" : 4,
      "componentType" : 5126,
      "count" : 2271,
      "type" : "VEC4"
    },
    {
      "bufferView" : 5,
      "componentType" : 5123,
      "count" : 2271,
      "type" : "VEC4"
    },
    {
      "bufferView" : 6,
      "normalized" : true,
      "componentType" : 5121,
      "count" : 2271,
      "type" : "VEC4"
    },
    {
      "bufferView" : 7,
      "componentType" : 5126,
      "count" : 2271,
      "type" : "VEC2"
    },
    {
      "bufferView" : 8,
      "componentType" : 5126,
      "count" : 2271,
      "type" : "VEC2"
    },
    {
      "bufferView" : 9,
      "componentType" : 5126,
      "count" : 2271,
      "type" : "VEC2"
    }
  ]
}
