{
  "asset" : {
    "generator" : "UE Viewer (umodel) build 1575",
    "version" : "2.0"
  },
  "scene" : 0,
  "scenes" : [
    {
      "nodes" : [ 0 ]
    }
  ],
  "nodes" : [
    {
      "name" : "SKL_WEP_TCN4_3p",
      "mesh" : 0,
      "skin" : 0,
      "children" : [ 1 ]
    },
    {
      "name" : "R_WEP_root",
      "translation" : [ 0, 9.53674e-09, -3.8147e-08 ],
      "rotation" : [ 2.40281e-07, -1.39699e-09, 2.42144e-07, -1 ]
    }
  ],
  "skins" : [
    {
      "inverseBindMatrices" : 0,
      "skeleton" : 1,
      "joints" : [
        1
      ]
    }
  ],
  "materials" : [
    {
      "name" : "MAT_WEP_TCN4",
      "pbrMetallicRoughness" : {
        "baseColorFactor" : [ 0.3, 0.3, 0.3, 1.0 ],
        "metallicFactor" : 0.1,
        "roughnessFactor" : 0.5
      }
    }
  ],
  "meshes" : [
    {
      "primitives" : [
        {
          "attributes" : {
            "POSITION" : 2,
            "NORMAL" : 3,
            "TANGENT" : 4,
            "JOINTS_0" : 5,
            "WEIGHTS_0" : 6,
            "TEXCOORD_0" : 7,
            "TEXCOORD_1" : 8
          },
          "indices" : 1,
          "material" : 0
        }
      ],
      "name" : "SKL_WEP_TCN4_3p"
    }
  ],
  "buffers" : [
    {
      "uri" : "SKL_WEP_TCN4_3p.bin",
      "byteLength" : 131160
    }
  ],
  "bufferViews" : [
    {
      "buffer" : 0,
      "byteOffset" : 0,
      "byteLength" : 64
    },
    {
      "buffer" : 0,
      "byteOffset" : 64,
      "byteLength" : 9512
    },
    {
      "buffer" : 0,
      "byteOffset" : 9576,
      "byteLength" : 21456
    },
    {
      "buffer" : 0,
      "byteOffset" : 31032,
      "byteLength" : 21456
    },
    {
      "buffer" : 0,
      "byteOffset" : 52488,
      "byteLength" : 28608
    },
    {
      "buffer" : 0,
      "byteOffset" : 81096,
      "byteLength" : 14304
    },
    {
      "buffer" : 0,
      "byteOffset" : 95400,
      "byteLength" : 7152
    },
    {
      "buffer" : 0,
      "byteOffset" : 102552,
      "byteLength" : 14304
    },
    {
      "buffer" : 0,
      "byteOffset" : 116856,
      "byteLength" : 14304
    }
  ],
  "accessors" : [
    {
      "bufferView" : 0,
      "componentType" : 5126,
      "count" : 1,
      "type" : "MAT4"
    },
    {
      "bufferView" : 1,
      "componentType" : 5123,
      "count" : 4755,
      "type" : "SCALAR"
    },
    {
      "bufferView" : 2,
      "min" : [ -0.127896, -0.0858115, -0.021843 ],
      "max" : [ 0.170135, 0.102949, 0.0149072 ],
      "componentType" : 5126,
      "count" : 1788,
      "type" : "VEC3"
    },
    {
      "bufferView" : 3,
      "componentType" : 5126,
      "count" : 1788,
      "type" : "VEC3"
    },
    {
      "bufferView" : 4,
      "componentType" : 5126,
      "count" : 1788,
      "type" : "VEC4"
    },
    {
      "bufferView" : 5,
      "componentType" : 5123,
      "count" : 1788,
      "type" : "VEC4"
    },
    {
      "bufferView" : 6,
      "normalized" : true,
      "componentType" : 5121,
      "count" : 1788,
      "type" : "VEC4"
    },
    {
      "bufferView" : 7,
      "componentType" : 5126,
      "count" : 1788,
      "type" : "VEC2"
    },
    {
      "bufferView" : 8,
      "componentType" : 5126,
      "count" : 1788,
      "type" : "VEC2"
    }
  ]
}
