{
  "asset" : {
    "generator" : "UE Viewer (umodel) build 1575",
    "version" : "2.0"
  },
  "scene" : 0,
  "scenes" : [
    {
      "nodes" : [ 0 ]
    }
  ],
  "nodes" : [
    {
      "name" : "ASE_PROJ_ThrowingKnife_Flame",
      "mesh" : 0
    }
  ],
  "materials" : [
    {
      "name" : "MAT_Blade_Flame",
      "pbrMetallicRoughness" : {
        "baseColorFactor" : [ 0.3, 0.3, 0.3, 1.0 ],
        "metallicFactor" : 0.1,
        "roughnessFactor" : 0.5
      }
    }
  ],
  "meshes" : [
    {
      "primitives" : [
        {
          "attributes" : {
            "POSITION" : 1,
            "NORMAL" : 2,
            "TANGENT" : 3,
            "TEXCOORD_0" : 4
          },
          "indices" : 0,
          "material" : 0
        }
      ],
      "name" : "ASE_PROJ_ThrowingKnife_Flame"
    }
  ],
  "buffers" : [
    {
      "uri" : "ASE_PROJ_ThrowingKnife_Flame.bin",
      "byteLength" : 3720
    }
  ],
  "bufferViews" : [
    {
      "buffer" : 0,
      "byteOffset" : 0,
      "byteLength" : 456
    },
    {
      "buffer" : 0,
      "byteOffset" : 456,
      "byteLength" : 816
    },
    {
      "buffer" : 0,
      "byteOffset" : 1272,
      "byteLength" : 816
    },
    {
      "buffer" : 0,
      "byteOffset" : 2088,
      "byteLength" : 1088
    },
    {
      "buffer" : 0,
      "byteOffset" : 3176,
      "byteLength" : 544
    }
  ],
  "accessors" : [
    {
      "bufferView" : 0,
      "componentType" : 5123,
      "count" : 228,
      "type" : "SCALAR"
    },
    {
      "bufferView" : 1,
      "min" : [ -0.134738, -0.020058, -0.084183 ],
      "max" : [ 0.16152, 0.020719, 0.084183 ],
      "componentType" : 5126,
      "count" : 68,
      "type" : "VEC3"
    },
    {
      "bufferView" : 2,
      "componentType" : 5126,
      "count" : 68,
      "type" : "VEC3"
    },
    {
      "bufferView" : 3,
      "componentType" : 5126,
      "count" : 68,
      "type" : "VEC4"
    },
    {
      "bufferView" : 4,
      "componentType" : 5126,
      "count" : 68,
      "type" : "VEC2"
    }
  ]
}
