{
  "asset" : {
    "generator" : "UE Viewer (umodel) build 1575",
    "version" : "2.0"
  },
  "scene" : 0,
  "scenes" : [
    {
      "nodes" : [ 0 ]
    }
  ],
  "nodes" : [
    {
      "name" : "ASE_PROJ_ThrowingKnife",
      "mesh" : 0
    }
  ],
  "materials" : [
    {
      "name" : "MAT_ThrowingKnife_3p",
      "pbrMetallicRoughness" : {
        "baseColorFactor" : [ 0.3, 0.3, 0.3, 1.0 ],
        "metallicFactor" : 0.1,
        "roughnessFactor" : 0.5
      }
    }
  ],
  "meshes" : [
    {
      "primitives" : [
        {
          "attributes" : {
            "POSITION" : 1,
            "NORMAL" : 2,
            "TANGENT" : 3,
            "TEXCOORD_0" : 4
          },
          "indices" : 0,
          "material" : 0
        }
      ],
      "name" : "ASE_PROJ_ThrowingKnife"
    }
  ],
  "buffers" : [
    {
      "uri" : "ASE_PROJ_ThrowingKnife.bin",
      "byteLength" : 15336
    }
  ],
  "bufferViews" : [
    {
      "buffer" : 0,
      "byteOffset" : 0,
      "byteLength" : 1512
    },
    {
      "buffer" : 0,
      "byteOffset" : 1512,
      "byteLength" : 3456
    },
    {
      "buffer" : 0,
      "byteOffset" : 4968,
      "byteLength" : 3456
    },
    {
      "buffer" : 0,
      "byteOffset" : 8424,
      "byteLength" : 4608
    },
    {
      "buffer" : 0,
      "byteOffset" : 13032,
      "byteLength" : 2304
    }
  ],
  "accessors" : [
    {
      "bufferView" : 0,
      "componentType" : 5123,
      "count" : 756,
      "type" : "SCALAR"
    },
    {
      "bufferView" : 1,
      "min" : [ -0.056977, -0.003917, -0.020659 ],
      "max" : [ 0.150083, 0.004578, 0.020659 ],
      "componentType" : 5126,
      "count" : 288,
      "type" : "VEC3"
    },
    {
      "bufferView" : 2,
      "componentType" : 5126,
      "count" : 288,
      "type" : "VEC3"
    },
    {
      "bufferView" : 3,
      "componentType" : 5126,
      "count" : 288,
      "type" : "VEC4"
    },
    {
      "bufferView" : 4,
      "componentType" : 5126,
      "count" : 288,
      "type" : "VEC2"
    }
  ]
}
