{
  "asset" : {
    "generator" : "UE Viewer (umodel) build 1575",
    "version" : "2.0"
  },
  "scene" : 0,
  "scenes" : [
    {
      "nodes" : [ 0 ]
    }
  ],
  "nodes" : [
    {
      "name" : "SKL_WEP_ThrowingKnives_3p",
      "mesh" : 0,
      "skin" : 0,
      "children" : [ 1 ]
    },
    {
      "name" : "R_WEP_root",
      "translation" : [ 0, 9.53674e-09, -0 ],
      "rotation" : [ -3.53903e-07, -1.71713e-07, -9.30243e-10, -1 ]
    }
  ],
  "skins" : [
    {
      "inverseBindMatrices" : 0,
      "skeleton" : 1,
      "joints" : [
        1
      ]
    }
  ],
  "materials" : [
    {
      "name" : "MAT_ThrowingKnife_3p",
      "pbrMetallicRoughness" : {
        "baseColorFactor" : [ 0.3, 0.3, 0.3, 1.0 ],
        "metallicFactor" : 0.1,
        "roughnessFactor" : 0.5
      }
    }
  ],
  "meshes" : [
    {
      "primitives" : [
        {
          "attributes" : {
            "POSITION" : 2,
            "NORMAL" : 3,
            "TANGENT" : 4,
            "JOINTS_0" : 5,
            "WEIGHTS_0" : 6,
            "TEXCOORD_0" : 7
          },
          "indices" : 1,
          "material" : 0
        }
      ],
      "name" : "SKL_WEP_ThrowingKnives_3p"
    }
  ],
  "buffers" : [
    {
      "uri" : "SKL_WEP_ThrowingKnives_3p.bin",
      "byteLength" : 21976
    }
  ],
  "bufferViews" : [
    {
      "buffer" : 0,
      "byteOffset" : 0,
      "byteLength" : 64
    },
    {
      "buffer" : 0,
      "byteOffset" : 64,
      "byteLength" : 1512
    },
    {
      "buffer" : 0,
      "byteOffset" : 1576,
      "byteLength" : 4080
    },
    {
      "buffer" : 0,
      "byteOffset" : 5656,
      "byteLength" : 4080
    },
    {
      "buffer" : 0,
      "byteOffset" : 9736,
      "byteLength" : 5440
    },
    {
      "buffer" : 0,
      "byteOffset" : 15176,
      "byteLength" : 2720
    },
    {
      "buffer" : 0,
      "byteOffset" : 17896,
      "byteLength" : 1360
    },
    {
      "buffer" : 0,
      "byteOffset" : 19256,
      "byteLength" : 2720
    }
  ],
  "accessors" : [
    {
      "bufferView" : 0,
      "componentType" : 5126,
      "count" : 1,
      "type" : "MAT4"
    },
    {
      "bufferView" : 1,
      "componentType" : 5123,
      "count" : 756,
      "type" : "SCALAR"
    },
    {
      "bufferView" : 2,
      "min" : [ -0.0206588, -0.0566465, -0.00424751 ],
      "max" : [ 0.0206588, 0.150413, 0.00424751 ],
      "componentType" : 5126,
      "count" : 340,
      "type" : "VEC3"
    },
    {
      "bufferView" : 3,
      "componentType" : 5126,
      "count" : 340,
      "type" : "VEC3"
    },
    {
      "bufferView" : 4,
      "componentType" : 5126,
      "count" : 340,
      "type" : "VEC4"
    },
    {
      "bufferView" : 5,
      "componentType" : 5123,
      "count" : 340,
      "type" : "VEC4"
    },
    {
      "bufferView" : 6,
      "normalized" : true,
      "componentType" : 5121,
      "count" : 340,
      "type" : "VEC4"
    },
    {
      "bufferView" : 7,
      "componentType" : 5126,
      "count" : 340,
      "type" : "VEC2"
    }
  ]
}
