{
  "asset" : {
    "generator" : "UE Viewer (umodel) build 1575",
    "version" : "2.0"
  },
  "scene" : 0,
  "scenes" : [
    {
      "nodes" : [ 0 ]
    }
  ],
  "nodes" : [
    {
      "name" : "ASE_Proj_ImpactGrenade_3p",
      "mesh" : 0
    }
  ],
  "materials" : [
    {
      "name" : "MAT_Impact_Grenade",
      "pbrMetallicRoughness" : {
        "baseColorFactor" : [ 0.3, 0.3, 0.3, 1.0 ],
        "metallicFactor" : 0.1,
        "roughnessFactor" : 0.5
      }
    }
  ],
  "meshes" : [
    {
      "primitives" : [
        {
          "attributes" : {
            "POSITION" : 1,
            "NORMAL" : 2,
            "TANGENT" : 3,
            "COLOR_0" : 4,
            "TEXCOORD_0" : 5
          },
          "indices" : 0,
          "material" : 0
        }
      ],
      "name" : "ASE_Proj_ImpactGrenade_3p"
    }
  ],
  "buffers" : [
    {
      "uri" : "ASE_Proj_ImpactGrenade_3p.bin",
      "byteLength" : 50340
    }
  ],
  "bufferViews" : [
    {
      "buffer" : 0,
      "byteOffset" : 0,
      "byteLength" : 4788
    },
    {
      "buffer" : 0,
      "byteOffset" : 4788,
      "byteLength" : 10512
    },
    {
      "buffer" : 0,
      "byteOffset" : 15300,
      "byteLength" : 10512
    },
    {
      "buffer" : 0,
      "byteOffset" : 25812,
      "byteLength" : 14016
    },
    {
      "buffer" : 0,
      "byteOffset" : 39828,
      "byteLength" : 3504
    },
    {
      "buffer" : 0,
      "byteOffset" : 43332,
      "byteLength" : 7008
    }
  ],
  "accessors" : [
    {
      "bufferView" : 0,
      "componentType" : 5123,
      "count" : 2394,
      "type" : "SCALAR"
    },
    {
      "bufferView" : 1,
      "min" : [ -0.046532, -0.06918, -0.031075 ],
      "max" : [ 0.027262, 0.097339, 0.063354 ],
      "componentType" : 5126,
      "count" : 876,
      "type" : "VEC3"
    },
    {
      "bufferView" : 2,
      "componentType" : 5126,
      "count" : 876,
      "type" : "VEC3"
    },
    {
      "bufferView" : 3,
      "componentType" : 5126,
      "count" : 876,
      "type" : "VEC4"
    },
    {
      "bufferView" : 4,
      "normalized" : true,
      "componentType" : 5121,
      "count" : 876,
      "type" : "VEC4"
    },
    {
      "bufferView" : 5,
      "componentType" : 5126,
      "count" : 876,
      "type" : "VEC2"
    }
  ]
}
