{
  "asset" : {
    "generator" : "UE Viewer (umodel) build 1575",
    "version" : "2.0"
  },
  "scene" : 0,
  "scenes" : [
    {
      "nodes" : [ 0 ]
    }
  ],
  "nodes" : [
    {
      "name" : "ASE_FX_Tactical_Strike_Spiral",
      "mesh" : 0
    }
  ],
  "materials" : [
    {
      "name" : "MAT_Spiral",
      "pbrMetallicRoughness" : {
        "baseColorFactor" : [ 0.3, 0.3, 0.3, 1.0 ],
        "metallicFactor" : 0.1,
        "roughnessFactor" : 0.5
      }
    }
  ],
  "meshes" : [
    {
      "primitives" : [
        {
          "attributes" : {
            "POSITION" : 1,
            "NORMAL" : 2,
            "TANGENT" : 3,
            "TEXCOORD_0" : 4
          },
          "indices" : 0,
          "material" : 0
        }
      ],
      "name" : "ASE_FX_Tactical_Strike_Spiral"
    }
  ],
  "buffers" : [
    {
      "uri" : "ASE_FX_Tactical_Strike_Spiral.bin",
      "byteLength" : 16896
    }
  ],
  "bufferViews" : [
    {
      "buffer" : 0,
      "byteOffset" : 0,
      "byteLength" : 3072
    },
    {
      "buffer" : 0,
      "byteOffset" : 3072,
      "byteLength" : 3456
    },
    {
      "buffer" : 0,
      "byteOffset" : 6528,
      "byteLength" : 3456
    },
    {
      "buffer" : 0,
      "byteOffset" : 9984,
      "byteLength" : 4608
    },
    {
      "buffer" : 0,
      "byteOffset" : 14592,
      "byteLength" : 2304
    }
  ],
  "accessors" : [
    {
      "bufferView" : 0,
      "componentType" : 5123,
      "count" : 1536,
      "type" : "SCALAR"
    },
    {
      "bufferView" : 1,
      "min" : [ -6.30927, 0.014711, -6.32682 ],
      "max" : [ 6.30426, 2.59543, 6.28672 ],
      "componentType" : 5126,
      "count" : 288,
      "type" : "VEC3"
    },
    {
      "bufferView" : 2,
      "componentType" : 5126,
      "count" : 288,
      "type" : "VEC3"
    },
    {
      "bufferView" : 3,
      "componentType" : 5126,
      "count" : 288,
      "type" : "VEC4"
    },
    {
      "bufferView" : 4,
      "componentType" : 5126,
      "count" : 288,
      "type" : "VEC2"
    }
  ]
}
