{
  "asset" : {
    "generator" : "UE Viewer (umodel) build 1575",
    "version" : "2.0"
  },
  "scene" : 0,
  "scenes" : [
    {
      "nodes" : [ 0 ]
    }
  ],
  "nodes" : [
    {
      "name" : "ASE_RocketTurret_Body",
      "mesh" : 0
    }
  ],
  "materials" : [
    {
      "name" : "MAT_Gibs",
      "pbrMetallicRoughness" : {
        "baseColorFactor" : [ 0.3, 0.3, 0.3, 1.0 ],
        "metallicFactor" : 0.1,
        "roughnessFactor" : 0.5
      }
    }
  ],
  "meshes" : [
    {
      "primitives" : [
        {
          "attributes" : {
            "POSITION" : 1,
            "NORMAL" : 2,
            "TANGENT" : 3,
            "COLOR_0" : 4,
            "TEXCOORD_0" : 5
          },
          "indices" : 0,
          "material" : 0
        }
      ],
      "name" : "ASE_RocketTurret_Body"
    }
  ],
  "buffers" : [
    {
      "uri" : "ASE_RocketTurret_Body.bin",
      "byteLength" : 63008
    }
  ],
  "bufferViews" : [
    {
      "buffer" : 0,
      "byteOffset" : 0,
      "byteLength" : 6432
    },
    {
      "buffer" : 0,
      "byteOffset" : 6432,
      "byteLength" : 13056
    },
    {
      "buffer" : 0,
      "byteOffset" : 19488,
      "byteLength" : 13056
    },
    {
      "buffer" : 0,
      "byteOffset" : 32544,
      "byteLength" : 17408
    },
    {
      "buffer" : 0,
      "byteOffset" : 49952,
      "byteLength" : 4352
    },
    {
      "buffer" : 0,
      "byteOffset" : 54304,
      "byteLength" : 8704
    }
  ],
  "accessors" : [
    {
      "bufferView" : 0,
      "componentType" : 5123,
      "count" : 3216,
      "type" : "SCALAR"
    },
    {
      "bufferView" : 1,
      "min" : [ -0.142333, -0.364284, -0.206702 ],
      "max" : [ 0.142333, 0.364284, 0.206702 ],
      "componentType" : 5126,
      "count" : 1088,
      "type" : "VEC3"
    },
    {
      "bufferView" : 2,
      "componentType" : 5126,
      "count" : 1088,
      "type" : "VEC3"
    },
    {
      "bufferView" : 3,
      "componentType" : 5126,
      "count" : 1088,
      "type" : "VEC4"
    },
    {
      "bufferView" : 4,
      "normalized" : true,
      "componentType" : 5121,
      "count" : 1088,
      "type" : "VEC4"
    },
    {
      "bufferView" : 5,
      "componentType" : 5126,
      "count" : 1088,
      "type" : "VEC2"
    }
  ]
}
