{
  "asset" : {
    "generator" : "UE Viewer (umodel) build 1575",
    "version" : "2.0"
  },
  "scene" : 0,
  "scenes" : [
    {
      "nodes" : [ 0 ]
    }
  ],
  "nodes" : [
    {
      "name" : "ASE_RocketTurret_Sensor",
      "mesh" : 0
    }
  ],
  "materials" : [
    {
      "name" : "MAT_Gibs",
      "pbrMetallicRoughness" : {
        "baseColorFactor" : [ 0.3, 0.3, 0.3, 1.0 ],
        "metallicFactor" : 0.1,
        "roughnessFactor" : 0.5
      }
    }
  ],
  "meshes" : [
    {
      "primitives" : [
        {
          "attributes" : {
            "POSITION" : 1,
            "NORMAL" : 2,
            "TANGENT" : 3,
            "TEXCOORD_0" : 4
          },
          "indices" : 0,
          "material" : 0
        }
      ],
      "name" : "ASE_RocketTurret_Sensor"
    }
  ],
  "buffers" : [
    {
      "uri" : "ASE_RocketTurret_Sensor.bin",
      "byteLength" : 52244
    }
  ],
  "bufferViews" : [
    {
      "buffer" : 0,
      "byteOffset" : 0,
      "byteLength" : 5732
    },
    {
      "buffer" : 0,
      "byteOffset" : 5732,
      "byteLength" : 11628
    },
    {
      "buffer" : 0,
      "byteOffset" : 17360,
      "byteLength" : 11628
    },
    {
      "buffer" : 0,
      "byteOffset" : 28988,
      "byteLength" : 15504
    },
    {
      "buffer" : 0,
      "byteOffset" : 44492,
      "byteLength" : 7752
    }
  ],
  "accessors" : [
    {
      "bufferView" : 0,
      "componentType" : 5123,
      "count" : 2865,
      "type" : "SCALAR"
    },
    {
      "bufferView" : 1,
      "min" : [ -0.140966, -0.17389, -0.195347 ],
      "max" : [ 0.140966, 0.17389, 0.195347 ],
      "componentType" : 5126,
      "count" : 969,
      "type" : "VEC3"
    },
    {
      "bufferView" : 2,
      "componentType" : 5126,
      "count" : 969,
      "type" : "VEC3"
    },
    {
      "bufferView" : 3,
      "componentType" : 5126,
      "count" : 969,
      "type" : "VEC4"
    },
    {
      "bufferView" : 4,
      "componentType" : 5126,
      "count" : 969,
      "type" : "VEC2"
    }
  ]
}
