{
  "asset" : {
    "generator" : "UE Viewer (umodel) build 1575",
    "version" : "2.0"
  },
  "scene" : 0,
  "scenes" : [
    {
      "nodes" : [ 0 ]
    }
  ],
  "nodes" : [
    {
      "name" : "ASE_RocketTurret_3Legs",
      "mesh" : 0
    }
  ],
  "materials" : [
    {
      "name" : "MAT_Gibs",
      "pbrMetallicRoughness" : {
        "baseColorFactor" : [ 0.3, 0.3, 0.3, 1.0 ],
        "metallicFactor" : 0.1,
        "roughnessFactor" : 0.5
      }
    }
  ],
  "meshes" : [
    {
      "primitives" : [
        {
          "attributes" : {
            "POSITION" : 1,
            "NORMAL" : 2,
            "TANGENT" : 3,
            "COLOR_0" : 4,
            "TEXCOORD_0" : 5
          },
          "indices" : 0,
          "material" : 0
        }
      ],
      "name" : "ASE_RocketTurret_3Legs"
    }
  ],
  "buffers" : [
    {
      "uri" : "ASE_RocketTurret_3Legs.bin",
      "byteLength" : 42044
    }
  ],
  "bufferViews" : [
    {
      "buffer" : 0,
      "byteOffset" : 0,
      "byteLength" : 3564
    },
    {
      "buffer" : 0,
      "byteOffset" : 3564,
      "byteLength" : 8880
    },
    {
      "buffer" : 0,
      "byteOffset" : 12444,
      "byteLength" : 8880
    },
    {
      "buffer" : 0,
      "byteOffset" : 21324,
      "byteLength" : 11840
    },
    {
      "buffer" : 0,
      "byteOffset" : 33164,
      "byteLength" : 2960
    },
    {
      "buffer" : 0,
      "byteOffset" : 36124,
      "byteLength" : 5920
    }
  ],
  "accessors" : [
    {
      "bufferView" : 0,
      "componentType" : 5123,
      "count" : 1782,
      "type" : "SCALAR"
    },
    {
      "bufferView" : 1,
      "min" : [ -0.253327, -0.105404, -0.180879 ],
      "max" : [ 0.306352, 0.19421, 0.210059 ],
      "componentType" : 5126,
      "count" : 740,
      "type" : "VEC3"
    },
    {
      "bufferView" : 2,
      "componentType" : 5126,
      "count" : 740,
      "type" : "VEC3"
    },
    {
      "bufferView" : 3,
      "componentType" : 5126,
      "count" : 740,
      "type" : "VEC4"
    },
    {
      "bufferView" : 4,
      "normalized" : true,
      "componentType" : 5121,
      "count" : 740,
      "type" : "VEC4"
    },
    {
      "bufferView" : 5,
      "componentType" : 5126,
      "count" : 740,
      "type" : "VEC2"
    }
  ]
}
