{
  "asset" : {
    "generator" : "UE Viewer (umodel) build 1575",
    "version" : "2.0"
  },
  "scene" : 0,
  "scenes" : [
    {
      "nodes" : [ 0 ]
    }
  ],
  "nodes" : [
    {
      "name" : "SKL_WEP_NovaColt_3p",
      "mesh" : 0,
      "skin" : 0,
      "children" : [ 1 ]
    },
    {
      "name" : "R_WEP_root",
      "translation" : [ 0, 9.53674e-09, -0 ],
      "rotation" : [ -1.67638e-07, 2.4647e-14, 2.42144e-07, -1 ]
    }
  ],
  "skins" : [
    {
      "inverseBindMatrices" : 0,
      "skeleton" : 1,
      "joints" : [
        1
      ]
    }
  ],
  "materials" : [
    {
      "name" : "MAT_NovaColt_3p",
      "pbrMetallicRoughness" : {
        "baseColorFactor" : [ 0.3, 0.3, 0.3, 1.0 ],
        "metallicFactor" : 0.1,
        "roughnessFactor" : 0.5
      }
    }
  ],
  "meshes" : [
    {
      "primitives" : [
        {
          "attributes" : {
            "POSITION" : 2,
            "NORMAL" : 3,
            "TANGENT" : 4,
            "JOINTS_0" : 5,
            "WEIGHTS_0" : 6,
            "TEXCOORD_0" : 7,
            "TEXCOORD_1" : 8
          },
          "indices" : 1,
          "material" : 0
        }
      ],
      "name" : "SKL_WEP_NovaColt_3p"
    }
  ],
  "buffers" : [
    {
      "uri" : "SKL_WEP_NovaColt_3p.bin",
      "byteLength" : 117092
    }
  ],
  "bufferViews" : [
    {
      "buffer" : 0,
      "byteOffset" : 0,
      "byteLength" : 64
    },
    {
      "buffer" : 0,
      "byteOffset" : 64,
      "byteLength" : 9792
    },
    {
      "buffer" : 0,
      "byteOffset" : 9856,
      "byteLength" : 18924
    },
    {
      "buffer" : 0,
      "byteOffset" : 28780,
      "byteLength" : 18924
    },
    {
      "buffer" : 0,
      "byteOffset" : 47704,
      "byteLength" : 25232
    },
    {
      "buffer" : 0,
      "byteOffset" : 72936,
      "byteLength" : 12616
    },
    {
      "buffer" : 0,
      "byteOffset" : 85552,
      "byteLength" : 6308
    },
    {
      "buffer" : 0,
      "byteOffset" : 91860,
      "byteLength" : 12616
    },
    {
      "buffer" : 0,
      "byteOffset" : 104476,
      "byteLength" : 12616
    }
  ],
  "accessors" : [
    {
      "bufferView" : 0,
      "componentType" : 5126,
      "count" : 1,
      "type" : "MAT4"
    },
    {
      "bufferView" : 1,
      "componentType" : 5123,
      "count" : 4896,
      "type" : "SCALAR"
    },
    {
      "bufferView" : 2,
      "min" : [ -0.0274071, -0.0362851, -0.0191409 ],
      "max" : [ 0.21697, 0.0806724, 0.0183548 ],
      "componentType" : 5126,
      "count" : 1577,
      "type" : "VEC3"
    },
    {
      "bufferView" : 3,
      "componentType" : 5126,
      "count" : 1577,
      "type" : "VEC3"
    },
    {
      "bufferView" : 4,
      "componentType" : 5126,
      "count" : 1577,
      "type" : "VEC4"
    },
    {
      "bufferView" : 5,
      "componentType" : 5123,
      "count" : 1577,
      "type" : "VEC4"
    },
    {
      "bufferView" : 6,
      "normalized" : true,
      "componentType" : 5121,
      "count" : 1577,
      "type" : "VEC4"
    },
    {
      "bufferView" : 7,
      "componentType" : 5126,
      "count" : 1577,
      "type" : "VEC2"
    },
    {
      "bufferView" : 8,
      "componentType" : 5126,
      "count" : 1577,
      "type" : "VEC2"
    }
  ]
}
