{
  "asset" : {
    "generator" : "UE Viewer (umodel) build 1575",
    "version" : "2.0"
  },
  "scene" : 0,
  "scenes" : [
    {
      "nodes" : [ 0 ]
    }
  ],
  "nodes" : [
    {
      "name" : "ASE_DEP_Jammer_Gib02",
      "mesh" : 0
    }
  ],
  "materials" : [
    {
      "name" : "MIC_Gibs",
      "pbrMetallicRoughness" : {
        "baseColorFactor" : [ 0.3, 0.3, 0.3, 1.0 ],
        "metallicFactor" : 0.1,
        "roughnessFactor" : 0.5
      }
    }
  ],
  "meshes" : [
    {
      "primitives" : [
        {
          "attributes" : {
            "POSITION" : 1,
            "NORMAL" : 2,
            "TANGENT" : 3,
            "TEXCOORD_0" : 4
          },
          "indices" : 0,
          "material" : 0
        }
      ],
      "name" : "ASE_DEP_Jammer_Gib02"
    }
  ],
  "buffers" : [
    {
      "uri" : "ASE_DEP_Jammer_Gib02.bin",
      "byteLength" : 13296
    }
  ],
  "bufferViews" : [
    {
      "buffer" : 0,
      "byteOffset" : 0,
      "byteLength" : 1680
    },
    {
      "buffer" : 0,
      "byteOffset" : 1680,
      "byteLength" : 2904
    },
    {
      "buffer" : 0,
      "byteOffset" : 4584,
      "byteLength" : 2904
    },
    {
      "buffer" : 0,
      "byteOffset" : 7488,
      "byteLength" : 3872
    },
    {
      "buffer" : 0,
      "byteOffset" : 11360,
      "byteLength" : 1936
    }
  ],
  "accessors" : [
    {
      "bufferView" : 0,
      "componentType" : 5123,
      "count" : 840,
      "type" : "SCALAR"
    },
    {
      "bufferView" : 1,
      "min" : [ -0.052624, -0.0974, -0.089662 ],
      "max" : [ 0.052624, 0.0974, 0.089662 ],
      "componentType" : 5126,
      "count" : 242,
      "type" : "VEC3"
    },
    {
      "bufferView" : 2,
      "componentType" : 5126,
      "count" : 242,
      "type" : "VEC3"
    },
    {
      "bufferView" : 3,
      "componentType" : 5126,
      "count" : 242,
      "type" : "VEC4"
    },
    {
      "bufferView" : 4,
      "componentType" : 5126,
      "count" : 242,
      "type" : "VEC2"
    }
  ]
}
