{
  "asset" : {
    "generator" : "UE Viewer (umodel) build 1575",
    "version" : "2.0"
  },
  "scene" : 0,
  "scenes" : [
    {
      "nodes" : [ 0 ]
    }
  ],
  "nodes" : [
    {
      "name" : "ASE_DEP_Jammer_Gib05",
      "mesh" : 0
    }
  ],
  "materials" : [
    {
      "name" : "MIC_Gibs",
      "pbrMetallicRoughness" : {
        "baseColorFactor" : [ 0.3, 0.3, 0.3, 1.0 ],
        "metallicFactor" : 0.1,
        "roughnessFactor" : 0.5
      }
    }
  ],
  "meshes" : [
    {
      "primitives" : [
        {
          "attributes" : {
            "POSITION" : 1,
            "NORMAL" : 2,
            "TANGENT" : 3,
            "TEXCOORD_0" : 4
          },
          "indices" : 0,
          "material" : 0
        }
      ],
      "name" : "ASE_DEP_Jammer_Gib05"
    }
  ],
  "buffers" : [
    {
      "uri" : "ASE_DEP_Jammer_Gib05.bin",
      "byteLength" : 30000
    }
  ],
  "bufferViews" : [
    {
      "buffer" : 0,
      "byteOffset" : 0,
      "byteLength" : 3984
    },
    {
      "buffer" : 0,
      "byteOffset" : 3984,
      "byteLength" : 6504
    },
    {
      "buffer" : 0,
      "byteOffset" : 10488,
      "byteLength" : 6504
    },
    {
      "buffer" : 0,
      "byteOffset" : 16992,
      "byteLength" : 8672
    },
    {
      "buffer" : 0,
      "byteOffset" : 25664,
      "byteLength" : 4336
    }
  ],
  "accessors" : [
    {
      "bufferView" : 0,
      "componentType" : 5123,
      "count" : 1992,
      "type" : "SCALAR"
    },
    {
      "bufferView" : 1,
      "min" : [ -0.05936, -0.071586, -0.071586 ],
      "max" : [ 0.076441, 0.071586, 0.071586 ],
      "componentType" : 5126,
      "count" : 542,
      "type" : "VEC3"
    },
    {
      "bufferView" : 2,
      "componentType" : 5126,
      "count" : 542,
      "type" : "VEC3"
    },
    {
      "bufferView" : 3,
      "componentType" : 5126,
      "count" : 542,
      "type" : "VEC4"
    },
    {
      "bufferView" : 4,
      "componentType" : 5126,
      "count" : 542,
      "type" : "VEC2"
    }
  ]
}
