{
  "asset" : {
    "generator" : "UE Viewer (umodel) build 1575",
    "version" : "2.0"
  },
  "scene" : 0,
  "scenes" : [
    {
      "nodes" : [ 0 ]
    }
  ],
  "nodes" : [
    {
      "name" : "ASE_DEP_Jammer_Gib03",
      "mesh" : 0
    }
  ],
  "materials" : [
    {
      "name" : "MIC_Gibs",
      "pbrMetallicRoughness" : {
        "baseColorFactor" : [ 0.3, 0.3, 0.3, 1.0 ],
        "metallicFactor" : 0.1,
        "roughnessFactor" : 0.5
      }
    }
  ],
  "meshes" : [
    {
      "primitives" : [
        {
          "attributes" : {
            "POSITION" : 1,
            "NORMAL" : 2,
            "TANGENT" : 3,
            "TEXCOORD_0" : 4
          },
          "indices" : 0,
          "material" : 0
        }
      ],
      "name" : "ASE_DEP_Jammer_Gib03"
    }
  ],
  "buffers" : [
    {
      "uri" : "ASE_DEP_Jammer_Gib03.bin",
      "byteLength" : 22440
    }
  ],
  "bufferViews" : [
    {
      "buffer" : 0,
      "byteOffset" : 0,
      "byteLength" : 2088
    },
    {
      "buffer" : 0,
      "byteOffset" : 2088,
      "byteLength" : 5088
    },
    {
      "buffer" : 0,
      "byteOffset" : 7176,
      "byteLength" : 5088
    },
    {
      "buffer" : 0,
      "byteOffset" : 12264,
      "byteLength" : 6784
    },
    {
      "buffer" : 0,
      "byteOffset" : 19048,
      "byteLength" : 3392
    }
  ],
  "accessors" : [
    {
      "bufferView" : 0,
      "componentType" : 5123,
      "count" : 1044,
      "type" : "SCALAR"
    },
    {
      "bufferView" : 1,
      "min" : [ -0.076085, -0.08553, -0.052479 ],
      "max" : [ 0.076085, 0.184696, 0.071019 ],
      "componentType" : 5126,
      "count" : 424,
      "type" : "VEC3"
    },
    {
      "bufferView" : 2,
      "componentType" : 5126,
      "count" : 424,
      "type" : "VEC3"
    },
    {
      "bufferView" : 3,
      "componentType" : 5126,
      "count" : 424,
      "type" : "VEC4"
    },
    {
      "bufferView" : 4,
      "componentType" : 5126,
      "count" : 424,
      "type" : "VEC2"
    }
  ]
}
