{
  "asset" : {
    "generator" : "UE Viewer (umodel) build 1575",
    "version" : "2.0"
  },
  "scene" : 0,
  "scenes" : [
    {
      "nodes" : [ 0 ]
    }
  ],
  "nodes" : [
    {
      "name" : "ASE_DEP_Jammer_Gib01",
      "mesh" : 0
    }
  ],
  "materials" : [
    {
      "name" : "MIC_Gibs",
      "pbrMetallicRoughness" : {
        "baseColorFactor" : [ 0.3, 0.3, 0.3, 1.0 ],
        "metallicFactor" : 0.1,
        "roughnessFactor" : 0.5
      }
    }
  ],
  "meshes" : [
    {
      "primitives" : [
        {
          "attributes" : {
            "POSITION" : 1,
            "NORMAL" : 2,
            "TANGENT" : 3,
            "TEXCOORD_0" : 4
          },
          "indices" : 0,
          "material" : 0
        }
      ],
      "name" : "ASE_DEP_Jammer_Gib01"
    }
  ],
  "buffers" : [
    {
      "uri" : "ASE_DEP_Jammer_Gib01.bin",
      "byteLength" : 15708
    }
  ],
  "bufferViews" : [
    {
      "buffer" : 0,
      "byteOffset" : 0,
      "byteLength" : 1980
    },
    {
      "buffer" : 0,
      "byteOffset" : 1980,
      "byteLength" : 3432
    },
    {
      "buffer" : 0,
      "byteOffset" : 5412,
      "byteLength" : 3432
    },
    {
      "buffer" : 0,
      "byteOffset" : 8844,
      "byteLength" : 4576
    },
    {
      "buffer" : 0,
      "byteOffset" : 13420,
      "byteLength" : 2288
    }
  ],
  "accessors" : [
    {
      "bufferView" : 0,
      "componentType" : 5123,
      "count" : 990,
      "type" : "SCALAR"
    },
    {
      "bufferView" : 1,
      "min" : [ -0.124998, -0.095961, -0.129507 ],
      "max" : [ 0.124998, 0.095961, 0.129507 ],
      "componentType" : 5126,
      "count" : 286,
      "type" : "VEC3"
    },
    {
      "bufferView" : 2,
      "componentType" : 5126,
      "count" : 286,
      "type" : "VEC3"
    },
    {
      "bufferView" : 3,
      "componentType" : 5126,
      "count" : 286,
      "type" : "VEC4"
    },
    {
      "bufferView" : 4,
      "componentType" : 5126,
      "count" : 286,
      "type" : "VEC2"
    }
  ]
}
