{
  "asset" : {
    "generator" : "UE Viewer (umodel) build 1575",
    "version" : "2.0"
  },
  "scene" : 0,
  "scenes" : [
    {
      "nodes" : [ 0 ]
    }
  ],
  "nodes" : [
    {
      "name" : "ASE_BoltLauncher_projectile",
      "mesh" : 0
    }
  ],
  "materials" : [
    {
      "name" : "MAT_Projectile",
      "pbrMetallicRoughness" : {
        "baseColorFactor" : [ 0.3, 0.3, 0.3, 1.0 ],
        "metallicFactor" : 0.1,
        "roughnessFactor" : 0.5
      }
    }
  ],
  "meshes" : [
    {
      "primitives" : [
        {
          "attributes" : {
            "POSITION" : 1,
            "NORMAL" : 2,
            "TANGENT" : 3,
            "TEXCOORD_0" : 4
          },
          "indices" : 0,
          "material" : 0
        }
      ],
      "name" : "ASE_BoltLauncher_projectile"
    }
  ],
  "buffers" : [
    {
      "uri" : "ASE_BoltLauncher_projectile.bin",
      "byteLength" : 5796
    }
  ],
  "bufferViews" : [
    {
      "buffer" : 0,
      "byteOffset" : 0,
      "byteLength" : 900
    },
    {
      "buffer" : 0,
      "byteOffset" : 900,
      "byteLength" : 1224
    },
    {
      "buffer" : 0,
      "byteOffset" : 2124,
      "byteLength" : 1224
    },
    {
      "buffer" : 0,
      "byteOffset" : 3348,
      "byteLength" : 1632
    },
    {
      "buffer" : 0,
      "byteOffset" : 4980,
      "byteLength" : 816
    }
  ],
  "accessors" : [
    {
      "bufferView" : 0,
      "componentType" : 5123,
      "count" : 450,
      "type" : "SCALAR"
    },
    {
      "bufferView" : 1,
      "min" : [ -0.060573, -0.01055, -0.013283 ],
      "max" : [ 0.060573, 0.01055, 0.013283 ],
      "componentType" : 5126,
      "count" : 102,
      "type" : "VEC3"
    },
    {
      "bufferView" : 2,
      "componentType" : 5126,
      "count" : 102,
      "type" : "VEC3"
    },
    {
      "bufferView" : 3,
      "componentType" : 5126,
      "count" : 102,
      "type" : "VEC4"
    },
    {
      "bufferView" : 4,
      "componentType" : 5126,
      "count" : 102,
      "type" : "VEC2"
    }
  ]
}
