{
  "asset" : {
    "generator" : "UE Viewer (umodel) build 1575",
    "version" : "2.0"
  },
  "scene" : 0,
  "scenes" : [
    {
      "nodes" : [ 0 ]
    }
  ],
  "nodes" : [
    {
      "name" : "SKL_WEP_Shotgun_3p",
      "mesh" : 0,
      "skin" : 0,
      "children" : [ 1 ]
    },
    {
      "name" : "R_WEP_root",
      "translation" : [ 0, 9.53674e-09, -3.8147e-08 ],
      "rotation" : [ 2.40281e-07, -1.39699e-09, 2.42144e-07, -1 ]
    }
  ],
  "skins" : [
    {
      "inverseBindMatrices" : 0,
      "skeleton" : 1,
      "joints" : [
        1
      ]
    }
  ],
  "materials" : [
    {
      "name" : "MAT_Shotgun_3p",
      "pbrMetallicRoughness" : {
        "baseColorFactor" : [ 0.3, 0.3, 0.3, 1.0 ],
        "metallicFactor" : 0.1,
        "roughnessFactor" : 0.5
      }
    }
  ],
  "meshes" : [
    {
      "primitives" : [
        {
          "attributes" : {
            "POSITION" : 2,
            "NORMAL" : 3,
            "TANGENT" : 4,
            "JOINTS_0" : 5,
            "WEIGHTS_0" : 6,
            "TEXCOORD_0" : 7
          },
          "indices" : 1,
          "material" : 0
        }
      ],
      "name" : "SKL_WEP_Shotgun_3p"
    }
  ],
  "buffers" : [
    {
      "uri" : "SKL_WEP_Shotgun_3p.bin",
      "byteLength" : 132532
    }
  ],
  "bufferViews" : [
    {
      "buffer" : 0,
      "byteOffset" : 0,
      "byteLength" : 64
    },
    {
      "buffer" : 0,
      "byteOffset" : 64,
      "byteLength" : 11868
    },
    {
      "buffer" : 0,
      "byteOffset" : 11932,
      "byteLength" : 24120
    },
    {
      "buffer" : 0,
      "byteOffset" : 36052,
      "byteLength" : 24120
    },
    {
      "buffer" : 0,
      "byteOffset" : 60172,
      "byteLength" : 32160
    },
    {
      "buffer" : 0,
      "byteOffset" : 92332,
      "byteLength" : 16080
    },
    {
      "buffer" : 0,
      "byteOffset" : 108412,
      "byteLength" : 8040
    },
    {
      "buffer" : 0,
      "byteOffset" : 116452,
      "byteLength" : 16080
    }
  ],
  "accessors" : [
    {
      "bufferView" : 0,
      "componentType" : 5126,
      "count" : 1,
      "type" : "MAT4"
    },
    {
      "bufferView" : 1,
      "componentType" : 5123,
      "count" : 5934,
      "type" : "SCALAR"
    },
    {
      "bufferView" : 2,
      "min" : [ -0.176187, -0.0417398, -0.0325955 ],
      "max" : [ 0.300315, 0.0979267, 0.0194513 ],
      "componentType" : 5126,
      "count" : 2010,
      "type" : "VEC3"
    },
    {
      "bufferView" : 3,
      "componentType" : 5126,
      "count" : 2010,
      "type" : "VEC3"
    },
    {
      "bufferView" : 4,
      "componentType" : 5126,
      "count" : 2010,
      "type" : "VEC4"
    },
    {
      "bufferView" : 5,
      "componentType" : 5123,
      "count" : 2010,
      "type" : "VEC4"
    },
    {
      "bufferView" : 6,
      "normalized" : true,
      "componentType" : 5121,
      "count" : 2010,
      "type" : "VEC4"
    },
    {
      "bufferView" : 7,
      "componentType" : 5126,
      "count" : 2010,
      "type" : "VEC2"
    }
  ]
}
