{
  "asset" : {
    "generator" : "UE Viewer (umodel) build 1575",
    "version" : "2.0"
  },
  "scene" : 0,
  "scenes" : [
    {
      "nodes" : [ 0 ]
    }
  ],
  "nodes" : [
    {
      "name" : "ASE_GravCycle_Gib_Body",
      "mesh" : 0
    }
  ],
  "materials" : [
    {
      "name" : "MAT_GravCycle_Destroyed",
      "pbrMetallicRoughness" : {
        "baseColorFactor" : [ 0.3, 0.3, 0.3, 1.0 ],
        "metallicFactor" : 0.1,
        "roughnessFactor" : 0.5
      }
    }
  ],
  "meshes" : [
    {
      "primitives" : [
        {
          "attributes" : {
            "POSITION" : 1,
            "NORMAL" : 2,
            "TANGENT" : 3,
            "COLOR_0" : 4,
            "TEXCOORD_0" : 5
          },
          "indices" : 0,
          "material" : 0
        }
      ],
      "name" : "ASE_GravCycle_Gib_Body"
    }
  ],
  "buffers" : [
    {
      "uri" : "ASE_GravCycle_Gib_Body.bin",
      "byteLength" : 177648
    }
  ],
  "bufferViews" : [
    {
      "buffer" : 0,
      "byteOffset" : 0,
      "byteLength" : 21336
    },
    {
      "buffer" : 0,
      "byteOffset" : 21336,
      "byteLength" : 36072
    },
    {
      "buffer" : 0,
      "byteOffset" : 57408,
      "byteLength" : 36072
    },
    {
      "buffer" : 0,
      "byteOffset" : 93480,
      "byteLength" : 48096
    },
    {
      "buffer" : 0,
      "byteOffset" : 141576,
      "byteLength" : 12024
    },
    {
      "buffer" : 0,
      "byteOffset" : 153600,
      "byteLength" : 24048
    }
  ],
  "accessors" : [
    {
      "bufferView" : 0,
      "componentType" : 5123,
      "count" : 10668,
      "type" : "SCALAR"
    },
    {
      "bufferView" : 1,
      "min" : [ -0.254852, -0.336542, -0.730832 ],
      "max" : [ 0.254852, 0.336542, 0.730832 ],
      "componentType" : 5126,
      "count" : 3006,
      "type" : "VEC3"
    },
    {
      "bufferView" : 2,
      "componentType" : 5126,
      "count" : 3006,
      "type" : "VEC3"
    },
    {
      "bufferView" : 3,
      "componentType" : 5126,
      "count" : 3006,
      "type" : "VEC4"
    },
    {
      "bufferView" : 4,
      "normalized" : true,
      "componentType" : 5121,
      "count" : 3006,
      "type" : "VEC4"
    },
    {
      "bufferView" : 5,
      "componentType" : 5126,
      "count" : 3006,
      "type" : "VEC2"
    }
  ]
}
