{
  "asset" : {
    "generator" : "UE Viewer (umodel) build 1575",
    "version" : "2.0"
  },
  "scene" : 0,
  "scenes" : [
    {
      "nodes" : [ 0 ]
    }
  ],
  "nodes" : [
    {
      "name" : "ASE_GravCycle_Gib_Nose",
      "mesh" : 0
    }
  ],
  "materials" : [
    {
      "name" : "MAT_GravCycle_Destroyed",
      "pbrMetallicRoughness" : {
        "baseColorFactor" : [ 0.3, 0.3, 0.3, 1.0 ],
        "metallicFactor" : 0.1,
        "roughnessFactor" : 0.5
      }
    }
  ],
  "meshes" : [
    {
      "primitives" : [
        {
          "attributes" : {
            "POSITION" : 1,
            "NORMAL" : 2,
            "TANGENT" : 3,
            "TEXCOORD_0" : 4
          },
          "indices" : 0,
          "material" : 0
        }
      ],
      "name" : "ASE_GravCycle_Gib_Nose"
    }
  ],
  "buffers" : [
    {
      "uri" : "ASE_GravCycle_Gib_Nose.bin",
      "byteLength" : 81060
    }
  ],
  "bufferViews" : [
    {
      "buffer" : 0,
      "byteOffset" : 0,
      "byteLength" : 10644
    },
    {
      "buffer" : 0,
      "byteOffset" : 10644,
      "byteLength" : 17604
    },
    {
      "buffer" : 0,
      "byteOffset" : 28248,
      "byteLength" : 17604
    },
    {
      "buffer" : 0,
      "byteOffset" : 45852,
      "byteLength" : 23472
    },
    {
      "buffer" : 0,
      "byteOffset" : 69324,
      "byteLength" : 11736
    }
  ],
  "accessors" : [
    {
      "bufferView" : 0,
      "componentType" : 5123,
      "count" : 5322,
      "type" : "SCALAR"
    },
    {
      "bufferView" : 1,
      "min" : [ -0.2711, -0.290805, -0.265336 ],
      "max" : [ 0.2711, 0.290805, 0.265336 ],
      "componentType" : 5126,
      "count" : 1467,
      "type" : "VEC3"
    },
    {
      "bufferView" : 2,
      "componentType" : 5126,
      "count" : 1467,
      "type" : "VEC3"
    },
    {
      "bufferView" : 3,
      "componentType" : 5126,
      "count" : 1467,
      "type" : "VEC4"
    },
    {
      "bufferView" : 4,
      "componentType" : 5126,
      "count" : 1467,
      "type" : "VEC2"
    }
  ]
}
