{
  "asset" : {
    "generator" : "UE Viewer (umodel) build 1575",
    "version" : "2.0"
  },
  "scene" : 0,
  "scenes" : [
    {
      "nodes" : [ 0 ]
    }
  ],
  "nodes" : [
    {
      "name" : "ASE_FX_Inventory_BaseLight",
      "mesh" : 0
    }
  ],
  "materials" : [
    {
      "name" : "MAT_FX_Inventory_Trails",
      "pbrMetallicRoughness" : {
        "baseColorFactor" : [ 0.3, 0.3, 0.3, 1.0 ],
        "metallicFactor" : 0.1,
        "roughnessFactor" : 0.5
      }
    }
  ],
  "meshes" : [
    {
      "primitives" : [
        {
          "attributes" : {
            "POSITION" : 1,
            "NORMAL" : 2,
            "TANGENT" : 3,
            "TEXCOORD_0" : 4
          },
          "indices" : 0,
          "material" : 0
        }
      ],
      "name" : "ASE_FX_Inventory_BaseLight"
    }
  ],
  "buffers" : [
    {
      "uri" : "ASE_FX_Inventory_BaseLight.bin",
      "byteLength" : 2688
    }
  ],
  "bufferViews" : [
    {
      "buffer" : 0,
      "byteOffset" : 0,
      "byteLength" : 288
    },
    {
      "buffer" : 0,
      "byteOffset" : 288,
      "byteLength" : 600
    },
    {
      "buffer" : 0,
      "byteOffset" : 888,
      "byteLength" : 600
    },
    {
      "buffer" : 0,
      "byteOffset" : 1488,
      "byteLength" : 800
    },
    {
      "buffer" : 0,
      "byteOffset" : 2288,
      "byteLength" : 400
    }
  ],
  "accessors" : [
    {
      "bufferView" : 0,
      "componentType" : 5123,
      "count" : 144,
      "type" : "SCALAR"
    },
    {
      "bufferView" : 1,
      "min" : [ -0.371925, 0.138142, -0.377484 ],
      "max" : [ 0.377071, 0.475793, 0.371513 ],
      "componentType" : 5126,
      "count" : 50,
      "type" : "VEC3"
    },
    {
      "bufferView" : 2,
      "componentType" : 5126,
      "count" : 50,
      "type" : "VEC3"
    },
    {
      "bufferView" : 3,
      "componentType" : 5126,
      "count" : 50,
      "type" : "VEC4"
    },
    {
      "bufferView" : 4,
      "componentType" : 5126,
      "count" : 50,
      "type" : "VEC2"
    }
  ]
}
