{
  "asset" : {
    "generator" : "UE Viewer (umodel) build 1575",
    "version" : "2.0"
  },
  "scene" : 0,
  "scenes" : [
    {
      "nodes" : [ 0 ]
    }
  ],
  "nodes" : [
    {
      "name" : "ASE_Shrike_Gib_Engine_BL",
      "mesh" : 0
    }
  ],
  "materials" : [
    {
      "name" : "MAT_Shrike_Destroyed",
      "pbrMetallicRoughness" : {
        "baseColorFactor" : [ 0.3, 0.3, 0.3, 1.0 ],
        "metallicFactor" : 0.1,
        "roughnessFactor" : 0.5
      }
    }
  ],
  "meshes" : [
    {
      "primitives" : [
        {
          "attributes" : {
            "POSITION" : 1,
            "NORMAL" : 2,
            "TANGENT" : 3,
            "COLOR_0" : 4,
            "TEXCOORD_0" : 5
          },
          "indices" : 0,
          "material" : 0
        }
      ],
      "name" : "ASE_Shrike_Gib_Engine_BL"
    }
  ],
  "buffers" : [
    {
      "uri" : "ASE_Shrike_Gib_Engine_BL.bin",
      "byteLength" : 41512
    }
  ],
  "bufferViews" : [
    {
      "buffer" : 0,
      "byteOffset" : 0,
      "byteLength" : 4800
    },
    {
      "buffer" : 0,
      "byteOffset" : 4800,
      "byteLength" : 8472
    },
    {
      "buffer" : 0,
      "byteOffset" : 13272,
      "byteLength" : 8472
    },
    {
      "buffer" : 0,
      "byteOffset" : 21744,
      "byteLength" : 11296
    },
    {
      "buffer" : 0,
      "byteOffset" : 33040,
      "byteLength" : 2824
    },
    {
      "buffer" : 0,
      "byteOffset" : 35864,
      "byteLength" : 5648
    }
  ],
  "accessors" : [
    {
      "bufferView" : 0,
      "componentType" : 5123,
      "count" : 2400,
      "type" : "SCALAR"
    },
    {
      "bufferView" : 1,
      "min" : [ -0.174079, -0.355077, -0.642432 ],
      "max" : [ 0.161423, 0.360146, 0.631521 ],
      "componentType" : 5126,
      "count" : 706,
      "type" : "VEC3"
    },
    {
      "bufferView" : 2,
      "componentType" : 5126,
      "count" : 706,
      "type" : "VEC3"
    },
    {
      "bufferView" : 3,
      "componentType" : 5126,
      "count" : 706,
      "type" : "VEC4"
    },
    {
      "bufferView" : 4,
      "normalized" : true,
      "componentType" : 5121,
      "count" : 706,
      "type" : "VEC4"
    },
    {
      "bufferView" : 5,
      "componentType" : 5126,
      "count" : 706,
      "type" : "VEC2"
    }
  ]
}
