{
  "asset" : {
    "generator" : "UE Viewer (umodel) build 1575",
    "version" : "2.0"
  },
  "scene" : 0,
  "scenes" : [
    {
      "nodes" : [ 0 ]
    }
  ],
  "nodes" : [
    {
      "name" : "ASE_Shrike_Gib_Body",
      "mesh" : 0
    }
  ],
  "materials" : [
    {
      "name" : "MAT_Shrike_Destroyed",
      "pbrMetallicRoughness" : {
        "baseColorFactor" : [ 0.3, 0.3, 0.3, 1.0 ],
        "metallicFactor" : 0.1,
        "roughnessFactor" : 0.5
      }
    }
  ],
  "meshes" : [
    {
      "primitives" : [
        {
          "attributes" : {
            "POSITION" : 1,
            "NORMAL" : 2,
            "TANGENT" : 3,
            "COLOR_0" : 4,
            "TEXCOORD_0" : 5
          },
          "indices" : 0,
          "material" : 0
        }
      ],
      "name" : "ASE_Shrike_Gib_Body"
    }
  ],
  "buffers" : [
    {
      "uri" : "ASE_Shrike_Gib_Body.bin",
      "byteLength" : 169380
    }
  ],
  "bufferViews" : [
    {
      "buffer" : 0,
      "byteOffset" : 0,
      "byteLength" : 21960
    },
    {
      "buffer" : 0,
      "byteOffset" : 21960,
      "byteLength" : 34020
    },
    {
      "buffer" : 0,
      "byteOffset" : 55980,
      "byteLength" : 34020
    },
    {
      "buffer" : 0,
      "byteOffset" : 90000,
      "byteLength" : 45360
    },
    {
      "buffer" : 0,
      "byteOffset" : 135360,
      "byteLength" : 11340
    },
    {
      "buffer" : 0,
      "byteOffset" : 146700,
      "byteLength" : 22680
    }
  ],
  "accessors" : [
    {
      "bufferView" : 0,
      "componentType" : 5123,
      "count" : 10980,
      "type" : "SCALAR"
    },
    {
      "bufferView" : 1,
      "min" : [ -0.36163, -0.456453, -1.62645 ],
      "max" : [ 0.361769, 0.471435, 1.62822 ],
      "componentType" : 5126,
      "count" : 2835,
      "type" : "VEC3"
    },
    {
      "bufferView" : 2,
      "componentType" : 5126,
      "count" : 2835,
      "type" : "VEC3"
    },
    {
      "bufferView" : 3,
      "componentType" : 5126,
      "count" : 2835,
      "type" : "VEC4"
    },
    {
      "bufferView" : 4,
      "normalized" : true,
      "componentType" : 5121,
      "count" : 2835,
      "type" : "VEC4"
    },
    {
      "bufferView" : 5,
      "componentType" : 5126,
      "count" : 2835,
      "type" : "VEC2"
    }
  ]
}
