{
  "asset" : {
    "generator" : "UE Viewer (umodel) build 1575",
    "version" : "2.0"
  },
  "scene" : 0,
  "scenes" : [
    {
      "nodes" : [ 0 ]
    }
  ],
  "nodes" : [
    {
      "name" : "ASE_Shrike_Gib_Engine_FR",
      "mesh" : 0
    }
  ],
  "materials" : [
    {
      "name" : "MAT_Shrike_Destroyed",
      "pbrMetallicRoughness" : {
        "baseColorFactor" : [ 0.3, 0.3, 0.3, 1.0 ],
        "metallicFactor" : 0.1,
        "roughnessFactor" : 0.5
      }
    }
  ],
  "meshes" : [
    {
      "primitives" : [
        {
          "attributes" : {
            "POSITION" : 1,
            "NORMAL" : 2,
            "TANGENT" : 3,
            "TEXCOORD_0" : 4
          },
          "indices" : 0,
          "material" : 0
        }
      ],
      "name" : "ASE_Shrike_Gib_Engine_FR"
    }
  ],
  "buffers" : [
    {
      "uri" : "ASE_Shrike_Gib_Engine_FR.bin",
      "byteLength" : 28724
    }
  ],
  "bufferViews" : [
    {
      "buffer" : 0,
      "byteOffset" : 0,
      "byteLength" : 3476
    },
    {
      "buffer" : 0,
      "byteOffset" : 3476,
      "byteLength" : 6312
    },
    {
      "buffer" : 0,
      "byteOffset" : 9788,
      "byteLength" : 6312
    },
    {
      "buffer" : 0,
      "byteOffset" : 16100,
      "byteLength" : 8416
    },
    {
      "buffer" : 0,
      "byteOffset" : 24516,
      "byteLength" : 4208
    }
  ],
  "accessors" : [
    {
      "bufferView" : 0,
      "componentType" : 5123,
      "count" : 1737,
      "type" : "SCALAR"
    },
    {
      "bufferView" : 1,
      "min" : [ -0.235697, -0.299902, -0.42536 ],
      "max" : [ 0.227381, 0.29666, 0.433208 ],
      "componentType" : 5126,
      "count" : 526,
      "type" : "VEC3"
    },
    {
      "bufferView" : 2,
      "componentType" : 5126,
      "count" : 526,
      "type" : "VEC3"
    },
    {
      "bufferView" : 3,
      "componentType" : 5126,
      "count" : 526,
      "type" : "VEC4"
    },
    {
      "bufferView" : 4,
      "componentType" : 5126,
      "count" : 526,
      "type" : "VEC2"
    }
  ]
}
