{
  "asset" : {
    "generator" : "UE Viewer (umodel) build 1575",
    "version" : "2.0"
  },
  "scene" : 0,
  "scenes" : [
    {
      "nodes" : [ 0 ]
    }
  ],
  "nodes" : [
    {
      "name" : "ASE_Shrike_Gib_Wing_R",
      "mesh" : 0
    }
  ],
  "materials" : [
    {
      "name" : "MAT_Shrike_Destroyed",
      "pbrMetallicRoughness" : {
        "baseColorFactor" : [ 0.3, 0.3, 0.3, 1.0 ],
        "metallicFactor" : 0.1,
        "roughnessFactor" : 0.5
      }
    }
  ],
  "meshes" : [
    {
      "primitives" : [
        {
          "attributes" : {
            "POSITION" : 1,
            "NORMAL" : 2,
            "TANGENT" : 3,
            "TEXCOORD_0" : 4
          },
          "indices" : 0,
          "material" : 0
        }
      ],
      "name" : "ASE_Shrike_Gib_Wing_R"
    }
  ],
  "buffers" : [
    {
      "uri" : "ASE_Shrike_Gib_Wing_R.bin",
      "byteLength" : 32604
    }
  ],
  "bufferViews" : [
    {
      "buffer" : 0,
      "byteOffset" : 0,
      "byteLength" : 4284
    },
    {
      "buffer" : 0,
      "byteOffset" : 4284,
      "byteLength" : 7080
    },
    {
      "buffer" : 0,
      "byteOffset" : 11364,
      "byteLength" : 7080
    },
    {
      "buffer" : 0,
      "byteOffset" : 18444,
      "byteLength" : 9440
    },
    {
      "buffer" : 0,
      "byteOffset" : 27884,
      "byteLength" : 4720
    }
  ],
  "accessors" : [
    {
      "bufferView" : 0,
      "componentType" : 5123,
      "count" : 2142,
      "type" : "SCALAR"
    },
    {
      "bufferView" : 1,
      "min" : [ -0.84007, -0.456432, -0.778865 ],
      "max" : [ 0.850896, 0.461316, 0.766594 ],
      "componentType" : 5126,
      "count" : 590,
      "type" : "VEC3"
    },
    {
      "bufferView" : 2,
      "componentType" : 5126,
      "count" : 590,
      "type" : "VEC3"
    },
    {
      "bufferView" : 3,
      "componentType" : 5126,
      "count" : 590,
      "type" : "VEC4"
    },
    {
      "bufferView" : 4,
      "componentType" : 5126,
      "count" : 590,
      "type" : "VEC2"
    }
  ]
}
