{
  "asset" : {
    "generator" : "UE Viewer (umodel) build 1575",
    "version" : "2.0"
  },
  "scene" : 0,
  "scenes" : [
    {
      "nodes" : [ 0 ]
    }
  ],
  "nodes" : [
    {
      "name" : "ASE_Beowulf_Gib_EngL_M",
      "mesh" : 0
    }
  ],
  "materials" : [
    {
      "name" : "MAT_Beowulf_Destroyed",
      "pbrMetallicRoughness" : {
        "baseColorFactor" : [ 0.3, 0.3, 0.3, 1.0 ],
        "metallicFactor" : 0.1,
        "roughnessFactor" : 0.5
      }
    }
  ],
  "meshes" : [
    {
      "primitives" : [
        {
          "attributes" : {
            "POSITION" : 1,
            "NORMAL" : 2,
            "TANGENT" : 3,
            "TEXCOORD_0" : 4
          },
          "indices" : 0,
          "material" : 0
        }
      ],
      "name" : "ASE_Beowulf_Gib_EngL_M"
    }
  ],
  "buffers" : [
    {
      "uri" : "ASE_Beowulf_Gib_EngL_M.bin",
      "byteLength" : 21144
    }
  ],
  "bufferViews" : [
    {
      "buffer" : 0,
      "byteOffset" : 0,
      "byteLength" : 2760
    },
    {
      "buffer" : 0,
      "byteOffset" : 2760,
      "byteLength" : 4596
    },
    {
      "buffer" : 0,
      "byteOffset" : 7356,
      "byteLength" : 4596
    },
    {
      "buffer" : 0,
      "byteOffset" : 11952,
      "byteLength" : 6128
    },
    {
      "buffer" : 0,
      "byteOffset" : 18080,
      "byteLength" : 3064
    }
  ],
  "accessors" : [
    {
      "bufferView" : 0,
      "componentType" : 5123,
      "count" : 1380,
      "type" : "SCALAR"
    },
    {
      "bufferView" : 1,
      "min" : [ -0.236865, -0.322828, -0.432008 ],
      "max" : [ 0.30402, 0.348265, 0.324642 ],
      "componentType" : 5126,
      "count" : 383,
      "type" : "VEC3"
    },
    {
      "bufferView" : 2,
      "componentType" : 5126,
      "count" : 383,
      "type" : "VEC3"
    },
    {
      "bufferView" : 3,
      "componentType" : 5126,
      "count" : 383,
      "type" : "VEC4"
    },
    {
      "bufferView" : 4,
      "componentType" : 5126,
      "count" : 383,
      "type" : "VEC2"
    }
  ]
}
