{
  "asset" : {
    "generator" : "UE Viewer (umodel) build 1575",
    "version" : "2.0"
  },
  "scene" : 0,
  "scenes" : [
    {
      "nodes" : [ 0 ]
    }
  ],
  "nodes" : [
    {
      "name" : "ASE_Beowulf_Gib_EngR_B",
      "mesh" : 0
    }
  ],
  "materials" : [
    {
      "name" : "MAT_Beowulf_Destroyed",
      "pbrMetallicRoughness" : {
        "baseColorFactor" : [ 0.3, 0.3, 0.3, 1.0 ],
        "metallicFactor" : 0.1,
        "roughnessFactor" : 0.5
      }
    }
  ],
  "meshes" : [
    {
      "primitives" : [
        {
          "attributes" : {
            "POSITION" : 1,
            "NORMAL" : 2,
            "TANGENT" : 3,
            "TEXCOORD_0" : 4
          },
          "indices" : 0,
          "material" : 0
        }
      ],
      "name" : "ASE_Beowulf_Gib_EngR_B"
    }
  ],
  "buffers" : [
    {
      "uri" : "ASE_Beowulf_Gib_EngR_B.bin",
      "byteLength" : 30012
    }
  ],
  "bufferViews" : [
    {
      "buffer" : 0,
      "byteOffset" : 0,
      "byteLength" : 3852
    },
    {
      "buffer" : 0,
      "byteOffset" : 3852,
      "byteLength" : 6540
    },
    {
      "buffer" : 0,
      "byteOffset" : 10392,
      "byteLength" : 6540
    },
    {
      "buffer" : 0,
      "byteOffset" : 16932,
      "byteLength" : 8720
    },
    {
      "buffer" : 0,
      "byteOffset" : 25652,
      "byteLength" : 4360
    }
  ],
  "accessors" : [
    {
      "bufferView" : 0,
      "componentType" : 5123,
      "count" : 1926,
      "type" : "SCALAR"
    },
    {
      "bufferView" : 1,
      "min" : [ -0.16198, -0.397785, -0.379183 ],
      "max" : [ 0.382475, 0.262464, 0.369026 ],
      "componentType" : 5126,
      "count" : 545,
      "type" : "VEC3"
    },
    {
      "bufferView" : 2,
      "componentType" : 5126,
      "count" : 545,
      "type" : "VEC3"
    },
    {
      "bufferView" : 3,
      "componentType" : 5126,
      "count" : 545,
      "type" : "VEC4"
    },
    {
      "bufferView" : 4,
      "componentType" : 5126,
      "count" : 545,
      "type" : "VEC2"
    }
  ]
}
