{
  "asset" : {
    "generator" : "UE Viewer (umodel) build 1575",
    "version" : "2.0"
  },
  "scene" : 0,
  "scenes" : [
    {
      "nodes" : [ 0 ]
    }
  ],
  "nodes" : [
    {
      "name" : "ASE_Beowulf_Gib_Turret",
      "mesh" : 0
    }
  ],
  "materials" : [
    {
      "name" : "MAT_Beowulf_Destroyed",
      "pbrMetallicRoughness" : {
        "baseColorFactor" : [ 0.3, 0.3, 0.3, 1.0 ],
        "metallicFactor" : 0.1,
        "roughnessFactor" : 0.5
      }
    }
  ],
  "meshes" : [
    {
      "primitives" : [
        {
          "attributes" : {
            "POSITION" : 1,
            "NORMAL" : 2,
            "TANGENT" : 3,
            "TEXCOORD_0" : 4
          },
          "indices" : 0,
          "material" : 0
        }
      ],
      "name" : "ASE_Beowulf_Gib_Turret"
    }
  ],
  "buffers" : [
    {
      "uri" : "ASE_Beowulf_Gib_Turret.bin",
      "byteLength" : 246288
    }
  ],
  "bufferViews" : [
    {
      "buffer" : 0,
      "byteOffset" : 0,
      "byteLength" : 25248
    },
    {
      "buffer" : 0,
      "byteOffset" : 25248,
      "byteLength" : 55260
    },
    {
      "buffer" : 0,
      "byteOffset" : 80508,
      "byteLength" : 55260
    },
    {
      "buffer" : 0,
      "byteOffset" : 135768,
      "byteLength" : 73680
    },
    {
      "buffer" : 0,
      "byteOffset" : 209448,
      "byteLength" : 36840
    }
  ],
  "accessors" : [
    {
      "bufferView" : 0,
      "componentType" : 5123,
      "count" : 12624,
      "type" : "SCALAR"
    },
    {
      "bufferView" : 1,
      "min" : [ -0.885212, -0.441417, -0.981227 ],
      "max" : [ 1.0017, 0.530373, 2.3684 ],
      "componentType" : 5126,
      "count" : 4605,
      "type" : "VEC3"
    },
    {
      "bufferView" : 2,
      "componentType" : 5126,
      "count" : 4605,
      "type" : "VEC3"
    },
    {
      "bufferView" : 3,
      "componentType" : 5126,
      "count" : 4605,
      "type" : "VEC4"
    },
    {
      "bufferView" : 4,
      "componentType" : 5126,
      "count" : 4605,
      "type" : "VEC2"
    }
  ]
}
