{
  "asset" : {
    "generator" : "UE Viewer (umodel) build 1575",
    "version" : "2.0"
  },
  "scene" : 0,
  "scenes" : [
    {
      "nodes" : [ 0 ]
    }
  ],
  "nodes" : [
    {
      "name" : "ASE_Beowulf_Gib_Body",
      "mesh" : 0
    }
  ],
  "materials" : [
    {
      "name" : "MAT_Beowulf_Destroyed",
      "pbrMetallicRoughness" : {
        "baseColorFactor" : [ 0.3, 0.3, 0.3, 1.0 ],
        "metallicFactor" : 0.1,
        "roughnessFactor" : 0.5
      }
    }
  ],
  "meshes" : [
    {
      "primitives" : [
        {
          "attributes" : {
            "POSITION" : 1,
            "NORMAL" : 2,
            "TANGENT" : 3,
            "COLOR_0" : 4,
            "TEXCOORD_0" : 5
          },
          "indices" : 0,
          "material" : 0
        }
      ],
      "name" : "ASE_Beowulf_Gib_Body"
    }
  ],
  "buffers" : [
    {
      "uri" : "ASE_Beowulf_Gib_Body.bin",
      "byteLength" : 139008
    }
  ],
  "bufferViews" : [
    {
      "buffer" : 0,
      "byteOffset" : 0,
      "byteLength" : 17016
    },
    {
      "buffer" : 0,
      "byteOffset" : 17016,
      "byteLength" : 28152
    },
    {
      "buffer" : 0,
      "byteOffset" : 45168,
      "byteLength" : 28152
    },
    {
      "buffer" : 0,
      "byteOffset" : 73320,
      "byteLength" : 37536
    },
    {
      "buffer" : 0,
      "byteOffset" : 110856,
      "byteLength" : 9384
    },
    {
      "buffer" : 0,
      "byteOffset" : 120240,
      "byteLength" : 18768
    }
  ],
  "accessors" : [
    {
      "bufferView" : 0,
      "componentType" : 5123,
      "count" : 8508,
      "type" : "SCALAR"
    },
    {
      "bufferView" : 1,
      "min" : [ -1.48818, -0.711122, -1.11098 ],
      "max" : [ 1.30727, 0.644971, 1.44159 ],
      "componentType" : 5126,
      "count" : 2346,
      "type" : "VEC3"
    },
    {
      "bufferView" : 2,
      "componentType" : 5126,
      "count" : 2346,
      "type" : "VEC3"
    },
    {
      "bufferView" : 3,
      "componentType" : 5126,
      "count" : 2346,
      "type" : "VEC4"
    },
    {
      "bufferView" : 4,
      "normalized" : true,
      "componentType" : 5121,
      "count" : 2346,
      "type" : "VEC4"
    },
    {
      "bufferView" : 5,
      "componentType" : 5126,
      "count" : 2346,
      "type" : "VEC2"
    }
  ]
}
