{
  "asset" : {
    "generator" : "UE Viewer (umodel) build 1575",
    "version" : "2.0"
  },
  "scene" : 0,
  "scenes" : [
    {
      "nodes" : [ 0 ]
    }
  ],
  "nodes" : [
    {
      "name" : "SKL_WEP_BoltLauncher_3p",
      "mesh" : 0,
      "skin" : 0,
      "children" : [ 1 ]
    },
    {
      "name" : "R_WEP_root",
      "translation" : [ 0, 0, -0 ],
      "rotation" : [ 7.54979e-08, -4.37114e-08, 4.37114e-08, -1 ]
    }
  ],
  "skins" : [
    {
      "inverseBindMatrices" : 0,
      "skeleton" : 1,
      "joints" : [
        1
      ]
    }
  ],
  "materials" : [
    {
      "name" : "MAT_WEP_Light_BoltLauncher_3p",
      "pbrMetallicRoughness" : {
        "baseColorFactor" : [ 0.3, 0.3, 0.3, 1.0 ],
        "metallicFactor" : 0.1,
        "roughnessFactor" : 0.5
      }
    }
  ],
  "meshes" : [
    {
      "primitives" : [
        {
          "attributes" : {
            "POSITION" : 2,
            "NORMAL" : 3,
            "TANGENT" : 4,
            "JOINTS_0" : 5,
            "WEIGHTS_0" : 6,
            "TEXCOORD_0" : 7
          },
          "indices" : 1,
          "material" : 0
        }
      ],
      "name" : "SKL_WEP_BoltLauncher_3p"
    }
  ],
  "buffers" : [
    {
      "uri" : "SKL_WEP_BoltLauncher_3p.bin",
      "byteLength" : 162168
    }
  ],
  "bufferViews" : [
    {
      "buffer" : 0,
      "byteOffset" : 0,
      "byteLength" : 64
    },
    {
      "buffer" : 0,
      "byteOffset" : 64,
      "byteLength" : 13004
    },
    {
      "buffer" : 0,
      "byteOffset" : 13068,
      "byteLength" : 29820
    },
    {
      "buffer" : 0,
      "byteOffset" : 42888,
      "byteLength" : 29820
    },
    {
      "buffer" : 0,
      "byteOffset" : 72708,
      "byteLength" : 39760
    },
    {
      "buffer" : 0,
      "byteOffset" : 112468,
      "byteLength" : 19880
    },
    {
      "buffer" : 0,
      "byteOffset" : 132348,
      "byteLength" : 9940
    },
    {
      "buffer" : 0,
      "byteOffset" : 142288,
      "byteLength" : 19880
    }
  ],
  "accessors" : [
    {
      "bufferView" : 0,
      "componentType" : 5126,
      "count" : 1,
      "type" : "MAT4"
    },
    {
      "bufferView" : 1,
      "componentType" : 5123,
      "count" : 6501,
      "type" : "SCALAR"
    },
    {
      "bufferView" : 2,
      "min" : [ -0.136923, -0.0574197, -0.258373 ],
      "max" : [ 0.49258, 0.132709, 0.258374 ],
      "componentType" : 5126,
      "count" : 2485,
      "type" : "VEC3"
    },
    {
      "bufferView" : 3,
      "componentType" : 5126,
      "count" : 2485,
      "type" : "VEC3"
    },
    {
      "bufferView" : 4,
      "componentType" : 5126,
      "count" : 2485,
      "type" : "VEC4"
    },
    {
      "bufferView" : 5,
      "componentType" : 5123,
      "count" : 2485,
      "type" : "VEC4"
    },
    {
      "bufferView" : 6,
      "normalized" : true,
      "componentType" : 5121,
      "count" : 2485,
      "type" : "VEC4"
    },
    {
      "bufferView" : 7,
      "componentType" : 5126,
      "count" : 2485,
      "type" : "VEC2"
    }
  ]
}
