{
  "asset" : {
    "generator" : "UE Viewer (umodel) build 1575",
    "version" : "2.0"
  },
  "scene" : 0,
  "scenes" : [
    {
      "nodes" : [ 0 ]
    }
  ],
  "nodes" : [
    {
      "name" : "SKL_WEP_SAP20_3p",
      "mesh" : 0,
      "skin" : 0,
      "children" : [ 1 ]
    },
    {
      "name" : "R_WEP_root",
      "translation" : [ 0, 9.53674e-09, -3.8147e-08 ],
      "rotation" : [ -3.4459e-07, -4.65568e-10, 2.38418e-07, -1 ]
    }
  ],
  "skins" : [
    {
      "inverseBindMatrices" : 0,
      "skeleton" : 1,
      "joints" : [
        1
      ]
    }
  ],
  "materials" : [
    {
      "name" : "Mat_SAP20",
      "pbrMetallicRoughness" : {
        "baseColorFactor" : [ 0.3, 0.3, 0.3, 1.0 ],
        "metallicFactor" : 0.1,
        "roughnessFactor" : 0.5
      }
    }
  ],
  "meshes" : [
    {
      "primitives" : [
        {
          "attributes" : {
            "POSITION" : 2,
            "NORMAL" : 3,
            "TANGENT" : 4,
            "JOINTS_0" : 5,
            "WEIGHTS_0" : 6,
            "TEXCOORD_0" : 7
          },
          "indices" : 1,
          "material" : 0
        }
      ],
      "name" : "SKL_WEP_SAP20_3p"
    }
  ],
  "buffers" : [
    {
      "uri" : "SKL_WEP_SAP20_3p.bin",
      "byteLength" : 170692
    }
  ],
  "bufferViews" : [
    {
      "buffer" : 0,
      "byteOffset" : 0,
      "byteLength" : 64
    },
    {
      "buffer" : 0,
      "byteOffset" : 64,
      "byteLength" : 13488
    },
    {
      "buffer" : 0,
      "byteOffset" : 13552,
      "byteLength" : 31428
    },
    {
      "buffer" : 0,
      "byteOffset" : 44980,
      "byteLength" : 31428
    },
    {
      "buffer" : 0,
      "byteOffset" : 76408,
      "byteLength" : 41904
    },
    {
      "buffer" : 0,
      "byteOffset" : 118312,
      "byteLength" : 20952
    },
    {
      "buffer" : 0,
      "byteOffset" : 139264,
      "byteLength" : 10476
    },
    {
      "buffer" : 0,
      "byteOffset" : 149740,
      "byteLength" : 20952
    }
  ],
  "accessors" : [
    {
      "bufferView" : 0,
      "componentType" : 5126,
      "count" : 1,
      "type" : "MAT4"
    },
    {
      "bufferView" : 1,
      "componentType" : 5123,
      "count" : 6744,
      "type" : "SCALAR"
    },
    {
      "bufferView" : 2,
      "min" : [ -0.163098, -0.0536124, -0.0441235 ],
      "max" : [ 0.419414, 0.147897, 0.0439866 ],
      "componentType" : 5126,
      "count" : 2619,
      "type" : "VEC3"
    },
    {
      "bufferView" : 3,
      "componentType" : 5126,
      "count" : 2619,
      "type" : "VEC3"
    },
    {
      "bufferView" : 4,
      "componentType" : 5126,
      "count" : 2619,
      "type" : "VEC4"
    },
    {
      "bufferView" : 5,
      "componentType" : 5123,
      "count" : 2619,
      "type" : "VEC4"
    },
    {
      "bufferView" : 6,
      "normalized" : true,
      "componentType" : 5121,
      "count" : 2619,
      "type" : "VEC4"
    },
    {
      "bufferView" : 7,
      "componentType" : 5126,
      "count" : 2619,
      "type" : "VEC2"
    }
  ]
}
