{
  "asset" : {
    "generator" : "UE Viewer (umodel) build 1575",
    "version" : "2.0"
  },
  "scene" : 0,
  "scenes" : [
    {
      "nodes" : [ 0 ]
    }
  ],
  "nodes" : [
    {
      "name" : "DEP_360Mine_3p",
      "mesh" : 0
    }
  ],
  "materials" : [
    {
      "name" : "DEP_360Mine_3p_MAT",
      "pbrMetallicRoughness" : {
        "baseColorFactor" : [ 0.3, 0.3, 0.3, 1.0 ],
        "metallicFactor" : 0.1,
        "roughnessFactor" : 0.5
      }
    }
  ],
  "meshes" : [
    {
      "primitives" : [
        {
          "attributes" : {
            "POSITION" : 1,
            "NORMAL" : 2,
            "TANGENT" : 3,
            "COLOR_0" : 4,
            "TEXCOORD_0" : 5
          },
          "indices" : 0,
          "material" : 0
        }
      ],
      "name" : "DEP_360Mine_3p"
    }
  ],
  "buffers" : [
    {
      "uri" : "DEP_360Mine_3p.bin",
      "byteLength" : 78632
    }
  ],
  "bufferViews" : [
    {
      "buffer" : 0,
      "byteOffset" : 0,
      "byteLength" : 5988
    },
    {
      "buffer" : 0,
      "byteOffset" : 5988,
      "byteLength" : 16764
    },
    {
      "buffer" : 0,
      "byteOffset" : 22752,
      "byteLength" : 16764
    },
    {
      "buffer" : 0,
      "byteOffset" : 39516,
      "byteLength" : 22352
    },
    {
      "buffer" : 0,
      "byteOffset" : 61868,
      "byteLength" : 5588
    },
    {
      "buffer" : 0,
      "byteOffset" : 67456,
      "byteLength" : 11176
    }
  ],
  "accessors" : [
    {
      "bufferView" : 0,
      "componentType" : 5123,
      "count" : 2994,
      "type" : "SCALAR"
    },
    {
      "bufferView" : 1,
      "min" : [ -0.106162, 0.000147356, -0.106164 ],
      "max" : [ 0.106165, 0.100594, 0.106164 ],
      "componentType" : 5126,
      "count" : 1397,
      "type" : "VEC3"
    },
    {
      "bufferView" : 2,
      "componentType" : 5126,
      "count" : 1397,
      "type" : "VEC3"
    },
    {
      "bufferView" : 3,
      "componentType" : 5126,
      "count" : 1397,
      "type" : "VEC4"
    },
    {
      "bufferView" : 4,
      "normalized" : true,
      "componentType" : 5121,
      "count" : 1397,
      "type" : "VEC4"
    },
    {
      "bufferView" : 5,
      "componentType" : 5126,
      "count" : 1397,
      "type" : "VEC2"
    }
  ]
}
