{
  "asset" : {
    "generator" : "UE Viewer (umodel) build 1575",
    "version" : "2.0"
  },
  "scene" : 0,
  "scenes" : [
    {
      "nodes" : [ 0 ]
    }
  ],
  "nodes" : [
    {
      "name" : "SKL_PC_Merc_Pathfinder_GIB",
      "mesh" : 0,
      "skin" : 0,
      "children" : [ 1 ]
    },
    {
      "name" : "Root",
      "children" : [ 2, 3, 82, 83 ],
      "translation" : [ 0, 0, -0 ],
      "rotation" : [ -0, 0.707107, 0, -0.707107 ]
    },
    {
      "name" : "EffectsSocket",
      "translation" : [ 0, 0, -0 ],
      "rotation" : [ -0, -0, 0, -1 ]
    },
    {
      "name" : "Pelvis",
      "children" : [ 4, 71 ],
      "translation" : [ 0.00472862, 0.509972, -1e-08 ],
      "rotation" : [ 0.520979, 0.478101, -0.4781, -0.52098 ]
    },
    {
      "name" : "Spine",
      "children" : [ 5, 70 ],
      "translation" : [ 0.0473129, 7.59053e-08, 0.000709889 ],
      "rotation" : [ 9.3779e-07, 0.0510925, -5.1251e-07, -0.998694 ]
    },
    {
      "name" : "Spine1",
      "children" : [ 6, 69 ],
      "translation" : [ 0.114436, 4.77716e-08, 0.000139823 ],
      "rotation" : [ -4.45314e-09, 0.102157, 2.2806e-08, -0.994768 ]
    },
    {
      "name" : "Neck",
      "children" : [ 7, 9, 39 ],
      "translation" : [ 0.120729, 6.55e-08, 3.8147e-08 ],
      "rotation" : [ -4.69902e-07, -0.202105, -1.9802e-07, -0.979364 ]
    },
    {
      "name" : "Neck1",
      "children" : [ 8 ],
      "translation" : [ 0.0198835, 8.45888e-08, 4.26292e-05 ],
      "rotation" : [ -3.42821e-07, -0.144209, -7.3142e-07, -0.989547 ]
    },
    {
      "name" : "Head",
      "translation" : [ 0.0559314, -3.38572e-09, 3.8147e-08 ],
      "rotation" : [ 8.58746e-07, 0.157642, 6.9793e-07, -0.987496 ]
    },
    {
      "name" : "L_Clavicle",
      "children" : [ 10, 37 ],
      "translation" : [ 0.0112881, 0.0226179, 0.00645321 ],
      "rotation" : [ -0.546869, -0.80505, -0.207384, -0.099099 ]
    },
    {
      "name" : "L_ShoulderDefCounter",
      "children" : [ 11 ],
      "translation" : [ 0.100468, 1.52588e-07, -2.86102e-08 ],
      "rotation" : [ 0.0588477, -0.00176232, 0.0553992, -0.996727 ]
    },
    {
      "name" : "L_UpperArm",
      "children" : [ 12, 36 ],
      "translation" : [ 0, 0, -0 ],
      "rotation" : [ 0.058848, -0.0017622, 0.055399, -0.996727 ]
    },
    {
      "name" : "L_Forearm",
      "children" : [ 13, 31, 32, 33, 34, 35 ],
      "translation" : [ 0.117947, -3.8147e-08, -0 ],
      "rotation" : [ 7.37986e-09, 0.137457, 3.25918e-08, -0.990508 ]
    },
    {
      "name" : "L_Hand",
      "children" : [ 14, 17, 19, 22, 25, 28 ],
      "translation" : [ 0.126315, -7.62939e-08, -7.62939e-08 ],
      "rotation" : [ 0.408264, -0.0137159, -0.0452804, -0.911637 ]
    },
    {
      "name" : "L_Finger0",
      "children" : [ 15 ],
      "translation" : [ 0.0054253, -0.00977488, -0.00439545 ],
      "rotation" : [ -0.555544, 0.0733088, 0.339107, -0.755648 ]
    },
    {
      "name" : "L_Finger01",
      "children" : [ 16 ],
      "translation" : [ 0.0323735, 1.52588e-07, -6.67572e-08 ],
      "rotation" : [ 2.64558e-07, -0.0460581, 5.29566e-08, -0.998939 ]
    },
    {
      "name" : "L_Finger02",
      "translation" : [ 0.0186477, -3.05176e-07, 1.90735e-08 ],
      "rotation" : [ 2.23564e-16, -0.116402, -4.70014e-08, -0.993202 ]
    },
    {
      "name" : "Prop2",
      "children" : [ 18 ],
      "translation" : [ 0.0449364, -0.0077841, -0.0202319 ],
      "rotation" : [ -0.983909, -0.0178265, -0.175658, -0.0273791 ]
    },
    {
      "name" : "R_grip",
      "translation" : [ -0.682777, 0.0606002, -0.00565388 ],
      "rotation" : [ -0.121967, -0.967761, -0.0447953, 0.215769 ]
    },
    {
      "name" : "L_Finger1",
      "children" : [ 20 ],
      "translation" : [ 0.0616775, -0.0185018, -0.00355652 ],
      "rotation" : [ -0.035436, -0.193484, 0.155172, -0.968106 ]
    },
    {
      "name" : "L_Finger11",
      "children" : [ 21 ],
      "translation" : [ 0.0162036, -1.33514e-07, -1.52588e-07 ],
      "rotation" : [ 2.43697e-07, -0.245252, 6.95251e-08, -0.969459 ]
    },
    {
      "name" : "L_Finger12",
      "translation" : [ 0.0125132, 1.33514e-07, 1.14441e-07 ],
      "rotation" : [ 7.33367e-08, -0.142513, -1.84949e-08, -0.989793 ]
    },
    {
      "name" : "L_Finger2",
      "children" : [ 23 ],
      "translation" : [ 0.0630873, -0.00584794, -0.00265366 ],
      "rotation" : [ 0.00620819, -0.304903, 0.010258, -0.952308 ]
    },
    {
      "name" : "L_Finger21",
      "children" : [ 24 ],
      "translation" : [ 0.0194148, 1.90735e-08, 3.8147e-08 ],
      "rotation" : [ 1.98874e-08, -0.290644, -2.61466e-08, -0.956831 ]
    },
    {
      "name" : "L_Finger22",
      "translation" : [ 0.0135421, -8.58307e-08, -1.14441e-07 ],
      "rotation" : [ 2.79959e-08, -0.264952, 7.79598e-08, -0.964262 ]
    },
    {
      "name" : "L_Finger3",
      "children" : [ 26 ],
      "translation" : [ 0.0615973, 0.0066619, -0.00337738 ],
      "rotation" : [ 0.0266671, -0.353528, -0.0986368, -0.929827 ]
    },
    {
      "name" : "L_Finger31",
      "children" : [ 27 ],
      "translation" : [ 0.0191225, -9.53674e-09, -7.62939e-08 ],
      "rotation" : [ 4.42687e-09, -0.29145, 7.65991e-08, -0.956586 ]
    },
    {
      "name" : "L_Finger32",
      "translation" : [ 0.0133479, 4.76837e-08, 1.90735e-08 ],
      "rotation" : [ -3.62514e-08, -0.177783, 5.13277e-09, -0.98407 ]
    },
    {
      "name" : "L_Finger4",
      "children" : [ 29 ],
      "translation" : [ 0.055513, 0.0176899, -0.00656845 ],
      "rotation" : [ 0.0843429, -0.340072, -0.202486, -0.91446 ]
    },
    {
      "name" : "L_Finger41",
      "children" : [ 30 ],
      "translation" : [ 0.0152586, -1.04904e-07, -0 ],
      "rotation" : [ -1.31081e-07, -0.319478, 5.1544e-08, -0.947594 ]
    },
    {
      "name" : "L_Finger42",
      "translation" : [ 0.00911034, 1.52588e-07, -0 ],
      "rotation" : [ -2.35832e-09, -0.158264, -7.17981e-08, -0.987397 ]
    },
    {
      "name" : "L_ForearmTwist01",
      "translation" : [ -5.72205e-08, 0, -0 ],
      "rotation" : [ -0.0727483, -1.48617e-08, 4.4043e-08, -0.99735 ]
    },
    {
      "name" : "L_ForearmTwist02",
      "translation" : [ 0.0249999, -3.8147e-08, -3.8147e-08 ],
      "rotation" : [ -0.145111, 2.5973e-07, 3.6318e-08, -0.989415 ]
    },
    {
      "name" : "L_ForearmTwist03",
      "translation" : [ 0.05, -7.62939e-08, -3.8147e-08 ],
      "rotation" : [ -0.216705, -5.25135e-09, 8.08162e-08, -0.976237 ]
    },
    {
      "name" : "L_ForearmTwist04",
      "translation" : [ 0.0754418, -7.62939e-08, -0 ],
      "rotation" : [ -0.28715, -1.06144e-08, 9.87956e-08, -0.957886 ]
    },
    {
      "name" : "L_ForearmTwist05",
      "translation" : [ 0.101033, -7.62939e-08, -0 ],
      "rotation" : [ -0.352669, 3.48593e-09, 5.97163e-08, -0.935748 ]
    },
    {
      "name" : "L_Elbow",
      "translation" : [ 0.117947, -3.8147e-08, -0 ],
      "rotation" : [ 1.03547e-07, 0.068892, 1.13546e-07, -0.997624 ]
    },
    {
      "name" : "L_shoulderPad_pt",
      "children" : [ 38 ],
      "translation" : [ 0.0669313, 0.0303564, 0.0291066 ],
      "rotation" : [ -0.784822, -0.166103, -0.258685, -0.538094 ]
    },
    {
      "name" : "L_shoulderPad",
      "translation" : [ 1.90735e-08, 0, -7.62939e-08 ],
      "rotation" : [ -0, -0, 0, -1 ]
    },
    {
      "name" : "R_Clavicle",
      "children" : [ 40, 67 ],
      "translation" : [ 0.0112881, -0.0226181, 0.00645313 ],
      "rotation" : [ 0.546869, -0.80505, 0.207382, -0.0991 ]
    },
    {
      "name" : "R_ShoulderDefCounter",
      "children" : [ 41 ],
      "translation" : [ 0.100469, 1.52588e-07, 1.04904e-07 ],
      "rotation" : [ -0.0588481, -0.00176243, -0.055399, -0.996727 ]
    },
    {
      "name" : "R_UpperArm",
      "children" : [ 42, 66 ],
      "translation" : [ -1.71661e-07, -2.28882e-07, -7.62939e-08 ],
      "rotation" : [ -0.058848, -0.00176242, -0.0553991, -0.996727 ]
    },
    {
      "name" : "R_Forearm",
      "children" : [ 43, 61, 62, 63, 64, 65 ],
      "translation" : [ 0.117947, -7.62939e-08, 7.62939e-08 ],
      "rotation" : [ -2.31637e-08, 0.137457, 6.35572e-09, -0.990508 ]
    },
    {
      "name" : "R_Hand",
      "children" : [ 44, 47, 49, 52, 55, 58 ],
      "translation" : [ 0.126315, -7.62939e-08, -3.8147e-08 ],
      "rotation" : [ -0.408264, -0.013716, 0.0452803, -0.911637 ]
    },
    {
      "name" : "R_Finger0",
      "children" : [ 45 ],
      "translation" : [ 0.00542536, 0.00977502, -0.0043956 ],
      "rotation" : [ 0.555543, 0.0733088, -0.339107, -0.755648 ]
    },
    {
      "name" : "R_Finger01",
      "children" : [ 46 ],
      "translation" : [ 0.0323736, 7.62939e-08, -1.23978e-07 ],
      "rotation" : [ 2.3487e-09, -0.0460581, 4.51708e-08, -0.998939 ]
    },
    {
      "name" : "R_Finger02",
      "translation" : [ 0.0186478, -1.52588e-07, 4.76837e-08 ],
      "rotation" : [ -8.67262e-10, -0.116402, 8.31338e-08, -0.993202 ]
    },
    {
      "name" : "Prop1",
      "children" : [ 48 ],
      "translation" : [ 0.0449335, 0.00778351, -0.0202333 ],
      "rotation" : [ -0.0273798, 0.175658, 0.0178279, -0.983909 ]
    },
    {
      "name" : "L_grip",
      "translation" : [ -0.682774, 0.0605987, 0.00565365 ],
      "rotation" : [ -0.215769, 0.0447952, 0.967761, 0.121965 ]
    },
    {
      "name" : "R_Finger1",
      "children" : [ 50 ],
      "translation" : [ 0.0616774, 0.0185019, -0.00355667 ],
      "rotation" : [ 0.0354357, -0.193484, -0.155172, -0.968106 ]
    },
    {
      "name" : "R_Finger11",
      "children" : [ 51 ],
      "translation" : [ 0.0162036, 1.90735e-08, -7.62939e-08 ],
      "rotation" : [ 1.74703e-09, -0.245252, 3.5927e-08, -0.969459 ]
    },
    {
      "name" : "R_Finger12",
      "translation" : [ 0.0125132, 3.8147e-08, 1.90735e-07 ],
      "rotation" : [ 2.74378e-08, -0.142513, -1.19571e-08, -0.989793 ]
    },
    {
      "name" : "R_Finger2",
      "children" : [ 53 ],
      "translation" : [ 0.0630869, 0.00584789, -0.00265388 ],
      "rotation" : [ -0.00620825, -0.304903, -0.010258, -0.952308 ]
    },
    {
      "name" : "R_Finger21",
      "children" : [ 54 ],
      "translation" : [ 0.0194148, -7.62939e-08, -7.62939e-08 ],
      "rotation" : [ 7.27554e-08, -0.290644, -3.43369e-08, -0.956831 ]
    },
    {
      "name" : "R_Finger22",
      "translation" : [ 0.0135422, 2.86102e-08, -0 ],
      "rotation" : [ -4.40696e-08, -0.264952, 5.51469e-08, -0.964262 ]
    },
    {
      "name" : "R_Finger3",
      "children" : [ 56 ],
      "translation" : [ 0.0615972, -0.00666191, -0.00337761 ],
      "rotation" : [ -0.0266673, -0.353528, 0.0986366, -0.929827 ]
    },
    {
      "name" : "R_Finger31",
      "children" : [ 57 ],
      "translation" : [ 0.0191227, -5.72205e-08, -7.62939e-08 ],
      "rotation" : [ 2.21607e-08, -0.29145, -9.29859e-09, -0.956586 ]
    },
    {
      "name" : "R_Finger32",
      "translation" : [ 0.0133478, -1.23978e-07, -3.8147e-08 ],
      "rotation" : [ 1.10013e-08, -0.177783, 3.65533e-08, -0.98407 ]
    },
    {
      "name" : "R_Finger4",
      "children" : [ 59 ],
      "translation" : [ 0.0555126, -0.01769, -0.00656868 ],
      "rotation" : [ -0.0843428, -0.340072, 0.202485, -0.91446 ]
    },
    {
      "name" : "R_Finger41",
      "children" : [ 60 ],
      "translation" : [ 0.0152586, 7.62939e-08, -0 ],
      "rotation" : [ 3.31347e-08, -0.319478, -6.7679e-08, -0.947594 ]
    },
    {
      "name" : "R_Finger42",
      "translation" : [ 0.00911049, 2.86102e-08, 5.72205e-08 ],
      "rotation" : [ -1.27552e-07, -0.158264, 7.58579e-08, -0.987397 ]
    },
    {
      "name" : "R_ForearmTwist01",
      "translation" : [ -1.90735e-08, 0, -0 ],
      "rotation" : [ 0.0727482, -3.02654e-08, 6.88882e-09, -0.99735 ]
    },
    {
      "name" : "R_ForearmTwist02",
      "translation" : [ 0.025, 0, -3.8147e-08 ],
      "rotation" : [ 0.145111, -3.68586e-09, 2.89463e-08, -0.989415 ]
    },
    {
      "name" : "R_ForearmTwist03",
      "translation" : [ 0.0500001, 0, -7.62939e-08 ],
      "rotation" : [ 0.216705, 3.95968e-08, 7.59645e-08, -0.976237 ]
    },
    {
      "name" : "R_ForearmTwist04",
      "translation" : [ 0.0755201, 0, -7.62939e-08 ],
      "rotation" : [ 0.28715, 1.42736e-08, 3.06866e-08, -0.957886 ]
    },
    {
      "name" : "R_ForearmTwist05",
      "translation" : [ 0.100816, -3.8147e-08, -3.8147e-08 ],
      "rotation" : [ 0.352669, 2.52993e-08, 7.53023e-08, -0.935748 ]
    },
    {
      "name" : "R_Elbow",
      "translation" : [ 0.117947, -7.62939e-08, 7.62939e-08 ],
      "rotation" : [ -2.28119e-08, 0.0688921, -6.84358e-08, -0.997624 ]
    },
    {
      "name" : "R_shoulderPad_pt",
      "children" : [ 68 ],
      "translation" : [ 0.0669356, -0.0303582, 0.0291074 ],
      "rotation" : [ -0.258684, -0.538094, 0.784822, 0.166104 ]
    },
    {
      "name" : "R_shoulderPad",
      "translation" : [ 1.90735e-08, -9.53674e-09, -7.62939e-08 ],
      "rotation" : [ -0, -0, 0, -1 ]
    },
    {
      "name" : "WEP_1_Switch",
      "translation" : [ 0.253008, -0.000483226, 0.0539173 ],
      "rotation" : [ -0.110357, -0.112577, -0.694731, -0.701781 ]
    },
    {
      "name" : "WEP_2_Switch",
      "translation" : [ 0.0192367, 0.0890014, 0.0231088 ],
      "rotation" : [ -0.668983, 0.516287, -0.233975, -0.480796 ]
    },
    {
      "name" : "PelvisWeighted",
      "children" : [ 72, 77 ],
      "translation" : [ 0, 0, -0 ],
      "rotation" : [ -9.52967e-07, 2.40281e-07, 3.37255e-08, -1 ]
    },
    {
      "name" : "L_Thigh",
      "children" : [ 73 ],
      "translation" : [ -1.52588e-07, 0.0583732, -1.00136e-07 ],
      "rotation" : [ -0.00986268, -0.0797975, 0.995795, 0.0439121 ]
    },
    {
      "name" : "L_Calf",
      "children" : [ 74, 76 ],
      "translation" : [ 0.232976, 0, -0 ],
      "rotation" : [ -5.90402e-09, 0.0432042, 3.14292e-08, -0.999066 ]
    },
    {
      "name" : "L_Foot",
      "children" : [ 75 ],
      "translation" : [ 0.205159, 6.67572e-08, 1.66893e-08 ],
      "rotation" : [ 0.0778527, -0.0708403, -0.0538055, -0.992988 ]
    },
    {
      "name" : "L_Toe0",
      "translation" : [ 0.0754791, 0.00114449, -0.0689709 ],
      "rotation" : [ -3.05493e-08, -0.707107, 6.19762e-08, -0.707107 ]
    },
    {
      "name" : "L_KneePad",
      "translation" : [ 0.0204657, -5.72205e-08, 0.0104196 ],
      "rotation" : [ -2.05105e-08, -0.0137506, -1.86471e-08, -0.999905 ]
    },
    {
      "name" : "R_Thigh",
      "children" : [ 78 ],
      "translation" : [ 7.62939e-08, -0.0583732, 5.48363e-08 ],
      "rotation" : [ -0.00986276, 0.0797986, 0.995794, -0.0439138 ]
    },
    {
      "name" : "R_Calf",
      "children" : [ 79, 81 ],
      "translation" : [ 0.232977, 2.86102e-08, -3.8147e-08 ],
      "rotation" : [ -8.13206e-09, 0.0432042, 7.88974e-08, -0.999066 ]
    },
    {
      "name" : "R_Foot",
      "children" : [ 80 ],
      "translation" : [ 0.205159, 6.67572e-08, -0 ],
      "rotation" : [ -0.0778529, -0.0708404, 0.0538054, -0.992988 ]
    },
    {
      "name" : "R_Toe0",
      "translation" : [ 0.0754791, -0.00114525, -0.0689709 ],
      "rotation" : [ 3.13624e-08, -0.707107, -4.18184e-08, -0.707107 ]
    },
    {
      "name" : "R_KneePad",
      "translation" : [ 0.0204685, -6.77109e-07, 0.0104234 ],
      "rotation" : [ 1.14076e-08, -0.0137506, 3.36429e-08, -0.999905 ]
    },
    {
      "name" : "ikGunLeftHand",
      "translation" : [ -0.0219889, 0.647734, -0.326104 ],
      "rotation" : [ 0.580335, -0.593539, -0.319558, -0.456953 ]
    },
    {
      "name" : "ikGunRightHand",
      "translation" : [ -0.0219879, 0.647734, 0.326105 ],
      "rotation" : [ 0.456953, 0.319557, 0.593539, -0.580335 ]
    }
  ],
  "skins" : [
    {
      "inverseBindMatrices" : 0,
      "skeleton" : 1,
      "joints" : [
        1,2,3,4,5,6,7,8,9,10,11,12,13,14,15,16,17,18,19,20,21,22,23,24,25,26,27,28,29,30,31,32,
        33,34,35,36,37,38,39,40,41,42,43,44,45,46,47,48,49,50,51,52,53,54,55,56,57,58,59,60,61,62,63,64,
        65,66,67,68,69,70,71,72,73,74,75,76,77,78,79,80,81,82,83
      ]
    }
  ],
  "materials" : [
    {
      "name" : "MIC_Merc_PTH",
      "pbrMetallicRoughness" : {
        "baseColorFactor" : [ 0.3, 0.3, 0.3, 1.0 ],
        "metallicFactor" : 0.1,
        "roughnessFactor" : 0.5
      }
    }
  ],
  "meshes" : [
    {
      "primitives" : [
        {
          "attributes" : {
            "POSITION" : 2,
            "NORMAL" : 3,
            "TANGENT" : 4,
            "COLOR_0" : 5,
            "JOINTS_0" : 6,
            "WEIGHTS_0" : 7,
            "TEXCOORD_0" : 8,
            "TEXCOORD_1" : 9,
            "TEXCOORD_2" : 10
          },
          "indices" : 1,
          "material" : 0
        }
      ],
      "name" : "SKL_PC_Merc_Pathfinder_GIB"
    }
  ],
  "buffers" : [
    {
      "uri" : "SKL_PC_Merc_Pathfinder_GIB.bin",
      "byteLength" : 309816
    }
  ],
  "bufferViews" : [
    {
      "buffer" : 0,
      "byteOffset" : 0,
      "byteLength" : 5312
    },
    {
      "buffer" : 0,
      "byteOffset" : 5312,
      "byteLength" : 24264
    },
    {
      "buffer" : 0,
      "byteOffset" : 29576,
      "byteLength" : 42036
    },
    {
      "buffer" : 0,
      "byteOffset" : 71612,
      "byteLength" : 42036
    },
    {
      "buffer" : 0,
      "byteOffset" : 113648,
      "byteLength" : 56048
    },
    {
      "buffer" : 0,
      "byteOffset" : 169696,
      "byteLength" : 14012
    },
    {
      "buffer" : 0,
      "byteOffset" : 183708,
      "byteLength" : 28024
    },
    {
      "buffer" : 0,
      "byteOffset" : 211732,
      "byteLength" : 14012
    },
    {
      "buffer" : 0,
      "byteOffset" : 225744,
      "byteLength" : 28024
    },
    {
      "buffer" : 0,
      "byteOffset" : 253768,
      "byteLength" : 28024
    },
    {
      "buffer" : 0,
      "byteOffset" : 281792,
      "byteLength" : 28024
    }
  ],
  "accessors" : [
    {
      "bufferView" : 0,
      "componentType" : 5126,
      "count" : 83,
      "type" : "MAT4"
    },
    {
      "bufferView" : 1,
      "componentType" : 5123,
      "count" : 12132,
      "type" : "SCALAR"
    },
    {
      "bufferView" : 2,
      "min" : [ -0.399565, -1.94764e-05, -0.178154 ],
      "max" : [ 0.399565, 0.98982, 0.103356 ],
      "componentType" : 5126,
      "count" : 3503,
      "type" : "VEC3"
    },
    {
      "bufferView" : 3,
      "componentType" : 5126,
      "count" : 3503,
      "type" : "VEC3"
    },
    {
      "bufferView" : 4,
      "componentType" : 5126,
      "count" : 3503,
      "type" : "VEC4"
    },
    {
      "bufferView" : 5,
      "normalized" : true,
      "componentType" : 5121,
      "count" : 3503,
      "type" : "VEC4"
    },
    {
      "bufferView" : 6,
      "componentType" : 5123,
      "count" : 3503,
      "type" : "VEC4"
    },
    {
      "bufferView" : 7,
      "normalized" : true,
      "componentType" : 5121,
      "count" : 3503,
      "type" : "VEC4"
    },
    {
      "bufferView" : 8,
      "componentType" : 5126,
      "count" : 3503,
      "type" : "VEC2"
    },
    {
      "bufferView" : 9,
      "componentType" : 5126,
      "count" : 3503,
      "type" : "VEC2"
    },
    {
      "bufferView" : 10,
      "componentType" : 5126,
      "count" : 3503,
      "type" : "VEC2"
    }
  ]
}
