{
  "asset" : {
    "generator" : "UE Viewer (umodel) build 1575",
    "version" : "2.0"
  },
  "scene" : 0,
  "scenes" : [
    {
      "nodes" : [ 0 ]
    }
  ],
  "nodes" : [
    {
      "name" : "ASE_FX_VehiclePad_PylonLight",
      "mesh" : 0
    }
  ],
  "materials" : [
    {
      "name" : "MAT_FX_Pylons",
      "pbrMetallicRoughness" : {
        "baseColorFactor" : [ 0.3, 0.3, 0.3, 1.0 ],
        "metallicFactor" : 0.1,
        "roughnessFactor" : 0.5
      }
    }
  ],
  "meshes" : [
    {
      "primitives" : [
        {
          "attributes" : {
            "POSITION" : 1,
            "NORMAL" : 2,
            "TANGENT" : 3,
            "COLOR_0" : 4,
            "TEXCOORD_0" : 5
          },
          "indices" : 0,
          "material" : 0
        }
      ],
      "name" : "ASE_FX_VehiclePad_PylonLight"
    }
  ],
  "buffers" : [
    {
      "uri" : "ASE_FX_VehiclePad_PylonLight.bin",
      "byteLength" : 6144
    }
  ],
  "bufferViews" : [
    {
      "buffer" : 0,
      "byteOffset" : 0,
      "byteLength" : 528
    },
    {
      "buffer" : 0,
      "byteOffset" : 528,
      "byteLength" : 1296
    },
    {
      "buffer" : 0,
      "byteOffset" : 1824,
      "byteLength" : 1296
    },
    {
      "buffer" : 0,
      "byteOffset" : 3120,
      "byteLength" : 1728
    },
    {
      "buffer" : 0,
      "byteOffset" : 4848,
      "byteLength" : 432
    },
    {
      "buffer" : 0,
      "byteOffset" : 5280,
      "byteLength" : 864
    }
  ],
  "accessors" : [
    {
      "bufferView" : 0,
      "componentType" : 5123,
      "count" : 264,
      "type" : "SCALAR"
    },
    {
      "bufferView" : 1,
      "min" : [ -1.01003, 0.417863, -3.69712 ],
      "max" : [ 1.01003, 3.00999, -2.69513 ],
      "componentType" : 5126,
      "count" : 108,
      "type" : "VEC3"
    },
    {
      "bufferView" : 2,
      "componentType" : 5126,
      "count" : 108,
      "type" : "VEC3"
    },
    {
      "bufferView" : 3,
      "componentType" : 5126,
      "count" : 108,
      "type" : "VEC4"
    },
    {
      "bufferView" : 4,
      "normalized" : true,
      "componentType" : 5121,
      "count" : 108,
      "type" : "VEC4"
    },
    {
      "bufferView" : 5,
      "componentType" : 5126,
      "count" : 108,
      "type" : "VEC2"
    }
  ]
}
