{
  "asset" : {
    "generator" : "UE Viewer (umodel) build 1575",
    "version" : "2.0"
  },
  "scene" : 0,
  "scenes" : [
    {
      "nodes" : [ 0 ]
    }
  ],
  "nodes" : [
    {
      "name" : "SKL_WEP_Spinfusor_D_3p",
      "mesh" : 0,
      "skin" : 0,
      "children" : [ 1 ]
    },
    {
      "name" : "R_WEP_root",
      "translation" : [ 0, -9.53674e-09, -0 ],
      "rotation" : [ -1.49012e-08, 9.31337e-10, 2.38419e-07, -1 ]
    }
  ],
  "skins" : [
    {
      "inverseBindMatrices" : 0,
      "skeleton" : 1,
      "joints" : [
        1
      ]
    }
  ],
  "materials" : [
    {
      "name" : "MAT_Spinfusor_D_3P",
      "pbrMetallicRoughness" : {
        "baseColorFactor" : [ 0.3, 0.3, 0.3, 1.0 ],
        "metallicFactor" : 0.1,
        "roughnessFactor" : 0.5
      }
    }
  ],
  "meshes" : [
    {
      "primitives" : [
        {
          "attributes" : {
            "POSITION" : 2,
            "NORMAL" : 3,
            "TANGENT" : 4,
            "JOINTS_0" : 5,
            "WEIGHTS_0" : 6,
            "TEXCOORD_0" : 7
          },
          "indices" : 1,
          "material" : 0
        }
      ],
      "name" : "SKL_WEP_Spinfusor_D_3p"
    }
  ],
  "buffers" : [
    {
      "uri" : "SKL_WEP_Spinfusor_D_3p.bin",
      "byteLength" : 150460
    }
  ],
  "bufferViews" : [
    {
      "buffer" : 0,
      "byteOffset" : 0,
      "byteLength" : 64
    },
    {
      "buffer" : 0,
      "byteOffset" : 64,
      "byteLength" : 11976
    },
    {
      "buffer" : 0,
      "byteOffset" : 12040,
      "byteLength" : 27684
    },
    {
      "buffer" : 0,
      "byteOffset" : 39724,
      "byteLength" : 27684
    },
    {
      "buffer" : 0,
      "byteOffset" : 67408,
      "byteLength" : 36912
    },
    {
      "buffer" : 0,
      "byteOffset" : 104320,
      "byteLength" : 18456
    },
    {
      "buffer" : 0,
      "byteOffset" : 122776,
      "byteLength" : 9228
    },
    {
      "buffer" : 0,
      "byteOffset" : 132004,
      "byteLength" : 18456
    }
  ],
  "accessors" : [
    {
      "bufferView" : 0,
      "componentType" : 5126,
      "count" : 1,
      "type" : "MAT4"
    },
    {
      "bufferView" : 1,
      "componentType" : 5123,
      "count" : 5988,
      "type" : "SCALAR"
    },
    {
      "bufferView" : 2,
      "min" : [ -0.0414725, -0.0403488, -0.03539 ],
      "max" : [ 0.342776, 0.123612, 0.0362109 ],
      "componentType" : 5126,
      "count" : 2307,
      "type" : "VEC3"
    },
    {
      "bufferView" : 3,
      "componentType" : 5126,
      "count" : 2307,
      "type" : "VEC3"
    },
    {
      "bufferView" : 4,
      "componentType" : 5126,
      "count" : 2307,
      "type" : "VEC4"
    },
    {
      "bufferView" : 5,
      "componentType" : 5123,
      "count" : 2307,
      "type" : "VEC4"
    },
    {
      "bufferView" : 6,
      "normalized" : true,
      "componentType" : 5121,
      "count" : 2307,
      "type" : "VEC4"
    },
    {
      "bufferView" : 7,
      "componentType" : 5126,
      "count" : 2307,
      "type" : "VEC2"
    }
  ]
}
