{
  "asset" : {
    "generator" : "UE Viewer (umodel) build 1575",
    "version" : "2.0"
  },
  "scene" : 0,
  "scenes" : [
    {
      "nodes" : [ 0 ]
    }
  ],
  "nodes" : [
    {
      "name" : "SKL_WEP_NJ4_3p",
      "mesh" : 0,
      "skin" : 0,
      "children" : [ 1 ]
    },
    {
      "name" : "R_WEP_root",
      "translation" : [ 0, 0, -0 ],
      "rotation" : [ 7.82311e-08, 6.23986e-08, -4.47035e-08, -1 ]
    }
  ],
  "skins" : [
    {
      "inverseBindMatrices" : 0,
      "skeleton" : 1,
      "joints" : [
        1
      ]
    }
  ],
  "materials" : [
    {
      "name" : "WEP_NJ4_3p_diff512_Mat",
      "pbrMetallicRoughness" : {
        "baseColorFactor" : [ 0.3, 0.3, 0.3, 1.0 ],
        "metallicFactor" : 0.1,
        "roughnessFactor" : 0.5
      }
    }
  ],
  "meshes" : [
    {
      "primitives" : [
        {
          "attributes" : {
            "POSITION" : 2,
            "NORMAL" : 3,
            "TANGENT" : 4,
            "JOINTS_0" : 5,
            "WEIGHTS_0" : 6,
            "TEXCOORD_0" : 7
          },
          "indices" : 1,
          "material" : 0
        }
      ],
      "name" : "SKL_WEP_NJ4_3p"
    }
  ],
  "buffers" : [
    {
      "uri" : "SKL_WEP_NJ4_3p.bin",
      "byteLength" : 103504
    }
  ],
  "bufferViews" : [
    {
      "buffer" : 0,
      "byteOffset" : 0,
      "byteLength" : 64
    },
    {
      "buffer" : 0,
      "byteOffset" : 64,
      "byteLength" : 9180
    },
    {
      "buffer" : 0,
      "byteOffset" : 9244,
      "byteLength" : 18852
    },
    {
      "buffer" : 0,
      "byteOffset" : 28096,
      "byteLength" : 18852
    },
    {
      "buffer" : 0,
      "byteOffset" : 46948,
      "byteLength" : 25136
    },
    {
      "buffer" : 0,
      "byteOffset" : 72084,
      "byteLength" : 12568
    },
    {
      "buffer" : 0,
      "byteOffset" : 84652,
      "byteLength" : 6284
    },
    {
      "buffer" : 0,
      "byteOffset" : 90936,
      "byteLength" : 12568
    }
  ],
  "accessors" : [
    {
      "bufferView" : 0,
      "componentType" : 5126,
      "count" : 1,
      "type" : "MAT4"
    },
    {
      "bufferView" : 1,
      "componentType" : 5123,
      "count" : 4590,
      "type" : "SCALAR"
    },
    {
      "bufferView" : 2,
      "min" : [ -0.139158, -0.0585692, -0.0251046 ],
      "max" : [ 0.209253, 0.0877739, 0.0185165 ],
      "componentType" : 5126,
      "count" : 1571,
      "type" : "VEC3"
    },
    {
      "bufferView" : 3,
      "componentType" : 5126,
      "count" : 1571,
      "type" : "VEC3"
    },
    {
      "bufferView" : 4,
      "componentType" : 5126,
      "count" : 1571,
      "type" : "VEC4"
    },
    {
      "bufferView" : 5,
      "componentType" : 5123,
      "count" : 1571,
      "type" : "VEC4"
    },
    {
      "bufferView" : 6,
      "normalized" : true,
      "componentType" : 5121,
      "count" : 1571,
      "type" : "VEC4"
    },
    {
      "bufferView" : 7,
      "componentType" : 5126,
      "count" : 1571,
      "type" : "VEC2"
    }
  ]
}
