{
  "asset" : {
    "generator" : "UE Viewer (umodel) build 1575",
    "version" : "2.0"
  },
  "scene" : 0,
  "scenes" : [
    {
      "nodes" : [ 0 ]
    }
  ],
  "nodes" : [
    {
      "name" : "SKL_WEP_SniperRifle_3p",
      "mesh" : 0,
      "skin" : 0,
      "children" : [ 1 ]
    },
    {
      "name" : "R_WEP_root",
      "translation" : [ 0, 9.53674e-09, -3.8147e-08 ],
      "rotation" : [ 2.40281e-07, -1.39699e-09, 2.42144e-07, -1 ]
    }
  ],
  "skins" : [
    {
      "inverseBindMatrices" : 0,
      "skeleton" : 1,
      "joints" : [
        1
      ]
    }
  ],
  "materials" : [
    {
      "name" : "MAT_WEP_SNiperRifle_3p",
      "pbrMetallicRoughness" : {
        "baseColorFactor" : [ 0.3, 0.3, 0.3, 1.0 ],
        "metallicFactor" : 0.1,
        "roughnessFactor" : 0.5
      }
    }
  ],
  "meshes" : [
    {
      "primitives" : [
        {
          "attributes" : {
            "POSITION" : 2,
            "NORMAL" : 3,
            "TANGENT" : 4,
            "JOINTS_0" : 5,
            "WEIGHTS_0" : 6,
            "TEXCOORD_0" : 7,
            "TEXCOORD_1" : 8,
            "TEXCOORD_2" : 9
          },
          "indices" : 1,
          "material" : 0
        }
      ],
      "name" : "SKL_WEP_SniperRifle_3p"
    }
  ],
  "buffers" : [
    {
      "uri" : "SKL_WEP_SniperRifle_3p.bin",
      "byteLength" : 184516
    }
  ],
  "bufferViews" : [
    {
      "buffer" : 0,
      "byteOffset" : 0,
      "byteLength" : 64
    },
    {
      "buffer" : 0,
      "byteOffset" : 64,
      "byteLength" : 10716
    },
    {
      "buffer" : 0,
      "byteOffset" : 10780,
      "byteLength" : 27432
    },
    {
      "buffer" : 0,
      "byteOffset" : 38212,
      "byteLength" : 27432
    },
    {
      "buffer" : 0,
      "byteOffset" : 65644,
      "byteLength" : 36576
    },
    {
      "buffer" : 0,
      "byteOffset" : 102220,
      "byteLength" : 18288
    },
    {
      "buffer" : 0,
      "byteOffset" : 120508,
      "byteLength" : 9144
    },
    {
      "buffer" : 0,
      "byteOffset" : 129652,
      "byteLength" : 18288
    },
    {
      "buffer" : 0,
      "byteOffset" : 147940,
      "byteLength" : 18288
    },
    {
      "buffer" : 0,
      "byteOffset" : 166228,
      "byteLength" : 18288
    }
  ],
  "accessors" : [
    {
      "bufferView" : 0,
      "componentType" : 5126,
      "count" : 1,
      "type" : "MAT4"
    },
    {
      "bufferView" : 1,
      "componentType" : 5123,
      "count" : 5358,
      "type" : "SCALAR"
    },
    {
      "bufferView" : 2,
      "min" : [ -0.131061, -0.0591882, -0.0424793 ],
      "max" : [ 0.519409, 0.13156, 0.042275 ],
      "componentType" : 5126,
      "count" : 2286,
      "type" : "VEC3"
    },
    {
      "bufferView" : 3,
      "componentType" : 5126,
      "count" : 2286,
      "type" : "VEC3"
    },
    {
      "bufferView" : 4,
      "componentType" : 5126,
      "count" : 2286,
      "type" : "VEC4"
    },
    {
      "bufferView" : 5,
      "componentType" : 5123,
      "count" : 2286,
      "type" : "VEC4"
    },
    {
      "bufferView" : 6,
      "normalized" : true,
      "componentType" : 5121,
      "count" : 2286,
      "type" : "VEC4"
    },
    {
      "bufferView" : 7,
      "componentType" : 5126,
      "count" : 2286,
      "type" : "VEC2"
    },
    {
      "bufferView" : 8,
      "componentType" : 5126,
      "count" : 2286,
      "type" : "VEC2"
    },
    {
      "bufferView" : 9,
      "componentType" : 5126,
      "count" : 2286,
      "type" : "VEC2"
    }
  ]
}
