{
  "asset" : {
    "generator" : "UE Viewer (umodel) build 1575",
    "version" : "2.0"
  },
  "scene" : 0,
  "scenes" : [
    {
      "nodes" : [ 0 ]
    }
  ],
  "nodes" : [
    {
      "name" : "ASE_arx_buster_projectile",
      "mesh" : 0
    }
  ],
  "materials" : [
    {
      "name" : "MAT_Projectile",
      "pbrMetallicRoughness" : {
        "baseColorFactor" : [ 0.3, 0.3, 0.3, 1.0 ],
        "metallicFactor" : 0.1,
        "roughnessFactor" : 0.5
      }
    }
  ],
  "meshes" : [
    {
      "primitives" : [
        {
          "attributes" : {
            "POSITION" : 1,
            "NORMAL" : 2,
            "TANGENT" : 3,
            "TEXCOORD_0" : 4
          },
          "indices" : 0,
          "material" : 0
        }
      ],
      "name" : "ASE_arx_buster_projectile"
    }
  ],
  "buffers" : [
    {
      "uri" : "ASE_arx_buster_projectile.bin",
      "byteLength" : 27096
    }
  ],
  "bufferViews" : [
    {
      "buffer" : 0,
      "byteOffset" : 0,
      "byteLength" : 2568
    },
    {
      "buffer" : 0,
      "byteOffset" : 2568,
      "byteLength" : 6132
    },
    {
      "buffer" : 0,
      "byteOffset" : 8700,
      "byteLength" : 6132
    },
    {
      "buffer" : 0,
      "byteOffset" : 14832,
      "byteLength" : 8176
    },
    {
      "buffer" : 0,
      "byteOffset" : 23008,
      "byteLength" : 4088
    }
  ],
  "accessors" : [
    {
      "bufferView" : 0,
      "componentType" : 5123,
      "count" : 1284,
      "type" : "SCALAR"
    },
    {
      "bufferView" : 1,
      "min" : [ -0.011808, -0.018785, -0.011808 ],
      "max" : [ 0.011808, 0.010141, 0.011808 ],
      "componentType" : 5126,
      "count" : 511,
      "type" : "VEC3"
    },
    {
      "bufferView" : 2,
      "componentType" : 5126,
      "count" : 511,
      "type" : "VEC3"
    },
    {
      "bufferView" : 3,
      "componentType" : 5126,
      "count" : 511,
      "type" : "VEC4"
    },
    {
      "bufferView" : 4,
      "componentType" : 5126,
      "count" : 511,
      "type" : "VEC2"
    }
  ]
}
