{
  "asset" : {
    "generator" : "UE Viewer (umodel) build 1575",
    "version" : "2.0"
  },
  "scene" : 0,
  "scenes" : [
    {
      "nodes" : [ 0 ]
    }
  ],
  "nodes" : [
    {
      "name" : "SKL_Legs_BRT",
      "mesh" : 0,
      "skin" : 0,
      "children" : [ 1 ]
    },
    {
      "name" : "Root",
      "children" : [ 2, 3, 84, 85 ],
      "translation" : [ 0, 0, -0 ],
      "rotation" : [ -0, 0.707107, 0, -0.707107 ]
    },
    {
      "name" : "EffectsSocket",
      "translation" : [ 0, 0, -0 ],
      "rotation" : [ -0, -0, 0, -1 ]
    },
    {
      "name" : "Pelvis",
      "children" : [ 4, 71 ],
      "translation" : [ 0.0105236, 0.554926, -1.12545e-08 ],
      "rotation" : [ 0.520979, 0.4781, -0.478101, -0.520981 ]
    },
    {
      "name" : "Spine",
      "children" : [ 5, 70 ],
      "translation" : [ 0.0475605, 7.74587e-08, 0.00411369 ],
      "rotation" : [ 1.41155e-06, 0.0467249, -5.28082e-07, -0.998908 ]
    },
    {
      "name" : "Spine1",
      "children" : [ 6, 69 ],
      "translation" : [ 0.0934491, 3.62151e-08, 0.000119057 ],
      "rotation" : [ 5.04926e-10, 0.103063, -2.22478e-08, -0.994675 ]
    },
    {
      "name" : "Neck",
      "children" : [ 7, 9, 39 ],
      "translation" : [ 0.153711, 3.00913e-08, -0.0065639 ],
      "rotation" : [ 3.33939e-08, -0.189238, -3.57571e-08, -0.981931 ]
    },
    {
      "name" : "Neck1",
      "children" : [ 8 ],
      "translation" : [ 0.0198837, 8.87434e-08, 4.2696e-05 ],
      "rotation" : [ -3.84002e-07, -0.144209, -8.71549e-07, -0.989547 ]
    },
    {
      "name" : "Head",
      "translation" : [ 0.0559312, -8.71807e-08, -0 ],
      "rotation" : [ 4.02698e-07, 0.148096, 5.07975e-07, -0.988973 ]
    },
    {
      "name" : "L_Clavicle",
      "children" : [ 10, 37 ],
      "translation" : [ 0.0106984, 0.023931, 0.0133249 ],
      "rotation" : [ -0.549543, -0.806281, -0.200191, -0.0885273 ]
    },
    {
      "name" : "L_ShoulderDefCounter",
      "children" : [ 11 ],
      "translation" : [ 0.113163, -3.8147e-07, 2.86102e-08 ],
      "rotation" : [ 0.00821332, 0.00872586, 0.0647663, -0.997828 ]
    },
    {
      "name" : "L_UpperArm",
      "children" : [ 12, 36 ],
      "translation" : [ -2.47955e-07, 4.57764e-07, 3.8147e-08 ],
      "rotation" : [ 0.00821317, 0.00872566, 0.0647662, -0.997829 ]
    },
    {
      "name" : "L_Forearm",
      "children" : [ 13, 31, 32, 33, 34, 35 ],
      "translation" : [ 0.138595, 0, 7.62939e-08 ],
      "rotation" : [ 2.32003e-07, 0.115644, -8.26221e-09, -0.993291 ]
    },
    {
      "name" : "L_Hand",
      "children" : [ 14, 17, 19, 22, 25, 28 ],
      "translation" : [ 0.142575, 2.28882e-07, -3.8147e-08 ],
      "rotation" : [ 0.549232, -0.0587216, -0.0262981, -0.833189 ]
    },
    {
      "name" : "L_Finger0",
      "children" : [ 15 ],
      "translation" : [ 0.00793993, -0.0131512, -0.00200035 ],
      "rotation" : [ -0.583494, 0.107262, 0.298582, -0.747582 ]
    },
    {
      "name" : "L_Finger01",
      "children" : [ 16 ],
      "translation" : [ 0.0464071, 1.52588e-07, -3.8147e-08 ],
      "rotation" : [ -2.16952e-07, -0.0533461, -1.40962e-07, -0.998576 ]
    },
    {
      "name" : "L_Finger02",
      "translation" : [ 0.0244311, 0, -3.8147e-08 ],
      "rotation" : [ 1.76326e-08, -0.116402, 1.123e-07, -0.993202 ]
    },
    {
      "name" : "Prop2",
      "children" : [ 18 ],
      "translation" : [ 0.0448206, -0.00324349, -0.020506 ],
      "rotation" : [ -0.983909, -0.017827, -0.175658, -0.0273792 ]
    },
    {
      "name" : "R_grip",
      "translation" : [ -0.736665, 0.034118, 0.139001 ],
      "rotation" : [ -0.0744937, -0.910657, -0.0312989, 0.405186 ]
    },
    {
      "name" : "L_Finger3",
      "children" : [ 20 ],
      "translation" : [ 0.0885183, 0.0088842, -0.00563225 ],
      "rotation" : [ 0.116824, -0.333021, -0.101906, -0.930088 ]
    },
    {
      "name" : "L_Finger31",
      "children" : [ 21 ],
      "translation" : [ 0.0229039, 9.29832e-08, -0 ],
      "rotation" : [ -3.60835e-08, -0.315819, 8.38522e-09, -0.94882 ]
    },
    {
      "name" : "L_Finger32",
      "translation" : [ 0.0164775, -4.76837e-08, -1.14441e-07 ],
      "rotation" : [ -1.00456e-07, -0.12759, 5.5366e-08, -0.991827 ]
    },
    {
      "name" : "L_Finger4",
      "children" : [ 23 ],
      "translation" : [ 0.079853, 0.0241086, -0.0109263 ],
      "rotation" : [ 0.153769, -0.355727, -0.170767, -0.905898 ]
    },
    {
      "name" : "L_Finger41",
      "children" : [ 24 ],
      "translation" : [ 0.0176046, -9.53674e-09, 1.52588e-07 ],
      "rotation" : [ 8.50412e-08, -0.282414, 7.13728e-08, -0.959293 ]
    },
    {
      "name" : "L_Finger42",
      "translation" : [ 0.012483, -1.14441e-07, -5.72205e-08 ],
      "rotation" : [ -2.17589e-07, -0.158264, 7.79821e-08, -0.987397 ]
    },
    {
      "name" : "L_Finger1",
      "children" : [ 26 ],
      "translation" : [ 0.0863528, -0.0226497, 0.00178429 ],
      "rotation" : [ 0.0529465, -0.173759, 0.144617, -0.972672 ]
    },
    {
      "name" : "L_Finger11",
      "children" : [ 27 ],
      "translation" : [ 0.0229085, -7.62939e-08, 7.62939e-08 ],
      "rotation" : [ 2.23278e-08, -0.203625, -1.13254e-07, -0.979049 ]
    },
    {
      "name" : "L_Finger12",
      "translation" : [ 0.0164911, -1.14441e-07, 3.8147e-08 ],
      "rotation" : [ -1.18739e-08, -0.13333, 5.45423e-08, -0.991072 ]
    },
    {
      "name" : "L_Finger2",
      "children" : [ 29 ],
      "translation" : [ 0.0924085, -0.00652759, -0.00391251 ],
      "rotation" : [ 0.0710234, -0.279173, 0.0380859, -0.956853 ]
    },
    {
      "name" : "L_Finger21",
      "children" : [ 30 ],
      "translation" : [ 0.0213535, -9.05991e-08, 1.52588e-07 ],
      "rotation" : [ 3.02387e-07, -0.304968, -1.25033e-07, -0.952363 ]
    },
    {
      "name" : "L_Finger22",
      "translation" : [ 0.0172913, 2.86102e-08, -0 ],
      "rotation" : [ -1.88369e-07, -0.241269, -1.24094e-07, -0.970458 ]
    },
    {
      "name" : "L_ForearmTwist01",
      "translation" : [ 0.0136728, 7.62939e-08, -1.90735e-08 ],
      "rotation" : [ -0.0408834, -1.08619e-08, -3.76787e-08, -0.999164 ]
    },
    {
      "name" : "L_ForearmTwist02",
      "translation" : [ 0.0394861, 1.52588e-07, -0 ],
      "rotation" : [ -0.0816985, -6.39015e-10, -3.04636e-08, -0.996657 ]
    },
    {
      "name" : "L_ForearmTwist03",
      "translation" : [ 0.0649217, 7.62939e-08, -1.90735e-08 ],
      "rotation" : [ -0.122377, 1.82356e-09, -3.04901e-08, -0.992484 ]
    },
    {
      "name" : "L_ForearmTwist04",
      "translation" : [ 0.0900586, 7.62939e-08, -1.90735e-08 ],
      "rotation" : [ -0.162851, -3.71112e-09, 7.35112e-09, -0.986651 ]
    },
    {
      "name" : "L_ForearmTwist05",
      "translation" : [ 0.115444, 7.62939e-08, -3.8147e-08 ],
      "rotation" : [ -0.20105, 1.85728e-08, 5.42603e-09, -0.979581 ]
    },
    {
      "name" : "L_Elbow",
      "translation" : [ 0.138595, 0, 7.62939e-08 ],
      "rotation" : [ 1.562e-07, 0.0579192, -8.63064e-10, -0.998321 ]
    },
    {
      "name" : "L_shoulderPad_pt",
      "children" : [ 38 ],
      "translation" : [ 0.064153, 0.0790221, 0.031445 ],
      "rotation" : [ -0.760196, -0.0980044, -0.242329, -0.594789 ]
    },
    {
      "name" : "L_shoulderPad",
      "translation" : [ 0, 0, -7.62939e-08 ],
      "rotation" : [ -0, -0, 5.32907e-15, -1 ]
    },
    {
      "name" : "R_Clavicle",
      "children" : [ 40, 67 ],
      "translation" : [ 0.0106985, -0.023931, 0.0133249 ],
      "rotation" : [ 0.549543, -0.806281, 0.200189, -0.088529 ]
    },
    {
      "name" : "R_ShoulderDefCounter",
      "children" : [ 41 ],
      "translation" : [ 0.113164, 7.62939e-08, -8.58307e-08 ],
      "rotation" : [ -0.00821324, 0.00872573, -0.0647663, -0.997828 ]
    },
    {
      "name" : "R_UpperArm",
      "children" : [ 42, 66 ],
      "translation" : [ -5.72205e-07, -7.62939e-08, 1.14441e-07 ],
      "rotation" : [ -0.00821323, 0.00872589, -0.0647663, -0.997828 ]
    },
    {
      "name" : "R_Forearm",
      "children" : [ 43, 61, 62, 63, 64, 65 ],
      "translation" : [ 0.138595, 0, -0 ],
      "rotation" : [ -2.22018e-08, 0.115644, 7.65908e-08, -0.993291 ]
    },
    {
      "name" : "R_Hand",
      "children" : [ 44, 47, 49, 52, 55, 58 ],
      "translation" : [ 0.142576, 0, -3.8147e-08 ],
      "rotation" : [ -0.549232, -0.0587215, 0.0262982, -0.833189 ]
    },
    {
      "name" : "R_Finger0",
      "children" : [ 45 ],
      "translation" : [ 0.0078413, 0.0132162, -0.00196098 ],
      "rotation" : [ 0.583494, 0.107261, -0.298582, -0.747582 ]
    },
    {
      "name" : "R_Finger01",
      "children" : [ 46 ],
      "translation" : [ 0.0464676, 0, 7.62939e-08 ],
      "rotation" : [ -5.24773e-08, -0.053346, 3.60075e-08, -0.998576 ]
    },
    {
      "name" : "R_Finger02",
      "translation" : [ 0.0244555, 7.62939e-08, -1.90735e-08 ],
      "rotation" : [ 3.69997e-09, -0.116402, -4.30987e-08, -0.993202 ]
    },
    {
      "name" : "Prop1",
      "children" : [ 48 ],
      "translation" : [ 0.0448208, 0.00328015, -0.0205075 ],
      "rotation" : [ -0.02738, 0.175658, 0.0178279, -0.983909 ]
    },
    {
      "name" : "L_grip",
      "translation" : [ -0.736664, 0.0340796, -0.138997 ],
      "rotation" : [ -0.405186, 0.031299, 0.910657, 0.0744925 ]
    },
    {
      "name" : "R_Finger3",
      "children" : [ 50 ],
      "translation" : [ 0.0885177, -0.00888426, -0.00563217 ],
      "rotation" : [ -0.116824, -0.333021, 0.101906, -0.930089 ]
    },
    {
      "name" : "R_Finger31",
      "children" : [ 51 ],
      "translation" : [ 0.02295, -4.76837e-09, -1.52588e-07 ],
      "rotation" : [ -7.32149e-10, -0.315819, 4.40282e-08, -0.948819 ]
    },
    {
      "name" : "R_Finger32",
      "translation" : [ 0.0164986, 2.38419e-09, -0 ],
      "rotation" : [ -1.8824e-08, -0.12759, -1.1325e-08, -0.991827 ]
    },
    {
      "name" : "R_Finger4",
      "children" : [ 53 ],
      "translation" : [ 0.0798523, -0.0241087, -0.0109261 ],
      "rotation" : [ -0.153769, -0.355728, 0.170767, -0.905898 ]
    },
    {
      "name" : "R_Finger41",
      "children" : [ 54 ],
      "translation" : [ 0.0176414, 4.29153e-08, -1.90735e-07 ],
      "rotation" : [ 2.24631e-07, -0.282414, -1.09739e-07, -0.959293 ]
    },
    {
      "name" : "R_Finger42",
      "translation" : [ 0.0124992, -5.24521e-08, 1.90735e-08 ],
      "rotation" : [ -2.0798e-07, -0.158264, 1.14842e-07, -0.987397 ]
    },
    {
      "name" : "R_Finger1",
      "children" : [ 56 ],
      "translation" : [ 0.0863521, 0.0226496, 0.00178436 ],
      "rotation" : [ -0.0529465, -0.173759, -0.144616, -0.972672 ]
    },
    {
      "name" : "R_Finger11",
      "children" : [ 57 ],
      "translation" : [ 0.0229, -7.62939e-08, -0 ],
      "rotation" : [ -1.36848e-08, -0.203625, -2.56763e-08, -0.979049 ]
    },
    {
      "name" : "R_Finger12",
      "translation" : [ 0.0165334, 8.58307e-08, -7.62939e-08 ],
      "rotation" : [ -4.71945e-08, -0.13333, -2.08275e-07, -0.991072 ]
    },
    {
      "name" : "R_Finger2",
      "children" : [ 59 ],
      "translation" : [ 0.0924079, 0.00652756, -0.00391258 ],
      "rotation" : [ -0.0710235, -0.279173, -0.0380858, -0.956853 ]
    },
    {
      "name" : "R_Finger21",
      "children" : [ 60 ],
      "translation" : [ 0.0213786, -4.29153e-08, -7.62939e-08 ],
      "rotation" : [ -1.58954e-08, -0.304968, 1.35527e-09, -0.952363 ]
    },
    {
      "name" : "R_Finger22",
      "translation" : [ 0.0173213, -2.38419e-08, -3.8147e-08 ],
      "rotation" : [ -1.35597e-08, -0.241269, 6.42578e-08, -0.970458 ]
    },
    {
      "name" : "R_ForearmTwist01",
      "translation" : [ 0.00808311, -7.62939e-08, 0.000276699 ],
      "rotation" : [ 0.0408833, -0.00102735, -4.20492e-05, -0.999163 ]
    },
    {
      "name" : "R_ForearmTwist02",
      "translation" : [ 0.0330831, -7.62939e-08, 0.000225296 ],
      "rotation" : [ 0.0816983, -0.00102478, -8.39735e-05, -0.996657 ]
    },
    {
      "name" : "R_ForearmTwist03",
      "translation" : [ 0.058083, 0, 0.000173836 ],
      "rotation" : [ 0.122377, -0.00102052, -0.000125705, -0.992483 ]
    },
    {
      "name" : "R_ForearmTwist04",
      "translation" : [ 0.0833626, 0, 0.000121841 ],
      "rotation" : [ 0.16285, -0.00101452, -0.000167294, -0.98665 ]
    },
    {
      "name" : "R_ForearmTwist05",
      "translation" : [ 0.108623, -7.62939e-08, 6.99234e-05 ],
      "rotation" : [ 0.201049, -0.00100722, -0.000206629, -0.979581 ]
    },
    {
      "name" : "R_Elbow",
      "translation" : [ 0.138595, 0, -0 ],
      "rotation" : [ 2.85598e-09, 0.057919, 6.01519e-08, -0.998321 ]
    },
    {
      "name" : "R_shoulderPad_pt",
      "children" : [ 68 ],
      "translation" : [ 0.0641563, -0.0790238, 0.0314459 ],
      "rotation" : [ -0.242328, -0.594789, 0.760196, 0.0980056 ]
    },
    {
      "name" : "R_shoulderPad",
      "translation" : [ 0, 0, -7.62939e-08 ],
      "rotation" : [ -0, -0, -3.55271e-15, -1 ]
    },
    {
      "name" : "WEP_1_Switch",
      "translation" : [ 0.328234, 5.24202e-09, 0.0626008 ],
      "rotation" : [ -0.118119, -0.118897, -0.69342, -0.700771 ]
    },
    {
      "name" : "WEP_2_Switch",
      "translation" : [ -0.00181683, 0.143713, 0.0631543 ],
      "rotation" : [ -0.831087, 0.443159, -0.147342, -0.301986 ]
    },
    {
      "name" : "PelvisWeighted",
      "children" : [ 72, 78 ],
      "translation" : [ -3.8147e-08, -1.45519e-13, -4.76837e-09 ],
      "rotation" : [ -4.72825e-07, 2.40281e-07, -3.51944e-08, -1 ]
    },
    {
      "name" : "L_Thigh",
      "children" : [ 73 ],
      "translation" : [ -7.62939e-08, 0.0874503, -1.21593e-07 ],
      "rotation" : [ 0.00237606, -0.0553715, 0.998441, 0.0066062 ]
    },
    {
      "name" : "L_Calf",
      "children" : [ 74, 76 ],
      "translation" : [ 0.278558, -1.90735e-08, -8.58307e-08 ],
      "rotation" : [ -9.43225e-09, 0.0965132, 8.14586e-08, -0.995332 ]
    },
    {
      "name" : "L_Foot",
      "children" : [ 75 ],
      "translation" : [ 0.182369, 4.76837e-08, 1.90735e-08 ],
      "rotation" : [ 0.0548229, -0.142717, -0.0176311, -0.988087 ]
    },
    {
      "name" : "L_Toe0",
      "translation" : [ 0.101231, 0.00208186, -0.0819866 ],
      "rotation" : [ -4.87381e-09, -0.707107, 1.54588e-08, -0.707107 ]
    },
    {
      "name" : "L_Kneepad_pt",
      "children" : [ 77 ],
      "translation" : [ -1.90735e-08, -1.52588e-07, 2.86102e-08 ],
      "rotation" : [ 4.76255e-07, -2.23517e-08, -3.95812e-08, -1 ]
    },
    {
      "name" : "L_KneePad",
      "translation" : [ 0, 1.52588e-07, 1.90735e-08 ],
      "rotation" : [ -5.59782e-07, 0.0193315, -8.6228e-08, -0.999813 ]
    },
    {
      "name" : "R_Thigh",
      "children" : [ 79 ],
      "translation" : [ 1.90735e-07, -0.0874503, 7.86781e-08 ],
      "rotation" : [ 0.00237597, 0.0553726, 0.998441, -0.0066077 ]
    },
    {
      "name" : "R_Calf",
      "children" : [ 80, 82 ],
      "translation" : [ 0.278558, 9.53674e-09, -6.67572e-08 ],
      "rotation" : [ -9.11227e-10, 0.0965132, 1.63597e-08, -0.995332 ]
    },
    {
      "name" : "R_Foot",
      "children" : [ 81 ],
      "translation" : [ 0.182369, 1.04904e-07, -9.53674e-09 ],
      "rotation" : [ -0.0548229, -0.142717, 0.0176312, -0.988087 ]
    },
    {
      "name" : "R_Toe0",
      "translation" : [ 0.101231, -0.00208158, -0.0819866 ],
      "rotation" : [ 2.17818e-08, -0.707107, 9.84569e-09, -0.707107 ]
    },
    {
      "name" : "R_Kneepad_pt",
      "children" : [ 83 ],
      "translation" : [ 0, 4.76837e-08, 1.90735e-08 ],
      "rotation" : [ -1.42027e-08, 1.49012e-08, 1.86265e-09, -1 ]
    },
    {
      "name" : "R_KneePad",
      "translation" : [ -1.90735e-08, 3.8147e-08, 9.53674e-09 ],
      "rotation" : [ -2.52326e-07, 0.0193315, 1.9703e-07, -0.999813 ]
    },
    {
      "name" : "ikGunLeftHand",
      "translation" : [ -0.0204767, 0.668473, -0.362017 ],
      "rotation" : [ -0.635596, 0.611583, 0.295018, 0.367353 ]
    },
    {
      "name" : "ikGunRightHand",
      "translation" : [ -0.0204755, 0.668473, 0.362018 ],
      "rotation" : [ 0.367353, 0.295017, 0.611582, -0.635597 ]
    }
  ],
  "skins" : [
    {
      "inverseBindMatrices" : 0,
      "skeleton" : 1,
      "joints" : [
        1,2,3,4,5,6,7,8,9,10,11,12,13,14,15,16,17,18,19,20,21,22,23,24,25,26,27,28,29,30,31,32,
        33,34,35,36,37,38,39,40,41,42,43,44,45,46,47,48,49,50,51,52,53,54,55,56,57,58,59,60,61,62,63,64,
        65,66,67,68,69,70,71,72,73,74,75,76,77,78,79,80,81,82,83,84,85
      ]
    }
  ],
  "materials" : [
    {
      "name" : "MIC_BloodEagle_Heavy_BRT",
      "pbrMetallicRoughness" : {
        "baseColorFactor" : [ 0.3, 0.3, 0.3, 1.0 ],
        "metallicFactor" : 0.1,
        "roughnessFactor" : 0.5
      }
    }
  ],
  "meshes" : [
    {
      "primitives" : [
        {
          "attributes" : {
            "POSITION" : 2,
            "NORMAL" : 3,
            "TANGENT" : 4,
            "JOINTS_0" : 5,
            "WEIGHTS_0" : 6,
            "TEXCOORD_0" : 7
          },
          "indices" : 1,
          "material" : 0
        }
      ],
      "name" : "SKL_Legs_BRT"
    }
  ],
  "buffers" : [
    {
      "uri" : "SKL_Legs_BRT.bin",
      "byteLength" : 381880
    }
  ],
  "bufferViews" : [
    {
      "buffer" : 0,
      "byteOffset" : 0,
      "byteLength" : 5440
    },
    {
      "buffer" : 0,
      "byteOffset" : 5440,
      "byteLength" : 46860
    },
    {
      "buffer" : 0,
      "byteOffset" : 52300,
      "byteLength" : 65916
    },
    {
      "buffer" : 0,
      "byteOffset" : 118216,
      "byteLength" : 65916
    },
    {
      "buffer" : 0,
      "byteOffset" : 184132,
      "byteLength" : 87888
    },
    {
      "buffer" : 0,
      "byteOffset" : 272020,
      "byteLength" : 43944
    },
    {
      "buffer" : 0,
      "byteOffset" : 315964,
      "byteLength" : 21972
    },
    {
      "buffer" : 0,
      "byteOffset" : 337936,
      "byteLength" : 43944
    }
  ],
  "accessors" : [
    {
      "bufferView" : 0,
      "componentType" : 5126,
      "count" : 85,
      "type" : "MAT4"
    },
    {
      "bufferView" : 1,
      "componentType" : 5123,
      "count" : 23430,
      "type" : "SCALAR"
    },
    {
      "bufferView" : 2,
      "min" : [ -0.18753, -0.00778097, -0.349912 ],
      "max" : [ 0.237739, 0.859077, 0.161681 ],
      "componentType" : 5126,
      "count" : 5493,
      "type" : "VEC3"
    },
    {
      "bufferView" : 3,
      "componentType" : 5126,
      "count" : 5493,
      "type" : "VEC3"
    },
    {
      "bufferView" : 4,
      "componentType" : 5126,
      "count" : 5493,
      "type" : "VEC4"
    },
    {
      "bufferView" : 5,
      "componentType" : 5123,
      "count" : 5493,
      "type" : "VEC4"
    },
    {
      "bufferView" : 6,
      "normalized" : true,
      "componentType" : 5121,
      "count" : 5493,
      "type" : "VEC4"
    },
    {
      "bufferView" : 7,
      "componentType" : 5126,
      "count" : 5493,
      "type" : "VEC2"
    }
  ]
}
