{
  "asset" : {
    "generator" : "UE Viewer (umodel) build 1575",
    "version" : "2.0"
  },
  "scene" : 0,
  "scenes" : [
    {
      "nodes" : [ 0 ]
    }
  ],
  "nodes" : [
    {
      "name" : "SKL_PC_BE_Heavy_DMB_Lod1",
      "mesh" : 0,
      "skin" : 0,
      "children" : [ 1 ]
    },
    {
      "name" : "Root",
      "children" : [ 2, 3, 84, 85 ],
      "translation" : [ 0, 0, -0 ],
      "rotation" : [ -0, 0.707107, 0, -0.707107 ]
    },
    {
      "name" : "EffectsSocket",
      "translation" : [ 0, 0, -0 ],
      "rotation" : [ -0, -0, 0, -1 ]
    },
    {
      "name" : "Pelvis",
      "children" : [ 4, 71 ],
      "translation" : [ 0.0105236, 0.554926, -1.12545e-08 ],
      "rotation" : [ 0.520979, 0.4781, -0.478101, -0.520981 ]
    },
    {
      "name" : "Spine",
      "children" : [ 5, 70 ],
      "translation" : [ 0.0475605, 7.74587e-08, 0.00411369 ],
      "rotation" : [ 1.41155e-06, 0.0467249, -5.28082e-07, -0.998908 ]
    },
    {
      "name" : "Spine1",
      "children" : [ 6, 69 ],
      "translation" : [ 0.0934491, 3.62151e-08, 0.000119059 ],
      "rotation" : [ 5.04926e-10, 0.103063, -2.22478e-08, -0.994675 ]
    },
    {
      "name" : "Neck",
      "children" : [ 7, 9, 39 ],
      "translation" : [ 0.153711, 3.92534e-08, -0.0065639 ],
      "rotation" : [ 2.55374e-08, -0.189238, -7.98736e-08, -0.981931 ]
    },
    {
      "name" : "Neck1",
      "children" : [ 8 ],
      "translation" : [ 0.0198837, 8.69635e-08, 4.26769e-05 ],
      "rotation" : [ -3.91091e-07, -0.144209, -8.27303e-07, -0.989547 ]
    },
    {
      "name" : "Head",
      "translation" : [ 0.0559312, -8.47846e-08, -0 ],
      "rotation" : [ 4.02698e-07, 0.148096, 5.07975e-07, -0.988973 ]
    },
    {
      "name" : "L_Clavicle",
      "children" : [ 10, 37 ],
      "translation" : [ 0.0106984, 0.023931, 0.0133249 ],
      "rotation" : [ -0.549543, -0.806281, -0.200191, -0.0885273 ]
    },
    {
      "name" : "L_ShoulderDefCounter",
      "children" : [ 11 ],
      "translation" : [ 0.113163, -3.8147e-07, 4.76837e-08 ],
      "rotation" : [ 0.00821327, 0.00872581, 0.0647663, -0.997829 ]
    },
    {
      "name" : "L_UpperArm",
      "children" : [ 12, 36 ],
      "translation" : [ -2.47955e-07, 4.57764e-07, -1.90735e-08 ],
      "rotation" : [ 0.00821339, 0.00872587, 0.0647662, -0.997829 ]
    },
    {
      "name" : "L_Forearm",
      "children" : [ 13, 31, 32, 33, 34, 35 ],
      "translation" : [ 0.138595, 0, -0 ],
      "rotation" : [ -9.37767e-09, 0.115644, 1.60936e-08, -0.993291 ]
    },
    {
      "name" : "L_Hand",
      "children" : [ 14, 17, 19, 22, 25, 28 ],
      "translation" : [ 0.142575, 1.52588e-07, -1.90735e-08 ],
      "rotation" : [ 0.549232, -0.0587216, -0.0262981, -0.833189 ]
    },
    {
      "name" : "L_Finger0",
      "children" : [ 15 ],
      "translation" : [ 0.00793982, -0.0131512, -0.0020005 ],
      "rotation" : [ -0.583494, 0.107262, 0.298582, -0.747582 ]
    },
    {
      "name" : "L_Finger01",
      "children" : [ 16 ],
      "translation" : [ 0.046407, 7.62939e-08, -5.72205e-08 ],
      "rotation" : [ 7.43997e-09, -0.0533461, 1.21027e-07, -0.998576 ]
    },
    {
      "name" : "L_Finger02",
      "translation" : [ 0.0244311, 7.62939e-08, -1.90735e-08 ],
      "rotation" : [ -1.65344e-08, -0.116402, -1.47999e-08, -0.993202 ]
    },
    {
      "name" : "Prop2",
      "children" : [ 18 ],
      "translation" : [ 0.0448206, -0.0032435, -0.0205059 ],
      "rotation" : [ -0.983909, -0.017827, -0.175658, -0.0273792 ]
    },
    {
      "name" : "R_grip",
      "translation" : [ -0.736665, 0.034118, 0.139001 ],
      "rotation" : [ -0.0744938, -0.910657, -0.031299, 0.405186 ]
    },
    {
      "name" : "L_Finger3",
      "children" : [ 20 ],
      "translation" : [ 0.0885182, 0.00888418, -0.0056324 ],
      "rotation" : [ 0.116824, -0.333021, -0.101906, -0.930089 ]
    },
    {
      "name" : "L_Finger31",
      "children" : [ 21 ],
      "translation" : [ 0.0229038, 1.04904e-07, -0 ],
      "rotation" : [ 8.66009e-08, -0.315819, 1.76272e-07, -0.94882 ]
    },
    {
      "name" : "L_Finger32",
      "translation" : [ 0.0164777, -4.29153e-08, -7.62939e-08 ],
      "rotation" : [ 4.90307e-08, -0.12759, -2.9464e-08, -0.991827 ]
    },
    {
      "name" : "L_Finger4",
      "children" : [ 23 ],
      "translation" : [ 0.0798528, 0.0241086, -0.0109263 ],
      "rotation" : [ 0.153769, -0.355727, -0.170767, -0.905898 ]
    },
    {
      "name" : "L_Finger41",
      "children" : [ 24 ],
      "translation" : [ 0.0176048, -9.53674e-09, 3.8147e-08 ],
      "rotation" : [ 2.57407e-07, -0.282414, -1.11023e-07, -0.959293 ]
    },
    {
      "name" : "L_Finger42",
      "translation" : [ 0.012483, -1.04904e-07, -1.33514e-07 ],
      "rotation" : [ -2.5626e-07, -0.158264, 9.98917e-08, -0.987397 ]
    },
    {
      "name" : "L_Finger1",
      "children" : [ 26 ],
      "translation" : [ 0.0863527, -0.0226497, 0.00178429 ],
      "rotation" : [ 0.0529464, -0.173759, 0.144616, -0.972672 ]
    },
    {
      "name" : "L_Finger11",
      "children" : [ 27 ],
      "translation" : [ 0.0229085, 9.53674e-09, -0 ],
      "rotation" : [ 8.73805e-08, -0.203625, 7.9816e-08, -0.979049 ]
    },
    {
      "name" : "L_Finger12",
      "translation" : [ 0.0164911, -1.52588e-07, -0 ],
      "rotation" : [ 4.45195e-08, -0.13333, 1.03311e-08, -0.991072 ]
    },
    {
      "name" : "L_Finger2",
      "children" : [ 29 ],
      "translation" : [ 0.0924084, -0.00652759, -0.00391266 ],
      "rotation" : [ 0.0710236, -0.279172, 0.0380858, -0.956853 ]
    },
    {
      "name" : "L_Finger21",
      "children" : [ 30 ],
      "translation" : [ 0.0213535, -9.53674e-08, 1.52588e-07 ],
      "rotation" : [ -7.74845e-09, -0.304968, -3.28548e-08, -0.952363 ]
    },
    {
      "name" : "L_Finger22",
      "translation" : [ 0.0172912, 3.8147e-08, -3.8147e-08 ],
      "rotation" : [ -1.01224e-07, -0.241269, -1.68855e-07, -0.970458 ]
    },
    {
      "name" : "L_ForearmTwist01",
      "translation" : [ 0.0136728, 0, -0 ],
      "rotation" : [ -0.0408835, 4.02678e-09, 7.59665e-09, -0.999164 ]
    },
    {
      "name" : "L_ForearmTwist02",
      "translation" : [ 0.0394861, 7.62939e-08, 1.90735e-08 ],
      "rotation" : [ -0.0816986, -3.74315e-09, -3.69762e-08, -0.996657 ]
    },
    {
      "name" : "L_ForearmTwist03",
      "translation" : [ 0.0649217, 0, 1.90735e-08 ],
      "rotation" : [ -0.122377, 3.32756e-08, -6.05243e-08, -0.992484 ]
    },
    {
      "name" : "L_ForearmTwist04",
      "translation" : [ 0.0900586, 7.62939e-08, 1.90735e-08 ],
      "rotation" : [ -0.162851, 2.29722e-08, -9.04884e-08, -0.986651 ]
    },
    {
      "name" : "L_ForearmTwist05",
      "translation" : [ 0.115444, 0, -0 ],
      "rotation" : [ -0.20105, 4.28107e-08, -5.22126e-08, -0.979581 ]
    },
    {
      "name" : "L_Elbow",
      "translation" : [ 0.138595, 0, -0 ],
      "rotation" : [ 1.98898e-08, 0.057919, 3.78377e-08, -0.998321 ]
    },
    {
      "name" : "L_shoulderPad_pt",
      "children" : [ 38 ],
      "translation" : [ 0.0641531, 0.0790221, 0.0314451 ],
      "rotation" : [ -0.760196, -0.0980044, -0.242329, -0.594789 ]
    },
    {
      "name" : "L_shoulderPad",
      "translation" : [ 0, 0, -7.62939e-08 ],
      "rotation" : [ 1.42109e-14, -0, 1.77636e-15, -1 ]
    },
    {
      "name" : "R_Clavicle",
      "children" : [ 40, 67 ],
      "translation" : [ 0.0106985, -0.023931, 0.0133248 ],
      "rotation" : [ 0.549543, -0.806281, 0.200189, -0.0885289 ]
    },
    {
      "name" : "R_ShoulderDefCounter",
      "children" : [ 41 ],
      "translation" : [ 0.113164, 7.62939e-08, -8.58307e-08 ],
      "rotation" : [ -0.00821336, 0.00872578, -0.0647662, -0.997829 ]
    },
    {
      "name" : "R_UpperArm",
      "children" : [ 42, 66 ],
      "translation" : [ -5.72205e-07, -1.52588e-07, 9.53674e-08 ],
      "rotation" : [ -0.00821325, 0.00872591, -0.0647663, -0.997829 ]
    },
    {
      "name" : "R_Forearm",
      "children" : [ 43, 61, 62, 63, 64, 65 ],
      "translation" : [ 0.138595, 1.52588e-07, -0 ],
      "rotation" : [ -5.18042e-08, 0.115644, 8.96687e-08, -0.993291 ]
    },
    {
      "name" : "R_Hand",
      "children" : [ 44, 47, 49, 52, 55, 58 ],
      "translation" : [ 0.142576, 1.52588e-07, -5.72205e-08 ],
      "rotation" : [ -0.549232, -0.0587217, 0.026298, -0.833189 ]
    },
    {
      "name" : "R_Finger0",
      "children" : [ 45 ],
      "translation" : [ 0.00784122, 0.0132161, -0.00196083 ],
      "rotation" : [ 0.583494, 0.107262, -0.298582, -0.747582 ]
    },
    {
      "name" : "R_Finger01",
      "children" : [ 46 ],
      "translation" : [ 0.0464676, -7.62939e-08, 5.72205e-08 ],
      "rotation" : [ -7.83743e-09, -0.053346, -7.04251e-09, -0.998576 ]
    },
    {
      "name" : "R_Finger02",
      "translation" : [ 0.0244555, 1.52588e-07, 1.90735e-08 ],
      "rotation" : [ -2.60179e-09, -0.116402, 5.66541e-09, -0.993202 ]
    },
    {
      "name" : "Prop1",
      "children" : [ 48 ],
      "translation" : [ 0.0448208, 0.00328011, -0.0205074 ],
      "rotation" : [ -0.0273802, 0.175658, 0.017828, -0.983909 ]
    },
    {
      "name" : "L_grip",
      "translation" : [ -0.736663, 0.0340795, -0.138997 ],
      "rotation" : [ -0.405186, 0.031299, 0.910657, 0.0744924 ]
    },
    {
      "name" : "R_Finger3",
      "children" : [ 50 ],
      "translation" : [ 0.0885176, -0.00888435, -0.00563202 ],
      "rotation" : [ -0.116824, -0.333021, 0.101906, -0.930089 ]
    },
    {
      "name" : "R_Finger31",
      "children" : [ 51 ],
      "translation" : [ 0.0229499, -2.38419e-09, -7.62939e-08 ],
      "rotation" : [ -7.98927e-08, -0.315819, 7.45758e-08, -0.94882 ]
    },
    {
      "name" : "R_Finger32",
      "translation" : [ 0.0164986, 1.19209e-08, -7.62939e-08 ],
      "rotation" : [ 4.65689e-08, -0.12759, 2.077e-08, -0.991827 ]
    },
    {
      "name" : "R_Finger4",
      "children" : [ 53 ],
      "translation" : [ 0.0798523, -0.0241088, -0.0109259 ],
      "rotation" : [ -0.153769, -0.355727, 0.170767, -0.905898 ]
    },
    {
      "name" : "R_Finger41",
      "children" : [ 54 ],
      "translation" : [ 0.0176414, 1.90735e-08, -1.52588e-07 ],
      "rotation" : [ 1.24369e-08, -0.282414, 2.89379e-08, -0.959293 ]
    },
    {
      "name" : "R_Finger42",
      "translation" : [ 0.0124991, -2.86102e-08, 7.62939e-08 ],
      "rotation" : [ -3.95774e-08, -0.158264, -1.93596e-08, -0.987397 ]
    },
    {
      "name" : "R_Finger1",
      "children" : [ 56 ],
      "translation" : [ 0.0863519, 0.0226494, 0.00178452 ],
      "rotation" : [ -0.0529467, -0.173759, -0.144617, -0.972672 ]
    },
    {
      "name" : "R_Finger11",
      "children" : [ 57 ],
      "translation" : [ 0.0229, -1.04904e-07, 1.52588e-07 ],
      "rotation" : [ -3.79895e-08, -0.203625, 9.51194e-08, -0.979049 ]
    },
    {
      "name" : "R_Finger12",
      "translation" : [ 0.0165334, 1.04904e-07, -7.62939e-08 ],
      "rotation" : [ 3.46128e-09, -0.13333, -1.60001e-07, -0.991072 ]
    },
    {
      "name" : "R_Finger2",
      "children" : [ 59 ],
      "translation" : [ 0.0924078, 0.00652747, -0.00391235 ],
      "rotation" : [ -0.0710237, -0.279173, -0.038086, -0.956853 ]
    },
    {
      "name" : "R_Finger21",
      "children" : [ 60 ],
      "translation" : [ 0.0213786, -4.76837e-08, -1.52588e-07 ],
      "rotation" : [ -4.43029e-08, -0.304968, 2.15941e-07, -0.952363 ]
    },
    {
      "name" : "R_Finger22",
      "translation" : [ 0.0173213, -3.33786e-08, -1.14441e-07 ],
      "rotation" : [ -9.51757e-09, -0.241269, 1.35521e-08, -0.970458 ]
    },
    {
      "name" : "R_ForearmTwist01",
      "translation" : [ 0.0080831, -7.62939e-08, 0.000276661 ],
      "rotation" : [ 0.0408835, -0.00102737, -4.2019e-05, -0.999163 ]
    },
    {
      "name" : "R_ForearmTwist02",
      "translation" : [ 0.0330831, -7.62939e-08, 0.000225258 ],
      "rotation" : [ 0.0816987, -0.0010248, -8.39654e-05, -0.996657 ]
    },
    {
      "name" : "R_ForearmTwist03",
      "translation" : [ 0.058083, -7.62939e-08, 0.000173817 ],
      "rotation" : [ 0.122377, -0.00102054, -0.000125704, -0.992483 ]
    },
    {
      "name" : "R_ForearmTwist04",
      "translation" : [ 0.0833625, 0, 0.000121784 ],
      "rotation" : [ 0.162851, -0.00101452, -0.000167272, -0.98665 ]
    },
    {
      "name" : "R_ForearmTwist05",
      "translation" : [ 0.108622, -1.52588e-07, 6.98853e-05 ],
      "rotation" : [ 0.20105, -0.00100723, -0.000206522, -0.97958 ]
    },
    {
      "name" : "R_Elbow",
      "translation" : [ 0.138595, 1.52588e-07, -0 ],
      "rotation" : [ -4.33339e-08, 0.057919, 6.69427e-08, -0.998321 ]
    },
    {
      "name" : "R_shoulderPad_pt",
      "children" : [ 68 ],
      "translation" : [ 0.0641562, -0.0790238, 0.031446 ],
      "rotation" : [ -0.242328, -0.594789, 0.760196, 0.0980057 ]
    },
    {
      "name" : "R_shoulderPad",
      "translation" : [ 0, 0, -7.62939e-08 ],
      "rotation" : [ -0, -1.3884e-28, -9.76996e-15, -1 ]
    },
    {
      "name" : "WEP_1_Switch",
      "translation" : [ 0.328234, 5.24205e-09, 0.0626008 ],
      "rotation" : [ -0.118119, -0.118897, -0.69342, -0.700771 ]
    },
    {
      "name" : "WEP_2_Switch",
      "translation" : [ -0.00181683, 0.143713, 0.0631543 ],
      "rotation" : [ -0.831087, 0.443159, -0.147342, -0.301986 ]
    },
    {
      "name" : "PelvisWeighted",
      "children" : [ 72, 78 ],
      "translation" : [ -3.8147e-08, -1.45519e-13, -4.76837e-09 ],
      "rotation" : [ -4.72825e-07, 2.40281e-07, -3.51944e-08, -1 ]
    },
    {
      "name" : "L_Thigh",
      "children" : [ 73 ],
      "translation" : [ -7.62939e-08, 0.0874503, -1.21593e-07 ],
      "rotation" : [ 0.00237606, -0.0553715, 0.998441, 0.0066062 ]
    },
    {
      "name" : "L_Calf",
      "children" : [ 74, 76 ],
      "translation" : [ 0.278558, -1.90735e-08, -8.58307e-08 ],
      "rotation" : [ -9.43225e-09, 0.0965132, 8.14586e-08, -0.995332 ]
    },
    {
      "name" : "L_Foot",
      "children" : [ 75 ],
      "translation" : [ 0.182369, 4.76837e-08, 1.90735e-08 ],
      "rotation" : [ 0.0548229, -0.142717, -0.0176311, -0.988087 ]
    },
    {
      "name" : "L_Toe0",
      "translation" : [ 0.101231, 0.00208186, -0.0819866 ],
      "rotation" : [ -4.87381e-09, -0.707107, 1.54588e-08, -0.707107 ]
    },
    {
      "name" : "L_Kneepad_pt",
      "children" : [ 77 ],
      "translation" : [ -1.90735e-08, -1.52588e-07, 2.86102e-08 ],
      "rotation" : [ 4.76255e-07, -2.23517e-08, -3.95812e-08, -1 ]
    },
    {
      "name" : "L_KneePad",
      "translation" : [ 0, 1.52588e-07, 1.90735e-08 ],
      "rotation" : [ -5.59782e-07, 0.0193315, -8.6228e-08, -0.999813 ]
    },
    {
      "name" : "R_Thigh",
      "children" : [ 79 ],
      "translation" : [ 1.90735e-07, -0.0874503, 7.86781e-08 ],
      "rotation" : [ 0.00237597, 0.0553726, 0.998441, -0.0066077 ]
    },
    {
      "name" : "R_Calf",
      "children" : [ 80, 82 ],
      "translation" : [ 0.278558, 9.53674e-09, -6.67572e-08 ],
      "rotation" : [ -9.11227e-10, 0.0965132, 1.63597e-08, -0.995332 ]
    },
    {
      "name" : "R_Foot",
      "children" : [ 81 ],
      "translation" : [ 0.182369, 1.04904e-07, -9.53674e-09 ],
      "rotation" : [ -0.0548229, -0.142717, 0.0176312, -0.988087 ]
    },
    {
      "name" : "R_Toe0",
      "translation" : [ 0.101231, -0.00208158, -0.0819866 ],
      "rotation" : [ 2.17818e-08, -0.707107, 9.84569e-09, -0.707107 ]
    },
    {
      "name" : "R_Kneepad_pt",
      "children" : [ 83 ],
      "translation" : [ 0, 4.76837e-08, 1.90735e-08 ],
      "rotation" : [ -1.42027e-08, 1.49012e-08, 1.86265e-09, -1 ]
    },
    {
      "name" : "R_KneePad",
      "translation" : [ -1.90735e-08, 3.8147e-08, 9.53674e-09 ],
      "rotation" : [ -2.52326e-07, 0.0193315, 1.9703e-07, -0.999813 ]
    },
    {
      "name" : "ikGunLeftHand",
      "translation" : [ -0.0204767, 0.668473, -0.362017 ],
      "rotation" : [ -0.635596, 0.611583, 0.295018, 0.367352 ]
    },
    {
      "name" : "ikGunRightHand",
      "translation" : [ -0.0204754, 0.668473, 0.362018 ],
      "rotation" : [ 0.367354, 0.295017, 0.611583, -0.635597 ]
    }
  ],
  "skins" : [
    {
      "inverseBindMatrices" : 0,
      "skeleton" : 1,
      "joints" : [
        1,2,3,4,5,6,7,8,9,10,11,12,13,14,15,16,17,18,19,20,21,22,23,24,25,26,27,28,29,30,31,32,
        33,34,35,36,37,38,39,40,41,42,43,44,45,46,47,48,49,50,51,52,53,54,55,56,57,58,59,60,61,62,63,64,
        65,66,67,68,69,70,71,72,73,74,75,76,77,78,79,80,81,82,83,84,85
      ]
    }
  ],
  "materials" : [
    {
      "name" : "MIC_BloodEagle_Heavy_DMB",
      "pbrMetallicRoughness" : {
        "baseColorFactor" : [ 0.3, 0.3, 0.3, 1.0 ],
        "metallicFactor" : 0.1,
        "roughnessFactor" : 0.5
      }
    }
  ],
  "meshes" : [
    {
      "primitives" : [
        {
          "attributes" : {
            "POSITION" : 2,
            "NORMAL" : 3,
            "TANGENT" : 4,
            "COLOR_0" : 5,
            "JOINTS_0" : 6,
            "WEIGHTS_0" : 7,
            "TEXCOORD_0" : 8
          },
          "indices" : 1,
          "material" : 0
        }
      ],
      "name" : "SKL_PC_BE_Heavy_DMB_Lod1"
    }
  ],
  "buffers" : [
    {
      "uri" : "SKL_PC_BE_Heavy_DMB_Lod1.bin",
      "byteLength" : 541588
    }
  ],
  "bufferViews" : [
    {
      "buffer" : 0,
      "byteOffset" : 0,
      "byteLength" : 5440
    },
    {
      "buffer" : 0,
      "byteOffset" : 5440,
      "byteLength" : 53972
    },
    {
      "buffer" : 0,
      "byteOffset" : 59412,
      "byteLength" : 90408
    },
    {
      "buffer" : 0,
      "byteOffset" : 149820,
      "byteLength" : 90408
    },
    {
      "buffer" : 0,
      "byteOffset" : 240228,
      "byteLength" : 120544
    },
    {
      "buffer" : 0,
      "byteOffset" : 360772,
      "byteLength" : 30136
    },
    {
      "buffer" : 0,
      "byteOffset" : 390908,
      "byteLength" : 60272
    },
    {
      "buffer" : 0,
      "byteOffset" : 451180,
      "byteLength" : 30136
    },
    {
      "buffer" : 0,
      "byteOffset" : 481316,
      "byteLength" : 60272
    }
  ],
  "accessors" : [
    {
      "bufferView" : 0,
      "componentType" : 5126,
      "count" : 85,
      "type" : "MAT4"
    },
    {
      "bufferView" : 1,
      "componentType" : 5123,
      "count" : 26985,
      "type" : "SCALAR"
    },
    {
      "bufferView" : 2,
      "min" : [ -0.458527, -0.00777764, -0.220342 ],
      "max" : [ 0.458527, 1.03652, 0.173156 ],
      "componentType" : 5126,
      "count" : 7534,
      "type" : "VEC3"
    },
    {
      "bufferView" : 3,
      "componentType" : 5126,
      "count" : 7534,
      "type" : "VEC3"
    },
    {
      "bufferView" : 4,
      "componentType" : 5126,
      "count" : 7534,
      "type" : "VEC4"
    },
    {
      "bufferView" : 5,
      "normalized" : true,
      "componentType" : 5121,
      "count" : 7534,
      "type" : "VEC4"
    },
    {
      "bufferView" : 6,
      "componentType" : 5123,
      "count" : 7534,
      "type" : "VEC4"
    },
    {
      "bufferView" : 7,
      "normalized" : true,
      "componentType" : 5121,
      "count" : 7534,
      "type" : "VEC4"
    },
    {
      "bufferView" : 8,
      "componentType" : 5126,
      "count" : 7534,
      "type" : "VEC2"
    }
  ]
}
