{
  "asset" : {
    "generator" : "UE Viewer (umodel) build 1575",
    "version" : "2.0"
  },
  "scene" : 0,
  "scenes" : [
    {
      "nodes" : [ 0 ]
    }
  ],
  "nodes" : [
    {
      "name" : "SKL_Legs_DMB",
      "mesh" : 0,
      "skin" : 0,
      "children" : [ 1 ]
    },
    {
      "name" : "Root",
      "children" : [ 2, 3, 84, 85 ],
      "translation" : [ 0, 0, -0 ],
      "rotation" : [ -0, 0.707107, 0, -0.707107 ]
    },
    {
      "name" : "EffectsSocket",
      "translation" : [ 0, 0, -0 ],
      "rotation" : [ -0, -0, 0, -1 ]
    },
    {
      "name" : "Pelvis",
      "children" : [ 4, 71 ],
      "translation" : [ 0.0105236, 0.554926, -1.12545e-08 ],
      "rotation" : [ 0.520979, 0.4781, -0.478101, -0.520981 ]
    },
    {
      "name" : "Spine",
      "children" : [ 5, 70 ],
      "translation" : [ 0.0475605, 7.74587e-08, 0.00411369 ],
      "rotation" : [ 1.41155e-06, 0.0467249, -5.28082e-07, -0.998908 ]
    },
    {
      "name" : "Spine1",
      "children" : [ 6, 69 ],
      "translation" : [ 0.0934491, 3.62151e-08, 0.000119059 ],
      "rotation" : [ 5.04926e-10, 0.103063, -2.22478e-08, -0.994675 ]
    },
    {
      "name" : "Neck",
      "children" : [ 7, 9, 39 ],
      "translation" : [ 0.153711, 3.46725e-08, -0.00656392 ],
      "rotation" : [ 3.15649e-08, -0.189238, -3.54047e-08, -0.981931 ]
    },
    {
      "name" : "Neck1",
      "children" : [ 8 ],
      "translation" : [ 0.0198837, 8.93365e-08, 4.26769e-05 ],
      "rotation" : [ -3.82159e-07, -0.144209, -8.7128e-07, -0.989547 ]
    },
    {
      "name" : "Head",
      "translation" : [ 0.0559312, -8.56181e-08, -0 ],
      "rotation" : [ 4.04473e-07, 0.148096, 5.08539e-07, -0.988973 ]
    },
    {
      "name" : "L_Clavicle",
      "children" : [ 10, 37 ],
      "translation" : [ 0.0106984, 0.023931, 0.013325 ],
      "rotation" : [ -0.549543, -0.806281, -0.200191, -0.0885273 ]
    },
    {
      "name" : "L_ShoulderDefCounter",
      "children" : [ 11 ],
      "translation" : [ 0.113163, -3.8147e-07, 2.86102e-08 ],
      "rotation" : [ 0.00821345, 0.00872584, 0.0647663, -0.997828 ]
    },
    {
      "name" : "L_UpperArm",
      "children" : [ 12, 36 ],
      "translation" : [ -2.67029e-07, 3.8147e-07, -0 ],
      "rotation" : [ 0.00821313, 0.00872567, 0.0647661, -0.997829 ]
    },
    {
      "name" : "L_Forearm",
      "children" : [ 13, 31, 32, 33, 34, 35 ],
      "translation" : [ 0.138595, 7.62939e-08, 1.90735e-08 ],
      "rotation" : [ 8.61612e-10, 0.115644, -2.3925e-08, -0.993291 ]
    },
    {
      "name" : "L_Hand",
      "children" : [ 14, 17, 19, 22, 25, 28 ],
      "translation" : [ 0.142575, 1.52588e-07, -0 ],
      "rotation" : [ 0.549232, -0.0587214, -0.0262979, -0.833189 ]
    },
    {
      "name" : "L_Finger0",
      "children" : [ 15 ],
      "translation" : [ 0.00793989, -0.0131512, -0.0020005 ],
      "rotation" : [ -0.583494, 0.107262, 0.298582, -0.747582 ]
    },
    {
      "name" : "L_Finger01",
      "children" : [ 16 ],
      "translation" : [ 0.046407, 1.52588e-07, -1.90735e-08 ],
      "rotation" : [ -1.44825e-08, -0.053346, 8.26346e-08, -0.998576 ]
    },
    {
      "name" : "L_Finger02",
      "translation" : [ 0.024431, 0, -0 ],
      "rotation" : [ -6.53267e-09, -0.116402, -8.26719e-09, -0.993202 ]
    },
    {
      "name" : "Prop2",
      "children" : [ 18 ],
      "translation" : [ 0.0448207, -0.0032435, -0.0205059 ],
      "rotation" : [ -0.983909, -0.017827, -0.175658, -0.0273792 ]
    },
    {
      "name" : "R_grip",
      "translation" : [ -0.736665, 0.034118, 0.139001 ],
      "rotation" : [ -0.0744939, -0.910657, -0.0312987, 0.405186 ]
    },
    {
      "name" : "L_Finger3",
      "children" : [ 20 ],
      "translation" : [ 0.0885182, 0.0088842, -0.00563225 ],
      "rotation" : [ 0.116824, -0.333021, -0.101906, -0.930088 ]
    },
    {
      "name" : "L_Finger31",
      "children" : [ 21 ],
      "translation" : [ 0.0229039, 1.16825e-07, -0 ],
      "rotation" : [ -2.812e-07, -0.315819, 8.2071e-08, -0.94882 ]
    },
    {
      "name" : "L_Finger32",
      "translation" : [ 0.0164776, -4.76837e-08, -7.62939e-08 ],
      "rotation" : [ 7.62981e-08, -0.12759, 5.58596e-09, -0.991827 ]
    },
    {
      "name" : "L_Finger4",
      "children" : [ 23 ],
      "translation" : [ 0.0798529, 0.0241086, -0.0109263 ],
      "rotation" : [ 0.153769, -0.355728, -0.170767, -0.905898 ]
    },
    {
      "name" : "L_Finger41",
      "children" : [ 24 ],
      "translation" : [ 0.0176047, 4.76837e-09, 3.8147e-08 ],
      "rotation" : [ 1.79463e-07, -0.282414, -9.68829e-08, -0.959293 ]
    },
    {
      "name" : "L_Finger42",
      "translation" : [ 0.0124829, -9.53674e-08, -5.72205e-08 ],
      "rotation" : [ -8.14074e-08, -0.158264, 6.69014e-09, -0.987397 ]
    },
    {
      "name" : "L_Finger1",
      "children" : [ 26 ],
      "translation" : [ 0.0863528, -0.0226497, 0.00178429 ],
      "rotation" : [ 0.0529466, -0.173759, 0.144616, -0.972672 ]
    },
    {
      "name" : "L_Finger11",
      "children" : [ 27 ],
      "translation" : [ 0.0229085, -9.53674e-09, -0 ],
      "rotation" : [ -1.17003e-08, -0.203625, -5.92293e-09, -0.979049 ]
    },
    {
      "name" : "L_Finger12",
      "translation" : [ 0.0164911, -1.52588e-07, -7.62939e-08 ],
      "rotation" : [ -1.0149e-08, -0.13333, 6.84101e-08, -0.991072 ]
    },
    {
      "name" : "L_Finger2",
      "children" : [ 29 ],
      "translation" : [ 0.0924084, -0.00652758, -0.00391258 ],
      "rotation" : [ 0.0710237, -0.279173, 0.0380857, -0.956853 ]
    },
    {
      "name" : "L_Finger21",
      "children" : [ 30 ],
      "translation" : [ 0.0213536, -7.62939e-08, 7.62939e-08 ],
      "rotation" : [ -3.25832e-08, -0.304968, 3.41353e-08, -0.952363 ]
    },
    {
      "name" : "L_Finger22",
      "translation" : [ 0.0172912, 3.8147e-08, -0 ],
      "rotation" : [ 1.03713e-08, -0.241269, -1.7824e-07, -0.970458 ]
    },
    {
      "name" : "L_ForearmTwist01",
      "translation" : [ 0.0136728, 7.62939e-08, -3.8147e-08 ],
      "rotation" : [ -0.0408835, -7.13975e-09, 2.26377e-08, -0.999164 ]
    },
    {
      "name" : "L_ForearmTwist02",
      "translation" : [ 0.0394861, 1.52588e-07, -0 ],
      "rotation" : [ -0.0816986, -9.31241e-09, 2.25814e-08, -0.996657 ]
    },
    {
      "name" : "L_ForearmTwist03",
      "translation" : [ 0.0649217, 7.62939e-08, -1.90735e-08 ],
      "rotation" : [ -0.122377, 9.24322e-09, 3.0718e-08, -0.992484 ]
    },
    {
      "name" : "L_ForearmTwist04",
      "translation" : [ 0.0900586, 0, -1.90735e-08 ],
      "rotation" : [ -0.162851, 2.04745e-08, 3.07695e-08, -0.986651 ]
    },
    {
      "name" : "L_ForearmTwist05",
      "translation" : [ 0.115444, 0, -3.8147e-08 ],
      "rotation" : [ -0.20105, 1.13361e-08, 2.47976e-08, -0.979581 ]
    },
    {
      "name" : "L_Elbow",
      "translation" : [ 0.138595, 7.62939e-08, 1.90735e-08 ],
      "rotation" : [ 2.18827e-08, 0.057919, 7.00654e-09, -0.998321 ]
    },
    {
      "name" : "L_shoulderPad_pt",
      "children" : [ 38 ],
      "translation" : [ 0.064153, 0.0790221, 0.031445 ],
      "rotation" : [ -0.760196, -0.0980044, -0.242329, -0.594789 ]
    },
    {
      "name" : "L_shoulderPad",
      "translation" : [ 0, 0, -7.62939e-08 ],
      "rotation" : [ -0, -0, 1.77636e-15, -1 ]
    },
    {
      "name" : "R_Clavicle",
      "children" : [ 40, 67 ],
      "translation" : [ 0.0106985, -0.023931, 0.0133248 ],
      "rotation" : [ 0.549543, -0.806281, 0.200189, -0.088529 ]
    },
    {
      "name" : "R_ShoulderDefCounter",
      "children" : [ 41 ],
      "translation" : [ 0.113164, 1.52588e-07, -7.62939e-08 ],
      "rotation" : [ -0.00821332, 0.00872581, -0.0647662, -0.997829 ]
    },
    {
      "name" : "R_UpperArm",
      "children" : [ 42, 66 ],
      "translation" : [ -5.14984e-07, -2.28882e-07, 1.33514e-07 ],
      "rotation" : [ -0.00821315, 0.00872589, -0.0647663, -0.997828 ]
    },
    {
      "name" : "R_Forearm",
      "children" : [ 43, 61, 62, 63, 64, 65 ],
      "translation" : [ 0.138595, 7.62939e-08, -1.90735e-08 ],
      "rotation" : [ -7.40059e-09, 0.115644, 7.65908e-08, -0.993291 ]
    },
    {
      "name" : "R_Hand",
      "children" : [ 44, 47, 49, 52, 55, 58 ],
      "translation" : [ 0.142576, -7.62939e-08, -3.8147e-08 ],
      "rotation" : [ -0.549232, -0.0587216, 0.0262979, -0.833189 ]
    },
    {
      "name" : "R_Finger0",
      "children" : [ 45 ],
      "translation" : [ 0.00784121, 0.0132162, -0.00196106 ],
      "rotation" : [ 0.583494, 0.107262, -0.298582, -0.747582 ]
    },
    {
      "name" : "R_Finger01",
      "children" : [ 46 ],
      "translation" : [ 0.0464676, -7.62939e-08, 3.8147e-08 ],
      "rotation" : [ -1.20232e-07, -0.0533461, -5.28747e-08, -0.998576 ]
    },
    {
      "name" : "R_Finger02",
      "translation" : [ 0.0244555, 1.52588e-07, -5.72205e-08 ],
      "rotation" : [ 2.6767e-08, -0.116402, 3.91678e-08, -0.993202 ]
    },
    {
      "name" : "Prop1",
      "children" : [ 48 ],
      "translation" : [ 0.0448208, 0.00328018, -0.0205077 ],
      "rotation" : [ -0.02738, 0.175658, 0.017828, -0.983909 ]
    },
    {
      "name" : "L_grip",
      "translation" : [ -0.736663, 0.0340795, -0.138997 ],
      "rotation" : [ -0.405186, 0.031299, 0.910657, 0.0744925 ]
    },
    {
      "name" : "R_Finger3",
      "children" : [ 50 ],
      "translation" : [ 0.0885176, -0.00888428, -0.00563217 ],
      "rotation" : [ -0.116824, -0.333021, 0.101906, -0.930089 ]
    },
    {
      "name" : "R_Finger31",
      "children" : [ 51 ],
      "translation" : [ 0.0229499, 9.53674e-09, -7.62939e-08 ],
      "rotation" : [ -5.70691e-08, -0.315819, 2.06867e-08, -0.94882 ]
    },
    {
      "name" : "R_Finger32",
      "translation" : [ 0.0164986, 7.15256e-09, -7.62939e-08 ],
      "rotation" : [ 4.80801e-08, -0.12759, 2.85728e-08, -0.991827 ]
    },
    {
      "name" : "R_Finger4",
      "children" : [ 53 ],
      "translation" : [ 0.0798522, -0.0241087, -0.0109262 ],
      "rotation" : [ -0.153769, -0.355727, 0.170767, -0.905898 ]
    },
    {
      "name" : "R_Finger41",
      "children" : [ 54 ],
      "translation" : [ 0.0176414, 4.29153e-08, -3.8147e-08 ],
      "rotation" : [ -5.09319e-09, -0.282414, 2.34917e-08, -0.959293 ]
    },
    {
      "name" : "R_Finger42",
      "translation" : [ 0.0124992, -4.76837e-09, 3.8147e-08 ],
      "rotation" : [ 6.20961e-08, -0.158264, -2.19996e-08, -0.987397 ]
    },
    {
      "name" : "R_Finger1",
      "children" : [ 56 ],
      "translation" : [ 0.086352, 0.0226495, 0.00178436 ],
      "rotation" : [ -0.0529464, -0.173759, -0.144616, -0.972672 ]
    },
    {
      "name" : "R_Finger11",
      "children" : [ 57 ],
      "translation" : [ 0.0229001, -8.58307e-08, 1.52588e-07 ],
      "rotation" : [ -3.93611e-08, -0.203625, 1.37156e-09, -0.979049 ]
    },
    {
      "name" : "R_Finger12",
      "translation" : [ 0.0165334, 7.62939e-08, -1.52588e-07 ],
      "rotation" : [ -5.76528e-08, -0.13333, -1.76133e-07, -0.991072 ]
    },
    {
      "name" : "R_Finger2",
      "children" : [ 59 ],
      "translation" : [ 0.0924078, 0.00652752, -0.00391258 ],
      "rotation" : [ -0.0710234, -0.279173, -0.0380857, -0.956853 ]
    },
    {
      "name" : "R_Finger21",
      "children" : [ 60 ],
      "translation" : [ 0.0213786, -1.90735e-08, -0 ],
      "rotation" : [ -2.21889e-08, -0.304968, 2.03676e-08, -0.952363 ]
    },
    {
      "name" : "R_Finger22",
      "translation" : [ 0.0173214, -3.8147e-08, -1.52588e-07 ],
      "rotation" : [ -7.49912e-08, -0.241269, 1.94244e-08, -0.970458 ]
    },
    {
      "name" : "R_ForearmTwist01",
      "translation" : [ 0.00808311, -7.62939e-08, 0.000276661 ],
      "rotation" : [ 0.0408835, -0.00102736, -4.20192e-05, -0.999163 ]
    },
    {
      "name" : "R_ForearmTwist02",
      "translation" : [ 0.0330831, -7.62939e-08, 0.000225296 ],
      "rotation" : [ 0.0816987, -0.00102478, -8.39804e-05, -0.996657 ]
    },
    {
      "name" : "R_ForearmTwist03",
      "translation" : [ 0.058083, -7.62939e-08, 0.000173817 ],
      "rotation" : [ 0.122377, -0.00102055, -0.000125697, -0.992483 ]
    },
    {
      "name" : "R_ForearmTwist04",
      "translation" : [ 0.0833625, 0, 0.000121803 ],
      "rotation" : [ 0.162851, -0.0010145, -0.000167256, -0.98665 ]
    },
    {
      "name" : "R_ForearmTwist05",
      "translation" : [ 0.108622, -1.52588e-07, 6.99043e-05 ],
      "rotation" : [ 0.20105, -0.00100723, -0.000206529, -0.97958 ]
    },
    {
      "name" : "R_Elbow",
      "translation" : [ 0.138595, 7.62939e-08, -1.90735e-08 ],
      "rotation" : [ -1.57392e-08, 0.057919, 5.99361e-08, -0.998321 ]
    },
    {
      "name" : "R_shoulderPad_pt",
      "children" : [ 68 ],
      "translation" : [ 0.0641562, -0.0790238, 0.031446 ],
      "rotation" : [ -0.242328, -0.594789, 0.760196, 0.0980056 ]
    },
    {
      "name" : "R_shoulderPad",
      "translation" : [ 0, 0, -7.62939e-08 ],
      "rotation" : [ -0, -0, -5.32907e-15, -1 ]
    },
    {
      "name" : "WEP_1_Switch",
      "translation" : [ 0.328234, 5.24207e-09, 0.0626008 ],
      "rotation" : [ -0.118119, -0.118897, -0.69342, -0.700771 ]
    },
    {
      "name" : "WEP_2_Switch",
      "translation" : [ -0.00181683, 0.143713, 0.0631543 ],
      "rotation" : [ -0.831087, 0.443159, -0.147342, -0.301986 ]
    },
    {
      "name" : "PelvisWeighted",
      "children" : [ 72, 78 ],
      "translation" : [ -3.8147e-08, -1.45519e-13, -4.76837e-09 ],
      "rotation" : [ -4.72825e-07, 2.40281e-07, -3.51944e-08, -1 ]
    },
    {
      "name" : "L_Thigh",
      "children" : [ 73 ],
      "translation" : [ -7.62939e-08, 0.0874503, -1.21593e-07 ],
      "rotation" : [ 0.00237606, -0.0553715, 0.998441, 0.0066062 ]
    },
    {
      "name" : "L_Calf",
      "children" : [ 74, 76 ],
      "translation" : [ 0.278558, -1.90735e-08, -8.58307e-08 ],
      "rotation" : [ -9.43225e-09, 0.0965132, 8.14586e-08, -0.995332 ]
    },
    {
      "name" : "L_Foot",
      "children" : [ 75 ],
      "translation" : [ 0.182369, 4.76837e-08, 1.90735e-08 ],
      "rotation" : [ 0.0548229, -0.142717, -0.0176311, -0.988087 ]
    },
    {
      "name" : "L_Toe0",
      "translation" : [ 0.101231, 0.00208186, -0.0819866 ],
      "rotation" : [ -4.87381e-09, -0.707107, 1.54588e-08, -0.707107 ]
    },
    {
      "name" : "L_Kneepad_pt",
      "children" : [ 77 ],
      "translation" : [ -1.90735e-08, -1.52588e-07, 2.86102e-08 ],
      "rotation" : [ 4.76255e-07, -2.23517e-08, -3.95812e-08, -1 ]
    },
    {
      "name" : "L_KneePad",
      "translation" : [ 0, 1.52588e-07, 1.90735e-08 ],
      "rotation" : [ -5.59782e-07, 0.0193315, -8.6228e-08, -0.999813 ]
    },
    {
      "name" : "R_Thigh",
      "children" : [ 79 ],
      "translation" : [ 1.90735e-07, -0.0874503, 7.86781e-08 ],
      "rotation" : [ 0.00237597, 0.0553726, 0.998441, -0.0066077 ]
    },
    {
      "name" : "R_Calf",
      "children" : [ 80, 82 ],
      "translation" : [ 0.278558, 9.53674e-09, -6.67572e-08 ],
      "rotation" : [ -9.11227e-10, 0.0965132, 1.63597e-08, -0.995332 ]
    },
    {
      "name" : "R_Foot",
      "children" : [ 81 ],
      "translation" : [ 0.182369, 1.04904e-07, -9.53674e-09 ],
      "rotation" : [ -0.0548229, -0.142717, 0.0176312, -0.988087 ]
    },
    {
      "name" : "R_Toe0",
      "translation" : [ 0.101231, -0.00208158, -0.0819866 ],
      "rotation" : [ 2.17818e-08, -0.707107, 9.84569e-09, -0.707107 ]
    },
    {
      "name" : "R_Kneepad_pt",
      "children" : [ 83 ],
      "translation" : [ 0, 4.76837e-08, 1.90735e-08 ],
      "rotation" : [ -1.42027e-08, 1.49012e-08, 1.86265e-09, -1 ]
    },
    {
      "name" : "R_KneePad",
      "translation" : [ -1.90735e-08, 3.8147e-08, 9.53674e-09 ],
      "rotation" : [ -2.52326e-07, 0.0193315, 1.9703e-07, -0.999813 ]
    },
    {
      "name" : "ikGunLeftHand",
      "translation" : [ -0.0204767, 0.668473, -0.362017 ],
      "rotation" : [ -0.635596, 0.611583, 0.295018, 0.367353 ]
    },
    {
      "name" : "ikGunRightHand",
      "translation" : [ -0.0204755, 0.668473, 0.362018 ],
      "rotation" : [ 0.367353, 0.295017, 0.611583, -0.635597 ]
    }
  ],
  "skins" : [
    {
      "inverseBindMatrices" : 0,
      "skeleton" : 1,
      "joints" : [
        1,2,3,4,5,6,7,8,9,10,11,12,13,14,15,16,17,18,19,20,21,22,23,24,25,26,27,28,29,30,31,32,
        33,34,35,36,37,38,39,40,41,42,43,44,45,46,47,48,49,50,51,52,53,54,55,56,57,58,59,60,61,62,63,64,
        65,66,67,68,69,70,71,72,73,74,75,76,77,78,79,80,81,82,83,84,85
      ]
    }
  ],
  "materials" : [
    {
      "name" : "MIC_BloodEagle_Heavy_DMB",
      "pbrMetallicRoughness" : {
        "baseColorFactor" : [ 0.3, 0.3, 0.3, 1.0 ],
        "metallicFactor" : 0.1,
        "roughnessFactor" : 0.5
      }
    }
  ],
  "meshes" : [
    {
      "primitives" : [
        {
          "attributes" : {
            "POSITION" : 2,
            "NORMAL" : 3,
            "TANGENT" : 4,
            "JOINTS_0" : 5,
            "WEIGHTS_0" : 6,
            "TEXCOORD_0" : 7
          },
          "indices" : 1,
          "material" : 0
        }
      ],
      "name" : "SKL_Legs_DMB"
    }
  ],
  "buffers" : [
    {
      "uri" : "SKL_Legs_DMB.bin",
      "byteLength" : 406140
    }
  ],
  "bufferViews" : [
    {
      "buffer" : 0,
      "byteOffset" : 0,
      "byteLength" : 5440
    },
    {
      "buffer" : 0,
      "byteOffset" : 5440,
      "byteLength" : 48980
    },
    {
      "buffer" : 0,
      "byteOffset" : 54420,
      "byteLength" : 70344
    },
    {
      "buffer" : 0,
      "byteOffset" : 124764,
      "byteLength" : 70344
    },
    {
      "buffer" : 0,
      "byteOffset" : 195108,
      "byteLength" : 93792
    },
    {
      "buffer" : 0,
      "byteOffset" : 288900,
      "byteLength" : 46896
    },
    {
      "buffer" : 0,
      "byteOffset" : 335796,
      "byteLength" : 23448
    },
    {
      "buffer" : 0,
      "byteOffset" : 359244,
      "byteLength" : 46896
    }
  ],
  "accessors" : [
    {
      "bufferView" : 0,
      "componentType" : 5126,
      "count" : 85,
      "type" : "MAT4"
    },
    {
      "bufferView" : 1,
      "componentType" : 5123,
      "count" : 24489,
      "type" : "SCALAR"
    },
    {
      "bufferView" : 2,
      "min" : [ -0.193809, -0.00778097, -0.224731 ],
      "max" : [ 0.237739, 0.858202, 0.161681 ],
      "componentType" : 5126,
      "count" : 5862,
      "type" : "VEC3"
    },
    {
      "bufferView" : 3,
      "componentType" : 5126,
      "count" : 5862,
      "type" : "VEC3"
    },
    {
      "bufferView" : 4,
      "componentType" : 5126,
      "count" : 5862,
      "type" : "VEC4"
    },
    {
      "bufferView" : 5,
      "componentType" : 5123,
      "count" : 5862,
      "type" : "VEC4"
    },
    {
      "bufferView" : 6,
      "normalized" : true,
      "componentType" : 5121,
      "count" : 5862,
      "type" : "VEC4"
    },
    {
      "bufferView" : 7,
      "componentType" : 5126,
      "count" : 5862,
      "type" : "VEC2"
    }
  ]
}
