{
  "asset" : {
    "generator" : "UE Viewer (umodel) build 1575",
    "version" : "2.0"
  },
  "scene" : 0,
  "scenes" : [
    {
      "nodes" : [ 0 ]
    }
  ],
  "nodes" : [
    {
      "name" : "SKL_PC_BE_Medium_Gib_Lod1",
      "mesh" : 0,
      "skin" : 0,
      "children" : [ 1 ]
    },
    {
      "name" : "Root",
      "children" : [ 2, 3, 82, 83 ],
      "translation" : [ 0, 0, -0 ],
      "rotation" : [ -0, 0.707107, 0, -0.707107 ]
    },
    {
      "name" : "EffectsSocket",
      "translation" : [ 0, 0, -0 ],
      "rotation" : [ -0, -0, 0, -1 ]
    },
    {
      "name" : "Pelvis",
      "children" : [ 4, 71 ],
      "translation" : [ 0.00472862, 0.509972, -1.05637e-08 ],
      "rotation" : [ 0.520979, 0.478101, -0.4781, -0.52098 ]
    },
    {
      "name" : "Spine",
      "children" : [ 5, 70 ],
      "translation" : [ 0.047313, 7.54795e-08, 0.000709891 ],
      "rotation" : [ 6.99599e-07, 0.0510925, -5.10559e-07, -0.998694 ]
    },
    {
      "name" : "Spine1",
      "children" : [ 6, 69 ],
      "translation" : [ 0.114436, 4.26384e-08, 0.000139821 ],
      "rotation" : [ -4.18871e-09, 0.102157, -7.3237e-09, -0.994768 ]
    },
    {
      "name" : "Neck",
      "children" : [ 7, 9, 39 ],
      "translation" : [ 0.120729, 4.8522e-08, 4.76837e-08 ],
      "rotation" : [ -4.82175e-07, -0.202105, -2.57244e-07, -0.979364 ]
    },
    {
      "name" : "Neck1",
      "children" : [ 8 ],
      "translation" : [ 0.0198835, 8.04344e-08, 4.26102e-05 ],
      "rotation" : [ -5.86104e-07, -0.144209, -6.01473e-07, -0.989547 ]
    },
    {
      "name" : "Head",
      "translation" : [ 0.0559314, 2.44832e-09, 3.8147e-08 ],
      "rotation" : [ 1.09267e-06, 0.157641, 6.85722e-07, -0.987496 ]
    },
    {
      "name" : "L_Clavicle",
      "children" : [ 10, 37 ],
      "translation" : [ 0.0112881, 0.0226179, 0.00645321 ],
      "rotation" : [ -0.546869, -0.80505, -0.207383, -0.0990988 ]
    },
    {
      "name" : "L_ShoulderDefCounter",
      "children" : [ 11 ],
      "translation" : [ 0.100468, 1.52588e-07, -9.53674e-09 ],
      "rotation" : [ 0.0588479, -0.00176221, 0.0553991, -0.996727 ]
    },
    {
      "name" : "L_UpperArm",
      "children" : [ 12, 36 ],
      "translation" : [ 0, 0, 1.90735e-08 ],
      "rotation" : [ 0.058848, -0.00176219, 0.0553991, -0.996727 ]
    },
    {
      "name" : "L_Forearm",
      "children" : [ 13, 31, 32, 33, 34, 35 ],
      "translation" : [ 0.117947, 0, -0 ],
      "rotation" : [ -1.02413e-09, 0.137457, -2.21396e-08, -0.990508 ]
    },
    {
      "name" : "L_Hand",
      "children" : [ 14, 17, 19, 22, 25, 28 ],
      "translation" : [ 0.126315, -1.52588e-07, -7.62939e-08 ],
      "rotation" : [ 0.408264, -0.0137162, -0.0452804, -0.911637 ]
    },
    {
      "name" : "L_Finger0",
      "children" : [ 15 ],
      "translation" : [ 0.0054253, -0.00977489, -0.00439545 ],
      "rotation" : [ -0.555543, 0.0733089, 0.339107, -0.755648 ]
    },
    {
      "name" : "L_Finger01",
      "children" : [ 16 ],
      "translation" : [ 0.0323735, 1.52588e-07, -9.53674e-08 ],
      "rotation" : [ 1.86067e-08, -0.0460581, 5.93698e-08, -0.998939 ]
    },
    {
      "name" : "L_Finger02",
      "translation" : [ 0.0186478, -2.28882e-07, 3.8147e-08 ],
      "rotation" : [ 1.21981e-08, -0.116402, 6.92012e-08, -0.993202 ]
    },
    {
      "name" : "Prop2",
      "children" : [ 18 ],
      "translation" : [ 0.0449364, -0.00778409, -0.0202319 ],
      "rotation" : [ -0.983909, -0.0178265, -0.175658, -0.0273793 ]
    },
    {
      "name" : "R_grip",
      "translation" : [ -0.682777, 0.0606002, -0.00565384 ],
      "rotation" : [ -0.121966, -0.967761, -0.0447954, 0.215768 ]
    },
    {
      "name" : "L_Finger1",
      "children" : [ 20 ],
      "translation" : [ 0.0616775, -0.0185018, -0.00355652 ],
      "rotation" : [ -0.0354357, -0.193484, 0.155172, -0.968106 ]
    },
    {
      "name" : "L_Finger11",
      "children" : [ 21 ],
      "translation" : [ 0.0162036, -1.52588e-07, -1.52588e-07 ],
      "rotation" : [ -2.44313e-07, -0.245252, 6.12497e-08, -0.969459 ]
    },
    {
      "name" : "L_Finger12",
      "translation" : [ 0.0125132, 1.33514e-07, 3.8147e-08 ],
      "rotation" : [ 2.02266e-07, -0.142513, -7.76653e-08, -0.989793 ]
    },
    {
      "name" : "L_Finger2",
      "children" : [ 23 ],
      "translation" : [ 0.0630873, -0.00584796, -0.00265366 ],
      "rotation" : [ 0.00620826, -0.304903, 0.010258, -0.952308 ]
    },
    {
      "name" : "L_Finger21",
      "children" : [ 24 ],
      "translation" : [ 0.0194148, 1.90735e-08, 1.52588e-07 ],
      "rotation" : [ 3.06143e-08, -0.290644, -1.57908e-08, -0.956831 ]
    },
    {
      "name" : "L_Finger22",
      "translation" : [ 0.0135421, -6.67572e-08, -1.90735e-07 ],
      "rotation" : [ -3.5426e-08, -0.264952, 3.30888e-08, -0.964262 ]
    },
    {
      "name" : "L_Finger3",
      "children" : [ 26 ],
      "translation" : [ 0.0615973, 0.00666188, -0.00337738 ],
      "rotation" : [ 0.0266673, -0.353528, -0.0986367, -0.929827 ]
    },
    {
      "name" : "L_Finger31",
      "children" : [ 27 ],
      "translation" : [ 0.0191225, 0, -1.52588e-07 ],
      "rotation" : [ 2.19905e-09, -0.29145, 8.79993e-08, -0.956586 ]
    },
    {
      "name" : "L_Finger32",
      "translation" : [ 0.0133478, 5.72205e-08, 1.90735e-08 ],
      "rotation" : [ -4.86309e-08, -0.177783, -5.5467e-09, -0.98407 ]
    },
    {
      "name" : "L_Finger4",
      "children" : [ 29 ],
      "translation" : [ 0.0555129, 0.0176899, -0.00656853 ],
      "rotation" : [ 0.0843428, -0.340072, -0.202485, -0.91446 ]
    },
    {
      "name" : "L_Finger41",
      "children" : [ 30 ],
      "translation" : [ 0.0152586, -9.53674e-08, 3.8147e-08 ],
      "rotation" : [ 2.51452e-07, -0.319478, -3.59361e-08, -0.947594 ]
    },
    {
      "name" : "L_Finger42",
      "translation" : [ 0.00911049, 1.23978e-07, 5.72205e-08 ],
      "rotation" : [ -8.27516e-08, -0.158264, -9.48737e-09, -0.987397 ]
    },
    {
      "name" : "L_ForearmTwist01",
      "translation" : [ -7.62939e-08, -3.8147e-08, -0 ],
      "rotation" : [ -0.0727483, 7.43084e-09, 5.99887e-08, -0.99735 ]
    },
    {
      "name" : "L_ForearmTwist02",
      "translation" : [ 0.0249999, -7.62939e-08, -3.8147e-08 ],
      "rotation" : [ -0.145111, 2.43463e-07, -8.45288e-09, -0.989415 ]
    },
    {
      "name" : "L_ForearmTwist03",
      "translation" : [ 0.05, -7.62939e-08, -3.8147e-08 ],
      "rotation" : [ -0.216705, -5.45515e-09, 9.09152e-08, -0.976237 ]
    },
    {
      "name" : "L_ForearmTwist04",
      "translation" : [ 0.0754419, -7.62939e-08, 3.8147e-08 ],
      "rotation" : [ -0.28715, -2.43511e-08, 7.81875e-08, -0.957886 ]
    },
    {
      "name" : "L_ForearmTwist05",
      "translation" : [ 0.101033, -3.8147e-08, 3.8147e-08 ],
      "rotation" : [ -0.35267, -6.11352e-09, 6.93158e-08, -0.935748 ]
    },
    {
      "name" : "L_Elbow",
      "translation" : [ 0.117947, 0, -0 ],
      "rotation" : [ 4.45973e-08, 0.0688921, 1.58923e-08, -0.997624 ]
    },
    {
      "name" : "L_shoulderPad_pt",
      "children" : [ 38 ],
      "translation" : [ 0.0669313, 0.0303564, 0.0291066 ],
      "rotation" : [ -0.784822, -0.166103, -0.258685, -0.538094 ]
    },
    {
      "name" : "L_shoulderPad",
      "translation" : [ 0, 0, -7.62939e-08 ],
      "rotation" : [ -5.58793e-09, 1.04083e-17, 1.39698e-09, -1 ]
    },
    {
      "name" : "R_Clavicle",
      "children" : [ 40, 67 ],
      "translation" : [ 0.0112881, -0.0226181, 0.00645313 ],
      "rotation" : [ 0.546869, -0.80505, 0.207382, -0.0991 ]
    },
    {
      "name" : "R_ShoulderDefCounter",
      "children" : [ 41 ],
      "translation" : [ 0.100469, 1.52588e-07, 9.53674e-08 ],
      "rotation" : [ -0.0588479, -0.0017625, -0.055399, -0.996727 ]
    },
    {
      "name" : "R_UpperArm",
      "children" : [ 42, 66 ],
      "translation" : [ -2.28882e-07, -2.28882e-07, -1.90735e-08 ],
      "rotation" : [ -0.058848, -0.0017622, -0.0553993, -0.996727 ]
    },
    {
      "name" : "R_Forearm",
      "children" : [ 43, 61, 62, 63, 64, 65 ],
      "translation" : [ 0.117947, -1.14441e-07, 7.62939e-08 ],
      "rotation" : [ -2.41878e-08, 0.137457, -1.37356e-08, -0.990508 ]
    },
    {
      "name" : "R_Hand",
      "children" : [ 44, 47, 49, 52, 55, 58 ],
      "translation" : [ 0.126315, -3.8147e-08, -3.8147e-08 ],
      "rotation" : [ -0.408264, -0.0137159, 0.0452804, -0.911637 ]
    },
    {
      "name" : "R_Finger0",
      "children" : [ 45 ],
      "translation" : [ 0.0054253, 0.00977508, -0.0043956 ],
      "rotation" : [ 0.555543, 0.0733086, -0.339107, -0.755648 ]
    },
    {
      "name" : "R_Finger01",
      "children" : [ 46 ],
      "translation" : [ 0.0323736, 0, -1.43051e-07 ],
      "rotation" : [ -1.21935e-08, -0.0460579, 9.72695e-08, -0.998939 ]
    },
    {
      "name" : "R_Finger02",
      "translation" : [ 0.0186477, 7.62939e-08, 8.58307e-08 ],
      "rotation" : [ 1.37017e-08, -0.116402, -8.70083e-09, -0.993202 ]
    },
    {
      "name" : "Prop1",
      "children" : [ 48 ],
      "translation" : [ 0.0449334, 0.00778354, -0.0202334 ],
      "rotation" : [ -0.0273798, 0.175658, 0.0178279, -0.983909 ]
    },
    {
      "name" : "L_grip",
      "translation" : [ -0.682774, 0.0605988, 0.00565407 ],
      "rotation" : [ -0.215769, 0.0447954, 0.967761, 0.121965 ]
    },
    {
      "name" : "R_Finger1",
      "children" : [ 50 ],
      "translation" : [ 0.0616774, 0.0185019, -0.00355667 ],
      "rotation" : [ 0.0354357, -0.193484, -0.155172, -0.968106 ]
    },
    {
      "name" : "R_Finger11",
      "children" : [ 51 ],
      "translation" : [ 0.0162036, 3.8147e-08, -0 ],
      "rotation" : [ 3.23725e-08, -0.245252, -1.64538e-08, -0.969459 ]
    },
    {
      "name" : "R_Finger12",
      "translation" : [ 0.0125132, 3.8147e-08, 1.14441e-07 ],
      "rotation" : [ -4.57966e-08, -0.142513, 1.13642e-07, -0.989793 ]
    },
    {
      "name" : "R_Finger2",
      "children" : [ 53 ],
      "translation" : [ 0.0630869, 0.00584792, -0.00265373 ],
      "rotation" : [ -0.00620826, -0.304903, -0.010258, -0.952308 ]
    },
    {
      "name" : "R_Finger21",
      "children" : [ 54 ],
      "translation" : [ 0.0194149, -5.72205e-08, -7.62939e-08 ],
      "rotation" : [ 5.23976e-08, -0.290644, -1.41076e-09, -0.956831 ]
    },
    {
      "name" : "R_Finger22",
      "translation" : [ 0.0135422, 3.8147e-08, -0 ],
      "rotation" : [ -3.71646e-08, -0.264952, 3.49796e-08, -0.964262 ]
    },
    {
      "name" : "R_Finger3",
      "children" : [ 56 ],
      "translation" : [ 0.0615972, -0.00666188, -0.00337753 ],
      "rotation" : [ -0.0266673, -0.353528, 0.0986366, -0.929827 ]
    },
    {
      "name" : "R_Finger31",
      "children" : [ 57 ],
      "translation" : [ 0.0191226, -5.72205e-08, -7.62939e-08 ],
      "rotation" : [ 3.36871e-09, -0.29145, 1.35923e-07, -0.956586 ]
    },
    {
      "name" : "R_Finger32",
      "translation" : [ 0.013348, -1.23978e-07, -5.72205e-08 ],
      "rotation" : [ -1.67544e-08, -0.177783, 9.51851e-08, -0.98407 ]
    },
    {
      "name" : "R_Finger4",
      "children" : [ 59 ],
      "translation" : [ 0.0555126, -0.0176899, -0.0065686 ],
      "rotation" : [ -0.0843428, -0.340072, 0.202485, -0.91446 ]
    },
    {
      "name" : "R_Finger41",
      "children" : [ 60 ],
      "translation" : [ 0.0152587, 6.67572e-08, 7.62939e-08 ],
      "rotation" : [ -4.98621e-08, -0.319478, -3.0472e-08, -0.947594 ]
    },
    {
      "name" : "R_Finger42",
      "translation" : [ 0.00911053, 4.76837e-08, -0 ],
      "rotation" : [ -3.82926e-08, -0.158264, 4.32622e-08, -0.987397 ]
    },
    {
      "name" : "R_ForearmTwist01",
      "translation" : [ -1.90735e-08, 0, -3.8147e-08 ],
      "rotation" : [ 0.0727483, -1.16883e-08, 5.22869e-08, -0.99735 ]
    },
    {
      "name" : "R_ForearmTwist02",
      "translation" : [ 0.025, 0, -3.8147e-08 ],
      "rotation" : [ 0.145111, -2.21152e-08, 5.89738e-08, -0.989415 ]
    },
    {
      "name" : "R_ForearmTwist03",
      "translation" : [ 0.0500001, 0, -7.62939e-08 ],
      "rotation" : [ 0.216705, 2.72758e-08, 4.40448e-08, -0.976237 ]
    },
    {
      "name" : "R_ForearmTwist04",
      "translation" : [ 0.0755201, 3.8147e-08, -7.62939e-08 ],
      "rotation" : [ 0.28715, -6.95518e-09, 6.00362e-08, -0.957886 ]
    },
    {
      "name" : "R_ForearmTwist05",
      "translation" : [ 0.100816, 3.8147e-08, -1.14441e-07 ],
      "rotation" : [ 0.35267, -6.11353e-09, 2.22294e-08, -0.935748 ]
    },
    {
      "name" : "R_Elbow",
      "translation" : [ 0.117947, -1.14441e-07, 7.62939e-08 ],
      "rotation" : [ 7.94616e-09, 0.0688919, -2.38385e-08, -0.997624 ]
    },
    {
      "name" : "R_shoulderPad_pt",
      "children" : [ 68 ],
      "translation" : [ 0.0669355, -0.0303582, 0.0291074 ],
      "rotation" : [ -0.258684, -0.538094, 0.784822, 0.166104 ]
    },
    {
      "name" : "R_shoulderPad",
      "translation" : [ 0, 0, -7.62939e-08 ],
      "rotation" : [ -1.86265e-09, -0, -2.32831e-09, -1 ]
    },
    {
      "name" : "WEP_1_Switch",
      "translation" : [ 0.253008, -0.000483244, 0.0539173 ],
      "rotation" : [ -0.110357, -0.112577, -0.694731, -0.701781 ]
    },
    {
      "name" : "WEP_2_Switch",
      "translation" : [ 0.0192366, 0.0890014, 0.0231088 ],
      "rotation" : [ -0.668983, 0.516287, -0.233975, -0.480796 ]
    },
    {
      "name" : "PelvisWeighted",
      "children" : [ 72, 77 ],
      "translation" : [ 0, 0, -0 ],
      "rotation" : [ -1.18967e-06, 2.42144e-07, 8.58558e-09, -1 ]
    },
    {
      "name" : "L_Thigh",
      "children" : [ 73 ],
      "translation" : [ -1.52588e-07, 0.0583732, -9.29832e-08 ],
      "rotation" : [ -0.0217001, -0.0795285, 0.995832, 0.0390232 ]
    },
    {
      "name" : "L_Calf",
      "children" : [ 74, 76 ],
      "translation" : [ 0.232977, 5.72205e-08, 2.92063e-08 ],
      "rotation" : [ 1.49531e-08, 0.0657898, 1.05032e-08, -0.997833 ]
    },
    {
      "name" : "L_Foot",
      "children" : [ 75 ],
      "translation" : [ 0.205159, 2.86102e-08, -4.76837e-09 ],
      "rotation" : [ 0.0452898, -0.0839625, -0.0462058, -0.994366 ]
    },
    {
      "name" : "L_Toe0",
      "translation" : [ 0.0754791, 0.00114449, -0.0689709 ],
      "rotation" : [ 2.30076e-08, -0.707107, -1.68784e-09, -0.707107 ]
    },
    {
      "name" : "L_KneePad",
      "translation" : [ 0.0204657, -6.67572e-08, 0.0104196 ],
      "rotation" : [ -6.3199e-08, -0.0209467, -4.27144e-08, -0.999781 ]
    },
    {
      "name" : "R_Thigh",
      "children" : [ 78 ],
      "translation" : [ 3.8147e-08, -0.0583732, 4.29153e-08 ],
      "rotation" : [ -0.0217001, 0.0795296, 0.995832, -0.0390249 ]
    },
    {
      "name" : "R_Calf",
      "children" : [ 79, 81 ],
      "translation" : [ 0.232977, 3.8147e-08, -1.07288e-08 ],
      "rotation" : [ -1.54444e-10, 0.0657898, 6.33995e-08, -0.997834 ]
    },
    {
      "name" : "R_Foot",
      "children" : [ 80 ],
      "translation" : [ 0.205159, 6.67572e-08, -3.57628e-08 ],
      "rotation" : [ -0.0452898, -0.0839624, 0.0462058, -0.994366 ]
    },
    {
      "name" : "R_Toe0",
      "translation" : [ 0.0754791, -0.00114524, -0.0689709 ],
      "rotation" : [ -1.09763e-07, -0.707107, 7.75931e-08, -0.707107 ]
    },
    {
      "name" : "R_KneePad",
      "translation" : [ 0.0204685, -6.67572e-07, 0.0104234 ],
      "rotation" : [ -2.05732e-09, -0.0209467, 5.40731e-08, -0.999781 ]
    },
    {
      "name" : "ikGunLeftHand",
      "translation" : [ -0.0219889, 0.647734, -0.326104 ],
      "rotation" : [ 0.580334, -0.593539, -0.319558, -0.456953 ]
    },
    {
      "name" : "ikGunRightHand",
      "translation" : [ -0.0219878, 0.647734, 0.326105 ],
      "rotation" : [ 0.456954, 0.319557, 0.593539, -0.580335 ]
    }
  ],
  "skins" : [
    {
      "inverseBindMatrices" : 0,
      "skeleton" : 1,
      "joints" : [
        1,2,3,4,5,6,7,8,9,10,11,12,13,14,15,16,17,18,19,20,21,22,23,24,25,26,27,28,29,30,31,32,
        33,34,35,36,37,38,39,40,41,42,43,44,45,46,47,48,49,50,51,52,53,54,55,56,57,58,59,60,61,62,63,64,
        65,66,67,68,69,70,71,72,73,74,75,76,77,78,79,80,81,82,83
      ]
    }
  ],
  "materials" : [
    {
      "name" : "MIC_BloodEagle_Medium",
      "pbrMetallicRoughness" : {
        "baseColorFactor" : [ 0.3, 0.3, 0.3, 1.0 ],
        "metallicFactor" : 0.1,
        "roughnessFactor" : 0.5
      }
    }
  ],
  "meshes" : [
    {
      "primitives" : [
        {
          "attributes" : {
            "POSITION" : 2,
            "NORMAL" : 3,
            "TANGENT" : 4,
            "JOINTS_0" : 5,
            "WEIGHTS_0" : 6,
            "TEXCOORD_0" : 7
          },
          "indices" : 1,
          "material" : 0
        }
      ],
      "name" : "SKL_PC_BE_Medium_Gib_Lod1"
    }
  ],
  "buffers" : [
    {
      "uri" : "SKL_PC_BE_Medium_Gib_Lod1.bin",
      "byteLength" : 211504
    }
  ],
  "bufferViews" : [
    {
      "buffer" : 0,
      "byteOffset" : 0,
      "byteLength" : 5312
    },
    {
      "buffer" : 0,
      "byteOffset" : 5312,
      "byteLength" : 21212
    },
    {
      "buffer" : 0,
      "byteOffset" : 26524,
      "byteLength" : 36996
    },
    {
      "buffer" : 0,
      "byteOffset" : 63520,
      "byteLength" : 36996
    },
    {
      "buffer" : 0,
      "byteOffset" : 100516,
      "byteLength" : 49328
    },
    {
      "buffer" : 0,
      "byteOffset" : 149844,
      "byteLength" : 24664
    },
    {
      "buffer" : 0,
      "byteOffset" : 174508,
      "byteLength" : 12332
    },
    {
      "buffer" : 0,
      "byteOffset" : 186840,
      "byteLength" : 24664
    }
  ],
  "accessors" : [
    {
      "bufferView" : 0,
      "componentType" : 5126,
      "count" : 83,
      "type" : "MAT4"
    },
    {
      "bufferView" : 1,
      "componentType" : 5123,
      "count" : 10605,
      "type" : "SCALAR"
    },
    {
      "bufferView" : 2,
      "min" : [ -0.399545, -9.64539e-05, -0.130386 ],
      "max" : [ 0.399545, 0.982927, 0.132406 ],
      "componentType" : 5126,
      "count" : 3083,
      "type" : "VEC3"
    },
    {
      "bufferView" : 3,
      "componentType" : 5126,
      "count" : 3083,
      "type" : "VEC3"
    },
    {
      "bufferView" : 4,
      "componentType" : 5126,
      "count" : 3083,
      "type" : "VEC4"
    },
    {
      "bufferView" : 5,
      "componentType" : 5123,
      "count" : 3083,
      "type" : "VEC4"
    },
    {
      "bufferView" : 6,
      "normalized" : true,
      "componentType" : 5121,
      "count" : 3083,
      "type" : "VEC4"
    },
    {
      "bufferView" : 7,
      "componentType" : 5126,
      "count" : 3083,
      "type" : "VEC2"
    }
  ]
}
