{
  "asset" : {
    "generator" : "UE Viewer (umodel) build 1575",
    "version" : "2.0"
  },
  "scene" : 0,
  "scenes" : [
    {
      "nodes" : [ 0 ]
    }
  ],
  "nodes" : [
    {
      "name" : "ASE_FX_DropPod_ReEntry",
      "mesh" : 0
    }
  ],
  "materials" : [
    {
      "name" : "MAT_FX_FireCone_Add",
      "pbrMetallicRoughness" : {
        "baseColorFactor" : [ 0.3, 0.3, 0.3, 1.0 ],
        "metallicFactor" : 0.1,
        "roughnessFactor" : 0.5
      }
    }
  ],
  "meshes" : [
    {
      "primitives" : [
        {
          "attributes" : {
            "POSITION" : 1,
            "NORMAL" : 2,
            "TANGENT" : 3,
            "TEXCOORD_0" : 4
          },
          "indices" : 0,
          "material" : 0
        }
      ],
      "name" : "ASE_FX_DropPod_ReEntry"
    }
  ],
  "buffers" : [
    {
      "uri" : "ASE_FX_DropPod_ReEntry.bin",
      "byteLength" : 11376
    }
  ],
  "bufferViews" : [
    {
      "buffer" : 0,
      "byteOffset" : 0,
      "byteLength" : 1872
    },
    {
      "buffer" : 0,
      "byteOffset" : 1872,
      "byteLength" : 2376
    },
    {
      "buffer" : 0,
      "byteOffset" : 4248,
      "byteLength" : 2376
    },
    {
      "buffer" : 0,
      "byteOffset" : 6624,
      "byteLength" : 3168
    },
    {
      "buffer" : 0,
      "byteOffset" : 9792,
      "byteLength" : 1584
    }
  ],
  "accessors" : [
    {
      "bufferView" : 0,
      "componentType" : 5123,
      "count" : 936,
      "type" : "SCALAR"
    },
    {
      "bufferView" : 1,
      "min" : [ -1.38695, -1.05853, -1.33471 ],
      "max" : [ 1.38695, 1.59869, 1.33471 ],
      "componentType" : 5126,
      "count" : 198,
      "type" : "VEC3"
    },
    {
      "bufferView" : 2,
      "componentType" : 5126,
      "count" : 198,
      "type" : "VEC3"
    },
    {
      "bufferView" : 3,
      "componentType" : 5126,
      "count" : 198,
      "type" : "VEC4"
    },
    {
      "bufferView" : 4,
      "componentType" : 5126,
      "count" : 198,
      "type" : "VEC2"
    }
  ]
}
