{
  "asset" : {
    "generator" : "UE Viewer (umodel) build 1575",
    "version" : "2.0"
  },
  "scene" : 0,
  "scenes" : [
    {
      "nodes" : [ 0 ]
    }
  ],
  "nodes" : [
    {
      "name" : "ASE_Frag_Grenade_3P",
      "mesh" : 0
    }
  ],
  "materials" : [
    {
      "name" : "MAT_Frag_Grenade",
      "pbrMetallicRoughness" : {
        "baseColorFactor" : [ 0.3, 0.3, 0.3, 1.0 ],
        "metallicFactor" : 0.1,
        "roughnessFactor" : 0.5
      }
    }
  ],
  "meshes" : [
    {
      "primitives" : [
        {
          "attributes" : {
            "POSITION" : 1,
            "NORMAL" : 2,
            "TANGENT" : 3,
            "TEXCOORD_0" : 4
          },
          "indices" : 0,
          "material" : 0
        }
      ],
      "name" : "ASE_Frag_Grenade_3P"
    }
  ],
  "buffers" : [
    {
      "uri" : "ASE_Frag_Grenade_3P.bin",
      "byteLength" : 24996
    }
  ],
  "bufferViews" : [
    {
      "buffer" : 0,
      "byteOffset" : 0,
      "byteLength" : 2244
    },
    {
      "buffer" : 0,
      "byteOffset" : 2244,
      "byteLength" : 5688
    },
    {
      "buffer" : 0,
      "byteOffset" : 7932,
      "byteLength" : 5688
    },
    {
      "buffer" : 0,
      "byteOffset" : 13620,
      "byteLength" : 7584
    },
    {
      "buffer" : 0,
      "byteOffset" : 21204,
      "byteLength" : 3792
    }
  ],
  "accessors" : [
    {
      "bufferView" : 0,
      "componentType" : 5123,
      "count" : 1122,
      "type" : "SCALAR"
    },
    {
      "bufferView" : 1,
      "min" : [ -0.024388, -0.043628, -0.026275 ],
      "max" : [ 0.024317, 0.038575, 0.022203 ],
      "componentType" : 5126,
      "count" : 474,
      "type" : "VEC3"
    },
    {
      "bufferView" : 2,
      "componentType" : 5126,
      "count" : 474,
      "type" : "VEC3"
    },
    {
      "bufferView" : 3,
      "componentType" : 5126,
      "count" : 474,
      "type" : "VEC4"
    },
    {
      "bufferView" : 4,
      "componentType" : 5126,
      "count" : 474,
      "type" : "VEC2"
    }
  ]
}
