{
  "asset" : {
    "generator" : "UE Viewer (umodel) build 1575",
    "version" : "2.0"
  },
  "scene" : 0,
  "scenes" : [
    {
      "nodes" : [ 0 ]
    }
  ],
  "nodes" : [
    {
      "name" : "ASE_DEP_PulseSensor_Gib01",
      "mesh" : 0
    }
  ],
  "materials" : [
    {
      "name" : "MIC_Gibs",
      "pbrMetallicRoughness" : {
        "baseColorFactor" : [ 0.3, 0.3, 0.3, 1.0 ],
        "metallicFactor" : 0.1,
        "roughnessFactor" : 0.5
      }
    }
  ],
  "meshes" : [
    {
      "primitives" : [
        {
          "attributes" : {
            "POSITION" : 1,
            "NORMAL" : 2,
            "TANGENT" : 3,
            "TEXCOORD_0" : 4
          },
          "indices" : 0,
          "material" : 0
        }
      ],
      "name" : "ASE_DEP_PulseSensor_Gib01"
    }
  ],
  "buffers" : [
    {
      "uri" : "ASE_DEP_PulseSensor_Gib01.bin",
      "byteLength" : 17568
    }
  ],
  "bufferViews" : [
    {
      "buffer" : 0,
      "byteOffset" : 0,
      "byteLength" : 2496
    },
    {
      "buffer" : 0,
      "byteOffset" : 2496,
      "byteLength" : 3768
    },
    {
      "buffer" : 0,
      "byteOffset" : 6264,
      "byteLength" : 3768
    },
    {
      "buffer" : 0,
      "byteOffset" : 10032,
      "byteLength" : 5024
    },
    {
      "buffer" : 0,
      "byteOffset" : 15056,
      "byteLength" : 2512
    }
  ],
  "accessors" : [
    {
      "bufferView" : 0,
      "componentType" : 5123,
      "count" : 1248,
      "type" : "SCALAR"
    },
    {
      "bufferView" : 1,
      "min" : [ -0.171815, -0.109346, -0.152988 ],
      "max" : [ 0.171815, 0.109346, 0.152988 ],
      "componentType" : 5126,
      "count" : 314,
      "type" : "VEC3"
    },
    {
      "bufferView" : 2,
      "componentType" : 5126,
      "count" : 314,
      "type" : "VEC3"
    },
    {
      "bufferView" : 3,
      "componentType" : 5126,
      "count" : 314,
      "type" : "VEC4"
    },
    {
      "bufferView" : 4,
      "componentType" : 5126,
      "count" : 314,
      "type" : "VEC2"
    }
  ]
}
