{
  "asset" : {
    "generator" : "UE Viewer (umodel) build 1575",
    "version" : "2.0"
  },
  "scene" : 0,
  "scenes" : [
    {
      "nodes" : [ 0 ]
    }
  ],
  "nodes" : [
    {
      "name" : "SKL_WEP_LAR_3p",
      "mesh" : 0,
      "skin" : 0,
      "children" : [ 1 ]
    },
    {
      "name" : "R_WEP_root",
      "translation" : [ 0, 9.53674e-09, -0 ],
      "rotation" : [ -1.67638e-07, 2.4647e-14, 2.42144e-07, -1 ]
    }
  ],
  "skins" : [
    {
      "inverseBindMatrices" : 0,
      "skeleton" : 1,
      "joints" : [
        1
      ]
    }
  ],
  "materials" : [
    {
      "name" : "WEP_LAR_3p_Dif01_Mat",
      "pbrMetallicRoughness" : {
        "baseColorFactor" : [ 0.3, 0.3, 0.3, 1.0 ],
        "metallicFactor" : 0.1,
        "roughnessFactor" : 0.5
      }
    }
  ],
  "meshes" : [
    {
      "primitives" : [
        {
          "attributes" : {
            "POSITION" : 2,
            "NORMAL" : 3,
            "TANGENT" : 4,
            "JOINTS_0" : 5,
            "WEIGHTS_0" : 6,
            "TEXCOORD_0" : 7
          },
          "indices" : 1,
          "material" : 0
        }
      ],
      "name" : "SKL_WEP_LAR_3p"
    }
  ],
  "buffers" : [
    {
      "uri" : "SKL_WEP_LAR_3p.bin",
      "byteLength" : 81724
    }
  ],
  "bufferViews" : [
    {
      "buffer" : 0,
      "byteOffset" : 0,
      "byteLength" : 64
    },
    {
      "buffer" : 0,
      "byteOffset" : 64,
      "byteLength" : 7740
    },
    {
      "buffer" : 0,
      "byteOffset" : 7804,
      "byteLength" : 14784
    },
    {
      "buffer" : 0,
      "byteOffset" : 22588,
      "byteLength" : 14784
    },
    {
      "buffer" : 0,
      "byteOffset" : 37372,
      "byteLength" : 19712
    },
    {
      "buffer" : 0,
      "byteOffset" : 57084,
      "byteLength" : 9856
    },
    {
      "buffer" : 0,
      "byteOffset" : 66940,
      "byteLength" : 4928
    },
    {
      "buffer" : 0,
      "byteOffset" : 71868,
      "byteLength" : 9856
    }
  ],
  "accessors" : [
    {
      "bufferView" : 0,
      "componentType" : 5126,
      "count" : 1,
      "type" : "MAT4"
    },
    {
      "bufferView" : 1,
      "componentType" : 5123,
      "count" : 3870,
      "type" : "SCALAR"
    },
    {
      "bufferView" : 2,
      "min" : [ -0.147, -0.0766451, -0.033003 ],
      "max" : [ 0.393983, 0.129918, 0.0219 ],
      "componentType" : 5126,
      "count" : 1232,
      "type" : "VEC3"
    },
    {
      "bufferView" : 3,
      "componentType" : 5126,
      "count" : 1232,
      "type" : "VEC3"
    },
    {
      "bufferView" : 4,
      "componentType" : 5126,
      "count" : 1232,
      "type" : "VEC4"
    },
    {
      "bufferView" : 5,
      "componentType" : 5123,
      "count" : 1232,
      "type" : "VEC4"
    },
    {
      "bufferView" : 6,
      "normalized" : true,
      "componentType" : 5121,
      "count" : 1232,
      "type" : "VEC4"
    },
    {
      "bufferView" : 7,
      "componentType" : 5126,
      "count" : 1232,
      "type" : "VEC2"
    }
  ]
}
