{
  "asset" : {
    "generator" : "UE Viewer (umodel) build 1575",
    "version" : "2.0"
  },
  "scene" : 0,
  "scenes" : [
    {
      "nodes" : [ 0 ]
    }
  ],
  "nodes" : [
    {
      "name" : "ASE_CI_GenericPod_wCollision",
      "mesh" : 0
    }
  ],
  "materials" : [
    {
      "name" : "M_CI_GenericPod",
      "pbrMetallicRoughness" : {
        "baseColorFactor" : [ 0.3, 0.3, 0.3, 1.0 ],
        "metallicFactor" : 0.1,
        "roughnessFactor" : 0.5
      }
    }
  ],
  "meshes" : [
    {
      "primitives" : [
        {
          "attributes" : {
            "POSITION" : 1,
            "NORMAL" : 2,
            "TANGENT" : 3,
            "COLOR_0" : 4,
            "TEXCOORD_0" : 5
          },
          "indices" : 0,
          "material" : 0
        }
      ],
      "name" : "ASE_CI_GenericPod_wCollision"
    }
  ],
  "buffers" : [
    {
      "uri" : "ASE_CI_GenericPod_wCollision.bin",
      "byteLength" : 311468
    }
  ],
  "bufferViews" : [
    {
      "buffer" : 0,
      "byteOffset" : 0,
      "byteLength" : 27600
    },
    {
      "buffer" : 0,
      "byteOffset" : 27600,
      "byteLength" : 65508
    },
    {
      "buffer" : 0,
      "byteOffset" : 93108,
      "byteLength" : 65508
    },
    {
      "buffer" : 0,
      "byteOffset" : 158616,
      "byteLength" : 87344
    },
    {
      "buffer" : 0,
      "byteOffset" : 245960,
      "byteLength" : 21836
    },
    {
      "buffer" : 0,
      "byteOffset" : 267796,
      "byteLength" : 43672
    }
  ],
  "accessors" : [
    {
      "bufferView" : 0,
      "componentType" : 5123,
      "count" : 13800,
      "type" : "SCALAR"
    },
    {
      "bufferView" : 1,
      "min" : [ -3.84699, -1.04358, -1.20502 ],
      "max" : [ 0.976409, 1.04358, 0.867602 ],
      "componentType" : 5126,
      "count" : 5459,
      "type" : "VEC3"
    },
    {
      "bufferView" : 2,
      "componentType" : 5126,
      "count" : 5459,
      "type" : "VEC3"
    },
    {
      "bufferView" : 3,
      "componentType" : 5126,
      "count" : 5459,
      "type" : "VEC4"
    },
    {
      "bufferView" : 4,
      "normalized" : true,
      "componentType" : 5121,
      "count" : 5459,
      "type" : "VEC4"
    },
    {
      "bufferView" : 5,
      "componentType" : 5126,
      "count" : 5459,
      "type" : "VEC2"
    }
  ]
}
