{
  "asset" : {
    "generator" : "UE Viewer (umodel) build 1575",
    "version" : "2.0"
  },
  "scene" : 0,
  "scenes" : [
    {
      "nodes" : [ 0 ]
    }
  ],
  "nodes" : [
    {
      "name" : "SKL_WEP_SN7_3p",
      "mesh" : 0,
      "skin" : 0,
      "children" : [ 1 ]
    },
    {
      "name" : "R_WEP_root",
      "translation" : [ 0, 9.53674e-09, -3.8147e-08 ],
      "rotation" : [ -1.62981e-07, 1.93832e-07, 1.62981e-07, -1 ]
    }
  ],
  "skins" : [
    {
      "inverseBindMatrices" : 0,
      "skeleton" : 1,
      "joints" : [
        1
      ]
    }
  ],
  "materials" : [
    {
      "name" : "MAT_SN7_3p",
      "pbrMetallicRoughness" : {
        "baseColorFactor" : [ 0.3, 0.3, 0.3, 1.0 ],
        "metallicFactor" : 0.1,
        "roughnessFactor" : 0.5
      }
    }
  ],
  "meshes" : [
    {
      "primitives" : [
        {
          "attributes" : {
            "POSITION" : 2,
            "NORMAL" : 3,
            "TANGENT" : 4,
            "JOINTS_0" : 5,
            "WEIGHTS_0" : 6,
            "TEXCOORD_0" : 7,
            "TEXCOORD_1" : 8
          },
          "indices" : 1,
          "material" : 0
        }
      ],
      "name" : "SKL_WEP_SN7_3p"
    }
  ],
  "buffers" : [
    {
      "uri" : "SKL_WEP_SN7_3p.bin",
      "byteLength" : 154204
    }
  ],
  "bufferViews" : [
    {
      "buffer" : 0,
      "byteOffset" : 0,
      "byteLength" : 64
    },
    {
      "buffer" : 0,
      "byteOffset" : 64,
      "byteLength" : 10320
    },
    {
      "buffer" : 0,
      "byteOffset" : 10384,
      "byteLength" : 25380
    },
    {
      "buffer" : 0,
      "byteOffset" : 35764,
      "byteLength" : 25380
    },
    {
      "buffer" : 0,
      "byteOffset" : 61144,
      "byteLength" : 33840
    },
    {
      "buffer" : 0,
      "byteOffset" : 94984,
      "byteLength" : 16920
    },
    {
      "buffer" : 0,
      "byteOffset" : 111904,
      "byteLength" : 8460
    },
    {
      "buffer" : 0,
      "byteOffset" : 120364,
      "byteLength" : 16920
    },
    {
      "buffer" : 0,
      "byteOffset" : 137284,
      "byteLength" : 16920
    }
  ],
  "accessors" : [
    {
      "bufferView" : 0,
      "componentType" : 5126,
      "count" : 1,
      "type" : "MAT4"
    },
    {
      "bufferView" : 1,
      "componentType" : 5123,
      "count" : 5160,
      "type" : "SCALAR"
    },
    {
      "bufferView" : 2,
      "min" : [ -0.0272354, -0.034879, -0.0217553 ],
      "max" : [ 0.336233, 0.0770025, 0.0217552 ],
      "componentType" : 5126,
      "count" : 2115,
      "type" : "VEC3"
    },
    {
      "bufferView" : 3,
      "componentType" : 5126,
      "count" : 2115,
      "type" : "VEC3"
    },
    {
      "bufferView" : 4,
      "componentType" : 5126,
      "count" : 2115,
      "type" : "VEC4"
    },
    {
      "bufferView" : 5,
      "componentType" : 5123,
      "count" : 2115,
      "type" : "VEC4"
    },
    {
      "bufferView" : 6,
      "normalized" : true,
      "componentType" : 5121,
      "count" : 2115,
      "type" : "VEC4"
    },
    {
      "bufferView" : 7,
      "componentType" : 5126,
      "count" : 2115,
      "type" : "VEC2"
    },
    {
      "bufferView" : 8,
      "componentType" : 5126,
      "count" : 2115,
      "type" : "VEC2"
    }
  ]
}
