{
  "asset" : {
    "generator" : "UE Viewer (umodel) build 1575",
    "version" : "2.0"
  },
  "scene" : 0,
  "scenes" : [
    {
      "nodes" : [ 0 ]
    }
  ],
  "nodes" : [
    {
      "name" : "ASE_WEP_StickyGrenade_Open",
      "mesh" : 0
    }
  ],
  "materials" : [
    {
      "name" : "MIC_StickyGrenade_US",
      "pbrMetallicRoughness" : {
        "baseColorFactor" : [ 0.3, 0.3, 0.3, 1.0 ],
        "metallicFactor" : 0.1,
        "roughnessFactor" : 0.5
      }
    }
  ],
  "meshes" : [
    {
      "primitives" : [
        {
          "attributes" : {
            "POSITION" : 1,
            "NORMAL" : 2,
            "TANGENT" : 3,
            "TEXCOORD_0" : 4,
            "TEXCOORD_1" : 5
          },
          "indices" : 0,
          "material" : 0
        }
      ],
      "name" : "ASE_WEP_StickyGrenade_Open"
    }
  ],
  "buffers" : [
    {
      "uri" : "ASE_WEP_StickyGrenade_Open.bin",
      "byteLength" : 62988
    }
  ],
  "bufferViews" : [
    {
      "buffer" : 0,
      "byteOffset" : 0,
      "byteLength" : 5700
    },
    {
      "buffer" : 0,
      "byteOffset" : 5700,
      "byteLength" : 12276
    },
    {
      "buffer" : 0,
      "byteOffset" : 17976,
      "byteLength" : 12276
    },
    {
      "buffer" : 0,
      "byteOffset" : 30252,
      "byteLength" : 16368
    },
    {
      "buffer" : 0,
      "byteOffset" : 46620,
      "byteLength" : 8184
    },
    {
      "buffer" : 0,
      "byteOffset" : 54804,
      "byteLength" : 8184
    }
  ],
  "accessors" : [
    {
      "bufferView" : 0,
      "componentType" : 5123,
      "count" : 2850,
      "type" : "SCALAR"
    },
    {
      "bufferView" : 1,
      "min" : [ -0.051239, -0.03373, -0.055022 ],
      "max" : [ 0.051733, 0.116857, 0.055004 ],
      "componentType" : 5126,
      "count" : 1023,
      "type" : "VEC3"
    },
    {
      "bufferView" : 2,
      "componentType" : 5126,
      "count" : 1023,
      "type" : "VEC3"
    },
    {
      "bufferView" : 3,
      "componentType" : 5126,
      "count" : 1023,
      "type" : "VEC4"
    },
    {
      "bufferView" : 4,
      "componentType" : 5126,
      "count" : 1023,
      "type" : "VEC2"
    },
    {
      "bufferView" : 5,
      "componentType" : 5126,
      "count" : 1023,
      "type" : "VEC2"
    }
  ]
}
