{
  "asset" : {
    "generator" : "UE Viewer (umodel) build 1575",
    "version" : "2.0"
  },
  "scene" : 0,
  "scenes" : [
    {
      "nodes" : [ 0 ]
    }
  ],
  "nodes" : [
    {
      "name" : "ASE_sticky_grenade",
      "mesh" : 0
    }
  ],
  "materials" : [
    {
      "name" : "MAT_Sticky_Grenade",
      "pbrMetallicRoughness" : {
        "baseColorFactor" : [ 0.3, 0.3, 0.3, 1.0 ],
        "metallicFactor" : 0.1,
        "roughnessFactor" : 0.5
      }
    }
  ],
  "meshes" : [
    {
      "primitives" : [
        {
          "attributes" : {
            "POSITION" : 1,
            "NORMAL" : 2,
            "TANGENT" : 3,
            "TEXCOORD_0" : 4
          },
          "indices" : 0,
          "material" : 0
        }
      ],
      "name" : "ASE_sticky_grenade"
    }
  ],
  "buffers" : [
    {
      "uri" : "ASE_sticky_grenade.bin",
      "byteLength" : 66528
    }
  ],
  "bufferViews" : [
    {
      "buffer" : 0,
      "byteOffset" : 0,
      "byteLength" : 9792
    },
    {
      "buffer" : 0,
      "byteOffset" : 9792,
      "byteLength" : 14184
    },
    {
      "buffer" : 0,
      "byteOffset" : 23976,
      "byteLength" : 14184
    },
    {
      "buffer" : 0,
      "byteOffset" : 38160,
      "byteLength" : 18912
    },
    {
      "buffer" : 0,
      "byteOffset" : 57072,
      "byteLength" : 9456
    }
  ],
  "accessors" : [
    {
      "bufferView" : 0,
      "componentType" : 5123,
      "count" : 4896,
      "type" : "SCALAR"
    },
    {
      "bufferView" : 1,
      "min" : [ -0.919853, -0.307644, -0.838601 ],
      "max" : [ 0.919853, 0.307644, 0.838601 ],
      "componentType" : 5126,
      "count" : 1182,
      "type" : "VEC3"
    },
    {
      "bufferView" : 2,
      "componentType" : 5126,
      "count" : 1182,
      "type" : "VEC3"
    },
    {
      "bufferView" : 3,
      "componentType" : 5126,
      "count" : 1182,
      "type" : "VEC4"
    },
    {
      "bufferView" : 4,
      "componentType" : 5126,
      "count" : 1182,
      "type" : "VEC2"
    }
  ]
}
