{
  "asset" : {
    "generator" : "UE Viewer (umodel) build 1575",
    "version" : "2.0"
  },
  "scene" : 0,
  "scenes" : [
    {
      "nodes" : [ 0 ]
    }
  ],
  "nodes" : [
    {
      "name" : "SKL_WEP_StickyGrenade_3p",
      "mesh" : 0,
      "skin" : 0,
      "children" : [ 1 ]
    },
    {
      "name" : "R_WEP_root",
      "translation" : [ 0, 9.53674e-09, -3.8147e-08 ],
      "rotation" : [ -3.59491e-07, -4.65565e-10, 2.38418e-07, -1 ]
    }
  ],
  "skins" : [
    {
      "inverseBindMatrices" : 0,
      "skeleton" : 1,
      "joints" : [
        1
      ]
    }
  ],
  "materials" : [
    {
      "name" : "MAT_Sticky_Grenade_3P",
      "pbrMetallicRoughness" : {
        "baseColorFactor" : [ 0.3, 0.3, 0.3, 1.0 ],
        "metallicFactor" : 0.1,
        "roughnessFactor" : 0.5
      }
    }
  ],
  "meshes" : [
    {
      "primitives" : [
        {
          "attributes" : {
            "POSITION" : 2,
            "NORMAL" : 3,
            "TANGENT" : 4,
            "JOINTS_0" : 5,
            "WEIGHTS_0" : 6,
            "TEXCOORD_0" : 7
          },
          "indices" : 1,
          "material" : 0
        }
      ],
      "name" : "SKL_WEP_StickyGrenade_3p"
    }
  ],
  "buffers" : [
    {
      "uri" : "SKL_WEP_StickyGrenade_3p.bin",
      "byteLength" : 23668
    }
  ],
  "bufferViews" : [
    {
      "buffer" : 0,
      "byteOffset" : 0,
      "byteLength" : 64
    },
    {
      "buffer" : 0,
      "byteOffset" : 64,
      "byteLength" : 2484
    },
    {
      "buffer" : 0,
      "byteOffset" : 2548,
      "byteLength" : 4224
    },
    {
      "buffer" : 0,
      "byteOffset" : 6772,
      "byteLength" : 4224
    },
    {
      "buffer" : 0,
      "byteOffset" : 10996,
      "byteLength" : 5632
    },
    {
      "buffer" : 0,
      "byteOffset" : 16628,
      "byteLength" : 2816
    },
    {
      "buffer" : 0,
      "byteOffset" : 19444,
      "byteLength" : 1408
    },
    {
      "buffer" : 0,
      "byteOffset" : 20852,
      "byteLength" : 2816
    }
  ],
  "accessors" : [
    {
      "bufferView" : 0,
      "componentType" : 5126,
      "count" : 1,
      "type" : "MAT4"
    },
    {
      "bufferView" : 1,
      "componentType" : 5123,
      "count" : 1242,
      "type" : "SCALAR"
    },
    {
      "bufferView" : 2,
      "min" : [ -0.0440262, -0.0400055, -0.0150505 ],
      "max" : [ 0.0439458, 0.0397954, 0.0147176 ],
      "componentType" : 5126,
      "count" : 352,
      "type" : "VEC3"
    },
    {
      "bufferView" : 3,
      "componentType" : 5126,
      "count" : 352,
      "type" : "VEC3"
    },
    {
      "bufferView" : 4,
      "componentType" : 5126,
      "count" : 352,
      "type" : "VEC4"
    },
    {
      "bufferView" : 5,
      "componentType" : 5123,
      "count" : 352,
      "type" : "VEC4"
    },
    {
      "bufferView" : 6,
      "normalized" : true,
      "componentType" : 5121,
      "count" : 352,
      "type" : "VEC4"
    },
    {
      "bufferView" : 7,
      "componentType" : 5126,
      "count" : 352,
      "type" : "VEC2"
    }
  ]
}
