{
  "asset" : {
    "generator" : "UE Viewer (umodel) build 1575",
    "version" : "2.0"
  },
  "scene" : 0,
  "scenes" : [
    {
      "nodes" : [ 0 ]
    }
  ],
  "nodes" : [
    {
      "name" : "ASE_Proj_Remote_Explosive",
      "mesh" : 0
    }
  ],
  "materials" : [
    {
      "name" : "dummy_material_0",
      "pbrMetallicRoughness" : {
        "baseColorFactor" : [ 0.3, 0.3, 0.3, 1.0 ],
        "metallicFactor" : 0.1,
        "roughnessFactor" : 0.5
      }
    }
  ],
  "meshes" : [
    {
      "primitives" : [
        {
          "attributes" : {
            "POSITION" : 1,
            "NORMAL" : 2,
            "TANGENT" : 3,
            "COLOR_0" : 4,
            "TEXCOORD_0" : 5
          },
          "indices" : 0,
          "material" : 0
        }
      ],
      "name" : "ASE_Proj_Remote_Explosive"
    }
  ],
  "buffers" : [
    {
      "uri" : "ASE_Proj_Remote_Explosive.bin",
      "byteLength" : 6696
    }
  ],
  "bufferViews" : [
    {
      "buffer" : 0,
      "byteOffset" : 0,
      "byteLength" : 1080
    },
    {
      "buffer" : 0,
      "byteOffset" : 1080,
      "byteLength" : 1296
    },
    {
      "buffer" : 0,
      "byteOffset" : 2376,
      "byteLength" : 1296
    },
    {
      "buffer" : 0,
      "byteOffset" : 3672,
      "byteLength" : 1728
    },
    {
      "buffer" : 0,
      "byteOffset" : 5400,
      "byteLength" : 432
    },
    {
      "buffer" : 0,
      "byteOffset" : 5832,
      "byteLength" : 864
    }
  ],
  "accessors" : [
    {
      "bufferView" : 0,
      "componentType" : 5123,
      "count" : 540,
      "type" : "SCALAR"
    },
    {
      "bufferView" : 1,
      "min" : [ -0.010005, -0.01294, -0.0088 ],
      "max" : [ 0.010639, 0.008741, 0.011226 ],
      "componentType" : 5126,
      "count" : 108,
      "type" : "VEC3"
    },
    {
      "bufferView" : 2,
      "componentType" : 5126,
      "count" : 108,
      "type" : "VEC3"
    },
    {
      "bufferView" : 3,
      "componentType" : 5126,
      "count" : 108,
      "type" : "VEC4"
    },
    {
      "bufferView" : 4,
      "normalized" : true,
      "componentType" : 5121,
      "count" : 108,
      "type" : "VEC4"
    },
    {
      "bufferView" : 5,
      "componentType" : 5126,
      "count" : 108,
      "type" : "VEC2"
    }
  ]
}
