{
  "asset" : {
    "generator" : "UE Viewer (umodel) build 1575",
    "version" : "2.0"
  },
  "scene" : 0,
  "scenes" : [
    {
      "nodes" : [ 0 ]
    }
  ],
  "nodes" : [
    {
      "name" : "ASE_DEP_TurretLight_Gib02",
      "mesh" : 0
    }
  ],
  "materials" : [
    {
      "name" : "MAT_Gibs",
      "pbrMetallicRoughness" : {
        "baseColorFactor" : [ 0.3, 0.3, 0.3, 1.0 ],
        "metallicFactor" : 0.1,
        "roughnessFactor" : 0.5
      }
    }
  ],
  "meshes" : [
    {
      "primitives" : [
        {
          "attributes" : {
            "POSITION" : 1,
            "NORMAL" : 2,
            "TANGENT" : 3,
            "TEXCOORD_0" : 4
          },
          "indices" : 0,
          "material" : 0
        }
      ],
      "name" : "ASE_DEP_TurretLight_Gib02"
    }
  ],
  "buffers" : [
    {
      "uri" : "ASE_DEP_TurretLight_Gib02.bin",
      "byteLength" : 23940
    }
  ],
  "bufferViews" : [
    {
      "buffer" : 0,
      "byteOffset" : 0,
      "byteLength" : 2964
    },
    {
      "buffer" : 0,
      "byteOffset" : 2964,
      "byteLength" : 5244
    },
    {
      "buffer" : 0,
      "byteOffset" : 8208,
      "byteLength" : 5244
    },
    {
      "buffer" : 0,
      "byteOffset" : 13452,
      "byteLength" : 6992
    },
    {
      "buffer" : 0,
      "byteOffset" : 20444,
      "byteLength" : 3496
    }
  ],
  "accessors" : [
    {
      "bufferView" : 0,
      "componentType" : 5123,
      "count" : 1482,
      "type" : "SCALAR"
    },
    {
      "bufferView" : 1,
      "min" : [ -0.062596, -0.084898, -0.06288 ],
      "max" : [ 0.063138, 0.118674, 0.062854 ],
      "componentType" : 5126,
      "count" : 437,
      "type" : "VEC3"
    },
    {
      "bufferView" : 2,
      "componentType" : 5126,
      "count" : 437,
      "type" : "VEC3"
    },
    {
      "bufferView" : 3,
      "componentType" : 5126,
      "count" : 437,
      "type" : "VEC4"
    },
    {
      "bufferView" : 4,
      "componentType" : 5126,
      "count" : 437,
      "type" : "VEC2"
    }
  ]
}
