{
  "asset" : {
    "generator" : "UE Viewer (umodel) build 1575",
    "version" : "2.0"
  },
  "scene" : 0,
  "scenes" : [
    {
      "nodes" : [ 0 ]
    }
  ],
  "nodes" : [
    {
      "name" : "ASE_DEP_TurretLight_Gib03",
      "mesh" : 0
    }
  ],
  "materials" : [
    {
      "name" : "MAT_Gibs",
      "pbrMetallicRoughness" : {
        "baseColorFactor" : [ 0.3, 0.3, 0.3, 1.0 ],
        "metallicFactor" : 0.1,
        "roughnessFactor" : 0.5
      }
    }
  ],
  "meshes" : [
    {
      "primitives" : [
        {
          "attributes" : {
            "POSITION" : 1,
            "NORMAL" : 2,
            "TANGENT" : 3,
            "TEXCOORD_0" : 4
          },
          "indices" : 0,
          "material" : 0
        }
      ],
      "name" : "ASE_DEP_TurretLight_Gib03"
    }
  ],
  "buffers" : [
    {
      "uri" : "ASE_DEP_TurretLight_Gib03.bin",
      "byteLength" : 7152
    }
  ],
  "bufferViews" : [
    {
      "buffer" : 0,
      "byteOffset" : 0,
      "byteLength" : 720
    },
    {
      "buffer" : 0,
      "byteOffset" : 720,
      "byteLength" : 1608
    },
    {
      "buffer" : 0,
      "byteOffset" : 2328,
      "byteLength" : 1608
    },
    {
      "buffer" : 0,
      "byteOffset" : 3936,
      "byteLength" : 2144
    },
    {
      "buffer" : 0,
      "byteOffset" : 6080,
      "byteLength" : 1072
    }
  ],
  "accessors" : [
    {
      "bufferView" : 0,
      "componentType" : 5123,
      "count" : 360,
      "type" : "SCALAR"
    },
    {
      "bufferView" : 1,
      "min" : [ -0.048796, -0.039695, -0.066309 ],
      "max" : [ 0.048796, 0.039695, 0.066309 ],
      "componentType" : 5126,
      "count" : 134,
      "type" : "VEC3"
    },
    {
      "bufferView" : 2,
      "componentType" : 5126,
      "count" : 134,
      "type" : "VEC3"
    },
    {
      "bufferView" : 3,
      "componentType" : 5126,
      "count" : 134,
      "type" : "VEC4"
    },
    {
      "bufferView" : 4,
      "componentType" : 5126,
      "count" : 134,
      "type" : "VEC2"
    }
  ]
}
