{
  "asset" : {
    "generator" : "UE Viewer (umodel) build 1575",
    "version" : "2.0"
  },
  "scene" : 0,
  "scenes" : [
    {
      "nodes" : [ 0 ]
    }
  ],
  "nodes" : [
    {
      "name" : "ASE_DEP_TurretLight_Gib04",
      "mesh" : 0
    }
  ],
  "materials" : [
    {
      "name" : "MAT_Gibs",
      "pbrMetallicRoughness" : {
        "baseColorFactor" : [ 0.3, 0.3, 0.3, 1.0 ],
        "metallicFactor" : 0.1,
        "roughnessFactor" : 0.5
      }
    }
  ],
  "meshes" : [
    {
      "primitives" : [
        {
          "attributes" : {
            "POSITION" : 1,
            "NORMAL" : 2,
            "TANGENT" : 3,
            "TEXCOORD_0" : 4
          },
          "indices" : 0,
          "material" : 0
        }
      ],
      "name" : "ASE_DEP_TurretLight_Gib04"
    }
  ],
  "buffers" : [
    {
      "uri" : "ASE_DEP_TurretLight_Gib04.bin",
      "byteLength" : 20184
    }
  ],
  "bufferViews" : [
    {
      "buffer" : 0,
      "byteOffset" : 0,
      "byteLength" : 2280
    },
    {
      "buffer" : 0,
      "byteOffset" : 2280,
      "byteLength" : 4476
    },
    {
      "buffer" : 0,
      "byteOffset" : 6756,
      "byteLength" : 4476
    },
    {
      "buffer" : 0,
      "byteOffset" : 11232,
      "byteLength" : 5968
    },
    {
      "buffer" : 0,
      "byteOffset" : 17200,
      "byteLength" : 2984
    }
  ],
  "accessors" : [
    {
      "bufferView" : 0,
      "componentType" : 5123,
      "count" : 1140,
      "type" : "SCALAR"
    },
    {
      "bufferView" : 1,
      "min" : [ -0.041183, -0.064234, -0.049491 ],
      "max" : [ 0.041183, 0.147278, 0.168851 ],
      "componentType" : 5126,
      "count" : 373,
      "type" : "VEC3"
    },
    {
      "bufferView" : 2,
      "componentType" : 5126,
      "count" : 373,
      "type" : "VEC3"
    },
    {
      "bufferView" : 3,
      "componentType" : 5126,
      "count" : 373,
      "type" : "VEC4"
    },
    {
      "bufferView" : 4,
      "componentType" : 5126,
      "count" : 373,
      "type" : "VEC2"
    }
  ]
}
