{
  "asset" : {
    "generator" : "UE Viewer (umodel) build 1575",
    "version" : "2.0"
  },
  "scene" : 0,
  "scenes" : [
    {
      "nodes" : [ 0 ]
    }
  ],
  "nodes" : [
    {
      "name" : "SKL_WEP_AutoShotgun_3p",
      "mesh" : 0,
      "skin" : 0,
      "children" : [ 1 ]
    },
    {
      "name" : "R_WEP_root",
      "translation" : [ 0, 9.53674e-09, -0 ],
      "rotation" : [ -3.50177e-07, 9.31439e-10, 2.68221e-07, -1 ]
    }
  ],
  "skins" : [
    {
      "inverseBindMatrices" : 0,
      "skeleton" : 1,
      "joints" : [
        1
      ]
    }
  ],
  "materials" : [
    {
      "name" : "MAT_wep_autoshotgun_3p",
      "pbrMetallicRoughness" : {
        "baseColorFactor" : [ 0.3, 0.3, 0.3, 1.0 ],
        "metallicFactor" : 0.1,
        "roughnessFactor" : 0.5
      }
    }
  ],
  "meshes" : [
    {
      "primitives" : [
        {
          "attributes" : {
            "POSITION" : 2,
            "NORMAL" : 3,
            "TANGENT" : 4,
            "JOINTS_0" : 5,
            "WEIGHTS_0" : 6,
            "TEXCOORD_0" : 7
          },
          "indices" : 1,
          "material" : 0
        }
      ],
      "name" : "SKL_WEP_AutoShotgun_3p"
    }
  ],
  "buffers" : [
    {
      "uri" : "SKL_WEP_AutoShotgun_3p.bin",
      "byteLength" : 122748
    }
  ],
  "bufferViews" : [
    {
      "buffer" : 0,
      "byteOffset" : 0,
      "byteLength" : 64
    },
    {
      "buffer" : 0,
      "byteOffset" : 64,
      "byteLength" : 9404
    },
    {
      "buffer" : 0,
      "byteOffset" : 9468,
      "byteLength" : 22656
    },
    {
      "buffer" : 0,
      "byteOffset" : 32124,
      "byteLength" : 22656
    },
    {
      "buffer" : 0,
      "byteOffset" : 54780,
      "byteLength" : 30208
    },
    {
      "buffer" : 0,
      "byteOffset" : 84988,
      "byteLength" : 15104
    },
    {
      "buffer" : 0,
      "byteOffset" : 100092,
      "byteLength" : 7552
    },
    {
      "buffer" : 0,
      "byteOffset" : 107644,
      "byteLength" : 15104
    }
  ],
  "accessors" : [
    {
      "bufferView" : 0,
      "componentType" : 5126,
      "count" : 1,
      "type" : "MAT4"
    },
    {
      "bufferView" : 1,
      "componentType" : 5123,
      "count" : 4701,
      "type" : "SCALAR"
    },
    {
      "bufferView" : 2,
      "min" : [ -0.173609, -0.0524897, -0.0394589 ],
      "max" : [ 0.319884, 0.0975684, 0.0394589 ],
      "componentType" : 5126,
      "count" : 1888,
      "type" : "VEC3"
    },
    {
      "bufferView" : 3,
      "componentType" : 5126,
      "count" : 1888,
      "type" : "VEC3"
    },
    {
      "bufferView" : 4,
      "componentType" : 5126,
      "count" : 1888,
      "type" : "VEC4"
    },
    {
      "bufferView" : 5,
      "componentType" : 5123,
      "count" : 1888,
      "type" : "VEC4"
    },
    {
      "bufferView" : 6,
      "normalized" : true,
      "componentType" : 5121,
      "count" : 1888,
      "type" : "VEC4"
    },
    {
      "bufferView" : 7,
      "componentType" : 5126,
      "count" : 1888,
      "type" : "VEC2"
    }
  ]
}
