{
  "asset" : {
    "generator" : "UE Viewer (umodel) build 1575",
    "version" : "2.0"
  },
  "scene" : 0,
  "scenes" : [
    {
      "nodes" : [ 0 ]
    }
  ],
  "nodes" : [
    {
      "name" : "SKL_DEP_PrismMine_3p",
      "mesh" : 0,
      "skin" : 0,
      "children" : [ 1 ]
    },
    {
      "name" : "R_DEP_root",
      "children" : [ 2 ],
      "translation" : [ 0, 1.90735e-08, -3.8147e-08 ],
      "rotation" : [ -3.50177e-07, -5.12222e-09, 2.49594e-07, -1 ]
    },
    {
      "name" : "prism_pt",
      "children" : [ 3 ],
      "translation" : [ -4.99188e-08, 0.0999999, 1.49009e-09 ],
      "rotation" : [ -1.67637e-08, 6.05346e-09, -2.42144e-07, -1 ]
    },
    {
      "name" : "prism",
      "translation" : [ 0, 0, -0 ],
      "rotation" : [ -0, -2.77556e-17, 0, -1 ]
    }
  ],
  "skins" : [
    {
      "inverseBindMatrices" : 0,
      "skeleton" : 1,
      "joints" : [
        1,2,3
      ]
    }
  ],
  "materials" : [
    {
      "name" : "MAT_WEP_PrismMine",
      "pbrMetallicRoughness" : {
        "baseColorFactor" : [ 0.3, 0.3, 0.3, 1.0 ],
        "metallicFactor" : 0.1,
        "roughnessFactor" : 0.5
      }
    }
  ],
  "meshes" : [
    {
      "primitives" : [
        {
          "attributes" : {
            "POSITION" : 2,
            "NORMAL" : 3,
            "TANGENT" : 4,
            "JOINTS_0" : 5,
            "WEIGHTS_0" : 6,
            "TEXCOORD_0" : 7
          },
          "indices" : 1,
          "material" : 0
        }
      ],
      "name" : "SKL_DEP_PrismMine_3p"
    }
  ],
  "buffers" : [
    {
      "uri" : "SKL_DEP_PrismMine_3p.bin",
      "byteLength" : 54900
    }
  ],
  "bufferViews" : [
    {
      "buffer" : 0,
      "byteOffset" : 0,
      "byteLength" : 192
    },
    {
      "buffer" : 0,
      "byteOffset" : 192,
      "byteLength" : 4968
    },
    {
      "buffer" : 0,
      "byteOffset" : 5160,
      "byteLength" : 9948
    },
    {
      "buffer" : 0,
      "byteOffset" : 15108,
      "byteLength" : 9948
    },
    {
      "buffer" : 0,
      "byteOffset" : 25056,
      "byteLength" : 13264
    },
    {
      "buffer" : 0,
      "byteOffset" : 38320,
      "byteLength" : 6632
    },
    {
      "buffer" : 0,
      "byteOffset" : 44952,
      "byteLength" : 3316
    },
    {
      "buffer" : 0,
      "byteOffset" : 48268,
      "byteLength" : 6632
    }
  ],
  "accessors" : [
    {
      "bufferView" : 0,
      "componentType" : 5126,
      "count" : 3,
      "type" : "MAT4"
    },
    {
      "bufferView" : 1,
      "componentType" : 5123,
      "count" : 2484,
      "type" : "SCALAR"
    },
    {
      "bufferView" : 2,
      "min" : [ -0.185282, -0.0103211, -0.185704 ],
      "max" : [ 0.185806, 0.191111, 0.185384 ],
      "componentType" : 5126,
      "count" : 829,
      "type" : "VEC3"
    },
    {
      "bufferView" : 3,
      "componentType" : 5126,
      "count" : 829,
      "type" : "VEC3"
    },
    {
      "bufferView" : 4,
      "componentType" : 5126,
      "count" : 829,
      "type" : "VEC4"
    },
    {
      "bufferView" : 5,
      "componentType" : 5123,
      "count" : 829,
      "type" : "VEC4"
    },
    {
      "bufferView" : 6,
      "normalized" : true,
      "componentType" : 5121,
      "count" : 829,
      "type" : "VEC4"
    },
    {
      "bufferView" : 7,
      "componentType" : 5126,
      "count" : 829,
      "type" : "VEC2"
    }
  ]
}
