{
  "asset" : {
    "generator" : "UE Viewer (umodel) build 1575",
    "version" : "2.0"
  },
  "scene" : 0,
  "scenes" : [
    {
      "nodes" : [ 0 ]
    }
  ],
  "nodes" : [
    {
      "name" : "ASE_ForceField_Base",
      "mesh" : 0
    }
  ],
  "materials" : [
    {
      "name" : "MAT_ForceField_Base",
      "pbrMetallicRoughness" : {
        "baseColorFactor" : [ 0.3, 0.3, 0.3, 1.0 ],
        "metallicFactor" : 0.1,
        "roughnessFactor" : 0.5
      }
    }
  ],
  "meshes" : [
    {
      "primitives" : [
        {
          "attributes" : {
            "POSITION" : 1,
            "NORMAL" : 2,
            "TANGENT" : 3,
            "TEXCOORD_0" : 4
          },
          "indices" : 0,
          "material" : 0
        }
      ],
      "name" : "ASE_ForceField_Base"
    }
  ],
  "buffers" : [
    {
      "uri" : "ASE_ForceField_Base.bin",
      "byteLength" : 101580
    }
  ],
  "bufferViews" : [
    {
      "buffer" : 0,
      "byteOffset" : 0,
      "byteLength" : 11292
    },
    {
      "buffer" : 0,
      "byteOffset" : 11292,
      "byteLength" : 22572
    },
    {
      "buffer" : 0,
      "byteOffset" : 33864,
      "byteLength" : 22572
    },
    {
      "buffer" : 0,
      "byteOffset" : 56436,
      "byteLength" : 30096
    },
    {
      "buffer" : 0,
      "byteOffset" : 86532,
      "byteLength" : 15048
    }
  ],
  "accessors" : [
    {
      "bufferView" : 0,
      "componentType" : 5123,
      "count" : 5646,
      "type" : "SCALAR"
    },
    {
      "bufferView" : 1,
      "min" : [ -1.13668, -0.049655, -0.491342 ],
      "max" : [ 1.13668, 0.185751, 0.491342 ],
      "componentType" : 5126,
      "count" : 1881,
      "type" : "VEC3"
    },
    {
      "bufferView" : 2,
      "componentType" : 5126,
      "count" : 1881,
      "type" : "VEC3"
    },
    {
      "bufferView" : 3,
      "componentType" : 5126,
      "count" : 1881,
      "type" : "VEC4"
    },
    {
      "bufferView" : 4,
      "componentType" : 5126,
      "count" : 1881,
      "type" : "VEC2"
    }
  ]
}
