{
  "asset" : {
    "generator" : "UE Viewer (umodel) build 1575",
    "version" : "2.0"
  },
  "scene" : 0,
  "scenes" : [
    {
      "nodes" : [ 0 ]
    }
  ],
  "nodes" : [
    {
      "name" : "SKL_DEP_ForceField_3p",
      "mesh" : 0,
      "skin" : 0,
      "children" : [ 1 ]
    },
    {
      "name" : "R_WEP_root",
      "children" : [ 2 ],
      "translation" : [ 0, 0, -0 ],
      "rotation" : [ -0, 0.707107, 0, -0.707107 ]
    },
    {
      "name" : "R_WEP_CoM",
      "children" : [ 3 ],
      "translation" : [ 0, 0, -0 ],
      "rotation" : [ -4.47035e-08, 1.58819e-22, 2.23518e-08, -1 ]
    },
    {
      "name" : "R_WEP_base",
      "children" : [ 4, 6, 8, 10, 12, 14, 16, 18, 20, 22, 24 ],
      "translation" : [ 0, 0, -0 ],
      "rotation" : [ -2.68221e-07, -3.88578e-15, 7.45057e-09, -1 ]
    },
    {
      "name" : "B_hinge_pt",
      "children" : [ 5 ],
      "translation" : [ -0.124088, 0.0196218, -0.000112039 ],
      "rotation" : [ 1.84392e-07, -0.707106, 0.707107, 2.05466e-07 ]
    },
    {
      "name" : "B_hinge",
      "translation" : [ -9.53674e-09, -2.38419e-09, -0 ],
      "rotation" : [ -0, -0, -4.88498e-15, -1 ]
    },
    {
      "name" : "F_hinge_pt",
      "children" : [ 7 ],
      "translation" : [ 0.126834, 0.0196218, -0.000112039 ],
      "rotation" : [ 0.707107, 1.89661e-07, -2.73955e-07, -0.707107 ]
    },
    {
      "name" : "F_hinge",
      "translation" : [ 0, 1.19209e-09, 9.53674e-09 ],
      "rotation" : [ 8.47033e-22, -1.19209e-07, 7.10543e-15, -1 ]
    },
    {
      "name" : "M_hinge_pt",
      "children" : [ 9 ],
      "translation" : [ -0.0319518, 0.0645151, -0.000112082 ],
      "rotation" : [ 1.84392e-07, -0.707106, 0.707107, 2.05466e-07 ]
    },
    {
      "name" : "M_hinge",
      "translation" : [ -4.76837e-09, -2.38419e-09, -0 ],
      "rotation" : [ -0, -0, -4.88498e-15, -1 ]
    },
    {
      "name" : "RB_corner_pt",
      "children" : [ 11 ],
      "translation" : [ -0.065, 0.0250002, 0.33 ],
      "rotation" : [ -0.707107, 7.30555e-08, 0.707107, -3.48413e-07 ]
    },
    {
      "name" : "RB_corner",
      "translation" : [ 0, 0, -0 ],
      "rotation" : [ -1.50996e-07, 1.30271e-15, -1.32349e-22, -1 ]
    },
    {
      "name" : "RF_corner_pt",
      "children" : [ 13 ],
      "translation" : [ 0.065, 0.0250002, 0.33 ],
      "rotation" : [ 1.46111e-07, 0.707107, -8.42937e-08, -0.707107 ]
    },
    {
      "name" : "RF_corner",
      "translation" : [ 0, 0, -4.76837e-09 ],
      "rotation" : [ -4.37114e-08, 1.1546e-14, 4.37114e-08, -1 ]
    },
    {
      "name" : "LB_corner_pt",
      "children" : [ 15 ],
      "translation" : [ -0.065, 0.0249998, -0.33 ],
      "rotation" : [ 2.10734e-07, -0.707107, 2.10734e-07, -0.707107 ]
    },
    {
      "name" : "LB_corner",
      "translation" : [ 0, 0, -0 ],
      "rotation" : [ -0, 2.64698e-23, 0, -1 ]
    },
    {
      "name" : "LF_corner_pt",
      "children" : [ 17 ],
      "translation" : [ 0.065, 0.0249998, -0.33 ],
      "rotation" : [ -0.707107, 5.3385e-08, -0.707107, -2.8379e-07 ]
    },
    {
      "name" : "LF_corner",
      "translation" : [ 0, 0, 4.76837e-09 ],
      "rotation" : [ -4.37114e-08, -5.48559e-16, 7.10543e-15, -1 ]
    },
    {
      "name" : "LT_screen_pt",
      "children" : [ 19 ],
      "translation" : [ -0.0100001, 1.33511, -1.19398 ],
      "rotation" : [ -0.5, -0.5, 0.5, -0.5 ]
    },
    {
      "name" : "LT_screen",
      "translation" : [ 0, 0, -1.52588e-07 ],
      "rotation" : [ 1.42109e-14, -1.77636e-15, 1.77636e-15, -1 ]
    },
    {
      "name" : "LB_screen_pt",
      "children" : [ 21 ],
      "translation" : [ -0.0100002, 0.0430682, -1.19398 ],
      "rotation" : [ -0.5, -0.5, 0.5, -0.5 ]
    },
    {
      "name" : "LB_screen",
      "translation" : [ 0, 0, -4.76837e-09 ],
      "rotation" : [ 1.42109e-14, -1.77636e-15, 1.77636e-15, -1 ]
    },
    {
      "name" : "RB_screen_pt",
      "children" : [ 23 ],
      "translation" : [ -0.00999979, 0.0430697, 1.19398 ],
      "rotation" : [ 0.5, -0.5, -0.5, -0.5 ]
    },
    {
      "name" : "RB_screen",
      "translation" : [ 0, 0, 4.76837e-09 ],
      "rotation" : [ -0, -0, 2.11758e-22, -1 ]
    },
    {
      "name" : "RT_screen_pt",
      "children" : [ 25 ],
      "translation" : [ -0.00999975, 1.33511, 1.19398 ],
      "rotation" : [ 0.5, -0.5, -0.5, -0.5 ]
    },
    {
      "name" : "RT_screen",
      "translation" : [ 0, 0, 1.52588e-07 ],
      "rotation" : [ -0, -0, 2.11758e-22, -1 ]
    }
  ],
  "skins" : [
    {
      "inverseBindMatrices" : 0,
      "skeleton" : 1,
      "joints" : [
        1,2,3,4,5,6,7,8,9,10,11,12,13,14,15,16,17,18,19,20,21,22,23,24,25
      ]
    }
  ],
  "materials" : [
    {
      "name" : "MAT_ForceField_Base",
      "pbrMetallicRoughness" : {
        "baseColorFactor" : [ 0.3, 0.3, 0.3, 1.0 ],
        "metallicFactor" : 0.1,
        "roughnessFactor" : 0.5
      }
    },
    {
      "name" : "MAT_ForceField",
      "pbrMetallicRoughness" : {
        "baseColorFactor" : [ 0.9, 0.3, 0.3, 1.0 ],
        "metallicFactor" : 0.1,
        "roughnessFactor" : 0.5
      }
    }
  ],
  "meshes" : [
    {
      "primitives" : [
        {
          "attributes" : {
            "POSITION" : 2,
            "NORMAL" : 3,
            "TANGENT" : 4,
            "JOINTS_0" : 5,
            "WEIGHTS_0" : 6,
            "TEXCOORD_0" : 7
          },
          "indices" : 1,
          "material" : 0
        },
        {
          "attributes" : {
            "POSITION" : 9,
            "NORMAL" : 10,
            "TANGENT" : 11,
            "JOINTS_0" : 12,
            "WEIGHTS_0" : 13,
            "TEXCOORD_0" : 14
          },
          "indices" : 8,
          "material" : 1
        }
      ],
      "name" : "SKL_DEP_ForceField_3p"
    }
  ],
  "buffers" : [
    {
      "uri" : "SKL_DEP_ForceField_3p.bin",
      "byteLength" : 149476
    }
  ],
  "bufferViews" : [
    {
      "buffer" : 0,
      "byteOffset" : 0,
      "byteLength" : 1600
    },
    {
      "buffer" : 0,
      "byteOffset" : 1600,
      "byteLength" : 11316
    },
    {
      "buffer" : 0,
      "byteOffset" : 12916,
      "byteLength" : 22764
    },
    {
      "buffer" : 0,
      "byteOffset" : 35680,
      "byteLength" : 22764
    },
    {
      "buffer" : 0,
      "byteOffset" : 58444,
      "byteLength" : 30352
    },
    {
      "buffer" : 0,
      "byteOffset" : 88796,
      "byteLength" : 15176
    },
    {
      "buffer" : 0,
      "byteOffset" : 103972,
      "byteLength" : 7588
    },
    {
      "buffer" : 0,
      "byteOffset" : 111560,
      "byteLength" : 15176
    },
    {
      "buffer" : 0,
      "byteOffset" : 126736,
      "byteLength" : 2880
    },
    {
      "buffer" : 0,
      "byteOffset" : 129616,
      "byteLength" : 3972
    },
    {
      "buffer" : 0,
      "byteOffset" : 133588,
      "byteLength" : 3972
    },
    {
      "buffer" : 0,
      "byteOffset" : 137560,
      "byteLength" : 5296
    },
    {
      "buffer" : 0,
      "byteOffset" : 142856,
      "byteLength" : 2648
    },
    {
      "buffer" : 0,
      "byteOffset" : 145504,
      "byteLength" : 1324
    },
    {
      "buffer" : 0,
      "byteOffset" : 146828,
      "byteLength" : 2648
    }
  ],
  "accessors" : [
    {
      "bufferView" : 0,
      "componentType" : 5126,
      "count" : 25,
      "type" : "MAT4"
    },
    {
      "bufferView" : 1,
      "componentType" : 5123,
      "count" : 5658,
      "type" : "SCALAR"
    },
    {
      "bufferView" : 2,
      "min" : [ -0.406428, -1.90735e-08, -0.144329 ],
      "max" : [ 0.406428, 0.0656828, 0.144329 ],
      "componentType" : 5126,
      "count" : 1897,
      "type" : "VEC3"
    },
    {
      "bufferView" : 3,
      "componentType" : 5126,
      "count" : 1897,
      "type" : "VEC3"
    },
    {
      "bufferView" : 4,
      "componentType" : 5126,
      "count" : 1897,
      "type" : "VEC4"
    },
    {
      "bufferView" : 5,
      "componentType" : 5123,
      "count" : 1897,
      "type" : "VEC4"
    },
    {
      "bufferView" : 6,
      "normalized" : true,
      "componentType" : 5121,
      "count" : 1897,
      "type" : "VEC4"
    },
    {
      "bufferView" : 7,
      "componentType" : 5126,
      "count" : 1897,
      "type" : "VEC2"
    },
    {
      "bufferView" : 8,
      "componentType" : 5123,
      "count" : 1440,
      "type" : "SCALAR"
    },
    {
      "bufferView" : 9,
      "min" : [ -1.25174, 0.0118175, -0.0189749 ],
      "max" : [ 1.25174, 1.36636, 0.0765641 ],
      "componentType" : 5126,
      "count" : 331,
      "type" : "VEC3"
    },
    {
      "bufferView" : 10,
      "componentType" : 5126,
      "count" : 331,
      "type" : "VEC3"
    },
    {
      "bufferView" : 11,
      "componentType" : 5126,
      "count" : 331,
      "type" : "VEC4"
    },
    {
      "bufferView" : 12,
      "componentType" : 5123,
      "count" : 331,
      "type" : "VEC4"
    },
    {
      "bufferView" : 13,
      "normalized" : true,
      "componentType" : 5121,
      "count" : 331,
      "type" : "VEC4"
    },
    {
      "bufferView" : 14,
      "componentType" : 5126,
      "count" : 331,
      "type" : "VEC2"
    }
  ]
}
