{
  "asset" : {
    "generator" : "UE Viewer (umodel) build 1575",
    "version" : "2.0"
  },
  "scene" : 0,
  "scenes" : [
    {
      "nodes" : [ 0 ]
    }
  ],
  "nodes" : [
    {
      "name" : "SKL_WEP_Falcon_3p",
      "mesh" : 0,
      "skin" : 0,
      "children" : [ 1 ]
    },
    {
      "name" : "R_WEP_root",
      "translation" : [ 0, 0, -0 ],
      "rotation" : [ 7.45058e-08, 6.51926e-08, -8.19564e-08, -1 ]
    }
  ],
  "skins" : [
    {
      "inverseBindMatrices" : 0,
      "skeleton" : 1,
      "joints" : [
        1
      ]
    }
  ],
  "materials" : [
    {
      "name" : "MAT_WEP_Falcon_3p",
      "pbrMetallicRoughness" : {
        "baseColorFactor" : [ 0.3, 0.3, 0.3, 1.0 ],
        "metallicFactor" : 0.1,
        "roughnessFactor" : 0.5
      }
    }
  ],
  "meshes" : [
    {
      "primitives" : [
        {
          "attributes" : {
            "POSITION" : 2,
            "NORMAL" : 3,
            "TANGENT" : 4,
            "JOINTS_0" : 5,
            "WEIGHTS_0" : 6,
            "TEXCOORD_0" : 7
          },
          "indices" : 1,
          "material" : 0
        }
      ],
      "name" : "SKL_WEP_Falcon_3p"
    }
  ],
  "buffers" : [
    {
      "uri" : "SKL_WEP_Falcon_3p.bin",
      "byteLength" : 95800
    }
  ],
  "bufferViews" : [
    {
      "buffer" : 0,
      "byteOffset" : 0,
      "byteLength" : 64
    },
    {
      "buffer" : 0,
      "byteOffset" : 64,
      "byteLength" : 7896
    },
    {
      "buffer" : 0,
      "byteOffset" : 7960,
      "byteLength" : 17568
    },
    {
      "buffer" : 0,
      "byteOffset" : 25528,
      "byteLength" : 17568
    },
    {
      "buffer" : 0,
      "byteOffset" : 43096,
      "byteLength" : 23424
    },
    {
      "buffer" : 0,
      "byteOffset" : 66520,
      "byteLength" : 11712
    },
    {
      "buffer" : 0,
      "byteOffset" : 78232,
      "byteLength" : 5856
    },
    {
      "buffer" : 0,
      "byteOffset" : 84088,
      "byteLength" : 11712
    }
  ],
  "accessors" : [
    {
      "bufferView" : 0,
      "componentType" : 5126,
      "count" : 1,
      "type" : "MAT4"
    },
    {
      "bufferView" : 1,
      "componentType" : 5123,
      "count" : 3948,
      "type" : "SCALAR"
    },
    {
      "bufferView" : 2,
      "min" : [ -0.162753, -0.117658, -0.0223785 ],
      "max" : [ 0.171364, 0.0751268, 0.0218239 ],
      "componentType" : 5126,
      "count" : 1464,
      "type" : "VEC3"
    },
    {
      "bufferView" : 3,
      "componentType" : 5126,
      "count" : 1464,
      "type" : "VEC3"
    },
    {
      "bufferView" : 4,
      "componentType" : 5126,
      "count" : 1464,
      "type" : "VEC4"
    },
    {
      "bufferView" : 5,
      "componentType" : 5123,
      "count" : 1464,
      "type" : "VEC4"
    },
    {
      "bufferView" : 6,
      "normalized" : true,
      "componentType" : 5121,
      "count" : 1464,
      "type" : "VEC4"
    },
    {
      "bufferView" : 7,
      "componentType" : 5126,
      "count" : 1464,
      "type" : "VEC2"
    }
  ]
}
