{
  "asset" : {
    "generator" : "UE Viewer (umodel) build 1575",
    "version" : "2.0"
  },
  "scene" : 0,
  "scenes" : [
    {
      "nodes" : [ 0 ]
    }
  ],
  "nodes" : [
    {
      "name" : "S_WEP_FX_ARejection",
      "mesh" : 0
    }
  ],
  "materials" : [
    {
      "name" : "MAT_FX_AR_Ejection_DIF",
      "pbrMetallicRoughness" : {
        "baseColorFactor" : [ 0.3, 0.3, 0.3, 1.0 ],
        "metallicFactor" : 0.1,
        "roughnessFactor" : 0.5
      }
    }
  ],
  "meshes" : [
    {
      "primitives" : [
        {
          "attributes" : {
            "POSITION" : 1,
            "NORMAL" : 2,
            "TANGENT" : 3,
            "TEXCOORD_0" : 4
          },
          "indices" : 0,
          "material" : 0
        }
      ],
      "name" : "S_WEP_FX_ARejection"
    }
  ],
  "buffers" : [
    {
      "uri" : "S_WEP_FX_ARejection.bin",
      "byteLength" : 7272
    }
  ],
  "bufferViews" : [
    {
      "buffer" : 0,
      "byteOffset" : 0,
      "byteLength" : 1128
    },
    {
      "buffer" : 0,
      "byteOffset" : 1128,
      "byteLength" : 1536
    },
    {
      "buffer" : 0,
      "byteOffset" : 2664,
      "byteLength" : 1536
    },
    {
      "buffer" : 0,
      "byteOffset" : 4200,
      "byteLength" : 2048
    },
    {
      "buffer" : 0,
      "byteOffset" : 6248,
      "byteLength" : 1024
    }
  ],
  "accessors" : [
    {
      "bufferView" : 0,
      "componentType" : 5123,
      "count" : 564,
      "type" : "SCALAR"
    },
    {
      "bufferView" : 1,
      "min" : [ -0.004237, -0.018124, -0.004237 ],
      "max" : [ 0.004237, 0.018124, 0.004237 ],
      "componentType" : 5126,
      "count" : 128,
      "type" : "VEC3"
    },
    {
      "bufferView" : 2,
      "componentType" : 5126,
      "count" : 128,
      "type" : "VEC3"
    },
    {
      "bufferView" : 3,
      "componentType" : 5126,
      "count" : 128,
      "type" : "VEC4"
    },
    {
      "bufferView" : 4,
      "componentType" : 5126,
      "count" : 128,
      "type" : "VEC2"
    }
  ]
}
