{
  "asset" : {
    "generator" : "UE Viewer (umodel) build 1575",
    "version" : "2.0"
  },
  "scene" : 0,
  "scenes" : [
    {
      "nodes" : [ 0 ]
    }
  ],
  "nodes" : [
    {
      "name" : "S_WEP_FX_AR_Linkejection",
      "mesh" : 0
    }
  ],
  "materials" : [
    {
      "name" : "MAT_FX_AR_Ejection_DIF",
      "pbrMetallicRoughness" : {
        "baseColorFactor" : [ 0.3, 0.3, 0.3, 1.0 ],
        "metallicFactor" : 0.1,
        "roughnessFactor" : 0.5
      }
    }
  ],
  "meshes" : [
    {
      "primitives" : [
        {
          "attributes" : {
            "POSITION" : 1,
            "NORMAL" : 2,
            "TANGENT" : 3,
            "COLOR_0" : 4,
            "TEXCOORD_0" : 5
          },
          "indices" : 0,
          "material" : 0
        }
      ],
      "name" : "S_WEP_FX_AR_Linkejection"
    }
  ],
  "buffers" : [
    {
      "uri" : "S_WEP_FX_AR_Linkejection.bin",
      "byteLength" : 9176
    }
  ],
  "bufferViews" : [
    {
      "buffer" : 0,
      "byteOffset" : 0,
      "byteLength" : 648
    },
    {
      "buffer" : 0,
      "byteOffset" : 648,
      "byteLength" : 1968
    },
    {
      "buffer" : 0,
      "byteOffset" : 2616,
      "byteLength" : 1968
    },
    {
      "buffer" : 0,
      "byteOffset" : 4584,
      "byteLength" : 2624
    },
    {
      "buffer" : 0,
      "byteOffset" : 7208,
      "byteLength" : 656
    },
    {
      "buffer" : 0,
      "byteOffset" : 7864,
      "byteLength" : 1312
    }
  ],
  "accessors" : [
    {
      "bufferView" : 0,
      "componentType" : 5123,
      "count" : 324,
      "type" : "SCALAR"
    },
    {
      "bufferView" : 1,
      "min" : [ -0.008935, -0.010104, -0.002384 ],
      "max" : [ 0.008935, 0.010104, 0.002384 ],
      "componentType" : 5126,
      "count" : 164,
      "type" : "VEC3"
    },
    {
      "bufferView" : 2,
      "componentType" : 5126,
      "count" : 164,
      "type" : "VEC3"
    },
    {
      "bufferView" : 3,
      "componentType" : 5126,
      "count" : 164,
      "type" : "VEC4"
    },
    {
      "bufferView" : 4,
      "normalized" : true,
      "componentType" : 5121,
      "count" : 164,
      "type" : "VEC4"
    },
    {
      "bufferView" : 5,
      "componentType" : 5126,
      "count" : 164,
      "type" : "VEC2"
    }
  ]
}
