{
  "asset" : {
    "generator" : "UE Viewer (umodel) build 1575",
    "version" : "2.0"
  },
  "scene" : 0,
  "scenes" : [
    {
      "nodes" : [ 0 ]
    }
  ],
  "nodes" : [
    {
      "name" : "ASE_FX_SpinFusor_Disk",
      "mesh" : 0
    }
  ],
  "materials" : [
    {
      "name" : "MAT_FX_SpinFusor_Disk",
      "pbrMetallicRoughness" : {
        "baseColorFactor" : [ 0.3, 0.3, 0.3, 1.0 ],
        "metallicFactor" : 0.1,
        "roughnessFactor" : 0.5
      }
    }
  ],
  "meshes" : [
    {
      "primitives" : [
        {
          "attributes" : {
            "POSITION" : 1,
            "NORMAL" : 2,
            "TANGENT" : 3,
            "COLOR_0" : 4,
            "TEXCOORD_0" : 5
          },
          "indices" : 0,
          "material" : 0
        }
      ],
      "name" : "ASE_FX_SpinFusor_Disk"
    }
  ],
  "buffers" : [
    {
      "uri" : "ASE_FX_SpinFusor_Disk.bin",
      "byteLength" : 5160
    }
  ],
  "bufferViews" : [
    {
      "buffer" : 0,
      "byteOffset" : 0,
      "byteLength" : 480
    },
    {
      "buffer" : 0,
      "byteOffset" : 480,
      "byteLength" : 1080
    },
    {
      "buffer" : 0,
      "byteOffset" : 1560,
      "byteLength" : 1080
    },
    {
      "buffer" : 0,
      "byteOffset" : 2640,
      "byteLength" : 1440
    },
    {
      "buffer" : 0,
      "byteOffset" : 4080,
      "byteLength" : 360
    },
    {
      "buffer" : 0,
      "byteOffset" : 4440,
      "byteLength" : 720
    }
  ],
  "accessors" : [
    {
      "bufferView" : 0,
      "componentType" : 5123,
      "count" : 240,
      "type" : "SCALAR"
    },
    {
      "bufferView" : 1,
      "min" : [ -0.031594, -0.010151, -0.031594 ],
      "max" : [ 0.031594, 0.010151, 0.031594 ],
      "componentType" : 5126,
      "count" : 90,
      "type" : "VEC3"
    },
    {
      "bufferView" : 2,
      "componentType" : 5126,
      "count" : 90,
      "type" : "VEC3"
    },
    {
      "bufferView" : 3,
      "componentType" : 5126,
      "count" : 90,
      "type" : "VEC4"
    },
    {
      "bufferView" : 4,
      "normalized" : true,
      "componentType" : 5121,
      "count" : 90,
      "type" : "VEC4"
    },
    {
      "bufferView" : 5,
      "componentType" : 5126,
      "count" : 90,
      "type" : "VEC2"
    }
  ]
}
