{
  "asset" : {
    "generator" : "UE Viewer (umodel) build 1575",
    "version" : "2.0"
  },
  "scene" : 0,
  "scenes" : [
    {
      "nodes" : [ 0 ]
    }
  ],
  "nodes" : [
    {
      "name" : "S_WEP_FX_ShotgunCasing_C",
      "mesh" : 0
    }
  ],
  "materials" : [
    {
      "name" : "Mat_Shotgun_Ejection",
      "pbrMetallicRoughness" : {
        "baseColorFactor" : [ 0.3, 0.3, 0.3, 1.0 ],
        "metallicFactor" : 0.1,
        "roughnessFactor" : 0.5
      }
    }
  ],
  "meshes" : [
    {
      "primitives" : [
        {
          "attributes" : {
            "POSITION" : 1,
            "NORMAL" : 2,
            "TANGENT" : 3,
            "COLOR_0" : 4,
            "TEXCOORD_0" : 5
          },
          "indices" : 0,
          "material" : 0
        }
      ],
      "name" : "S_WEP_FX_ShotgunCasing_C"
    }
  ],
  "buffers" : [
    {
      "uri" : "S_WEP_FX_ShotgunCasing_C.bin",
      "byteLength" : 5056
    }
  ],
  "bufferViews" : [
    {
      "buffer" : 0,
      "byteOffset" : 0,
      "byteLength" : 480
    },
    {
      "buffer" : 0,
      "byteOffset" : 480,
      "byteLength" : 1056
    },
    {
      "buffer" : 0,
      "byteOffset" : 1536,
      "byteLength" : 1056
    },
    {
      "buffer" : 0,
      "byteOffset" : 2592,
      "byteLength" : 1408
    },
    {
      "buffer" : 0,
      "byteOffset" : 4000,
      "byteLength" : 352
    },
    {
      "buffer" : 0,
      "byteOffset" : 4352,
      "byteLength" : 704
    }
  ],
  "accessors" : [
    {
      "bufferView" : 0,
      "componentType" : 5123,
      "count" : 240,
      "type" : "SCALAR"
    },
    {
      "bufferView" : 1,
      "min" : [ -0.003749, -0.005874, -0.006025 ],
      "max" : [ 0.003749, 0.005874, 0.006025 ],
      "componentType" : 5126,
      "count" : 88,
      "type" : "VEC3"
    },
    {
      "bufferView" : 2,
      "componentType" : 5126,
      "count" : 88,
      "type" : "VEC3"
    },
    {
      "bufferView" : 3,
      "componentType" : 5126,
      "count" : 88,
      "type" : "VEC4"
    },
    {
      "bufferView" : 4,
      "normalized" : true,
      "componentType" : 5121,
      "count" : 88,
      "type" : "VEC4"
    },
    {
      "bufferView" : 5,
      "componentType" : 5126,
      "count" : 88,
      "type" : "VEC2"
    }
  ]
}
