{
  "asset" : {
    "generator" : "UE Viewer (umodel) build 1575",
    "version" : "2.0"
  },
  "scene" : 0,
  "scenes" : [
    {
      "nodes" : [ 0 ]
    }
  ],
  "nodes" : [
    {
      "name" : "S_WEP_FX_ShotgunCasing_L",
      "mesh" : 0
    }
  ],
  "materials" : [
    {
      "name" : "Mat_Shotgun_Ejection",
      "pbrMetallicRoughness" : {
        "baseColorFactor" : [ 0.3, 0.3, 0.3, 1.0 ],
        "metallicFactor" : 0.1,
        "roughnessFactor" : 0.5
      }
    }
  ],
  "meshes" : [
    {
      "primitives" : [
        {
          "attributes" : {
            "POSITION" : 1,
            "NORMAL" : 2,
            "TANGENT" : 3,
            "COLOR_0" : 4,
            "TEXCOORD_0" : 5
          },
          "indices" : 0,
          "material" : 0
        }
      ],
      "name" : "S_WEP_FX_ShotgunCasing_L"
    }
  ],
  "buffers" : [
    {
      "uri" : "S_WEP_FX_ShotgunCasing_L.bin",
      "byteLength" : 4472
    }
  ],
  "bufferViews" : [
    {
      "buffer" : 0,
      "byteOffset" : 0,
      "byteLength" : 312
    },
    {
      "buffer" : 0,
      "byteOffset" : 312,
      "byteLength" : 960
    },
    {
      "buffer" : 0,
      "byteOffset" : 1272,
      "byteLength" : 960
    },
    {
      "buffer" : 0,
      "byteOffset" : 2232,
      "byteLength" : 1280
    },
    {
      "buffer" : 0,
      "byteOffset" : 3512,
      "byteLength" : 320
    },
    {
      "buffer" : 0,
      "byteOffset" : 3832,
      "byteLength" : 640
    }
  ],
  "accessors" : [
    {
      "bufferView" : 0,
      "componentType" : 5123,
      "count" : 156,
      "type" : "SCALAR"
    },
    {
      "bufferView" : 1,
      "min" : [ -0.009203, -0.005484, -0.003485 ],
      "max" : [ 0.009203, 0.006262, 0.002429 ],
      "componentType" : 5126,
      "count" : 80,
      "type" : "VEC3"
    },
    {
      "bufferView" : 2,
      "componentType" : 5126,
      "count" : 80,
      "type" : "VEC3"
    },
    {
      "bufferView" : 3,
      "componentType" : 5126,
      "count" : 80,
      "type" : "VEC4"
    },
    {
      "bufferView" : 4,
      "normalized" : true,
      "componentType" : 5121,
      "count" : 80,
      "type" : "VEC4"
    },
    {
      "bufferView" : 5,
      "componentType" : 5126,
      "count" : 80,
      "type" : "VEC2"
    }
  ]
}
