{
  "asset" : {
    "generator" : "UE Viewer (umodel) build 1575",
    "version" : "2.0"
  },
  "scene" : 0,
  "scenes" : [
    {
      "nodes" : [ 0 ]
    }
  ],
  "nodes" : [
    {
      "name" : "S_WEP_FX_ShotgunCasing_R",
      "mesh" : 0
    }
  ],
  "materials" : [
    {
      "name" : "Mat_Shotgun_Ejection",
      "pbrMetallicRoughness" : {
        "baseColorFactor" : [ 0.3, 0.3, 0.3, 1.0 ],
        "metallicFactor" : 0.1,
        "roughnessFactor" : 0.5
      }
    }
  ],
  "meshes" : [
    {
      "primitives" : [
        {
          "attributes" : {
            "POSITION" : 1,
            "NORMAL" : 2,
            "TANGENT" : 3,
            "TEXCOORD_0" : 4
          },
          "indices" : 0,
          "material" : 0
        }
      ],
      "name" : "S_WEP_FX_ShotgunCasing_R"
    }
  ],
  "buffers" : [
    {
      "uri" : "S_WEP_FX_ShotgunCasing_R.bin",
      "byteLength" : 3576
    }
  ],
  "bufferViews" : [
    {
      "buffer" : 0,
      "byteOffset" : 0,
      "byteLength" : 312
    },
    {
      "buffer" : 0,
      "byteOffset" : 312,
      "byteLength" : 816
    },
    {
      "buffer" : 0,
      "byteOffset" : 1128,
      "byteLength" : 816
    },
    {
      "buffer" : 0,
      "byteOffset" : 1944,
      "byteLength" : 1088
    },
    {
      "buffer" : 0,
      "byteOffset" : 3032,
      "byteLength" : 544
    }
  ],
  "accessors" : [
    {
      "bufferView" : 0,
      "componentType" : 5123,
      "count" : 156,
      "type" : "SCALAR"
    },
    {
      "bufferView" : 1,
      "min" : [ -0.009203, -0.006262, -0.002429 ],
      "max" : [ 0.009203, 0.005484, 0.003485 ],
      "componentType" : 5126,
      "count" : 68,
      "type" : "VEC3"
    },
    {
      "bufferView" : 2,
      "componentType" : 5126,
      "count" : 68,
      "type" : "VEC3"
    },
    {
      "bufferView" : 3,
      "componentType" : 5126,
      "count" : 68,
      "type" : "VEC4"
    },
    {
      "bufferView" : 4,
      "componentType" : 5126,
      "count" : 68,
      "type" : "VEC2"
    }
  ]
}
