{
  "asset" : {
    "generator" : "UE Viewer (umodel) build 1575",
    "version" : "2.0"
  },
  "scene" : 0,
  "scenes" : [
    {
      "nodes" : [ 0 ]
    }
  ],
  "nodes" : [
    {
      "name" : "ASE_FX_Jet_Front_Side",
      "mesh" : 0
    }
  ],
  "materials" : [
    {
      "name" : "MAT_FX_FireCone_Trans",
      "pbrMetallicRoughness" : {
        "baseColorFactor" : [ 0.3, 0.3, 0.3, 1.0 ],
        "metallicFactor" : 0.1,
        "roughnessFactor" : 0.5
      }
    }
  ],
  "meshes" : [
    {
      "primitives" : [
        {
          "attributes" : {
            "POSITION" : 1,
            "NORMAL" : 2,
            "TANGENT" : 3,
            "TEXCOORD_0" : 4
          },
          "indices" : 0,
          "material" : 0
        }
      ],
      "name" : "ASE_FX_Jet_Front_Side"
    }
  ],
  "buffers" : [
    {
      "uri" : "ASE_FX_Jet_Front_Side.bin",
      "byteLength" : 5520
    }
  ],
  "bufferViews" : [
    {
      "buffer" : 0,
      "byteOffset" : 0,
      "byteLength" : 528
    },
    {
      "buffer" : 0,
      "byteOffset" : 528,
      "byteLength" : 1248
    },
    {
      "buffer" : 0,
      "byteOffset" : 1776,
      "byteLength" : 1248
    },
    {
      "buffer" : 0,
      "byteOffset" : 3024,
      "byteLength" : 1664
    },
    {
      "buffer" : 0,
      "byteOffset" : 4688,
      "byteLength" : 832
    }
  ],
  "accessors" : [
    {
      "bufferView" : 0,
      "componentType" : 5123,
      "count" : 264,
      "type" : "SCALAR"
    },
    {
      "bufferView" : 1,
      "min" : [ -0.183876, -0.220935, -0.121824 ],
      "max" : [ 0.536503, 0.220935, 0.060894 ],
      "componentType" : 5126,
      "count" : 104,
      "type" : "VEC3"
    },
    {
      "bufferView" : 2,
      "componentType" : 5126,
      "count" : 104,
      "type" : "VEC3"
    },
    {
      "bufferView" : 3,
      "componentType" : 5126,
      "count" : 104,
      "type" : "VEC4"
    },
    {
      "bufferView" : 4,
      "componentType" : 5126,
      "count" : 104,
      "type" : "VEC2"
    }
  ]
}
