{
  "asset" : {
    "generator" : "UE Viewer (umodel) build 1575",
    "version" : "2.0"
  },
  "scene" : 0,
  "scenes" : [
    {
      "nodes" : [ 0 ]
    }
  ],
  "nodes" : [
    {
      "name" : "ASE_FX_Jet_Back_Mid",
      "mesh" : 0
    }
  ],
  "materials" : [
    {
      "name" : "MAT_FX_FireCone_Trans",
      "pbrMetallicRoughness" : {
        "baseColorFactor" : [ 0.3, 0.3, 0.3, 1.0 ],
        "metallicFactor" : 0.1,
        "roughnessFactor" : 0.5
      }
    }
  ],
  "meshes" : [
    {
      "primitives" : [
        {
          "attributes" : {
            "POSITION" : 1,
            "NORMAL" : 2,
            "TANGENT" : 3,
            "TEXCOORD_0" : 4
          },
          "indices" : 0,
          "material" : 0
        }
      ],
      "name" : "ASE_FX_Jet_Back_Mid"
    }
  ],
  "buffers" : [
    {
      "uri" : "ASE_FX_Jet_Back_Mid.bin",
      "byteLength" : 7392
    }
  ],
  "bufferViews" : [
    {
      "buffer" : 0,
      "byteOffset" : 0,
      "byteLength" : 672
    },
    {
      "buffer" : 0,
      "byteOffset" : 672,
      "byteLength" : 1680
    },
    {
      "buffer" : 0,
      "byteOffset" : 2352,
      "byteLength" : 1680
    },
    {
      "buffer" : 0,
      "byteOffset" : 4032,
      "byteLength" : 2240
    },
    {
      "buffer" : 0,
      "byteOffset" : 6272,
      "byteLength" : 1120
    }
  ],
  "accessors" : [
    {
      "bufferView" : 0,
      "componentType" : 5123,
      "count" : 336,
      "type" : "SCALAR"
    },
    {
      "bufferView" : 1,
      "min" : [ -0.060707, -0.333272, -0.24835 ],
      "max" : [ 0.883129, 0.333272, 0.24835 ],
      "componentType" : 5126,
      "count" : 140,
      "type" : "VEC3"
    },
    {
      "bufferView" : 2,
      "componentType" : 5126,
      "count" : 140,
      "type" : "VEC3"
    },
    {
      "bufferView" : 3,
      "componentType" : 5126,
      "count" : 140,
      "type" : "VEC4"
    },
    {
      "bufferView" : 4,
      "componentType" : 5126,
      "count" : 140,
      "type" : "VEC2"
    }
  ]
}
