{
  "asset" : {
    "generator" : "UE Viewer (umodel) build 1575",
    "version" : "2.0"
  },
  "scene" : 0,
  "scenes" : [
    {
      "nodes" : [ 0 ]
    }
  ],
  "nodes" : [
    {
      "name" : "SKL_DEP_TurretLight_3p",
      "mesh" : 0,
      "skin" : 0,
      "children" : [ 1 ]
    },
    {
      "name" : "R_WEP_root",
      "children" : [ 2 ],
      "translation" : [ 0, 0, -4.64335e-11 ],
      "rotation" : [ -0, 0.707107, 0, -0.707107 ]
    },
    {
      "name" : "R_WEP_CoM",
      "children" : [ 3 ],
      "translation" : [ 2.11819e-09, 0, -3.02027e-16 ],
      "rotation" : [ -1.05367e-08, -0.707107, 3.16101e-08, -0.707107 ]
    },
    {
      "name" : "R_WEP_base",
      "children" : [ 4, 19 ],
      "translation" : [ 4.73451e-17, -2.52507e-16, -2.11819e-09 ],
      "rotation" : [ -2.42344e-07, 0.707107, -2.31808e-07, -0.707107 ]
    },
    {
      "name" : "DEP_base",
      "children" : [ 5, 7, 9, 11 ],
      "translation" : [ -6.3467e-10, 0.0425918, -2.60214e-08 ],
      "rotation" : [ 2.38419e-07, 8.88179e-15, -1.42109e-14, -1 ]
    },
    {
      "name" : "DEP_legRight_pt",
      "children" : [ 6 ],
      "translation" : [ -0.0512953, 0.0150182, 0.0732573 ],
      "rotation" : [ -0.67438, -0.67438, -0.212631, -0.212631 ]
    },
    {
      "name" : "DEP_legRight",
      "translation" : [ 0, -1.43051e-08, -0 ],
      "rotation" : [ -1.11759e-07, 1.64798e-08, 1.7345e-08, -1 ]
    },
    {
      "name" : "DEP_legFront_pt",
      "children" : [ 8 ],
      "translation" : [ 0.0896148, 0.0150192, 6.07077e-08 ],
      "rotation" : [ -0.5, -0.5, 0.5, 0.5 ]
    },
    {
      "name" : "DEP_legFront",
      "translation" : [ 0, 0, -0 ],
      "rotation" : [ -5.14424e-21, -0, 0, -1 ]
    },
    {
      "name" : "DEP_legLeft_pt",
      "children" : [ 10 ],
      "translation" : [ -0.0513615, 0.0150182, -0.0733519 ],
      "rotation" : [ -0.212631, -0.212631, -0.67438, -0.67438 ]
    },
    {
      "name" : "DEP_legLeft",
      "translation" : [ 4.76837e-09, 4.76837e-09, -9.53674e-09 ],
      "rotation" : [ -2.23518e-08, -7.06948e-08, 4.934e-08, -1 ]
    },
    {
      "name" : "DEP_gunRotate_pt",
      "children" : [ 12 ],
      "translation" : [ -2.32835e-09, 0.159369, -2.32508e-09 ],
      "rotation" : [ 1.94929e-07, -0.707107, 0.707107, 2.05466e-07 ]
    },
    {
      "name" : "DEP_gunRotate",
      "children" : [ 13 ],
      "translation" : [ 0, 0, -0 ],
      "rotation" : [ -0, -0, -8.88179e-16, -1 ]
    },
    {
      "name" : "DEP_gunRoll_pt",
      "children" : [ 14 ],
      "translation" : [ 1.37149e-08, -1.16826e-09, -0.0255663 ],
      "rotation" : [ 6.70552e-08, 2.45869e-07, -2.75671e-07, -1 ]
    },
    {
      "name" : "DEP_gunRoll",
      "children" : [ 15 ],
      "translation" : [ -3.63798e-14, 1.90735e-08, -0 ],
      "rotation" : [ -0, -0, 0, -1 ]
    },
    {
      "name" : "DEP_gunPivot_pt",
      "children" : [ 16 ],
      "translation" : [ 0.116348, -7.62183e-08, -0.0756006 ],
      "rotation" : [ -6.70552e-08, -2.45869e-07, 2.75671e-07, -1 ]
    },
    {
      "name" : "DEP_gunPivot",
      "children" : [ 17 ],
      "translation" : [ -9.53674e-09, 1.90735e-08, 1.90735e-08 ],
      "rotation" : [ -0, -0, -8.88179e-16, -1 ]
    },
    {
      "name" : "DEP_recoil_pt",
      "children" : [ 18 ],
      "translation" : [ -0.171085, -1.28701e-07, -0.0256771 ],
      "rotation" : [ 0.5, 0.5, -0.5, -0.5 ]
    },
    {
      "name" : "DEP_recoil",
      "translation" : [ 0, 0, -0 ],
      "rotation" : [ -0, -4.23516e-22, 0, -1 ]
    },
    {
      "name" : "DEP_aimTarget",
      "translation" : [ 4.64335e-11, -6.91916e-19, 4.60616e-20 ],
      "rotation" : [ 2.38419e-07, -8.9407e-08, 2.30926e-14, -1 ]
    }
  ],
  "skins" : [
    {
      "inverseBindMatrices" : 0,
      "skeleton" : 1,
      "joints" : [
        1,2,3,4,5,6,7,8,9,10,11,12,13,14,15,16,17,18,19
      ]
    }
  ],
  "materials" : [
    {
      "name" : "MAT_LightTurret",
      "pbrMetallicRoughness" : {
        "baseColorFactor" : [ 0.3, 0.3, 0.3, 1.0 ],
        "metallicFactor" : 0.1,
        "roughnessFactor" : 0.5
      }
    }
  ],
  "meshes" : [
    {
      "primitives" : [
        {
          "attributes" : {
            "POSITION" : 2,
            "NORMAL" : 3,
            "TANGENT" : 4,
            "JOINTS_0" : 5,
            "WEIGHTS_0" : 6,
            "TEXCOORD_0" : 7
          },
          "indices" : 1,
          "material" : 0
        }
      ],
      "name" : "SKL_DEP_TurretLight_3p"
    }
  ],
  "buffers" : [
    {
      "uri" : "SKL_DEP_TurretLight_3p.bin",
      "byteLength" : 194760
    }
  ],
  "bufferViews" : [
    {
      "buffer" : 0,
      "byteOffset" : 0,
      "byteLength" : 1216
    },
    {
      "buffer" : 0,
      "byteOffset" : 1216,
      "byteLength" : 18104
    },
    {
      "buffer" : 0,
      "byteOffset" : 19320,
      "byteLength" : 35088
    },
    {
      "buffer" : 0,
      "byteOffset" : 54408,
      "byteLength" : 35088
    },
    {
      "buffer" : 0,
      "byteOffset" : 89496,
      "byteLength" : 46784
    },
    {
      "buffer" : 0,
      "byteOffset" : 136280,
      "byteLength" : 23392
    },
    {
      "buffer" : 0,
      "byteOffset" : 159672,
      "byteLength" : 11696
    },
    {
      "buffer" : 0,
      "byteOffset" : 171368,
      "byteLength" : 23392
    }
  ],
  "accessors" : [
    {
      "bufferView" : 0,
      "componentType" : 5126,
      "count" : 19,
      "type" : "MAT4"
    },
    {
      "bufferView" : 1,
      "componentType" : 5123,
      "count" : 9051,
      "type" : "SCALAR"
    },
    {
      "bufferView" : 2,
      "min" : [ -0.230859, -0.00943662, -0.23856 ],
      "max" : [ 0.231028, 0.406531, 0.263249 ],
      "componentType" : 5126,
      "count" : 2924,
      "type" : "VEC3"
    },
    {
      "bufferView" : 3,
      "componentType" : 5126,
      "count" : 2924,
      "type" : "VEC3"
    },
    {
      "bufferView" : 4,
      "componentType" : 5126,
      "count" : 2924,
      "type" : "VEC4"
    },
    {
      "bufferView" : 5,
      "componentType" : 5123,
      "count" : 2924,
      "type" : "VEC4"
    },
    {
      "bufferView" : 6,
      "normalized" : true,
      "componentType" : 5121,
      "count" : 2924,
      "type" : "VEC4"
    },
    {
      "bufferView" : 7,
      "componentType" : 5126,
      "count" : 2924,
      "type" : "VEC2"
    }
  ]
}
