{
  "asset" : {
    "generator" : "UE Viewer (umodel) build 1575",
    "version" : "2.0"
  },
  "scene" : 0,
  "scenes" : [
    {
      "nodes" : [ 0 ]
    }
  ],
  "nodes" : [
    {
      "name" : "SKL_Hands",
      "mesh" : 0,
      "skin" : 0,
      "children" : [ 1 ]
    },
    {
      "name" : "Root",
      "children" : [ 2, 82, 83 ],
      "translation" : [ -1.88693e-08, 0.724427, -0.00300206 ],
      "rotation" : [ -0, 0.707107, 0, -0.707107 ]
    },
    {
      "name" : "Spine3",
      "children" : [ 3 ],
      "translation" : [ 3.57628e-09, 0, 2.98023e-10 ],
      "rotation" : [ -0.443008, -0.55113, 0.551129, 0.443008 ]
    },
    {
      "name" : "Neck",
      "children" : [ 4, 43 ],
      "translation" : [ 0.071601, 6.37887e-09, -0.000436668 ],
      "rotation" : [ 7.24278e-08, -0.219934, -7.31132e-07, -0.975515 ]
    },
    {
      "name" : "L_Clavicle",
      "children" : [ 5 ],
      "translation" : [ 0.00214966, 0.0212039, 0.00150467 ],
      "rotation" : [ -0.570442, -0.789906, -0.168639, -0.149015 ]
    },
    {
      "name" : "L_UpperArm",
      "children" : [ 6 ],
      "translation" : [ 0.104212, -1.52588e-07, 2.86102e-08 ],
      "rotation" : [ 0.00539667, -0.0186995, -0.0833601, -0.996329 ]
    },
    {
      "name" : "L_Forearm",
      "children" : [ 7, 38, 39, 40, 41, 42 ],
      "translation" : [ 0.104812, -7.62939e-08, 1.90735e-08 ],
      "rotation" : [ 1.9876e-07, 0.161433, 1.56781e-07, -0.986884 ]
    },
    {
      "name" : "L_Hand",
      "children" : [ 8, 14, 20, 26, 32 ],
      "translation" : [ 0.162085, -7.62939e-08, -3.8147e-08 ],
      "rotation" : [ 0.595451, -0.0316584, -0.0850953, -0.798245 ]
    },
    {
      "name" : "L_Finger0",
      "children" : [ 9, 13 ],
      "translation" : [ 0.00392227, -0.00805422, -0.00795334 ],
      "rotation" : [ -0.568629, 0.189233, 0.420309, -0.681316 ]
    },
    {
      "name" : "L_Finger01",
      "children" : [ 10, 12 ],
      "translation" : [ 0.0385583, 0, -5.72205e-08 ],
      "rotation" : [ -8.54498e-09, -0.212557, -1.48797e-08, -0.977149 ]
    },
    {
      "name" : "L_Finger02",
      "children" : [ 11 ],
      "translation" : [ 0.0252956, 0, 9.53674e-08 ],
      "rotation" : [ -2.72477e-09, -0.117443, 2.32908e-08, -0.99308 ]
    },
    {
      "name" : "L_Finger02_ftw",
      "translation" : [ -0.00307405, 0.000346527, -0.0120382 ],
      "rotation" : [ -0.0525245, 0.130169, 0.000108451, -0.9901 ]
    },
    {
      "name" : "L_Finger01_ftw",
      "translation" : [ -0.00915913, 0.000251923, -0.0205263 ],
      "rotation" : [ -0.0517122, 0.159644, -0.00996506, -0.985769 ]
    },
    {
      "name" : "L_Finger00_ftw",
      "translation" : [ -0.00508242, 0.000395966, -0.0225157 ],
      "rotation" : [ -0.0975612, 0.138226, -0.0110603, -0.985522 ]
    },
    {
      "name" : "L_Finger1",
      "children" : [ 15, 19 ],
      "translation" : [ 0.061853, -0.0187766, 0.00337532 ],
      "rotation" : [ -0.0265025, -0.232992, 0.155221, -0.959645 ]
    },
    {
      "name" : "L_Finger11",
      "children" : [ 16, 18 ],
      "translation" : [ 0.0298814, 4.76837e-08, -0 ],
      "rotation" : [ -2.45101e-07, -0.22383, -1.161e-08, -0.974628 ]
    },
    {
      "name" : "L_Finger12",
      "children" : [ 17 ],
      "translation" : [ 0.0182842, -1.04904e-07, -7.62939e-08 ],
      "rotation" : [ 2.45051e-07, -0.19078, -3.48118e-08, -0.981633 ]
    },
    {
      "name" : "L_Finger12_ftw",
      "translation" : [ -0.00359489, -0.000149879, -0.0106482 ],
      "rotation" : [ -0.699365, 0.0805217, -0.0825908, -0.705396 ]
    },
    {
      "name" : "L_Finger11_ftw",
      "translation" : [ -0.00142841, -0.000242758, -0.0121435 ],
      "rotation" : [ -0.696412, 0.0980249, -0.102139, -0.703541 ]
    },
    {
      "name" : "L_Finger10_ftw",
      "translation" : [ 0.00223663, -0.000466433, -0.0211878 ],
      "rotation" : [ -0.682524, 0.164732, -0.169389, -0.691615 ]
    },
    {
      "name" : "L_Finger2",
      "children" : [ 21, 25 ],
      "translation" : [ 0.0665343, -0.00351854, 0.00380264 ],
      "rotation" : [ 0.00280544, -0.33303, 0.0418499, -0.941983 ]
    },
    {
      "name" : "L_Finger21",
      "children" : [ 22, 24 ],
      "translation" : [ 0.0318591, -1.19209e-07, -7.62939e-08 ],
      "rotation" : [ -2.13791e-07, -0.31277, 7.27938e-08, -0.949829 ]
    },
    {
      "name" : "L_Finger22",
      "children" : [ 23 ],
      "translation" : [ 0.0204566, 1.28746e-07, -2.28882e-07 ],
      "rotation" : [ 3.17262e-08, -0.301585, 8.38973e-09, -0.953439 ]
    },
    {
      "name" : "L_Finger22_ftw",
      "translation" : [ -0.00306755, 0.000396638, -0.012779 ],
      "rotation" : [ -0.703147, 0.127627, -0.119785, -0.689165 ]
    },
    {
      "name" : "L_Finger21_ftw",
      "translation" : [ -0.00270874, 0.00039896, -0.0148806 ],
      "rotation" : [ -0.694303, 0.151917, -0.153532, -0.686508 ]
    },
    {
      "name" : "L_Finger20_ftw",
      "translation" : [ 0.00509979, -0.000405712, -0.0225704 ],
      "rotation" : [ -0.65339, 0.219363, -0.239057, -0.683969 ]
    },
    {
      "name" : "L_Finger3",
      "children" : [ 27, 31 ],
      "translation" : [ 0.0637385, 0.0114092, 0.000900345 ],
      "rotation" : [ 0.021452, -0.339428, -0.0649068, -0.938145 ]
    },
    {
      "name" : "L_Finger31",
      "children" : [ 28, 30 ],
      "translation" : [ 0.0302914, -1.19209e-07, -0 ],
      "rotation" : [ 0.00348225, -0.310127, -0.0131982, -0.950597 ]
    },
    {
      "name" : "L_Finger32",
      "children" : [ 29 ],
      "translation" : [ 0.0196629, 8.10623e-08, 1.14441e-07 ],
      "rotation" : [ -0.00081359, -0.316612, 0.00290501, -0.94855 ]
    },
    {
      "name" : "L_Finger32_ftw",
      "translation" : [ -0.0045192, -0.000368457, -0.0137259 ],
      "rotation" : [ -0.669681, 0.140131, -0.134114, -0.716871 ]
    },
    {
      "name" : "L_Finger31_ftw",
      "translation" : [ -0.00580078, 3.32069e-05, -0.0157693 ],
      "rotation" : [ -0.664939, 0.188956, -0.163296, -0.703908 ]
    },
    {
      "name" : "L_Finger30_ftw",
      "translation" : [ 0.00266167, -0.00216329, -0.0240076 ],
      "rotation" : [ -0.606613, 0.265565, -0.300958, -0.686236 ]
    },
    {
      "name" : "L_Finger4",
      "children" : [ 33, 37 ],
      "translation" : [ 0.0575307, 0.025979, -0.0029985 ],
      "rotation" : [ 0.0673867, -0.349038, -0.147182, -0.923022 ]
    },
    {
      "name" : "L_Finger41",
      "children" : [ 34, 36 ],
      "translation" : [ 0.0229432, -8.58307e-08, -7.62939e-08 ],
      "rotation" : [ 0.00024986, -0.282935, -0.000901411, -0.959139 ]
    },
    {
      "name" : "L_Finger42",
      "children" : [ 35 ],
      "translation" : [ 0.0138554, 9.53674e-08, -7.62939e-08 ],
      "rotation" : [ 1.74545e-08, -0.284729, 9.07378e-08, -0.958608 ]
    },
    {
      "name" : "L_Finger42_ftw",
      "translation" : [ -0.00261688, -0.000289888, -0.0114382 ],
      "rotation" : [ -0.656508, 0.144681, -0.132319, -0.728393 ]
    },
    {
      "name" : "L_Finger41_ftw",
      "translation" : [ -0.00461788, -0.000332022, -0.0160345 ],
      "rotation" : [ -0.634822, 0.240841, -0.220717, -0.700201 ]
    },
    {
      "name" : "L_Finger40_ftw",
      "translation" : [ 0.00261898, -0.000593481, -0.0229761 ],
      "rotation" : [ -0.594124, 0.345969, -0.330871, -0.64641 ]
    },
    {
      "name" : "L_ForearmTwist01",
      "translation" : [ 0.0183996, -7.62939e-08, -1.90735e-08 ],
      "rotation" : [ -0.0284436, 6.5696e-09, -2.4337e-08, -0.999595 ]
    },
    {
      "name" : "L_ForearmTwist02",
      "translation" : [ 0.0433996, -7.62939e-08, -0 ],
      "rotation" : [ -0.0568643, -4.64908e-10, 7.25317e-09, -0.998382 ]
    },
    {
      "name" : "L_ForearmTwist03",
      "translation" : [ 0.0683997, -7.62939e-08, -9.53674e-09 ],
      "rotation" : [ -0.0852389, 7.38069e-09, 2.02456e-09, -0.996361 ]
    },
    {
      "name" : "L_ForearmTwist04",
      "translation" : [ 0.0934601, 0, -1.90735e-08 ],
      "rotation" : [ -0.113545, 3.35421e-09, -2.51148e-10, -0.993533 ]
    },
    {
      "name" : "L_ForearmTwist05",
      "translation" : [ 0.118714, -1.52588e-07, -9.53674e-09 ],
      "rotation" : [ -0.14035, -2.13653e-09, 6.62524e-09, -0.990102 ]
    },
    {
      "name" : "R_Clavicle",
      "children" : [ 44 ],
      "translation" : [ 0.00214951, -0.0212039, 0.00150455 ],
      "rotation" : [ 0.570441, -0.789907, 0.168637, -0.149017 ]
    },
    {
      "name" : "R_UpperArm",
      "children" : [ 45 ],
      "translation" : [ 0.104212, 0, 5.72205e-08 ],
      "rotation" : [ -0.00539691, -0.0186994, 0.08336, -0.996329 ]
    },
    {
      "name" : "R_Forearm",
      "children" : [ 46, 77, 78, 79, 80, 81 ],
      "translation" : [ 0.104811, 0, -0 ],
      "rotation" : [ 1.25328e-08, 0.161433, 1.22661e-08, -0.986884 ]
    },
    {
      "name" : "R_Hand",
      "children" : [ 47, 53, 59, 65, 71 ],
      "translation" : [ 0.162085, 7.62939e-08, -0 ],
      "rotation" : [ -0.59545, -0.0316586, 0.0850952, -0.798245 ]
    },
    {
      "name" : "R_Finger0",
      "children" : [ 48, 52 ],
      "translation" : [ 0.00392231, 0.008054, -0.00795326 ],
      "rotation" : [ 0.568629, 0.189233, -0.420309, -0.681316 ]
    },
    {
      "name" : "R_Finger01",
      "children" : [ 49, 51 ],
      "translation" : [ 0.0385583, 2.28882e-07, 2.09808e-07 ],
      "rotation" : [ -2.84833e-09, -0.212557, 4.08336e-08, -0.977149 ]
    },
    {
      "name" : "R_Finger02",
      "children" : [ 50 ],
      "translation" : [ 0.0252956, -3.05176e-07, -8.58307e-08 ],
      "rotation" : [ 1.29483e-08, -0.117443, -1.45793e-08, -0.99308 ]
    },
    {
      "name" : "R_Finger02_ftw",
      "translation" : [ -0.00312525, -0.000389099, -0.0119717 ],
      "rotation" : [ -0.0474763, 0.12786, -0.0139857, -0.990556 ]
    },
    {
      "name" : "R_Finger01_ftw",
      "translation" : [ -0.00925404, -0.000341187, -0.0202348 ],
      "rotation" : [ -0.0531014, 0.156114, -0.00759543, -0.986281 ]
    },
    {
      "name" : "R_Finger00_ftw",
      "translation" : [ 0.00249662, -0.000807495, -0.0165525 ],
      "rotation" : [ -0.992767, -0.0064446, -0.0525159, -0.107773 ]
    },
    {
      "name" : "R_Finger1",
      "children" : [ 54, 58 ],
      "translation" : [ 0.0618531, 0.0187765, 0.0033754 ],
      "rotation" : [ 0.0265025, -0.232991, -0.155221, -0.959645 ]
    },
    {
      "name" : "R_Finger11",
      "children" : [ 55, 57 ],
      "translation" : [ 0.0298816, 5.72205e-08, -0 ],
      "rotation" : [ -4.6112e-08, -0.22383, 2.19728e-08, -0.974628 ]
    },
    {
      "name" : "R_Finger12",
      "children" : [ 56 ],
      "translation" : [ 0.018284, 9.53674e-09, -0 ],
      "rotation" : [ 6.39382e-08, -0.19078, 2.60184e-08, -0.981633 ]
    },
    {
      "name" : "R_Finger12_ftw",
      "translation" : [ -0.00359119, -0.000107832, -0.0106568 ],
      "rotation" : [ -0.697922, 0.0776112, -0.086791, -0.706646 ]
    },
    {
      "name" : "R_Finger11_ftw",
      "translation" : [ -0.00142269, -0.00024766, -0.0121382 ],
      "rotation" : [ -0.695984, 0.096455, -0.10305, -0.704048 ]
    },
    {
      "name" : "R_Finger10_ftw",
      "translation" : [ 0.00227219, 0.000137901, -0.0210997 ],
      "rotation" : [ -0.65713, 0.178763, -0.15264, -0.716188 ]
    },
    {
      "name" : "R_Finger2",
      "children" : [ 60, 64 ],
      "translation" : [ 0.0665343, 0.00351819, 0.0038028 ],
      "rotation" : [ -0.00280521, -0.33303, -0.0418499, -0.941983 ]
    },
    {
      "name" : "R_Finger21",
      "children" : [ 61, 63 ],
      "translation" : [ 0.031859, 9.53674e-09, -0 ],
      "rotation" : [ -5.42753e-08, -0.31277, -1.6327e-08, -0.949829 ]
    },
    {
      "name" : "R_Finger22",
      "children" : [ 62 ],
      "translation" : [ 0.0204567, 9.53674e-09, 1.52588e-07 ],
      "rotation" : [ -5.9079e-08, -0.301585, 5.36494e-08, -0.953439 ]
    },
    {
      "name" : "R_Finger22_ftw",
      "translation" : [ -0.00306335, -0.000172119, -0.012777 ],
      "rotation" : [ -0.69761, 0.118718, -0.128729, -0.694748 ]
    },
    {
      "name" : "R_Finger21_ftw",
      "translation" : [ -0.00270946, -4.22049e-05, -0.0148815 ],
      "rotation" : [ -0.69567, 0.154738, -0.15066, -0.685129 ]
    },
    {
      "name" : "R_Finger20_ftw",
      "translation" : [ 0.00491329, -0.00012229, -0.0225578 ],
      "rotation" : [ -0.632617, 0.2375, -0.216012, -0.70479 ]
    },
    {
      "name" : "R_Finger3",
      "children" : [ 66, 70 ],
      "translation" : [ 0.0637386, -0.0114093, 0.000900574 ],
      "rotation" : [ -0.0214519, -0.339427, 0.0649067, -0.938145 ]
    },
    {
      "name" : "R_Finger31",
      "children" : [ 67, 69 ],
      "translation" : [ 0.0302913, 2.38419e-08, 7.62939e-08 ],
      "rotation" : [ -0.0034825, -0.310127, 0.0131982, -0.950597 ]
    },
    {
      "name" : "R_Finger32",
      "children" : [ 68 ],
      "translation" : [ 0.0196626, 4.76837e-09, -3.05176e-07 ],
      "rotation" : [ 0.000813649, -0.316612, -0.00290494, -0.94855 ]
    },
    {
      "name" : "R_Finger32_ftw",
      "translation" : [ -0.00472984, 0.000254769, -0.0137071 ],
      "rotation" : [ -0.671517, 0.138262, -0.127946, -0.716644 ]
    },
    {
      "name" : "R_Finger31_ftw",
      "translation" : [ -0.00594997, 0.000425096, -0.0156597 ],
      "rotation" : [ -0.665612, 0.187378, -0.166429, -0.702959 ]
    },
    {
      "name" : "R_Finger30_ftw",
      "translation" : [ 0.00249077, 0.00101885, -0.024024 ],
      "rotation" : [ -0.631458, 0.294354, -0.271562, -0.663981 ]
    },
    {
      "name" : "R_Finger4",
      "children" : [ 72, 76 ],
      "translation" : [ 0.057531, -0.0259791, -0.00299858 ],
      "rotation" : [ -0.0673868, -0.349038, 0.147182, -0.923022 ]
    },
    {
      "name" : "R_Finger41",
      "children" : [ 73, 75 ],
      "translation" : [ 0.0229431, 1.81198e-07, 7.62939e-08 ],
      "rotation" : [ -0.000249919, -0.282935, 0.000901453, -0.959139 ]
    },
    {
      "name" : "R_Finger42",
      "children" : [ 74 ],
      "translation" : [ 0.0138554, -9.53674e-08, -1.52588e-07 ],
      "rotation" : [ -7.22625e-08, -0.284729, 1.1475e-07, -0.958608 ]
    },
    {
      "name" : "R_Finger42_ftw",
      "translation" : [ -0.00279388, 0.000218067, -0.0112437 ],
      "rotation" : [ -0.658004, 0.13972, -0.126976, -0.728963 ]
    },
    {
      "name" : "R_Finger41_ftw",
      "translation" : [ -0.00445248, 0.000212746, -0.0162257 ],
      "rotation" : [ -0.631227, 0.254735, -0.23166, -0.69498 ]
    },
    {
      "name" : "R_Finger40_ftw",
      "translation" : [ 0.00191481, -0.000376358, -0.0225608 ],
      "rotation" : [ -0.616936, 0.307251, -0.326409, -0.646873 ]
    },
    {
      "name" : "R_ForearmTwist01",
      "translation" : [ 0.0183996, -7.62939e-08, -1.90735e-08 ],
      "rotation" : [ 0.0284437, -8.43149e-09, 1.09772e-07, -0.999595 ]
    },
    {
      "name" : "R_ForearmTwist02",
      "translation" : [ 0.0433996, -1.52588e-07, -0 ],
      "rotation" : [ 0.0568643, 1.95908e-08, 9.19428e-08, -0.998382 ]
    },
    {
      "name" : "R_ForearmTwist03",
      "translation" : [ 0.0683996, -1.52588e-07, -0 ],
      "rotation" : [ 0.0852389, 1.53232e-08, 7.36489e-08, -0.996361 ]
    },
    {
      "name" : "R_ForearmTwist04",
      "translation" : [ 0.0939496, -7.62939e-08, -9.53674e-09 ],
      "rotation" : [ 0.113545, -1.91025e-08, 1.00587e-07, -0.993533 ]
    },
    {
      "name" : "R_ForearmTwist05",
      "translation" : [ 0.119138, -7.62939e-08, -1.90735e-08 ],
      "rotation" : [ 0.14035, 4.63726e-09, 9.08482e-08, -0.990102 ]
    },
    {
      "name" : "Prop2",
      "translation" : [ 0.00571515, -0.0144966, -0.414181 ],
      "rotation" : [ -0.534743, -0.481257, 0.434939, -0.541543 ]
    },
    {
      "name" : "Prop1",
      "translation" : [ 0.00571362, -0.0144982, 0.414179 ],
      "rotation" : [ 0.532936, 0.482563, 0.437538, -0.540068 ]
    }
  ],
  "skins" : [
    {
      "inverseBindMatrices" : 0,
      "skeleton" : 1,
      "joints" : [
        1,2,3,4,5,6,7,8,9,10,11,12,13,14,15,16,17,18,19,20,21,22,23,24,25,26,27,28,29,30,31,32,
        33,34,35,36,37,38,39,40,41,42,43,44,45,46,47,48,49,50,51,52,53,54,55,56,57,58,59,60,61,62,63,64,
        65,66,67,68,69,70,71,72,73,74,75,76,77,78,79,80,81,82,83
      ]
    }
  ],
  "materials" : [
    {
      "name" : "MIC_PC_Merc_INF_1p",
      "pbrMetallicRoughness" : {
        "baseColorFactor" : [ 0.3, 0.3, 0.3, 1.0 ],
        "metallicFactor" : 0.1,
        "roughnessFactor" : 0.5
      }
    }
  ],
  "meshes" : [
    {
      "primitives" : [
        {
          "attributes" : {
            "POSITION" : 2,
            "NORMAL" : 3,
            "TANGENT" : 4,
            "COLOR_0" : 5,
            "JOINTS_0" : 6,
            "WEIGHTS_0" : 7,
            "TEXCOORD_0" : 8,
            "TEXCOORD_1" : 9
          },
          "indices" : 1,
          "material" : 0
        }
      ],
      "name" : "SKL_Hands"
    }
  ],
  "buffers" : [
    {
      "uri" : "SKL_Hands.bin",
      "byteLength" : 392228
    }
  ],
  "bufferViews" : [
    {
      "buffer" : 0,
      "byteOffset" : 0,
      "byteLength" : 5312
    },
    {
      "buffer" : 0,
      "byteOffset" : 5312,
      "byteLength" : 46572
    },
    {
      "buffer" : 0,
      "byteOffset" : 51884,
      "byteLength" : 56724
    },
    {
      "buffer" : 0,
      "byteOffset" : 108608,
      "byteLength" : 56724
    },
    {
      "buffer" : 0,
      "byteOffset" : 165332,
      "byteLength" : 75632
    },
    {
      "buffer" : 0,
      "byteOffset" : 240964,
      "byteLength" : 18908
    },
    {
      "buffer" : 0,
      "byteOffset" : 259872,
      "byteLength" : 37816
    },
    {
      "buffer" : 0,
      "byteOffset" : 297688,
      "byteLength" : 18908
    },
    {
      "buffer" : 0,
      "byteOffset" : 316596,
      "byteLength" : 37816
    },
    {
      "buffer" : 0,
      "byteOffset" : 354412,
      "byteLength" : 37816
    }
  ],
  "accessors" : [
    {
      "bufferView" : 0,
      "componentType" : 5126,
      "count" : 83,
      "type" : "MAT4"
    },
    {
      "bufferView" : 1,
      "componentType" : 5123,
      "count" : 23286,
      "type" : "SCALAR"
    },
    {
      "bufferView" : 2,
      "min" : [ -0.482856, 0.678966, -0.0642572 ],
      "max" : [ 0.482857, 0.798471, 0.0612324 ],
      "componentType" : 5126,
      "count" : 4727,
      "type" : "VEC3"
    },
    {
      "bufferView" : 3,
      "componentType" : 5126,
      "count" : 4727,
      "type" : "VEC3"
    },
    {
      "bufferView" : 4,
      "componentType" : 5126,
      "count" : 4727,
      "type" : "VEC4"
    },
    {
      "bufferView" : 5,
      "normalized" : true,
      "componentType" : 5121,
      "count" : 4727,
      "type" : "VEC4"
    },
    {
      "bufferView" : 6,
      "componentType" : 5123,
      "count" : 4727,
      "type" : "VEC4"
    },
    {
      "bufferView" : 7,
      "normalized" : true,
      "componentType" : 5121,
      "count" : 4727,
      "type" : "VEC4"
    },
    {
      "bufferView" : 8,
      "componentType" : 5126,
      "count" : 4727,
      "type" : "VEC2"
    },
    {
      "bufferView" : 9,
      "componentType" : 5126,
      "count" : 4727,
      "type" : "VEC2"
    }
  ]
}
