{
  "asset" : {
    "generator" : "UE Viewer (umodel) build 1575",
    "version" : "2.0"
  },
  "scene" : 0,
  "scenes" : [
    {
      "nodes" : [ 0 ]
    }
  ],
  "nodes" : [
    {
      "name" : "SKL_WEP_Thumper_3p",
      "mesh" : 0,
      "skin" : 0,
      "children" : [ 1 ]
    },
    {
      "name" : "R_WEP_root",
      "translation" : [ 0, 0, -0 ],
      "rotation" : [ -1.11759e-07, -5.58794e-08, 8.9407e-08, -1 ]
    }
  ],
  "skins" : [
    {
      "inverseBindMatrices" : 0,
      "skeleton" : 1,
      "joints" : [
        1
      ]
    }
  ],
  "materials" : [
    {
      "name" : "MAT_WEP_Thumper_3p",
      "pbrMetallicRoughness" : {
        "baseColorFactor" : [ 0.3, 0.3, 0.3, 1.0 ],
        "metallicFactor" : 0.1,
        "roughnessFactor" : 0.5
      }
    }
  ],
  "meshes" : [
    {
      "primitives" : [
        {
          "attributes" : {
            "POSITION" : 2,
            "NORMAL" : 3,
            "TANGENT" : 4,
            "JOINTS_0" : 5,
            "WEIGHTS_0" : 6,
            "TEXCOORD_0" : 7
          },
          "indices" : 1,
          "material" : 0
        }
      ],
      "name" : "SKL_WEP_Thumper_3p"
    }
  ],
  "buffers" : [
    {
      "uri" : "SKL_WEP_Thumper_3p.bin",
      "byteLength" : 140940
    }
  ],
  "bufferViews" : [
    {
      "buffer" : 0,
      "byteOffset" : 0,
      "byteLength" : 64
    },
    {
      "buffer" : 0,
      "byteOffset" : 64,
      "byteLength" : 10976
    },
    {
      "buffer" : 0,
      "byteOffset" : 11040,
      "byteLength" : 25980
    },
    {
      "buffer" : 0,
      "byteOffset" : 37020,
      "byteLength" : 25980
    },
    {
      "buffer" : 0,
      "byteOffset" : 63000,
      "byteLength" : 34640
    },
    {
      "buffer" : 0,
      "byteOffset" : 97640,
      "byteLength" : 17320
    },
    {
      "buffer" : 0,
      "byteOffset" : 114960,
      "byteLength" : 8660
    },
    {
      "buffer" : 0,
      "byteOffset" : 123620,
      "byteLength" : 17320
    }
  ],
  "accessors" : [
    {
      "bufferView" : 0,
      "componentType" : 5126,
      "count" : 1,
      "type" : "MAT4"
    },
    {
      "bufferView" : 1,
      "componentType" : 5123,
      "count" : 5487,
      "type" : "SCALAR"
    },
    {
      "bufferView" : 2,
      "min" : [ -0.181981, -0.00880397, -0.0216051 ],
      "max" : [ 0.309122, 0.0859253, 0.0215134 ],
      "componentType" : 5126,
      "count" : 2165,
      "type" : "VEC3"
    },
    {
      "bufferView" : 3,
      "componentType" : 5126,
      "count" : 2165,
      "type" : "VEC3"
    },
    {
      "bufferView" : 4,
      "componentType" : 5126,
      "count" : 2165,
      "type" : "VEC4"
    },
    {
      "bufferView" : 5,
      "componentType" : 5123,
      "count" : 2165,
      "type" : "VEC4"
    },
    {
      "bufferView" : 6,
      "normalized" : true,
      "componentType" : 5121,
      "count" : 2165,
      "type" : "VEC4"
    },
    {
      "bufferView" : 7,
      "componentType" : 5126,
      "count" : 2165,
      "type" : "VEC2"
    }
  ]
}
