{
  "asset" : {
    "generator" : "UE Viewer (umodel) build 1575",
    "version" : "2.0"
  },
  "scene" : 0,
  "scenes" : [
    {
      "nodes" : [ 0 ]
    }
  ],
  "nodes" : [
    {
      "name" : "SKL_WEP_ThumperWithHands_1p",
      "mesh" : 0,
      "skin" : 0,
      "children" : [ 1 ]
    },
    {
      "name" : "Root",
      "children" : [ 2, 82, 83 ],
      "translation" : [ 0.0179209, -0.128046, 0.00449533 ],
      "rotation" : [ -0, 0.707107, 0, -0.707107 ]
    },
    {
      "name" : "Spine3",
      "children" : [ 3 ],
      "translation" : [ 3.57628e-09, 0, -0 ],
      "rotation" : [ -0.0764529, 0.0764548, -0.702961, -0.702962 ]
    },
    {
      "name" : "Neck",
      "children" : [ 4, 43 ],
      "translation" : [ 0.071601, 1.19209e-08, -0.000436662 ],
      "rotation" : [ -1.72273e-07, -0.219934, -7.32943e-07, -0.975515 ]
    },
    {
      "name" : "L_Clavicle",
      "children" : [ 5 ],
      "translation" : [ 0.00214967, 0.0212038, 0.00150471 ],
      "rotation" : [ -0.570441, -0.789906, -0.168639, -0.149015 ]
    },
    {
      "name" : "L_UpperArm",
      "children" : [ 6 ],
      "translation" : [ 0.104212, 1.90735e-08, 1.2517e-08 ],
      "rotation" : [ 0.0053969, -0.0186994, -0.0833601, -0.996329 ]
    },
    {
      "name" : "L_Forearm",
      "children" : [ 7, 38, 39, 40, 41, 42 ],
      "translation" : [ 0.104812, -6.67572e-08, 1.07288e-08 ],
      "rotation" : [ 5.17989e-09, 0.161433, 2.50771e-09, -0.986884 ]
    },
    {
      "name" : "L_Hand",
      "children" : [ 8, 14, 20, 26, 32 ],
      "translation" : [ 0.162085, -1.57356e-07, -4.76837e-08 ],
      "rotation" : [ 0.59545, -0.0316585, -0.0850952, -0.798245 ]
    },
    {
      "name" : "L_Finger0",
      "children" : [ 9, 13 ],
      "translation" : [ 0.00392223, -0.0080542, -0.00795342 ],
      "rotation" : [ -0.568629, 0.189233, 0.420309, -0.681316 ]
    },
    {
      "name" : "L_Finger01",
      "children" : [ 10, 12 ],
      "translation" : [ 0.0385584, -6.67572e-08, -1.14441e-07 ],
      "rotation" : [ 3.5137e-08, -0.212557, 6.01567e-09, -0.977149 ]
    },
    {
      "name" : "L_Finger02",
      "children" : [ 11 ],
      "translation" : [ 0.0252956, 1.14441e-07, 8.58307e-08 ],
      "rotation" : [ 2.30145e-07, -0.117443, -2.37283e-08, -0.99308 ]
    },
    {
      "name" : "L_Finger02_ftw",
      "translation" : [ -0.00307404, 0.000346546, -0.0120382 ],
      "rotation" : [ -0.0525245, 0.130168, 0.000108285, -0.9901 ]
    },
    {
      "name" : "L_Finger01_ftw",
      "translation" : [ -0.0091592, 0.000251961, -0.0205262 ],
      "rotation" : [ -0.051712, 0.159644, -0.00996607, -0.985769 ]
    },
    {
      "name" : "L_Finger00_ftw",
      "translation" : [ -0.00508242, 0.000395937, -0.0225157 ],
      "rotation" : [ -0.0975612, 0.138225, -0.0110594, -0.985522 ]
    },
    {
      "name" : "L_Finger1",
      "children" : [ 15, 19 ],
      "translation" : [ 0.0618531, -0.0187766, 0.00337527 ],
      "rotation" : [ -0.0265025, -0.232991, 0.155221, -0.959645 ]
    },
    {
      "name" : "L_Finger11",
      "children" : [ 16, 18 ],
      "translation" : [ 0.0298816, 4.76837e-08, 1.71661e-07 ],
      "rotation" : [ -3.01891e-07, -0.22383, -2.13126e-07, -0.974628 ]
    },
    {
      "name" : "L_Finger12",
      "children" : [ 17 ],
      "translation" : [ 0.0182841, -6.67572e-08, -1.14441e-07 ],
      "rotation" : [ 2.55789e-08, -0.19078, 1.02998e-07, -0.981633 ]
    },
    {
      "name" : "L_Finger12_ftw",
      "translation" : [ -0.00359486, -0.000149899, -0.0106481 ],
      "rotation" : [ -0.699365, 0.080521, -0.0825901, -0.705396 ]
    },
    {
      "name" : "L_Finger11_ftw",
      "translation" : [ -0.00142834, -0.000242748, -0.0121436 ],
      "rotation" : [ -0.696411, 0.098027, -0.10214, -0.70354 ]
    },
    {
      "name" : "L_Finger10_ftw",
      "translation" : [ 0.00223663, -0.000466452, -0.0211877 ],
      "rotation" : [ -0.682524, 0.164731, -0.169389, -0.691616 ]
    },
    {
      "name" : "L_Finger2",
      "children" : [ 21, 25 ],
      "translation" : [ 0.0665343, -0.00351852, 0.00380267 ],
      "rotation" : [ 0.00280519, -0.33303, 0.0418499, -0.941983 ]
    },
    {
      "name" : "L_Finger21",
      "children" : [ 22, 24 ],
      "translation" : [ 0.0318591, -1.19209e-07, -3.8147e-08 ],
      "rotation" : [ 1.54257e-08, -0.31277, 5.09872e-08, -0.949829 ]
    },
    {
      "name" : "L_Finger22",
      "children" : [ 23 ],
      "translation" : [ 0.0204567, 1.21593e-07, -1.52588e-07 ],
      "rotation" : [ 1.14268e-08, -0.301585, -2.83265e-09, -0.953439 ]
    },
    {
      "name" : "L_Finger22_ftw",
      "translation" : [ -0.00306758, 0.000396593, -0.0127792 ],
      "rotation" : [ -0.703146, 0.127629, -0.119787, -0.689164 ]
    },
    {
      "name" : "L_Finger21_ftw",
      "translation" : [ -0.00270864, 0.000398965, -0.0148805 ],
      "rotation" : [ -0.694304, 0.151914, -0.153529, -0.686508 ]
    },
    {
      "name" : "L_Finger20_ftw",
      "translation" : [ 0.00509983, -0.000405762, -0.0225704 ],
      "rotation" : [ -0.65339, 0.219362, -0.239057, -0.683969 ]
    },
    {
      "name" : "L_Finger3",
      "children" : [ 27, 31 ],
      "translation" : [ 0.0637386, 0.0114092, 0.000900421 ],
      "rotation" : [ 0.021452, -0.339427, -0.0649068, -0.938145 ]
    },
    {
      "name" : "L_Finger31",
      "children" : [ 28, 30 ],
      "translation" : [ 0.0302914, -1.19209e-07, -3.8147e-08 ],
      "rotation" : [ 0.00348219, -0.310127, -0.0131982, -0.950597 ]
    },
    {
      "name" : "L_Finger32",
      "children" : [ 29 ],
      "translation" : [ 0.0196626, 9.05991e-08, 1.14441e-07 ],
      "rotation" : [ -0.000813636, -0.316612, 0.00290507, -0.94855 ]
    },
    {
      "name" : "L_Finger32_ftw",
      "translation" : [ -0.00451908, -0.000368509, -0.0137259 ],
      "rotation" : [ -0.669681, 0.14013, -0.134113, -0.716872 ]
    },
    {
      "name" : "L_Finger31_ftw",
      "translation" : [ -0.00580091, 3.32022e-05, -0.0157693 ],
      "rotation" : [ -0.664939, 0.188954, -0.163294, -0.703909 ]
    },
    {
      "name" : "L_Finger30_ftw",
      "translation" : [ 0.00266167, -0.00216332, -0.0240076 ],
      "rotation" : [ -0.606612, 0.265566, -0.30096, -0.686236 ]
    },
    {
      "name" : "L_Finger4",
      "children" : [ 33, 37 ],
      "translation" : [ 0.0575308, 0.025979, -0.0029986 ],
      "rotation" : [ 0.0673867, -0.349038, -0.147182, -0.923022 ]
    },
    {
      "name" : "L_Finger41",
      "children" : [ 34, 36 ],
      "translation" : [ 0.0229432, -1.04904e-07, -3.8147e-08 ],
      "rotation" : [ 0.00024984, -0.282935, -0.000901444, -0.959139 ]
    },
    {
      "name" : "L_Finger42",
      "children" : [ 35 ],
      "translation" : [ 0.0138554, 6.67572e-08, -0 ],
      "rotation" : [ -2.66073e-08, -0.284729, 3.94447e-09, -0.958608 ]
    },
    {
      "name" : "L_Finger42_ftw",
      "translation" : [ -0.00261699, -0.000289841, -0.0114382 ],
      "rotation" : [ -0.656508, 0.144683, -0.13232, -0.728393 ]
    },
    {
      "name" : "L_Finger41_ftw",
      "translation" : [ -0.00461779, -0.000332022, -0.0160345 ],
      "rotation" : [ -0.634821, 0.240842, -0.220719, -0.7002 ]
    },
    {
      "name" : "L_Finger40_ftw",
      "translation" : [ 0.00261887, -0.000593491, -0.0229762 ],
      "rotation" : [ -0.594125, 0.345968, -0.330871, -0.646411 ]
    },
    {
      "name" : "L_ForearmTwist01",
      "translation" : [ 0.0183996, -6.67572e-08, -4.76837e-09 ],
      "rotation" : [ -0.0284436, 3.45509e-08, -7.18266e-09, -0.999595 ]
    },
    {
      "name" : "L_ForearmTwist02",
      "translation" : [ 0.0433996, -1.90735e-08, 9.53674e-09 ],
      "rotation" : [ -0.0568643, 6.14325e-08, 5.55241e-09, -0.998382 ]
    },
    {
      "name" : "L_ForearmTwist03",
      "translation" : [ 0.0683997, -2.86102e-08, -0 ],
      "rotation" : [ -0.0852389, 1.66296e-08, -9.53733e-09, -0.996361 ]
    },
    {
      "name" : "L_ForearmTwist04",
      "translation" : [ 0.0934601, -3.8147e-08, 9.53674e-09 ],
      "rotation" : [ -0.113545, 2.26302e-08, -1.16323e-08, -0.993533 ]
    },
    {
      "name" : "L_ForearmTwist05",
      "translation" : [ 0.118714, -1.04904e-07, -0 ],
      "rotation" : [ -0.14035, -4.25074e-08, -1.96879e-08, -0.990102 ]
    },
    {
      "name" : "R_Clavicle",
      "children" : [ 44 ],
      "translation" : [ 0.00214967, -0.021204, 0.0015046 ],
      "rotation" : [ 0.570441, -0.789907, 0.168637, -0.149017 ]
    },
    {
      "name" : "R_UpperArm",
      "children" : [ 45 ],
      "translation" : [ 0.104212, -1.00136e-07, -8.34465e-09 ],
      "rotation" : [ -0.00539665, -0.0186994, 0.0833601, -0.996329 ]
    },
    {
      "name" : "R_Forearm",
      "children" : [ 46, 77, 78, 79, 80, 81 ],
      "translation" : [ 0.104812, 0, 2.38419e-09 ],
      "rotation" : [ -8.55563e-09, 0.161433, -7.35286e-09, -0.986884 ]
    },
    {
      "name" : "R_Hand",
      "children" : [ 47, 53, 59, 65, 71 ],
      "translation" : [ 0.162085, 7.15256e-08, -4.76837e-09 ],
      "rotation" : [ -0.595451, -0.0316585, 0.0850952, -0.798245 ]
    },
    {
      "name" : "R_Finger0",
      "children" : [ 48, 52 ],
      "translation" : [ 0.0039225, 0.00805398, -0.0079532 ],
      "rotation" : [ 0.568629, 0.189233, -0.420309, -0.681316 ]
    },
    {
      "name" : "R_Finger01",
      "children" : [ 49, 51 ],
      "translation" : [ 0.0385582, 1.90735e-07, 2.47955e-07 ],
      "rotation" : [ -2.26328e-08, -0.212556, 1.66171e-08, -0.977149 ]
    },
    {
      "name" : "R_Finger02",
      "children" : [ 50 ],
      "translation" : [ 0.0252957, -1.23978e-07, -1.04904e-07 ],
      "rotation" : [ 2.58816e-07, -0.117443, -5.234e-08, -0.99308 ]
    },
    {
      "name" : "R_Finger02_ftw",
      "translation" : [ -0.00312531, -0.000389252, -0.0119718 ],
      "rotation" : [ -0.0474762, 0.12786, -0.0139901, -0.990556 ]
    },
    {
      "name" : "R_Finger01_ftw",
      "translation" : [ -0.00925392, -0.000341177, -0.0202348 ],
      "rotation" : [ -0.0531016, 0.156114, -0.00759579, -0.986281 ]
    },
    {
      "name" : "R_Finger00_ftw",
      "translation" : [ 0.00249662, -0.000807362, -0.0165525 ],
      "rotation" : [ -0.992767, -0.00643978, -0.0525147, -0.107772 ]
    },
    {
      "name" : "R_Finger1",
      "children" : [ 54, 58 ],
      "translation" : [ 0.0618532, 0.0187765, 0.00337537 ],
      "rotation" : [ 0.0265028, -0.232991, -0.155221, -0.959645 ]
    },
    {
      "name" : "R_Finger11",
      "children" : [ 55, 57 ],
      "translation" : [ 0.0298816, 1.04904e-07, 1.90735e-08 ],
      "rotation" : [ -4.09867e-08, -0.22383, -2.47351e-07, -0.974628 ]
    },
    {
      "name" : "R_Finger12",
      "children" : [ 56 ],
      "translation" : [ 0.0182841, -2.86102e-08, -1.90735e-08 ],
      "rotation" : [ 1.67628e-08, -0.19078, 1.14869e-07, -0.981633 ]
    },
    {
      "name" : "R_Finger12_ftw",
      "translation" : [ -0.00359125, -0.000107756, -0.0106567 ],
      "rotation" : [ -0.697922, 0.0776109, -0.0867889, -0.706646 ]
    },
    {
      "name" : "R_Finger11_ftw",
      "translation" : [ -0.00142269, -0.000247679, -0.0121381 ],
      "rotation" : [ -0.695984, 0.0964513, -0.103049, -0.704049 ]
    },
    {
      "name" : "R_Finger10_ftw",
      "translation" : [ 0.00227222, 0.000137959, -0.0210998 ],
      "rotation" : [ -0.65713, 0.178766, -0.152642, -0.716187 ]
    },
    {
      "name" : "R_Finger2",
      "children" : [ 60, 64 ],
      "translation" : [ 0.0665344, 0.00351816, 0.00380282 ],
      "rotation" : [ -0.0028052, -0.33303, -0.0418499, -0.941983 ]
    },
    {
      "name" : "R_Finger21",
      "children" : [ 61, 63 ],
      "translation" : [ 0.0318591, -7.15256e-09, -0 ],
      "rotation" : [ 2.61829e-08, -0.31277, -8.55525e-08, -0.949829 ]
    },
    {
      "name" : "R_Finger22",
      "children" : [ 62 ],
      "translation" : [ 0.0204568, -1.19209e-08, 1.14441e-07 ],
      "rotation" : [ -4.69681e-08, -0.301585, 1.23067e-07, -0.953439 ]
    },
    {
      "name" : "R_Finger22_ftw",
      "translation" : [ -0.00306351, -0.000172102, -0.012777 ],
      "rotation" : [ -0.697611, 0.118718, -0.128728, -0.694747 ]
    },
    {
      "name" : "R_Finger21_ftw",
      "translation" : [ -0.00270948, -4.21715e-05, -0.0148816 ],
      "rotation" : [ -0.69567, 0.15474, -0.15066, -0.685128 ]
    },
    {
      "name" : "R_Finger20_ftw",
      "translation" : [ 0.00491348, -0.000122259, -0.0225578 ],
      "rotation" : [ -0.632617, 0.237501, -0.216013, -0.704789 ]
    },
    {
      "name" : "R_Finger3",
      "children" : [ 66, 70 ],
      "translation" : [ 0.0637386, -0.0114093, 0.000900631 ],
      "rotation" : [ -0.0214518, -0.339427, 0.0649066, -0.938145 ]
    },
    {
      "name" : "R_Finger31",
      "children" : [ 67, 69 ],
      "translation" : [ 0.0302913, 1.43051e-08, 9.53674e-08 ],
      "rotation" : [ -0.0034825, -0.310127, 0.0131983, -0.950597 ]
    },
    {
      "name" : "R_Finger32",
      "children" : [ 68 ],
      "translation" : [ 0.0196626, 1.43051e-08, -2.67029e-07 ],
      "rotation" : [ 0.000813649, -0.316612, -0.00290501, -0.94855 ]
    },
    {
      "name" : "R_Finger32_ftw",
      "translation" : [ -0.00472995, 0.000254788, -0.0137071 ],
      "rotation" : [ -0.671517, 0.138262, -0.127945, -0.716644 ]
    },
    {
      "name" : "R_Finger31_ftw",
      "translation" : [ -0.00595005, 0.00042511, -0.0156596 ],
      "rotation" : [ -0.665612, 0.187377, -0.166428, -0.70296 ]
    },
    {
      "name" : "R_Finger30_ftw",
      "translation" : [ 0.00249077, 0.0010189, -0.0240241 ],
      "rotation" : [ -0.631458, 0.294357, -0.271563, -0.663979 ]
    },
    {
      "name" : "R_Finger4",
      "children" : [ 72, 76 ],
      "translation" : [ 0.0575311, -0.0259792, -0.0029985 ],
      "rotation" : [ -0.0673867, -0.349038, 0.147182, -0.923022 ]
    },
    {
      "name" : "R_Finger41",
      "children" : [ 73, 75 ],
      "translation" : [ 0.0229431, 1.52588e-07, -9.53674e-08 ],
      "rotation" : [ -0.000249834, -0.282935, 0.00090151, -0.959139 ]
    },
    {
      "name" : "R_Finger42",
      "children" : [ 74 ],
      "translation" : [ 0.0138553, -1.04904e-07, -1.14441e-07 ],
      "rotation" : [ -4.97368e-08, -0.284729, 1.67946e-08, -0.958608 ]
    },
    {
      "name" : "R_Finger42_ftw",
      "translation" : [ -0.00279385, 0.000218096, -0.0112436 ],
      "rotation" : [ -0.658004, 0.139719, -0.126975, -0.728963 ]
    },
    {
      "name" : "R_Finger41_ftw",
      "translation" : [ -0.00445267, 0.000212765, -0.0162256 ],
      "rotation" : [ -0.631228, 0.254732, -0.231657, -0.69498 ]
    },
    {
      "name" : "R_Finger40_ftw",
      "translation" : [ 0.00191479, -0.00037632, -0.0225609 ],
      "rotation" : [ -0.616935, 0.307254, -0.326409, -0.646871 ]
    },
    {
      "name" : "R_ForearmTwist01",
      "translation" : [ 0.0183996, -2.86102e-08, -1.43051e-08 ],
      "rotation" : [ 0.0284435, 3.24771e-08, 1.10415e-07, -0.999595 ]
    },
    {
      "name" : "R_ForearmTwist02",
      "translation" : [ 0.0433996, -7.62939e-08, 4.76837e-09 ],
      "rotation" : [ 0.056864, -3.11488e-08, 1.11181e-07, -0.998382 ]
    },
    {
      "name" : "R_ForearmTwist03",
      "translation" : [ 0.0683997, -6.67572e-08, -4.76837e-09 ],
      "rotation" : [ 0.0852385, -2.4633e-08, 9.52347e-08, -0.996361 ]
    },
    {
      "name" : "R_ForearmTwist04",
      "translation" : [ 0.0939496, -6.19888e-08, -1.43051e-08 ],
      "rotation" : [ 0.113544, -6.60416e-08, 1.0101e-07, -0.993533 ]
    },
    {
      "name" : "R_ForearmTwist05",
      "translation" : [ 0.119138, -9.53674e-08, -1.43051e-08 ],
      "rotation" : [ 0.140349, -3.84176e-08, 1.14041e-07, -0.990102 ]
    },
    {
      "name" : "Prop2",
      "translation" : [ -0.414181, -0.0144965, -0.00571566 ],
      "rotation" : [ -0.0705724, -0.723229, 0.685669, -0.0426291 ]
    },
    {
      "name" : "Prop1",
      "children" : [ 84 ],
      "translation" : [ 0.41418, -0.0144982, -0.00571304 ],
      "rotation" : [ 0.686229, -0.0406617, -0.0674561, -0.723109 ]
    },
    {
      "name" : "R_WEP_root",
      "children" : [ 85, 91, 93 ],
      "translation" : [ -7.62939e-08, 1.38283e-07, 2.19345e-07 ],
      "rotation" : [ 2.28174e-07, -2.42144e-07, -2.45229e-07, -1 ]
    },
    {
      "name" : "R_WEP_reload_pt",
      "children" : [ 86 ],
      "translation" : [ 0.128221, -0.0202294, -2.86102e-08 ],
      "rotation" : [ 1.41468e-06, -3.88362e-07, -1.09547e-07, -1 ]
    },
    {
      "name" : "R_WEP_reload",
      "children" : [ 87, 89 ],
      "translation" : [ 0, -9.53674e-09, -0 ],
      "rotation" : [ -5.31259e-18, 9.31323e-10, 3.31784e-09, -1 ]
    },
    {
      "name" : "R_WEP_shell_pt",
      "children" : [ 88 ],
      "translation" : [ -0.056371, 0.0343394, 5.72205e-08 ],
      "rotation" : [ -1.76951e-08, 1.77883e-07, -7.43138e-07, -1 ]
    },
    {
      "name" : "R_WEP_shell",
      "translation" : [ 0, 4.76837e-09, -0 ],
      "rotation" : [ -1.25729e-07, 2.23518e-08, -4.72064e-07, -1 ]
    },
    {
      "name" : "R_WEP_bullet_pt",
      "children" : [ 90 ],
      "translation" : [ -0.056368, 0.0343369, -0.121139 ],
      "rotation" : [ -1.76951e-08, 1.77883e-07, -7.43138e-07, -1 ]
    },
    {
      "name" : "R_WEP_bullet",
      "translation" : [ 0, 4.76837e-09, -0 ],
      "rotation" : [ -1.25729e-07, 2.23518e-08, -4.72064e-07, -1 ]
    },
    {
      "name" : "R_WEP_trigger_pt",
      "children" : [ 92 ],
      "translation" : [ 0.0439503, -0.0119001, 4.76837e-08 ],
      "rotation" : [ 1.38581e-06, -3.31551e-07, -9.49949e-07, -1 ]
    },
    {
      "name" : "R_WEP_trigger",
      "translation" : [ 0, 0, -0 ],
      "rotation" : [ -1.87196e-07, -1.39699e-08, -5.07105e-07, -1 ]
    },
    {
      "name" : "R_WEP_button_pt",
      "children" : [ 94 ],
      "translation" : [ 0.0257285, 0.0249269, 3.8147e-08 ],
      "rotation" : [ 1.32891e-06, -5.816e-08, -0.173104, -0.984904 ]
    },
    {
      "name" : "R_WEP_button",
      "translation" : [ 0, 0, -0 ],
      "rotation" : [ -1.50874e-07, 7.45059e-09, -4.66331e-07, -1 ]
    }
  ],
  "skins" : [
    {
      "inverseBindMatrices" : 0,
      "skeleton" : 1,
      "joints" : [
        1,2,3,4,5,6,7,8,9,10,11,12,13,14,15,16,17,18,19,20,21,22,23,24,25,26,27,28,29,30,31,32,
        33,34,35,36,37,38,39,40,41,42,43,44,45,46,47,48,49,50,51,52,53,54,55,56,57,58,59,60,61,62,63,64,
        65,66,67,68,69,70,71,72,73,74,75,76,77,78,79,80,81,82,83,84,85,86,87,88,89,90,91,92,93,94
      ]
    }
  ],
  "materials" : [
    {
      "name" : "dummy_material_0",
      "pbrMetallicRoughness" : {
        "baseColorFactor" : [ 0.3, 0.3, 0.3, 1.0 ],
        "metallicFactor" : 0.1,
        "roughnessFactor" : 0.5
      }
    },
    {
      "name" : "dummy_material_1",
      "pbrMetallicRoughness" : {
        "baseColorFactor" : [ 0.9, 0.3, 0.3, 1.0 ],
        "metallicFactor" : 0.1,
        "roughnessFactor" : 0.5
      }
    }
  ],
  "meshes" : [
    {
      "primitives" : [
        {
          "attributes" : {
            "POSITION" : 2,
            "NORMAL" : 3,
            "TANGENT" : 4,
            "JOINTS_0" : 5,
            "WEIGHTS_0" : 6,
            "TEXCOORD_0" : 7
          },
          "indices" : 1,
          "material" : 0
        },
        {
          "attributes" : {
            "POSITION" : 9,
            "NORMAL" : 10,
            "TANGENT" : 11,
            "JOINTS_0" : 12,
            "WEIGHTS_0" : 13,
            "TEXCOORD_0" : 14
          },
          "indices" : 8,
          "material" : 1
        }
      ],
      "name" : "SKL_WEP_ThumperWithHands_1p"
    }
  ],
  "buffers" : [
    {
      "uri" : "SKL_WEP_ThumperWithHands_1p.bin",
      "byteLength" : 856596
    }
  ],
  "bufferViews" : [
    {
      "buffer" : 0,
      "byteOffset" : 0,
      "byteLength" : 6016
    },
    {
      "buffer" : 0,
      "byteOffset" : 6016,
      "byteLength" : 38720
    },
    {
      "buffer" : 0,
      "byteOffset" : 44736,
      "byteLength" : 100968
    },
    {
      "buffer" : 0,
      "byteOffset" : 145704,
      "byteLength" : 100968
    },
    {
      "buffer" : 0,
      "byteOffset" : 246672,
      "byteLength" : 134624
    },
    {
      "buffer" : 0,
      "byteOffset" : 381296,
      "byteLength" : 67312
    },
    {
      "buffer" : 0,
      "byteOffset" : 448608,
      "byteLength" : 33656
    },
    {
      "buffer" : 0,
      "byteOffset" : 482264,
      "byteLength" : 67312
    },
    {
      "buffer" : 0,
      "byteOffset" : 549576,
      "byteLength" : 44700
    },
    {
      "buffer" : 0,
      "byteOffset" : 594276,
      "byteLength" : 52464
    },
    {
      "buffer" : 0,
      "byteOffset" : 646740,
      "byteLength" : 52464
    },
    {
      "buffer" : 0,
      "byteOffset" : 699204,
      "byteLength" : 69952
    },
    {
      "buffer" : 0,
      "byteOffset" : 769156,
      "byteLength" : 34976
    },
    {
      "buffer" : 0,
      "byteOffset" : 804132,
      "byteLength" : 17488
    },
    {
      "buffer" : 0,
      "byteOffset" : 821620,
      "byteLength" : 34976
    }
  ],
  "accessors" : [
    {
      "bufferView" : 0,
      "componentType" : 5126,
      "count" : 94,
      "type" : "MAT4"
    },
    {
      "bufferView" : 1,
      "componentType" : 5123,
      "count" : 19359,
      "type" : "SCALAR"
    },
    {
      "bufferView" : 2,
      "min" : [ -0.0273576, -0.274367, 0.218611 ],
      "max" : [ 0.101182, -0.108443, 0.708568 ],
      "componentType" : 5126,
      "count" : 8414,
      "type" : "VEC3"
    },
    {
      "bufferView" : 3,
      "componentType" : 5126,
      "count" : 8414,
      "type" : "VEC3"
    },
    {
      "bufferView" : 4,
      "componentType" : 5126,
      "count" : 8414,
      "type" : "VEC4"
    },
    {
      "bufferView" : 5,
      "componentType" : 5123,
      "count" : 8414,
      "type" : "VEC4"
    },
    {
      "bufferView" : 6,
      "normalized" : true,
      "componentType" : 5121,
      "count" : 8414,
      "type" : "VEC4"
    },
    {
      "bufferView" : 7,
      "componentType" : 5126,
      "count" : 8414,
      "type" : "VEC2"
    },
    {
      "bufferView" : 8,
      "componentType" : 5123,
      "count" : 22350,
      "type" : "SCALAR"
    },
    {
      "bufferView" : 9,
      "min" : [ -0.0463736, -0.173506, -0.478361 ],
      "max" : [ 0.0821556, -0.0506885, 0.487353 ],
      "componentType" : 5126,
      "count" : 4372,
      "type" : "VEC3"
    },
    {
      "bufferView" : 10,
      "componentType" : 5126,
      "count" : 4372,
      "type" : "VEC3"
    },
    {
      "bufferView" : 11,
      "componentType" : 5126,
      "count" : 4372,
      "type" : "VEC4"
    },
    {
      "bufferView" : 12,
      "componentType" : 5123,
      "count" : 4372,
      "type" : "VEC4"
    },
    {
      "bufferView" : 13,
      "normalized" : true,
      "componentType" : 5121,
      "count" : 4372,
      "type" : "VEC4"
    },
    {
      "bufferView" : 14,
      "componentType" : 5126,
      "count" : 4372,
      "type" : "VEC2"
    }
  ]
}
