{
  "asset" : {
    "generator" : "UE Viewer (umodel) build 1575",
    "version" : "2.0"
  },
  "scene" : 0,
  "scenes" : [
    {
      "nodes" : [ 0 ]
    }
  ],
  "nodes" : [
    {
      "name" : "SKL_WEP_HeavyBoltLauncher_3p",
      "mesh" : 0,
      "skin" : 0,
      "children" : [ 1 ]
    },
    {
      "name" : "R_WEP_root",
      "translation" : [ 0, 0, -0 ],
      "rotation" : [ 7.45058e-08, -3.77186e-08, -8.19564e-08, -1 ]
    }
  ],
  "skins" : [
    {
      "inverseBindMatrices" : 0,
      "skeleton" : 1,
      "joints" : [
        1
      ]
    }
  ],
  "materials" : [
    {
      "name" : "MAT_WEP_HeavyBoltLauncher_3p",
      "pbrMetallicRoughness" : {
        "baseColorFactor" : [ 0.3, 0.3, 0.3, 1.0 ],
        "metallicFactor" : 0.1,
        "roughnessFactor" : 0.5
      }
    }
  ],
  "meshes" : [
    {
      "primitives" : [
        {
          "attributes" : {
            "POSITION" : 2,
            "NORMAL" : 3,
            "TANGENT" : 4,
            "COLOR_0" : 5,
            "JOINTS_0" : 6,
            "WEIGHTS_0" : 7,
            "TEXCOORD_0" : 8
          },
          "indices" : 1,
          "material" : 0
        }
      ],
      "name" : "SKL_WEP_HeavyBoltLauncher_3p"
    }
  ],
  "buffers" : [
    {
      "uri" : "SKL_WEP_HeavyBoltLauncher_3p.bin",
      "byteLength" : 230532
    }
  ],
  "bufferViews" : [
    {
      "buffer" : 0,
      "byteOffset" : 0,
      "byteLength" : 64
    },
    {
      "buffer" : 0,
      "byteOffset" : 64,
      "byteLength" : 17924
    },
    {
      "buffer" : 0,
      "byteOffset" : 17988,
      "byteLength" : 39852
    },
    {
      "buffer" : 0,
      "byteOffset" : 57840,
      "byteLength" : 39852
    },
    {
      "buffer" : 0,
      "byteOffset" : 97692,
      "byteLength" : 53136
    },
    {
      "buffer" : 0,
      "byteOffset" : 150828,
      "byteLength" : 13284
    },
    {
      "buffer" : 0,
      "byteOffset" : 164112,
      "byteLength" : 26568
    },
    {
      "buffer" : 0,
      "byteOffset" : 190680,
      "byteLength" : 13284
    },
    {
      "buffer" : 0,
      "byteOffset" : 203964,
      "byteLength" : 26568
    }
  ],
  "accessors" : [
    {
      "bufferView" : 0,
      "componentType" : 5126,
      "count" : 1,
      "type" : "MAT4"
    },
    {
      "bufferView" : 1,
      "componentType" : 5123,
      "count" : 8961,
      "type" : "SCALAR"
    },
    {
      "bufferView" : 2,
      "min" : [ -0.136847, -0.0574197, -0.278274 ],
      "max" : [ 0.492307, 0.133665, 0.278274 ],
      "componentType" : 5126,
      "count" : 3321,
      "type" : "VEC3"
    },
    {
      "bufferView" : 3,
      "componentType" : 5126,
      "count" : 3321,
      "type" : "VEC3"
    },
    {
      "bufferView" : 4,
      "componentType" : 5126,
      "count" : 3321,
      "type" : "VEC4"
    },
    {
      "bufferView" : 5,
      "normalized" : true,
      "componentType" : 5121,
      "count" : 3321,
      "type" : "VEC4"
    },
    {
      "bufferView" : 6,
      "componentType" : 5123,
      "count" : 3321,
      "type" : "VEC4"
    },
    {
      "bufferView" : 7,
      "normalized" : true,
      "componentType" : 5121,
      "count" : 3321,
      "type" : "VEC4"
    },
    {
      "bufferView" : 8,
      "componentType" : 5126,
      "count" : 3321,
      "type" : "VEC2"
    }
  ]
}
