{
  "asset" : {
    "generator" : "UE Viewer (umodel) build 1575",
    "version" : "2.0"
  },
  "scene" : 0,
  "scenes" : [
    {
      "nodes" : [ 0 ]
    }
  ],
  "nodes" : [
    {
      "name" : "SKL_WEP_NJ5_3p",
      "mesh" : 0,
      "skin" : 0,
      "children" : [ 1 ]
    },
    {
      "name" : "R_WEP_root",
      "translation" : [ 0, 0, -0 ],
      "rotation" : [ 7.82311e-08, 6.23986e-08, -4.47035e-08, -1 ]
    }
  ],
  "skins" : [
    {
      "inverseBindMatrices" : 0,
      "skeleton" : 1,
      "joints" : [
        1
      ]
    }
  ],
  "materials" : [
    {
      "name" : "MAT_NJ5_3p",
      "pbrMetallicRoughness" : {
        "baseColorFactor" : [ 0.3, 0.3, 0.3, 1.0 ],
        "metallicFactor" : 0.1,
        "roughnessFactor" : 0.5
      }
    }
  ],
  "meshes" : [
    {
      "primitives" : [
        {
          "attributes" : {
            "POSITION" : 2,
            "NORMAL" : 3,
            "TANGENT" : 4,
            "JOINTS_0" : 5,
            "WEIGHTS_0" : 6,
            "TEXCOORD_0" : 7
          },
          "indices" : 1,
          "material" : 0
        }
      ],
      "name" : "SKL_WEP_NJ5_3p"
    }
  ],
  "buffers" : [
    {
      "uri" : "SKL_WEP_NJ5_3p.bin",
      "byteLength" : 136564
    }
  ],
  "bufferViews" : [
    {
      "buffer" : 0,
      "byteOffset" : 0,
      "byteLength" : 64
    },
    {
      "buffer" : 0,
      "byteOffset" : 64,
      "byteLength" : 11640
    },
    {
      "buffer" : 0,
      "byteOffset" : 11704,
      "byteLength" : 24972
    },
    {
      "buffer" : 0,
      "byteOffset" : 36676,
      "byteLength" : 24972
    },
    {
      "buffer" : 0,
      "byteOffset" : 61648,
      "byteLength" : 33296
    },
    {
      "buffer" : 0,
      "byteOffset" : 94944,
      "byteLength" : 16648
    },
    {
      "buffer" : 0,
      "byteOffset" : 111592,
      "byteLength" : 8324
    },
    {
      "buffer" : 0,
      "byteOffset" : 119916,
      "byteLength" : 16648
    }
  ],
  "accessors" : [
    {
      "bufferView" : 0,
      "componentType" : 5126,
      "count" : 1,
      "type" : "MAT4"
    },
    {
      "bufferView" : 1,
      "componentType" : 5123,
      "count" : 5820,
      "type" : "SCALAR"
    },
    {
      "bufferView" : 2,
      "min" : [ -0.139158, -0.0585692, -0.0251046 ],
      "max" : [ 0.255289, 0.10649, 0.0192642 ],
      "componentType" : 5126,
      "count" : 2081,
      "type" : "VEC3"
    },
    {
      "bufferView" : 3,
      "componentType" : 5126,
      "count" : 2081,
      "type" : "VEC3"
    },
    {
      "bufferView" : 4,
      "componentType" : 5126,
      "count" : 2081,
      "type" : "VEC4"
    },
    {
      "bufferView" : 5,
      "componentType" : 5123,
      "count" : 2081,
      "type" : "VEC4"
    },
    {
      "bufferView" : 6,
      "normalized" : true,
      "componentType" : 5121,
      "count" : 2081,
      "type" : "VEC4"
    },
    {
      "bufferView" : 7,
      "componentType" : 5126,
      "count" : 2081,
      "type" : "VEC2"
    }
  ]
}
