{
  "asset" : {
    "generator" : "UE Viewer (umodel) build 1575",
    "version" : "2.0"
  },
  "scene" : 0,
  "scenes" : [
    {
      "nodes" : [ 0 ]
    }
  ],
  "nodes" : [
    {
      "name" : "SKL_WEP_ShockLance_3p",
      "mesh" : 0,
      "skin" : 0,
      "children" : [ 1 ]
    },
    {
      "name" : "R_WEP_root",
      "translation" : [ 0, 0, -0 ],
      "rotation" : [ -0, -0, 0, -1 ]
    }
  ],
  "skins" : [
    {
      "inverseBindMatrices" : 0,
      "skeleton" : 1,
      "joints" : [
        1
      ]
    }
  ],
  "materials" : [
    {
      "name" : "3p_Shock_Lance_Dif_Mat",
      "pbrMetallicRoughness" : {
        "baseColorFactor" : [ 0.3, 0.3, 0.3, 1.0 ],
        "metallicFactor" : 0.1,
        "roughnessFactor" : 0.5
      }
    }
  ],
  "meshes" : [
    {
      "primitives" : [
        {
          "attributes" : {
            "POSITION" : 2,
            "NORMAL" : 3,
            "TANGENT" : 4,
            "JOINTS_0" : 5,
            "WEIGHTS_0" : 6,
            "TEXCOORD_0" : 7
          },
          "indices" : 1,
          "material" : 0
        }
      ],
      "name" : "SKL_WEP_ShockLance_3p"
    }
  ],
  "buffers" : [
    {
      "uri" : "SKL_WEP_ShockLance_3p.bin",
      "byteLength" : 176452
    }
  ],
  "bufferViews" : [
    {
      "buffer" : 0,
      "byteOffset" : 0,
      "byteLength" : 64
    },
    {
      "buffer" : 0,
      "byteOffset" : 64,
      "byteLength" : 15588
    },
    {
      "buffer" : 0,
      "byteOffset" : 15652,
      "byteLength" : 32160
    },
    {
      "buffer" : 0,
      "byteOffset" : 47812,
      "byteLength" : 32160
    },
    {
      "buffer" : 0,
      "byteOffset" : 79972,
      "byteLength" : 42880
    },
    {
      "buffer" : 0,
      "byteOffset" : 122852,
      "byteLength" : 21440
    },
    {
      "buffer" : 0,
      "byteOffset" : 144292,
      "byteLength" : 10720
    },
    {
      "buffer" : 0,
      "byteOffset" : 155012,
      "byteLength" : 21440
    }
  ],
  "accessors" : [
    {
      "bufferView" : 0,
      "componentType" : 5126,
      "count" : 1,
      "type" : "MAT4"
    },
    {
      "bufferView" : 1,
      "componentType" : 5123,
      "count" : 7794,
      "type" : "SCALAR"
    },
    {
      "bufferView" : 2,
      "min" : [ -0.0342257, -0.0478637, -0.059795 ],
      "max" : [ 0.326459, 0.12742, 0.059795 ],
      "componentType" : 5126,
      "count" : 2680,
      "type" : "VEC3"
    },
    {
      "bufferView" : 3,
      "componentType" : 5126,
      "count" : 2680,
      "type" : "VEC3"
    },
    {
      "bufferView" : 4,
      "componentType" : 5126,
      "count" : 2680,
      "type" : "VEC4"
    },
    {
      "bufferView" : 5,
      "componentType" : 5123,
      "count" : 2680,
      "type" : "VEC4"
    },
    {
      "bufferView" : 6,
      "normalized" : true,
      "componentType" : 5121,
      "count" : 2680,
      "type" : "VEC4"
    },
    {
      "bufferView" : 7,
      "componentType" : 5126,
      "count" : 2680,
      "type" : "VEC2"
    }
  ]
}
