{
  "asset" : {
    "generator" : "UE Viewer (umodel) build 1575",
    "version" : "2.0"
  },
  "scene" : 0,
  "scenes" : [
    {
      "nodes" : [ 0 ]
    }
  ],
  "nodes" : [
    {
      "name" : "SKL_WEP_ShockLance_1p",
      "mesh" : 0,
      "skin" : 0,
      "children" : [ 1 ]
    },
    {
      "name" : "Root",
      "children" : [ 2, 82, 83 ],
      "translation" : [ 0.0179209, -0.128046, 0.00449533 ],
      "rotation" : [ -0, 0.707107, 0, -0.707107 ]
    },
    {
      "name" : "Spine3",
      "children" : [ 3 ],
      "translation" : [ 3.57628e-09, 0, -0 ],
      "rotation" : [ -0.0764528, 0.076455, -0.702961, -0.702962 ]
    },
    {
      "name" : "Neck",
      "children" : [ 4, 43 ],
      "translation" : [ 0.0716009, 8.64267e-09, -0.000436653 ],
      "rotation" : [ -4.10701e-07, -0.219934, -6.6563e-07, -0.975515 ]
    },
    {
      "name" : "L_Clavicle",
      "children" : [ 5 ],
      "translation" : [ 0.00214968, 0.0212038, 0.0015047 ],
      "rotation" : [ -0.570442, -0.789906, -0.168639, -0.149015 ]
    },
    {
      "name" : "L_UpperArm",
      "children" : [ 6 ],
      "translation" : [ 0.104212, -1.90735e-08, 2.26498e-08 ],
      "rotation" : [ 0.00539691, -0.0186995, -0.0833601, -0.996329 ]
    },
    {
      "name" : "L_Forearm",
      "children" : [ 7, 38, 39, 40, 41, 42 ],
      "translation" : [ 0.104812, -1.14441e-07, 9.53674e-09 ],
      "rotation" : [ 2.14969e-07, 0.161434, 1.78205e-07, -0.986884 ]
    },
    {
      "name" : "L_Hand",
      "children" : [ 8, 14, 20, 26, 32 ],
      "translation" : [ 0.162085, -1.62125e-07, -2.38419e-08 ],
      "rotation" : [ 0.595451, -0.0316585, -0.0850953, -0.798245 ]
    },
    {
      "name" : "L_Finger0",
      "children" : [ 9, 13 ],
      "translation" : [ 0.00392223, -0.00805421, -0.00795344 ],
      "rotation" : [ -0.568629, 0.189233, 0.420309, -0.681316 ]
    },
    {
      "name" : "L_Finger01",
      "children" : [ 10, 12 ],
      "translation" : [ 0.0385583, -3.8147e-08, -1.33514e-07 ],
      "rotation" : [ 2.48169e-07, -0.212557, -8.16673e-08, -0.977149 ]
    },
    {
      "name" : "L_Finger02",
      "children" : [ 11 ],
      "translation" : [ 0.0252957, 1.04904e-07, 1.04904e-07 ],
      "rotation" : [ -2.03473e-08, -0.117443, 6.56265e-10, -0.99308 ]
    },
    {
      "name" : "L_Finger02_ftw",
      "translation" : [ -0.00307423, 0.000346594, -0.0120383 ],
      "rotation" : [ -0.0525243, 0.130169, 0.000108866, -0.9901 ]
    },
    {
      "name" : "L_Finger01_ftw",
      "translation" : [ -0.00915916, 0.000251923, -0.0205262 ],
      "rotation" : [ -0.0517118, 0.159643, -0.00996668, -0.985769 ]
    },
    {
      "name" : "L_Finger00_ftw",
      "translation" : [ -0.0050824, 0.000395956, -0.0225157 ],
      "rotation" : [ -0.0975611, 0.138225, -0.0110588, -0.985522 ]
    },
    {
      "name" : "L_Finger1",
      "children" : [ 15, 19 ],
      "translation" : [ 0.0618531, -0.0187766, 0.00337527 ],
      "rotation" : [ -0.0265028, -0.232991, 0.155221, -0.959645 ]
    },
    {
      "name" : "L_Finger11",
      "children" : [ 16, 18 ],
      "translation" : [ 0.0298815, 9.53674e-09, 1.43051e-07 ],
      "rotation" : [ 2.0523e-08, -0.22383, 4.1812e-08, -0.974628 ]
    },
    {
      "name" : "L_Finger12",
      "children" : [ 17 ],
      "translation" : [ 0.0182841, -4.76837e-08, -1.90735e-07 ],
      "rotation" : [ 1.13025e-08, -0.19078, -5.75338e-09, -0.981633 ]
    },
    {
      "name" : "L_Finger12_ftw",
      "translation" : [ -0.00359484, -0.000149946, -0.0106481 ],
      "rotation" : [ -0.699365, 0.0805186, -0.0825897, -0.705396 ]
    },
    {
      "name" : "L_Finger11_ftw",
      "translation" : [ -0.00142841, -0.000242729, -0.0121436 ],
      "rotation" : [ -0.696412, 0.0980274, -0.10214, -0.70354 ]
    },
    {
      "name" : "L_Finger10_ftw",
      "translation" : [ 0.0022366, -0.00046649, -0.0211877 ],
      "rotation" : [ -0.682524, 0.164731, -0.169389, -0.691616 ]
    },
    {
      "name" : "L_Finger2",
      "children" : [ 21, 25 ],
      "translation" : [ 0.0665343, -0.00351853, 0.00380265 ],
      "rotation" : [ 0.00280536, -0.33303, 0.0418498, -0.941983 ]
    },
    {
      "name" : "L_Finger21",
      "children" : [ 22, 24 ],
      "translation" : [ 0.0318591, -1.19209e-07, -3.8147e-08 ],
      "rotation" : [ -2.14953e-07, -0.31277, 1.25162e-07, -0.949829 ]
    },
    {
      "name" : "L_Finger22",
      "children" : [ 23 ],
      "translation" : [ 0.0204567, 1.23978e-07, -1.90735e-07 ],
      "rotation" : [ 1.79542e-08, -0.301585, 1.22009e-08, -0.953439 ]
    },
    {
      "name" : "L_Finger22_ftw",
      "translation" : [ -0.00306764, 0.000396602, -0.012779 ],
      "rotation" : [ -0.703146, 0.127628, -0.119786, -0.689164 ]
    },
    {
      "name" : "L_Finger21_ftw",
      "translation" : [ -0.0027087, 0.000398953, -0.0148806 ],
      "rotation" : [ -0.694303, 0.151917, -0.153532, -0.686508 ]
    },
    {
      "name" : "L_Finger20_ftw",
      "translation" : [ 0.00509983, -0.000405743, -0.0225704 ],
      "rotation" : [ -0.65339, 0.219362, -0.239057, -0.683969 ]
    },
    {
      "name" : "L_Finger3",
      "children" : [ 27, 31 ],
      "translation" : [ 0.0637386, 0.0114092, 0.000900431 ],
      "rotation" : [ 0.021452, -0.339427, -0.0649065, -0.938145 ]
    },
    {
      "name" : "L_Finger31",
      "children" : [ 28, 30 ],
      "translation" : [ 0.0302914, -1.19209e-07, -3.8147e-08 ],
      "rotation" : [ 0.0034824, -0.310127, -0.0131984, -0.950597 ]
    },
    {
      "name" : "L_Finger32",
      "children" : [ 29 ],
      "translation" : [ 0.0196626, 9.53674e-08, 7.62939e-08 ],
      "rotation" : [ -0.00081369, -0.316612, 0.00290503, -0.94855 ]
    },
    {
      "name" : "L_Finger32_ftw",
      "translation" : [ -0.00451911, -0.000368514, -0.0137258 ],
      "rotation" : [ -0.66968, 0.14013, -0.134113, -0.716872 ]
    },
    {
      "name" : "L_Finger31_ftw",
      "translation" : [ -0.00580093, 3.32117e-05, -0.0157693 ],
      "rotation" : [ -0.664939, 0.188954, -0.163294, -0.703909 ]
    },
    {
      "name" : "L_Finger30_ftw",
      "translation" : [ 0.00266163, -0.0021633, -0.0240077 ],
      "rotation" : [ -0.606612, 0.265567, -0.300959, -0.686236 ]
    },
    {
      "name" : "L_Finger4",
      "children" : [ 33, 37 ],
      "translation" : [ 0.0575307, 0.025979, -0.00299863 ],
      "rotation" : [ 0.0673868, -0.349038, -0.147182, -0.923022 ]
    },
    {
      "name" : "L_Finger41",
      "children" : [ 34, 36 ],
      "translation" : [ 0.0229432, -8.58307e-08, -7.62939e-08 ],
      "rotation" : [ 0.000249892, -0.282935, -0.000901415, -0.959139 ]
    },
    {
      "name" : "L_Finger42",
      "children" : [ 35 ],
      "translation" : [ 0.0138553, 6.67572e-08, -1.14441e-07 ],
      "rotation" : [ 9.11212e-09, -0.284729, -1.0633e-07, -0.958608 ]
    },
    {
      "name" : "L_Finger42_ftw",
      "translation" : [ -0.00261698, -0.000289831, -0.0114382 ],
      "rotation" : [ -0.656508, 0.144682, -0.132319, -0.728393 ]
    },
    {
      "name" : "L_Finger41_ftw",
      "translation" : [ -0.00461781, -0.000332031, -0.0160345 ],
      "rotation" : [ -0.634821, 0.240841, -0.220718, -0.700201 ]
    },
    {
      "name" : "L_Finger40_ftw",
      "translation" : [ 0.00261887, -0.000593472, -0.0229761 ],
      "rotation" : [ -0.594125, 0.345968, -0.33087, -0.646411 ]
    },
    {
      "name" : "L_ForearmTwist01",
      "translation" : [ 0.0183996, -5.72205e-08, -4.76837e-09 ],
      "rotation" : [ -0.0284437, -2.09463e-08, -1.08667e-08, -0.999595 ]
    },
    {
      "name" : "L_ForearmTwist02",
      "translation" : [ 0.0433996, -1.43051e-08, 4.76837e-09 ],
      "rotation" : [ -0.0568644, 2.05085e-09, 1.11975e-08, -0.998382 ]
    },
    {
      "name" : "L_ForearmTwist03",
      "translation" : [ 0.0683997, -2.38419e-08, -9.53674e-09 ],
      "rotation" : [ -0.085239, -7.85691e-08, -9.87472e-09, -0.996361 ]
    },
    {
      "name" : "L_ForearmTwist04",
      "translation" : [ 0.0934601, -3.8147e-08, -4.76837e-09 ],
      "rotation" : [ -0.113545, -2.87603e-08, -3.13281e-09, -0.993533 ]
    },
    {
      "name" : "L_ForearmTwist05",
      "translation" : [ 0.118714, -1.04904e-07, -9.53674e-09 ],
      "rotation" : [ -0.14035, -2.25957e-08, -9.88068e-09, -0.990102 ]
    },
    {
      "name" : "R_Clavicle",
      "children" : [ 44 ],
      "translation" : [ 0.00214969, -0.021204, 0.0015046 ],
      "rotation" : [ 0.570441, -0.789907, 0.168637, -0.149017 ]
    },
    {
      "name" : "R_UpperArm",
      "children" : [ 45 ],
      "translation" : [ 0.104212, -1.00136e-07, 5.96046e-09 ],
      "rotation" : [ -0.00539689, -0.0186994, 0.0833601, -0.996329 ]
    },
    {
      "name" : "R_Forearm",
      "children" : [ 46, 77, 78, 79, 80, 81 ],
      "translation" : [ 0.104811, 2.86102e-08, 2.86102e-08 ],
      "rotation" : [ 4.8792e-09, 0.161434, -2.881e-08, -0.986884 ]
    },
    {
      "name" : "R_Hand",
      "children" : [ 47, 53, 59, 65, 71 ],
      "translation" : [ 0.162085, 1.04904e-07, 2.86102e-08 ],
      "rotation" : [ -0.595451, -0.0316586, 0.0850952, -0.798245 ]
    },
    {
      "name" : "R_Finger0",
      "children" : [ 48, 52 ],
      "translation" : [ 0.0039225, 0.00805397, -0.0079532 ],
      "rotation" : [ 0.568629, 0.189233, -0.420309, -0.681316 ]
    },
    {
      "name" : "R_Finger01",
      "children" : [ 49, 51 ],
      "translation" : [ 0.0385583, 1.62125e-07, 2.67029e-07 ],
      "rotation" : [ -2.73838e-08, -0.212557, -3.43451e-08, -0.977149 ]
    },
    {
      "name" : "R_Finger02",
      "children" : [ 50 ],
      "translation" : [ 0.0252956, -9.53674e-08, -1.33514e-07 ],
      "rotation" : [ -9.74734e-10, -0.117443, 3.89639e-08, -0.99308 ]
    },
    {
      "name" : "R_Finger02_ftw",
      "translation" : [ -0.00312519, -0.000389328, -0.0119717 ],
      "rotation" : [ -0.0474759, 0.12786, -0.0139908, -0.990557 ]
    },
    {
      "name" : "R_Finger01_ftw",
      "translation" : [ -0.00925392, -0.000341129, -0.0202348 ],
      "rotation" : [ -0.0531018, 0.156114, -0.00759472, -0.986281 ]
    },
    {
      "name" : "R_Finger00_ftw",
      "translation" : [ 0.0024966, -0.000807352, -0.0165525 ],
      "rotation" : [ -0.992767, -0.00644013, -0.0525146, -0.107772 ]
    },
    {
      "name" : "R_Finger1",
      "children" : [ 54, 58 ],
      "translation" : [ 0.0618532, 0.0187765, 0.00337538 ],
      "rotation" : [ 0.0265025, -0.232991, -0.155221, -0.959645 ]
    },
    {
      "name" : "R_Finger11",
      "children" : [ 55, 57 ],
      "translation" : [ 0.0298816, 8.58307e-08, -9.53674e-09 ],
      "rotation" : [ 2.4978e-07, -0.22383, -2.10267e-08, -0.974628 ]
    },
    {
      "name" : "R_Finger12",
      "children" : [ 56 ],
      "translation" : [ 0.0182841, -4.76837e-08, -0 ],
      "rotation" : [ 1.27409e-08, -0.19078, 1.30534e-08, -0.981633 ]
    },
    {
      "name" : "R_Finger12_ftw",
      "translation" : [ -0.00359119, -0.000107784, -0.0106568 ],
      "rotation" : [ -0.697923, 0.0776136, -0.0867903, -0.706645 ]
    },
    {
      "name" : "R_Finger11_ftw",
      "translation" : [ -0.00142265, -0.000247698, -0.0121381 ],
      "rotation" : [ -0.695984, 0.0964495, -0.103047, -0.704049 ]
    },
    {
      "name" : "R_Finger10_ftw",
      "translation" : [ 0.00227219, 0.000137949, -0.0210998 ],
      "rotation" : [ -0.65713, 0.178766, -0.152641, -0.716187 ]
    },
    {
      "name" : "R_Finger2",
      "children" : [ 60, 64 ],
      "translation" : [ 0.0665344, 0.00351815, 0.00380285 ],
      "rotation" : [ -0.00280523, -0.33303, -0.0418501, -0.941983 ]
    },
    {
      "name" : "R_Finger21",
      "children" : [ 61, 63 ],
      "translation" : [ 0.031859, -7.15256e-09, -7.62939e-08 ],
      "rotation" : [ -4.19125e-08, -0.312769, 1.01643e-07, -0.949829 ]
    },
    {
      "name" : "R_Finger22",
      "children" : [ 62 ],
      "translation" : [ 0.0204568, 0, 1.14441e-07 ],
      "rotation" : [ -7.73447e-08, -0.301585, -1.91646e-07, -0.953439 ]
    },
    {
      "name" : "R_Finger22_ftw",
      "translation" : [ -0.00306345, -0.0001721, -0.012777 ],
      "rotation" : [ -0.697611, 0.118719, -0.128729, -0.694747 ]
    },
    {
      "name" : "R_Finger21_ftw",
      "translation" : [ -0.00270946, -4.21786e-05, -0.0148815 ],
      "rotation" : [ -0.695671, 0.154737, -0.150659, -0.685128 ]
    },
    {
      "name" : "R_Finger20_ftw",
      "translation" : [ 0.00491344, -0.000122266, -0.0225579 ],
      "rotation" : [ -0.632617, 0.237502, -0.216013, -0.704789 ]
    },
    {
      "name" : "R_Finger3",
      "children" : [ 66, 70 ],
      "translation" : [ 0.0637387, -0.0114093, 0.00090065 ],
      "rotation" : [ -0.021452, -0.339427, 0.0649066, -0.938145 ]
    },
    {
      "name" : "R_Finger31",
      "children" : [ 67, 69 ],
      "translation" : [ 0.0302914, 1.43051e-08, 9.53674e-08 ],
      "rotation" : [ -0.00348236, -0.310127, 0.0131983, -0.950597 ]
    },
    {
      "name" : "R_Finger32",
      "children" : [ 68 ],
      "translation" : [ 0.0196626, 0, -2.67029e-07 ],
      "rotation" : [ 0.000813662, -0.316612, -0.00290494, -0.94855 ]
    },
    {
      "name" : "R_Finger32_ftw",
      "translation" : [ -0.00472992, 0.000254788, -0.0137071 ],
      "rotation" : [ -0.671518, 0.138261, -0.127944, -0.716644 ]
    },
    {
      "name" : "R_Finger31_ftw",
      "translation" : [ -0.00595009, 0.000425105, -0.0156597 ],
      "rotation" : [ -0.665612, 0.187377, -0.166428, -0.702959 ]
    },
    {
      "name" : "R_Finger30_ftw",
      "translation" : [ 0.00249081, 0.00101889, -0.0240241 ],
      "rotation" : [ -0.631458, 0.294356, -0.271563, -0.663979 ]
    },
    {
      "name" : "R_Finger4",
      "children" : [ 72, 76 ],
      "translation" : [ 0.057531, -0.0259792, -0.0029985 ],
      "rotation" : [ -0.0673868, -0.349038, 0.147182, -0.923022 ]
    },
    {
      "name" : "R_Finger41",
      "children" : [ 73, 75 ],
      "translation" : [ 0.0229432, 1.81198e-07, -5.72205e-08 ],
      "rotation" : [ -0.00024983, -0.282935, 0.000901496, -0.959139 ]
    },
    {
      "name" : "R_Finger42",
      "children" : [ 74 ],
      "translation" : [ 0.0138553, -9.53674e-08, -1.90735e-07 ],
      "rotation" : [ -1.3076e-07, -0.284729, 6.97997e-08, -0.958608 ]
    },
    {
      "name" : "R_Finger42_ftw",
      "translation" : [ -0.00279387, 0.000218105, -0.0112436 ],
      "rotation" : [ -0.658004, 0.139717, -0.126973, -0.728963 ]
    },
    {
      "name" : "R_Finger41_ftw",
      "translation" : [ -0.00445267, 0.000212755, -0.0162257 ],
      "rotation" : [ -0.631228, 0.254733, -0.231658, -0.69498 ]
    },
    {
      "name" : "R_Finger40_ftw",
      "translation" : [ 0.00191479, -0.00037631, -0.0225608 ],
      "rotation" : [ -0.616935, 0.307254, -0.326409, -0.646871 ]
    },
    {
      "name" : "R_ForearmTwist01",
      "translation" : [ 0.0183996, -2.38419e-08, -1.43051e-08 ],
      "rotation" : [ 0.0284437, -4.1692e-08, 1.06141e-07, -0.999595 ]
    },
    {
      "name" : "R_ForearmTwist02",
      "translation" : [ 0.0433996, -7.15256e-08, 9.53674e-09 ],
      "rotation" : [ 0.0568643, -2.77267e-08, 1.10844e-07, -0.998382 ]
    },
    {
      "name" : "R_ForearmTwist03",
      "translation" : [ 0.0683996, -6.19888e-08, -4.76837e-09 ],
      "rotation" : [ 0.0852389, -7.28247e-08, 1.05755e-07, -0.996361 ]
    },
    {
      "name" : "R_ForearmTwist04",
      "translation" : [ 0.0939496, -5.24521e-08, -1.90735e-08 ],
      "rotation" : [ 0.113545, -1.90611e-08, 8.793e-08, -0.993533 ]
    },
    {
      "name" : "R_ForearmTwist05",
      "translation" : [ 0.119138, -8.58307e-08, -1.90735e-08 ],
      "rotation" : [ 0.14035, -6.75299e-08, 9.73551e-08, -0.990102 ]
    },
    {
      "name" : "Prop2",
      "translation" : [ -0.414181, -0.0144965, -0.00571566 ],
      "rotation" : [ -0.0705724, -0.723229, 0.685669, -0.0426292 ]
    },
    {
      "name" : "Prop1",
      "children" : [ 84 ],
      "translation" : [ 0.41418, -0.0144982, -0.00571304 ],
      "rotation" : [ 0.686229, -0.0406618, -0.0674561, -0.723109 ]
    },
    {
      "name" : "R_WEP_root",
      "children" : [ 85 ],
      "translation" : [ 0, 0, -0 ],
      "rotation" : [ 3.63216e-08, 2.79397e-09, -2.02563e-08, -1 ]
    },
    {
      "name" : "R_WEP_CoM",
      "children" : [ 86 ],
      "translation" : [ 0.133636, 0.0650052, -3.8147e-08 ],
      "rotation" : [ -9.31323e-10, -9.31323e-10, -8.14907e-10, -1 ]
    },
    {
      "name" : "R_WEP_base",
      "children" : [ 87, 89, 91, 93, 95, 97, 101, 105 ],
      "translation" : [ -0.133636, -0.0650052, 3.8147e-08 ],
      "rotation" : [ -9.31323e-10, -9.31323e-10, -8.14907e-10, -1 ]
    },
    {
      "name" : "R_WEP_trigger_pt",
      "children" : [ 88 ],
      "translation" : [ 0.0576484, 0.0243329, -1.90735e-08 ],
      "rotation" : [ -9.31323e-10, -9.31323e-10, -8.14907e-10, -1 ]
    },
    {
      "name" : "R_WEP_trigger_ex",
      "translation" : [ 0, 0, -0 ],
      "rotation" : [ -9.31323e-10, -9.31323e-10, -8.14907e-10, -1 ]
    },
    {
      "name" : "R_WEP_ring_pt",
      "children" : [ 90 ],
      "translation" : [ 0.0900628, 0.0969981, -0.0156007 ],
      "rotation" : [ -9.31323e-10, -9.31323e-10, -8.14907e-10, -1 ]
    },
    {
      "name" : "R_WEP_ring_ex",
      "translation" : [ 0, 0, -0 ],
      "rotation" : [ -9.31323e-10, -9.31323e-10, -8.14907e-10, -1 ]
    },
    {
      "name" : "R_WEP_chargeCylinder_pt",
      "children" : [ 92 ],
      "translation" : [ 0.0161423, 0.0650041, -9.53674e-09 ],
      "rotation" : [ -9.31323e-10, -9.31323e-10, -8.14907e-10, -1 ]
    },
    {
      "name" : "R_WEP_chargeCylinder_ex",
      "translation" : [ 0, 0, -0 ],
      "rotation" : [ -9.31323e-10, -9.31323e-10, -8.14907e-10, -1 ]
    },
    {
      "name" : "R_WEP_rotor_pt",
      "children" : [ 94 ],
      "translation" : [ 0.20689, 0.0650056, 2.86102e-08 ],
      "rotation" : [ -9.31323e-10, -9.31323e-10, -8.14907e-10, -1 ]
    },
    {
      "name" : "R_WEP_rotor_ex",
      "translation" : [ 0, 0, -0 ],
      "rotation" : [ -9.31323e-10, -9.31323e-10, -8.14907e-10, -1 ]
    },
    {
      "name" : "R_WEP_barrel_pt",
      "children" : [ 96 ],
      "translation" : [ 0.28713, 0.0650063, -7.62939e-08 ],
      "rotation" : [ -9.31323e-10, -9.31323e-10, -8.14907e-10, -1 ]
    },
    {
      "name" : "R_WEP_barrel_ex",
      "translation" : [ 0, 0, -0 ],
      "rotation" : [ -9.31323e-10, -9.31323e-10, -8.14907e-10, -1 ]
    },
    {
      "name" : "R_WEP_rotorCoverBaseL_pt",
      "children" : [ 98 ],
      "translation" : [ 0.255098, 0.0650057, -0.0220071 ],
      "rotation" : [ -9.31323e-10, -9.31323e-10, -8.14907e-10, -1 ]
    },
    {
      "name" : "R_WEP_rotorCoverBaseL_ex",
      "children" : [ 99 ],
      "translation" : [ 0, 0, -0 ],
      "rotation" : [ -9.31323e-10, -9.31323e-10, -8.14907e-10, -1 ]
    },
    {
      "name" : "R_WEP_rotorCoverEndL_pt",
      "children" : [ 100 ],
      "translation" : [ -0.0238215, -1.65701e-07, -0.00480949 ],
      "rotation" : [ -9.31323e-10, -9.31323e-10, -8.14907e-10, -1 ]
    },
    {
      "name" : "R_WEP_rotorCoverEndL_ex",
      "translation" : [ 0, 0, -0 ],
      "rotation" : [ -9.31323e-10, -9.31323e-10, -8.14907e-10, -1 ]
    },
    {
      "name" : "R_WEP_rotorCoverBaseT_pt",
      "children" : [ 102 ],
      "translation" : [ 0.255098, 0.0870127, -5.72205e-08 ],
      "rotation" : [ -0.707107, 3.65081e-08, -5.63879e-09, -0.707107 ]
    },
    {
      "name" : "R_WEP_rotorCoverBaseT_ex",
      "children" : [ 103 ],
      "translation" : [ 0, 0, -0 ],
      "rotation" : [ 9.31323e-10, -3.66708e-09, -3.25261e-19, -1 ]
    },
    {
      "name" : "R_WEP_rotorCoverEndT_pt",
      "children" : [ 104 ],
      "translation" : [ -0.0238215, -9.53674e-09, -0.00480933 ],
      "rotation" : [ 1.86265e-09, -3.72529e-09, -9.31323e-10, -1 ]
    },
    {
      "name" : "R_WEP_rotorCoverEndT_ex",
      "translation" : [ 0, 0, -0 ],
      "rotation" : [ 3.72529e-09, -3.89991e-09, -3.72529e-09, -1 ]
    },
    {
      "name" : "R_WEP_rotorCoverBaseR_pt",
      "children" : [ 106 ],
      "translation" : [ 0.255098, 0.0650057, 0.0220069 ],
      "rotation" : [ -2.17115e-08, -1, -6.23986e-08, -5.7742e-08 ]
    },
    {
      "name" : "R_WEP_rotorCoverBaseR_ex",
      "children" : [ 107 ],
      "translation" : [ 0, 0, -0 ],
      "rotation" : [ -9.31323e-10, 9.31323e-10, 4.01633e-09, -1 ]
    },
    {
      "name" : "R_WEP_rotorCoverEndR_pt",
      "children" : [ 108 ],
      "translation" : [ 0.0238214, -1.8239e-07, -0.00480952 ],
      "rotation" : [ -9.31323e-10, 9.31323e-10, 4.01633e-09, -1 ]
    },
    {
      "name" : "R_WEP_rotorCoverEndR_ex",
      "translation" : [ 0, 0, -0 ],
      "rotation" : [ -9.31323e-10, 9.31323e-10, 4.01633e-09, -1 ]
    }
  ],
  "skins" : [
    {
      "inverseBindMatrices" : 0,
      "skeleton" : 1,
      "joints" : [
        1,2,3,4,5,6,7,8,9,10,11,12,13,14,15,16,17,18,19,20,21,22,23,24,25,26,27,28,29,30,31,32,
        33,34,35,36,37,38,39,40,41,42,43,44,45,46,47,48,49,50,51,52,53,54,55,56,57,58,59,60,61,62,63,64,
        65,66,67,68,69,70,71,72,73,74,75,76,77,78,79,80,81,82,83,84,85,86,87,88,89,90,91,92,93,94,95,96,
        97,98,99,100,101,102,103,104,105,106,107,108
      ]
    }
  ],
  "materials" : [
    {
      "name" : "2048_shocklance_dDo_d_Mat",
      "pbrMetallicRoughness" : {
        "baseColorFactor" : [ 0.3, 0.3, 0.3, 1.0 ],
        "metallicFactor" : 0.1,
        "roughnessFactor" : 0.5
      }
    }
  ],
  "meshes" : [
    {
      "primitives" : [
        {
          "attributes" : {
            "POSITION" : 2,
            "NORMAL" : 3,
            "TANGENT" : 4,
            "JOINTS_0" : 5,
            "WEIGHTS_0" : 6,
            "TEXCOORD_0" : 7
          },
          "indices" : 1,
          "material" : 0
        }
      ],
      "name" : "SKL_WEP_ShockLance_1p"
    }
  ],
  "buffers" : [
    {
      "uri" : "SKL_WEP_ShockLance_1p.bin",
      "byteLength" : 443948
    }
  ],
  "bufferViews" : [
    {
      "buffer" : 0,
      "byteOffset" : 0,
      "byteLength" : 6912
    },
    {
      "buffer" : 0,
      "byteOffset" : 6912,
      "byteLength" : 47036
    },
    {
      "buffer" : 0,
      "byteOffset" : 53948,
      "byteLength" : 78000
    },
    {
      "buffer" : 0,
      "byteOffset" : 131948,
      "byteLength" : 78000
    },
    {
      "buffer" : 0,
      "byteOffset" : 209948,
      "byteLength" : 104000
    },
    {
      "buffer" : 0,
      "byteOffset" : 313948,
      "byteLength" : 52000
    },
    {
      "buffer" : 0,
      "byteOffset" : 365948,
      "byteLength" : 26000
    },
    {
      "buffer" : 0,
      "byteOffset" : 391948,
      "byteLength" : 52000
    }
  ],
  "accessors" : [
    {
      "bufferView" : 0,
      "componentType" : 5126,
      "count" : 108,
      "type" : "MAT4"
    },
    {
      "bufferView" : 1,
      "componentType" : 5123,
      "count" : 23517,
      "type" : "SCALAR"
    },
    {
      "bufferView" : 2,
      "min" : [ -0.023596, -0.173346, 0.389508 ],
      "max" : [ 0.16231, -0.089212, 0.727791 ],
      "componentType" : 5126,
      "count" : 6500,
      "type" : "VEC3"
    },
    {
      "bufferView" : 3,
      "componentType" : 5126,
      "count" : 6500,
      "type" : "VEC3"
    },
    {
      "bufferView" : 4,
      "componentType" : 5126,
      "count" : 6500,
      "type" : "VEC4"
    },
    {
      "bufferView" : 5,
      "componentType" : 5123,
      "count" : 6500,
      "type" : "VEC4"
    },
    {
      "bufferView" : 6,
      "normalized" : true,
      "componentType" : 5121,
      "count" : 6500,
      "type" : "VEC4"
    },
    {
      "bufferView" : 7,
      "componentType" : 5126,
      "count" : 6500,
      "type" : "VEC2"
    }
  ]
}
